<svg class="svg-icon" style="width: 1em; height: 1em;vertical-align: middle;fill: currentColor;overflow: hidden;" viewBox="0 0 1024 1024" version="1.1" xmlns="http://www.w3.org/2000/svg"><path d="M972.8 512c0 147.456-10.24 289.792-30.72 422.912-1.024 9.216-8.192 15.36-17.408 17.408-95.232 13.312-194.56 20.48-294.912 20.48s-199.68-7.168-294.912-20.48c-10.24-1.024-17.408-10.24-17.408-20.48V766.976c0-11.264 9.216-20.48 20.48-20.48s20.48 9.216 20.48 20.48v147.456c88.064 12.288 179.2 17.408 271.36 17.408 93.184 0 185.344-6.144 273.408-18.432C922.624 786.432 931.84 651.264 931.84 512s-9.216-274.432-28.672-401.408C815.104 98.304 722.944 92.16 629.76 92.16c-92.16 0-183.296 6.144-271.36 17.408v147.456c0 11.264-9.216 20.48-20.48 20.48s-20.48-9.216-20.48-20.48V92.16c0-10.24 7.168-18.432 17.408-20.48 95.232-13.312 194.56-20.48 294.912-20.48s199.68 7.168 294.912 20.48c9.216 1.024 16.384 8.192 17.408 17.408 20.48 133.12 30.72 275.456 30.72 422.912z m-478.208 97.28c-8.192 8.192-8.192 20.48 0 28.672 4.096 4.096 9.216 6.144 14.336 6.144s10.24-2.048 14.336-6.144c24.576-24.576 55.296-62.464 91.136-111.616 5.12-7.168 5.12-17.408 0-24.576-41.984-55.296-69.632-90.112-91.136-110.592-8.192-8.192-20.48-8.192-28.672 0s-8.192 20.48 0 28.672c14.336 14.336 33.792 37.888 60.416 71.68H71.68c-11.264 0-20.48 9.216-20.48 20.48s9.216 20.48 20.48 20.48h487.424c-24.576 32.768-47.104 58.368-64.512 76.8z"  /></svg>