<svg xmlns="http://www.w3.org/2000/svg" xmlns:xlink="http://www.w3.org/1999/xlink" xmlns:lucid="lucid" width="1264" height="1442"><g transform="translate(-229 -208)" lucid:page-tab-id="0_0"><path d="M0 0h1812v1838.06H0z" fill="#fff"/><path d="M1026.87 260.86A22 22 0 0 0 1041 266h361a8 8 0 0 1 8 8v1338a8 8 0 0 1-8 8H398a8 8 0 0 1-8-8V248a8 8 0 0 1 8-8h596a22 22 0 0 1 14.13 5.14zM390 266h643" stroke="#333" fill="#fff"/><use xlink:href="#a" transform="matrix(1,0,0,1,398,240) translate(251.04382716049383 17.955555555555552)"/><path d="M1004.14 1000.56A20.37 20.37 0 0 0 1018 1006h324a8 8 0 0 1 8 8v578a8 8 0 0 1-8 8H438a8 8 0 0 1-8-8V988a8 8 0 0 1 8-8h536a20.37 20.37 0 0 1 13.86 5.44zM430 1006h580" stroke="#333" fill="#fff"/><use xlink:href="#b" transform="matrix(1,0,0,1,438,980) translate(181.8283950617284 17.955555555555552)"/><path d="M1007.24 314.45A19.84 19.84 0 0 0 1021 320h321a8 8 0 0 1 8 8v578a8 8 0 0 1-8 8H448a8 8 0 0 1-8-8V302a8 8 0 0 1 8-8h530a19.84 19.84 0 0 1 13.76 5.55zM440 320h573" stroke="#333" fill="#fff"/><use xlink:href="#c" transform="matrix(1,0,0,1,448,294.00000000009095) translate(213.0561728395062 17.955555555555552)"/><path d="M920 348a8 8 0 0 1 8-8h344a8 8 0 0 1 8 8v110a8 8 0 0 1-8 8H928a8 8 0 0 1-8-8z" stroke="#333" fill="#fff"/><path d="M920 382.93h360" stroke="#333" fill="none"/><use xlink:href="#d" transform="matrix(1,0,0,1,928,348) translate(77.39043209876546 17.988888888888887)"/><path d="M453.15 117.16a8 8 0 0 1 8-8h837.7a8 8 0 0 1 8 8V120a8 8 0 0 1-8 8h-837.7a8 8 0 0 1-8-8z" stroke="#000" stroke-opacity="0" stroke-width="2" fill="#fff" fill-opacity="0"/><use xlink:href="#e" transform="matrix(1,0,0,1,457.1465527853434,113.15522395684805) translate(270.5852057613169 14.917037037037037)"/><use xlink:href="#f" transform="matrix(1,0,0,1,457.1465527853434,113.15522395684805) translate(310.6530041152264 14.917037037037037)"/><use xlink:href="#g" transform="matrix(1,0,0,1,457.1465527853434,113.15522395684805) translate(383.4803703703704 14.917037037037037)"/><use xlink:href="#h" transform="matrix(1,0,0,1,457.1465527853434,113.15522395684805) translate(463.44600823045266 14.917037037037037)"/><use xlink:href="#i" transform="matrix(1,0,0,1,457.1465527853434,113.15522395684805) translate(475.8954938271605 14.917037037037037)"/><use xlink:href="#j" transform="matrix(1,0,0,1,457.1465527853434,113.15522395684805) translate(522.5491975308641 14.917037037037037)"/><use xlink:href="#k" transform="matrix(1,0,0,1,457.1465527853434,113.15522395684805) translate(548.043024691358 14.917037037037037)"/><path d="M1143.88 1438.63A12.07 12.07 0 0 0 1155 1446h117a8 8 0 0 1 8 8v78a8 8 0 0 1-8 8H928a8 8 0 0 1-8-8v-104a8 8 0 0 1 8-8h200a12.07 12.07 0 0 1 11.12 7.37zM920 1446h227" stroke="#333" fill="#fff"/><use xlink:href="#l" transform="matrix(1,0,0,1,928,1420) translate(35.057098765432116 17.955555555555552)"/><path d="M460 748a8 8 0 0 1 8-8h344a8 8 0 0 1 8 8v115a8 8 0 0 1-8 8H468a8 8 0 0 1-8-8z" stroke="#333" fill="#fff"/><path d="M460 782.93h360" stroke="#333" fill="none"/><use xlink:href="#m" transform="matrix(1,0,0,1,468,748) translate(69.22314814814817 17.988888888888887)"/><path d="M1143.88 1258.63A12.07 12.07 0 0 0 1155 1266h117a8 8 0 0 1 8 8v78a8 8 0 0 1-8 8H928a8 8 0 0 1-8-8v-104a8 8 0 0 1 8-8h200a12.07 12.07 0 0 1 11.12 7.37zM920 1266h227" stroke="#333" fill="#fff"/><use xlink:href="#n" transform="matrix(1,0,0,1,928,1240) translate(30.69290123456794 17.95555555555555)"/><path d="M683.88 1058.63A12.07 12.07 0 0 0 695 1066h117a8 8 0 0 1 8 8v78a8 8 0 0 1-8 8H468a8 8 0 0 1-8-8v-104a8 8 0 0 1 8-8h200a12.07 12.07 0 0 1 11.12 7.37zM460 1066h227" stroke="#333" fill="#fff"/><use xlink:href="#o" transform="matrix(1,0,0,1,468,1040) translate(27.513271604938296 17.955555555555552)"/><path d="M1143.88 1058.63A12.07 12.07 0 0 0 1155 1066h117a8 8 0 0 1 8 8v78a8 8 0 0 1-8 8H928a8 8 0 0 1-8-8v-104a8 8 0 0 1 8-8h200a12.07 12.07 0 0 1 11.12 7.37zM920 1066h227" stroke="#333" fill="#fff"/><use xlink:href="#p" transform="matrix(1,0,0,1,928,1040) translate(35.02592592592595 17.955555555555552)"/><path d="M683.88 1438.63A12.07 12.07 0 0 0 695 1446h117a8 8 0 0 1 8 8v78a8 8 0 0 1-8 8H468a8 8 0 0 1-8-8v-104a8 8 0 0 1 8-8h200a12.07 12.07 0 0 1 11.12 7.37zM460 1446h227" stroke="#333" fill="#fff"/><use xlink:href="#q" transform="matrix(1,0,0,1,468,1420) translate(35.61820987654323 17.955555555555552)"/><path d="M920 548a8 8 0 0 1 8-8h344a8 8 0 0 1 8 8v110a8 8 0 0 1-8 8H928a8 8 0 0 1-8-8z" stroke="#333" fill="#fff"/><path d="M920 582.93h360" stroke="#333" fill="none"/><use xlink:href="#r" transform="matrix(1,0,0,1,928,548) translate(74.80308641975309 17.988888888888887)"/><path d="M460 348a8 8 0 0 1 8-8h344a8 8 0 0 1 8 8v110a8 8 0 0 1-8 8H468a8 8 0 0 1-8-8z" stroke="#333" fill="#fff"/><path d="M460 382.93h360" stroke="#333" fill="none"/><use xlink:href="#s" transform="matrix(1,0,0,1,468,348) translate(81.22469135802471 17.988888888888887)"/><path d="M460 548a8 8 0 0 1 8-8h344a8 8 0 0 1 8 8v110a8 8 0 0 1-8 8H468a8 8 0 0 1-8-8z" stroke="#333" fill="#fff"/><path d="M460 582.93h360" stroke="#333" fill="none"/><use xlink:href="#t" transform="matrix(1,0,0,1,468,548) translate(56.255246913580265 17.988888888888887)"/><path d="M920 748a8 8 0 0 1 8-8h344a8 8 0 0 1 8 8v110a8 8 0 0 1-8 8H928a8 8 0 0 1-8-8z" stroke="#333" fill="#fff"/><path d="M920 782.93h360" stroke="#333" fill="none"/><use xlink:href="#u" transform="matrix(1,0,0,1,928,748) translate(77.88919753086424 17.988888888888887)"/><path d="M683.88 1258.63A12.07 12.07 0 0 0 695 1266h117a8 8 0 0 1 8 8v78a8 8 0 0 1-8 8H468a8 8 0 0 1-8-8v-104a8 8 0 0 1 8-8h200a12.07 12.07 0 0 1 11.12 7.37zM460 1266h227" stroke="#333" fill="#fff"/><use xlink:href="#v" transform="matrix(1,0,0,1,468,1240) translate(13.890740740740739 17.955555555555552)"/><path d="M459 1100h-9.17m-9.16 0h-9.17l-1.88-.15-1.83-.44-1.75-.7-1.6-1-1.44-1.22-1.2-1.43-1-1.6-.7-1.74-.45-1.82-.15-1.88v-10.02m0-10.02v-20.03m0-10.02v-20.03m0-10.02v-20.03m0-10.02v-20.04m0-10.02V927.7m0-10.02v-20.03m0-10.02V867.6m0-10.03v-20.03m0-10.02V817.5l.15-1.88.44-1.83.7-1.75 1-1.6L423 809l1.45-1.2 1.6-1 1.74-.7 1.82-.45 1.88-.15h11.62" stroke="#333" fill="none"/><path d="M459.5 1100.47h-.5v-.94h.5z" stroke="#333" stroke-width=".05" fill="#333"/><path d="M457.88 805.5l-14.26 4.63v-9.26z" stroke="#333" fill="#333"/><path d="M459 1300h-8.92m-8.9 0h-17.85m-8.9 0h-17.85m-8.9 0h-17.85m-8.9 0H352l-1.88-.15-1.83-.44-1.75-.7-1.6-1-1.44-1.22-1.2-1.43-1-1.6-.7-1.74-.45-1.82-.15-1.88v-10.2m0-10.2v-20.4m0-10.18v-20.4m0-10.2v-20.4m0-10.2v-20.38m0-10.2v-20.4m0-10.2v-20.38m0-10.2v-20.4m0-10.2v-20.38m0-10.2v-20.4m0-10.2v-20.4m0-10.18v-20.4m0-10.2v-20.4m0-10.2v-20.38m0-10.2v-20.4m0-10.2v-20.38m0-10.2v-20.4m0-10.2v-20.38m0-10.2v-20.4m0-10.2V696.6m0-10.2v-20.4m0-10.2v-20.4m0-10.18V615l.15-1.88.44-1.83.7-1.75 1-1.6 1.2-1.44 1.45-1.2 1.6-1 1.74-.7 1.82-.45L352 603h10.12m10.13 0h20.25m10.12 0h20.25m10.12 0h10.12" stroke="#333" fill="none"/><path d="M459.5 1300.47h-.5v-.94h.5z" stroke="#333" stroke-width=".05" fill="#333"/><path d="M457.88 603l-14.26 4.63v-9.26z" stroke="#333" fill="#333"/><path d="M459 1480h-9.28m-9.28 0H421.9m-9.3 0h-18.54m-9.28 0h-18.56m-9.28 0H338.4m-9.3 0h-18.54m-9.28 0H292l-1.88-.15-1.83-.44-1.75-.7-1.6-1-1.44-1.22-1.2-1.43-1-1.6-.7-1.74-.45-1.82-.15-1.88v-10.03m0-10.03v-20.05m0-10.04v-20.06m0-10.03v-20.06m0-10v-20.07m0-10.03v-20.06m0-10.03v-20.04m0-10.03v-20.06m0-10.03v-20.05m0-10.04v-20.06m0-10.03v-20.06m0-10v-20.07m0-10.03v-20.06m0-10.03v-20.04m0-10.03v-20.06m0-10.03v-20.05m0-10.04V976.6m0-10.03V946.5m0-10v-20.07m0-10.03v-20.06m0-10.03v-20.04m0-10.03v-20.06m0-10.03V796.1m0-10.04V766m0-10.03V735.9m0-10v-20.07m0-10.03v-20.06m0-10.03v-20.04m0-10.03v-20.06m0-10.03V585.5m0-10.04V555.4m0-10.03V525.3m0-10v-20.07m0-10.03v-20.06m0-10.03v-20.04m0-10.03V415l.15-1.88.44-1.83.7-1.75 1-1.6 1.2-1.44 1.45-1.2 1.6-1 1.74-.7 1.82-.45L292 403h10.07m10.08 0h20.15m10.07 0h20.15m10.08 0h20.14m10.08 0h20.15m10.07 0h10.08" stroke="#333" fill="none"/><path d="M459.5 1480.47h-.5v-.94h.5z" stroke="#333" stroke-width=".05" fill="#333"/><path d="M457.88 403l-14.26 4.63v-9.26z" stroke="#333" fill="#333"/><path d="M1281 1100h9.17m9.16 0h9.17l1.88-.15 1.83-.44 1.75-.7 1.6-1 1.43-1.22 1.23-1.43 1-1.6.7-1.74.45-1.82.15-1.88v-10.1m0-10.12v-20.22m0-10.12v-20.22m0-10.1v-20.23m0-10.12v-20.22m0-10.12v-20.22m0-10.1v-20.23m0-10.12v-20.22m0-10.12v-20.22m0-10.1V815l-.15-1.88-.44-1.83-.7-1.75-1-1.6-1.22-1.44-1.43-1.2-1.6-1-1.74-.7-1.82-.45-1.88-.15h-11.62" stroke="#333" fill="none"/><path d="M1281 1100.47h-.5v-.94h.5z" stroke="#333" stroke-width=".05" fill="#333"/><path d="M1282.12 803l14.26-4.63v9.26z" stroke="#333" fill="#333"/><path d="M1281 1300h9.67m9.66 0h19.34m9.66 0h19.34m9.66 0h9.67l1.88-.15 1.83-.44 1.75-.7 1.6-1 1.43-1.22 1.23-1.43 1-1.6.7-1.74.45-1.82.15-1.88v-10.02m0-10.02v-20.03m0-10.02v-20.02m0-10.02v-20.03m0-10.02v-20.03m0-10v-20.05m0-10.02v-20.03m0-10.02v-20.03m0-10.02v-20.03m0-10.02v-20.04m0-10v-20.04m0-10.02V947.4m0-10v-20.04m0-10.02V887.3m0-10v-20.05m0-10V827.2m0-10.02v-20.03m0-10.02V767.1m0-10.02v-20.04m0-10v-20.05m0-10.03v-20.03m0-10.02V646.9m0-10.03v-20.03m0-10.02V596.8l-.15-1.88-.44-1.83-.7-1.75-1-1.6-1.22-1.43-1.43-1.23-1.6-1-1.74-.7-1.82-.45-1.88-.15h-11.85m-11.86 0h-23.7m-11.86 0h-11.86" stroke="#333" fill="none"/><path d="M1281 1300.47h-.5v-.94h.5z" stroke="#333" stroke-width=".05" fill="#333"/><path d="M1282.12 584.8l14.26-4.63v9.26z" stroke="#333" fill="#333"/><path d="M1281 1480h10.47m10.46 0h20.94m10.46 0h20.94m10.46 0h20.94m10.46 0h20.94m10.46 0H1438l1.88-.15 1.83-.44 1.75-.7 1.6-1 1.43-1.22 1.23-1.43 1-1.6.7-1.74.45-1.82.15-1.88v-9.92m0-9.92v-19.83m0-9.92v-19.83m0-9.92v-19.84m0-9.9v-19.84m0-9.92v-19.84m0-9.9v-19.85m0-9.92v-19.84m0-9.93v-19.83m0-9.92v-19.84m0-9.92v-19.83m0-9.92v-19.83m0-9.92v-19.83m0-9.92v-19.84m0-9.92v-19.84m0-9.9v-19.85m0-9.92V982m0-9.93v-19.83m0-9.92v-19.84m0-9.92v-19.83m0-9.92v-19.83m0-9.92v-19.83m0-9.92v-19.84m0-9.92V773.7m0-9.92v-19.83m0-9.92V714.2m0-9.93v-19.83m0-9.92v-19.84m0-9.92v-19.83m0-9.92v-19.83m0-9.92V565.4m0-9.9v-19.84m0-9.92V505.9m0-9.9v-19.85m0-9.92V446.4m0-9.93v-19.83m0-9.92v-9.92l-.15-1.88-.44-1.83-.7-1.75-1-1.6-1.22-1.44-1.43-1.2-1.6-1-1.74-.7-1.82-.45-1.88-.15h-9.4m-9.4 0h-18.83m-9.4 0h-18.82m-9.4 0h-18.83m-9.4 0h-18.82m-9.4 0h-9.42" stroke="#333" fill="none"/><path d="M1281 1480.47h-.5v-.94h.5z" stroke="#333" stroke-width=".05" fill="#333"/><path d="M1282.12 384.8l14.26-4.63v9.26z" stroke="#333" fill="#333"/><defs><path d="M185-189c-5-48-123-54-124 2 14 75 158 14 163 119 3 78-121 87-175 55-17-10-28-26-33-46l33-7c5 56 141 63 141-1 0-78-155-14-162-118-5-82 145-84 179-34 5 7 8 16 11 25" id="w"/><path d="M100-194c63 0 86 42 84 106H49c0 40 14 67 53 68 26 1 43-12 49-29l28 8c-11 28-37 45-77 45C44 4 14-33 15-96c1-61 26-98 85-98zm52 81c6-60-76-77-97-28-3 7-6 17-6 28h103" id="x"/><path d="M114-163C36-179 61-72 57 0H25l-1-190h30c1 12-1 29 2 39 6-27 23-49 58-41v29" id="y"/><path d="M108 0H70L1-190h34L89-25l56-165h34" id="z"/><path d="M24-231v-30h32v30H24zM24 0v-190h32V0H24" id="A"/><path d="M96-169c-40 0-48 33-48 73s9 75 48 75c24 0 41-14 43-38l32 2c-6 37-31 61-74 61-59 0-76-41-82-99-10-93 101-131 147-64 4 7 5 14 7 22l-32 3c-4-21-16-35-41-35" id="B"/><path d="M135-143c-3-34-86-38-87 0 15 53 115 12 119 90S17 21 10-45l28-5c4 36 97 45 98 0-10-56-113-15-118-90-4-57 82-63 122-42 12 7 21 19 24 35" id="C"/><g id="a"><use transform="matrix(0.06234567901234567,0,0,0.06234567901234567,0,0)" xlink:href="#w"/><use transform="matrix(0.06234567901234567,0,0,0.06234567901234567,14.96296296296296,0)" xlink:href="#x"/><use transform="matrix(0.06234567901234567,0,0,0.06234567901234567,27.432098765432094,0)" xlink:href="#y"/><use transform="matrix(0.06234567901234567,0,0,0.06234567901234567,34.85123456790123,0)" xlink:href="#z"/><use transform="matrix(0.06234567901234567,0,0,0.06234567901234567,46.07345679012345,0)" xlink:href="#A"/><use transform="matrix(0.06234567901234567,0,0,0.06234567901234567,50.99876543209876,0)" xlink:href="#B"/><use transform="matrix(0.06234567901234567,0,0,0.06234567901234567,62.22098765432098,0)" xlink:href="#x"/><use transform="matrix(0.06234567901234567,0,0,0.06234567901234567,74.6901234567901,0)" xlink:href="#C"/></g><path d="M33 0v-248h34V0H33" id="D"/><path d="M210-169c-67 3-38 105-44 169h-31v-121c0-29-5-50-35-48C34-165 62-65 56 0H25l-1-190h30c1 10-1 24 2 32 10-44 99-50 107 0 11-21 27-35 58-36 85-2 47 119 55 194h-31v-121c0-29-5-49-35-48" id="E"/><path d="M115-194c55 1 70 41 70 98S169 2 115 4C84 4 66-9 55-30l1 105H24l-1-265h31l2 30c10-21 28-34 59-34zm-8 174c40 0 45-34 45-75s-6-73-45-74c-42 0-51 32-51 76 0 43 10 73 51 73" id="F"/><path d="M24 0v-261h32V0H24" id="G"/><path d="M117-194c89-4 53 116 60 194h-32v-121c0-31-8-49-39-48C34-167 62-67 57 0H25l-1-190h30c1 10-1 24 2 32 11-22 29-35 61-36" id="H"/><path d="M59-47c-2 24 18 29 38 22v24C64 9 27 4 27-40v-127H5v-23h24l9-43h21v43h35v23H59v120" id="I"/><path d="M141-36C126-15 110 5 73 4 37 3 15-17 15-53c-1-64 63-63 125-63 3-35-9-54-41-54-24 1-41 7-42 31l-33-3c5-37 33-52 76-52 45 0 72 20 72 64v82c-1 20 7 32 28 27v20c-31 9-61-2-59-35zM48-53c0 20 12 33 32 33 41-3 63-29 60-74-43 2-92-5-92 41" id="J"/><path d="M100-194c62-1 85 37 85 99 1 63-27 99-86 99S16-35 15-95c0-66 28-99 85-99zM99-20c44 1 53-31 53-75 0-43-8-75-51-75s-53 32-53 75 10 74 51 75" id="K"/><g id="b"><use transform="matrix(0.06234567901234567,0,0,0.06234567901234567,0,0)" xlink:href="#D"/><use transform="matrix(0.06234567901234567,0,0,0.06234567901234567,6.234567901234566,0)" xlink:href="#E"/><use transform="matrix(0.06234567901234567,0,0,0.06234567901234567,24.87592592592592,0)" xlink:href="#F"/><use transform="matrix(0.06234567901234567,0,0,0.06234567901234567,37.34506172839505,0)" xlink:href="#G"/><use transform="matrix(0.06234567901234567,0,0,0.06234567901234567,42.27037037037036,0)" xlink:href="#x"/><use transform="matrix(0.06234567901234567,0,0,0.06234567901234567,54.73950617283949,0)" xlink:href="#E"/><use transform="matrix(0.06234567901234567,0,0,0.06234567901234567,73.38086419753084,0)" xlink:href="#x"/><use transform="matrix(0.06234567901234567,0,0,0.06234567901234567,85.84999999999997,0)" xlink:href="#H"/><use transform="matrix(0.06234567901234567,0,0,0.06234567901234567,98.3191358024691,0)" xlink:href="#I"/><use transform="matrix(0.06234567901234567,0,0,0.06234567901234567,104.55370370370368,0)" xlink:href="#J"/><use transform="matrix(0.06234567901234567,0,0,0.06234567901234567,117.0228395061728,0)" xlink:href="#I"/><use transform="matrix(0.06234567901234567,0,0,0.06234567901234567,123.25740740740737,0)" xlink:href="#A"/><use transform="matrix(0.06234567901234567,0,0,0.06234567901234567,128.1827160493827,0)" xlink:href="#K"/><use transform="matrix(0.06234567901234567,0,0,0.06234567901234567,140.65185185185183,0)" xlink:href="#H"/><use transform="matrix(0.06234567901234567,0,0,0.06234567901234567,153.12098765432097,0)" xlink:href="#C"/></g><path d="M212-179c-10-28-35-45-73-45-59 0-87 40-87 99 0 60 29 101 89 101 43 0 62-24 78-52l27 14C228-24 195 4 139 4 59 4 22-46 18-125c-6-104 99-153 187-111 19 9 31 26 39 46" id="L"/><g id="c"><use transform="matrix(0.06234567901234567,0,0,0.06234567901234567,0,0)" xlink:href="#L"/><use transform="matrix(0.06234567901234567,0,0,0.06234567901234567,16.147530864197527,0)" xlink:href="#K"/><use transform="matrix(0.06234567901234567,0,0,0.06234567901234567,28.61666666666666,0)" xlink:href="#H"/><use transform="matrix(0.06234567901234567,0,0,0.06234567901234567,41.08580246913579,0)" xlink:href="#I"/><use transform="matrix(0.06234567901234567,0,0,0.06234567901234567,47.320370370370355,0)" xlink:href="#y"/><use transform="matrix(0.06234567901234567,0,0,0.06234567901234567,54.73950617283949,0)" xlink:href="#J"/><use transform="matrix(0.06234567901234567,0,0,0.06234567901234567,67.20864197530862,0)" xlink:href="#B"/><use transform="matrix(0.06234567901234567,0,0,0.06234567901234567,78.43086419753084,0)" xlink:href="#I"/><use transform="matrix(0.06234567901234567,0,0,0.06234567901234567,84.66543209876541,0)" xlink:href="#C"/></g><path d="M15-91v-56l181-69v40L49-119l147 57v40" id="M"/><path d="M24 0v-248h52V0H24" id="N"/><path d="M67-125c0 53 21 87 73 88 37 1 54-22 65-47l45 17C233-25 199 4 140 4 58 4 20-42 15-125 8-235 124-281 211-232c18 10 29 29 36 50l-46 12c-8-25-30-41-62-41-52 0-71 34-72 86" id="O"/><path d="M85 4C-2 5 27-109 22-190h50c7 57-23 150 33 157 60-5 35-97 40-157h50l1 190h-47c-2-12 1-28-3-38-12 25-28 42-61 42" id="P"/><path d="M135-150c-39-12-60 13-60 57V0H25l-1-190h47c2 13-1 29 3 40 6-28 27-53 61-41v41" id="Q"/><path d="M185-48c-13 30-37 53-82 52C43 2 14-33 14-96s30-98 90-98c62 0 83 45 84 108H66c0 31 8 55 39 56 18 0 30-7 34-22zm-45-69c5-46-57-63-70-21-2 6-4 13-4 21h74" id="R"/><path d="M135-194c87-1 58 113 63 194h-50c-7-57 23-157-34-157-59 0-34 97-39 157H25l-1-190h47c2 12-1 28 3 38 12-26 28-41 61-42" id="S"/><path d="M115-3C79 11 28 4 28-45v-112H4v-33h27l15-45h31v45h36v33H77v99c-1 23 16 31 38 25v30" id="T"/><path d="M238-95c0 69-44 99-111 99C63 4 22-25 22-93v-155h51v151c-1 38 19 59 55 60 90 1 49-130 58-211h52v153" id="U"/><path d="M137-138c1-29-70-34-71-4 15 46 118 7 119 86 1 83-164 76-172 9l43-7c4 19 20 25 44 25 33 8 57-30 24-41C81-84 22-81 20-136c-2-80 154-74 161-7" id="V"/><path d="M15-22v-40l146-57-146-57v-40l181 69v56" id="W"/><g id="d"><use transform="matrix(0.06234567901234567,0,0,0.06234567901234567,0,0)" xlink:href="#M"/><use transform="matrix(0.06234567901234567,0,0,0.06234567901234567,13.09259259259259,0)" xlink:href="#M"/><use transform="matrix(0.06234567901234567,0,0,0.06234567901234567,26.18518518518518,0)" xlink:href="#N"/><use transform="matrix(0.06234567901234567,0,0,0.06234567901234567,32.419753086419746,0)" xlink:href="#O"/><use transform="matrix(0.06234567901234567,0,0,0.06234567901234567,48.56728395061727,0)" xlink:href="#P"/><use transform="matrix(0.06234567901234567,0,0,0.06234567901234567,62.22098765432098,0)" xlink:href="#Q"/><use transform="matrix(0.06234567901234567,0,0,0.06234567901234567,70.94938271604937,0)" xlink:href="#Q"/><use transform="matrix(0.06234567901234567,0,0,0.06234567901234567,79.67777777777776,0)" xlink:href="#R"/><use transform="matrix(0.06234567901234567,0,0,0.06234567901234567,92.14691358024689,0)" xlink:href="#S"/><use transform="matrix(0.06234567901234567,0,0,0.06234567901234567,105.80061728395059,0)" xlink:href="#T"/><use transform="matrix(0.06234567901234567,0,0,0.06234567901234567,113.21975308641971,0)" xlink:href="#U"/><use transform="matrix(0.06234567901234567,0,0,0.06234567901234567,129.36728395061724,0)" xlink:href="#V"/><use transform="matrix(0.06234567901234567,0,0,0.06234567901234567,141.83641975308637,0)" xlink:href="#R"/><use transform="matrix(0.06234567901234567,0,0,0.06234567901234567,154.30555555555551,0)" xlink:href="#Q"/><use transform="matrix(0.06234567901234567,0,0,0.06234567901234567,163.03395061728392,0)" xlink:href="#W"/><use transform="matrix(0.06234567901234567,0,0,0.06234567901234567,176.1265432098765,0)" xlink:href="#W"/></g><path fill="#a9afb8" d="M30 0v-248h30L58-37l132-211h39V0h-30l1-209L70 0H30" id="X"/><path fill="#a9afb8" d="M176-55C176 11 93 0 25 0v-190c61 3 142-15 144 47 1 29-21 35-39 44 27 3 46 16 46 44zm-34 0c0-41-47-30-85-32v64c38-1 85 8 85-32zm-6-83c0-36-44-26-79-28v56c34-2 79 8 79-28" id="Y"/><path fill="#a9afb8" d="M141-36C126-15 110 5 73 4 37 3 15-17 15-53c-1-64 63-63 125-63 3-35-9-54-41-54-24 1-41 7-42 31l-33-3c5-37 33-52 76-52 45 0 72 20 72 64v82c-1 20 7 32 28 27v20c-31 9-61-2-59-35zM48-53c0 20 12 33 32 33 41-3 63-29 60-74-43 2-92-5-92 41" id="Z"/><path fill="#a9afb8" d="M57-190v80h85v-80h32V0h-32v-87H57V0H25v-190h32" id="aa"/><g id="e"><use transform="matrix(0.04248971193415638,0,0,0.04248971193415638,0,0)" xlink:href="#X"/><use transform="matrix(0.04248971193415638,0,0,0.04248971193415638,10.962345679012346,0)" xlink:href="#Y"/><use transform="matrix(0.04248971193415638,0,0,0.04248971193415638,18.90792181069959,0)" xlink:href="#Z"/><use transform="matrix(0.04248971193415638,0,0,0.04248971193415638,27.405864197530867,0)" xlink:href="#aa"/></g><path fill="#a9afb8" d="M197 0v-115H63V0H30v-248h33v105h134v-105h34V0h-34" id="ab"/><path fill="#a9afb8" d="M56-190L54-37l88-153h34V0h-30l2-153L59 0H25v-190h31" id="ac"/><path fill="#a9afb8" d="M75-87c-4 1-14 3-19 3V0H24v-190h32v83c26-2 31-21 43-41l26-42h33l-61 86L159 0h-35" id="ad"/><path fill="#a9afb8" d="M100-194c62-1 85 37 85 99 1 63-27 99-86 99S16-35 15-95c0-66 28-99 85-99zM99-20c44 1 53-31 53-75 0-43-8-75-51-75s-53 32-53 75 10 74 51 75" id="ae"/><path fill="#a9afb8" d="M153 0v-167H87C74-108 81-27 38 0 29 5 12 6 2 1v-22c51 4 39-64 49-112 5-25 4-25 8-57h126V0h-32" id="af"/><path fill="#a9afb8" d="M100-194c63 0 86 42 84 106H49c0 40 14 67 53 68 26 1 43-12 49-29l28 8c-11 28-37 45-77 45C44 4 14-33 15-96c1-61 26-98 85-98zm52 81c6-60-76-77-97-28-3 7-6 17-6 28h103" id="ag"/><g id="f"><use transform="matrix(0.04248971193415638,0,0,0.04248971193415638,0,0)" xlink:href="#ab"/><use transform="matrix(0.04248971193415638,0,0,0.04248971193415638,11.004835390946502,0)" xlink:href="#ac"/><use transform="matrix(0.04248971193415638,0,0,0.04248971193415638,19.545267489711932,0)" xlink:href="#ad"/><use transform="matrix(0.04248971193415638,0,0,0.04248971193415638,26.38611111111111,0)" xlink:href="#ae"/><use transform="matrix(0.04248971193415638,0,0,0.04248971193415638,34.544135802469135,0)" xlink:href="#af"/><use transform="matrix(0.04248971193415638,0,0,0.04248971193415638,43.46697530864198,0)" xlink:href="#Z"/><use transform="matrix(0.04248971193415638,0,0,0.04248971193415638,51.96491769547326,0)" xlink:href="#ag"/><use transform="matrix(0.04248971193415638,0,0,0.04248971193415638,60.46286008230453,0)" xlink:href="#Y"/></g><path fill="#a9afb8" d="M240 0l2-218c-23 76-54 145-80 218h-23L58-218 59 0H30v-248h44l77 211c21-75 51-140 76-211h43V0h-30" id="ah"/><path fill="#a9afb8" d="M141 0L90-78 38 0H4l68-98-65-92h35l48 74 47-74h35l-64 92 68 98h-35" id="ai"/><path fill="#a9afb8" d="M165-267c8 67-110 75-125 20-2-7-4-13-4-20h29c1 23 13 35 36 35s34-13 36-35h28zM56-190L54-37l88-153h34V0h-30l2-153L59 0H25v-190h31" id="aj"/><g id="g"><use transform="matrix(0.04248971193415638,0,0,0.04248971193415638,0,0)" xlink:href="#ah"/><use transform="matrix(0.04248971193415638,0,0,0.04248971193415638,12.704423868312757,0)" xlink:href="#ac"/><use transform="matrix(0.04248971193415638,0,0,0.04248971193415638,21.244855967078188,0)" xlink:href="#ai"/><use transform="matrix(0.04248971193415638,0,0,0.04248971193415638,28.72304526748971,0)" xlink:href="#Z"/><use transform="matrix(0.04248971193415638,0,0,0.04248971193415638,37.220987654320986,0)" xlink:href="#aj"/><use transform="matrix(0.04248971193415638,0,0,0.04248971193415638,45.761419753086415,0)" xlink:href="#af"/><use transform="matrix(0.04248971193415638,0,0,0.04248971193415638,54.85421810699587,0)" xlink:href="#ae"/><use transform="matrix(0.04248971193415638,0,0,0.04248971193415638,63.35216049382715,0)" xlink:href="#Y"/></g><path fill="#a9afb8" d="M32 76v-337h29V76H32" id="ak"/><use transform="matrix(0.04248971193415638,0,0,0.04248971193415638,0,0)" xlink:href="#ak" id="h"/><path fill="#a9afb8" d="M240 0l2-218c-23 76-54 145-80 218h-23L58-218 59 0H30v-248h44l77 211c21-75 51-140 76-211h43V0h-30" id="al"/><path fill="#a9afb8" d="M141-36C126-15 110 5 73 4 37 3 15-17 15-53c-1-64 63-63 125-63 3-35-9-54-41-54-24 1-41 7-42 31l-33-3c5-37 33-52 76-52 45 0 72 20 72 64v82c-1 20 7 32 28 27v20c-31 9-61-2-59-35zM48-53c0 20 12 33 32 33 41-3 63-29 60-74-43 2-92-5-92 41" id="am"/><path fill="#a9afb8" d="M114-163C36-179 61-72 57 0H25l-1-190h30c1 12-1 29 2 39 6-27 23-49 58-41v29" id="an"/><path fill="#a9afb8" d="M96-169c-40 0-48 33-48 73s9 75 48 75c24 0 41-14 43-38l32 2c-6 37-31 61-74 61-59 0-76-41-82-99-10-93 101-131 147-64 4 7 5 14 7 22l-32 3c-4-21-16-35-41-35" id="ao"/><path fill="#a9afb8" d="M106-169C34-169 62-67 57 0H25v-261h32l-1 103c12-21 28-36 61-36 89 0 53 116 60 194h-32v-121c2-32-8-49-39-48" id="ap"/><g id="i"><use transform="matrix(0.04248971193415638,0,0,0.04248971193415638,0,0)" xlink:href="#al"/><use transform="matrix(0.04248971193415638,0,0,0.04248971193415638,12.704423868312757,0)" xlink:href="#am"/><use transform="matrix(0.04248971193415638,0,0,0.04248971193415638,21.20236625514403,0)" xlink:href="#an"/><use transform="matrix(0.04248971193415638,0,0,0.04248971193415638,26.25864197530864,0)" xlink:href="#ao"/><use transform="matrix(0.04248971193415638,0,0,0.04248971193415638,33.90679012345679,0)" xlink:href="#ap"/></g><path fill="#a9afb8" d="M101-251c82-7 93 87 43 132L82-64C71-53 59-42 53-27h129V0H18c2-99 128-94 128-182 0-28-16-43-45-43s-46 15-49 41l-32-3c6-41 34-60 81-64" id="aq"/><path fill="#a9afb8" d="M134-131c28 9 52 24 51 62-1 50-34 73-85 73S17-19 16-69c0-36 21-54 49-61-75-25-45-126 34-121 46 3 78 18 79 63 0 33-17 51-44 57zm-34-11c31 1 46-15 46-44 0-28-17-43-47-42-29 0-46 13-45 42 1 28 16 44 46 44zm1 122c35 0 51-18 51-52 0-30-18-46-53-46-33 0-51 17-51 47 0 34 19 51 53 51" id="ar"/><path fill="#a9afb8" d="M68-38c1 34 0 65-14 84H32c9-13 17-26 17-46H33v-38h35" id="as"/><g id="j"><use transform="matrix(0.04248971193415638,0,0,0.04248971193415638,0,0)" xlink:href="#aq"/><use transform="matrix(0.04248971193415638,0,0,0.04248971193415638,8.497942386831275,0)" xlink:href="#ar"/><use transform="matrix(0.04248971193415638,0,0,0.04248971193415638,16.99588477366255,0)" xlink:href="#as"/></g><path fill="#a9afb8" d="M101-251c68 0 85 55 85 127S166 4 100 4C33 4 14-52 14-124c0-73 17-127 87-127zm-1 229c47 0 54-49 54-102s-4-102-53-102c-51 0-55 48-55 102 0 53 5 102 54 102" id="at"/><path fill="#a9afb8" d="M155-56V0h-30v-56H8v-25l114-167h33v167h35v25h-35zm-30-156c-27 46-58 90-88 131h88v-131" id="au"/><g id="k"><use transform="matrix(0.04248971193415638,0,0,0.04248971193415638,0,0)" xlink:href="#aq"/><use transform="matrix(0.04248971193415638,0,0,0.04248971193415638,8.497942386831275,0)" xlink:href="#at"/><use transform="matrix(0.04248971193415638,0,0,0.04248971193415638,16.99588477366255,0)" xlink:href="#aq"/><use transform="matrix(0.04248971193415638,0,0,0.04248971193415638,25.493827160493822,0)" xlink:href="#au"/></g><path d="M84 4C-5 8 30-112 23-190h32v120c0 31 7 50 39 49 72-2 45-101 50-169h31l1 190h-30c-1-10 1-25-2-33-11 22-28 36-60 37" id="av"/><path d="M232-93c-1 65-40 97-104 97C67 4 28-28 28-90v-158h33c8 89-33 224 67 224 102 0 64-133 71-224h33v155" id="aw"/><g id="l"><use transform="matrix(0.06234567901234567,0,0,0.06234567901234567,0,0)" xlink:href="#L"/><use transform="matrix(0.06234567901234567,0,0,0.06234567901234567,16.147530864197527,0)" xlink:href="#av"/><use transform="matrix(0.06234567901234567,0,0,0.06234567901234567,28.61666666666666,0)" xlink:href="#y"/><use transform="matrix(0.06234567901234567,0,0,0.06234567901234567,36.035802469135795,0)" xlink:href="#y"/><use transform="matrix(0.06234567901234567,0,0,0.06234567901234567,43.45493827160493,0)" xlink:href="#x"/><use transform="matrix(0.06234567901234567,0,0,0.06234567901234567,55.92407407407406,0)" xlink:href="#H"/><use transform="matrix(0.06234567901234567,0,0,0.06234567901234567,68.3932098765432,0)" xlink:href="#I"/><use transform="matrix(0.06234567901234567,0,0,0.06234567901234567,74.62777777777777,0)" xlink:href="#aw"/><use transform="matrix(0.06234567901234567,0,0,0.06234567901234567,90.7753086419753,0)" xlink:href="#C"/><use transform="matrix(0.06234567901234567,0,0,0.06234567901234567,101.99753086419751,0)" xlink:href="#x"/><use transform="matrix(0.06234567901234567,0,0,0.06234567901234567,114.46666666666664,0)" xlink:href="#y"/></g><path d="M25-224v-37h50v37H25zM25 0v-190h50V0H25" id="ax"/><path d="M67-125c0 54 23 88 75 88 28 0 53-7 68-21v-34h-60v-39h108v91C232-14 192 4 140 4 58 4 20-42 15-125 8-236 126-280 215-234c19 10 29 26 37 47l-47 15c-11-23-29-39-63-39-53 1-75 33-75 86" id="ay"/><path d="M110-194c64 0 96 36 96 99 0 64-35 99-97 99-61 0-95-36-95-99 0-62 34-99 96-99zm-1 164c35 0 45-28 45-65 0-40-10-65-43-65-34 0-45 26-45 65 0 36 10 65 43 65" id="az"/><path d="M135-194c53 0 70 44 70 98 0 56-19 98-73 100-31 1-45-17-59-34 3 33 2 69 2 105H25l-1-265h48c2 10 0 23 3 31 11-24 29-35 60-35zM114-30c33 0 39-31 40-66 0-38-9-64-40-64-56 0-55 130 0 130" id="aA"/><path d="M169-182c-1-43-94-46-97-3 18 66 151 10 154 114 3 95-165 93-204 36-6-8-10-19-12-30l50-8c3 46 112 56 116 5-17-69-150-10-154-114-4-87 153-88 188-35 5 8 8 18 10 28" id="aB"/><path d="M128 0H69L1-190h53L99-40l48-150h52" id="aC"/><path d="M190-63c-7 42-38 67-86 67-59 0-84-38-90-98-12-110 154-137 174-36l-49 2c-2-19-15-32-35-32-30 0-35 28-38 64-6 74 65 87 74 30" id="aD"/><g id="m"><use transform="matrix(0.06234567901234567,0,0,0.06234567901234567,0,0)" xlink:href="#M"/><use transform="matrix(0.06234567901234567,0,0,0.06234567901234567,13.09259259259259,0)" xlink:href="#M"/><use transform="matrix(0.06234567901234567,0,0,0.06234567901234567,26.18518518518518,0)" xlink:href="#ax"/><use transform="matrix(0.06234567901234567,0,0,0.06234567901234567,32.419753086419746,0)" xlink:href="#ay"/><use transform="matrix(0.06234567901234567,0,0,0.06234567901234567,49.87654320987653,0)" xlink:href="#Q"/><use transform="matrix(0.06234567901234567,0,0,0.06234567901234567,58.60493827160492,0)" xlink:href="#az"/><use transform="matrix(0.06234567901234567,0,0,0.06234567901234567,72.25864197530862,0)" xlink:href="#P"/><use transform="matrix(0.06234567901234567,0,0,0.06234567901234567,85.91234567901232,0)" xlink:href="#aA"/><use transform="matrix(0.06234567901234567,0,0,0.06234567901234567,99.56604938271602,0)" xlink:href="#aB"/><use transform="matrix(0.06234567901234567,0,0,0.06234567901234567,114.52901234567898,0)" xlink:href="#R"/><use transform="matrix(0.06234567901234567,0,0,0.06234567901234567,126.99814814814812,0)" xlink:href="#Q"/><use transform="matrix(0.06234567901234567,0,0,0.06234567901234567,135.72654320987652,0)" xlink:href="#aC"/><use transform="matrix(0.06234567901234567,0,0,0.06234567901234567,148.19567901234566,0)" xlink:href="#ax"/><use transform="matrix(0.06234567901234567,0,0,0.06234567901234567,154.43024691358022,0)" xlink:href="#aD"/><use transform="matrix(0.06234567901234567,0,0,0.06234567901234567,166.89938271604936,0)" xlink:href="#R"/><use transform="matrix(0.06234567901234567,0,0,0.06234567901234567,179.3685185185185,0)" xlink:href="#W"/><use transform="matrix(0.06234567901234567,0,0,0.06234567901234567,192.46111111111108,0)" xlink:href="#W"/></g><path d="M30 0v-248h187v28H63v79h144v27H63v87h162V0H30" id="aE"/><g id="n"><use transform="matrix(0.06234567901234565,0,0,0.06234567901234565,0,0)" xlink:href="#aE"/><use transform="matrix(0.06234567901234565,0,0,0.06234567901234565,14.962962962962957,0)" xlink:href="#E"/><use transform="matrix(0.06234567901234565,0,0,0.06234567901234565,33.604320987654305,0)" xlink:href="#J"/><use transform="matrix(0.06234567901234565,0,0,0.06234567901234565,46.07345679012344,0)" xlink:href="#A"/><use transform="matrix(0.06234567901234565,0,0,0.06234567901234565,50.99876543209874,0)" xlink:href="#G"/><use transform="matrix(0.06234567901234565,0,0,0.06234567901234565,55.92407407407405,0)" xlink:href="#w"/><use transform="matrix(0.06234567901234565,0,0,0.06234567901234565,70.887037037037,0)" xlink:href="#x"/><use transform="matrix(0.06234567901234565,0,0,0.06234567901234565,83.35617283950613,0)" xlink:href="#y"/><use transform="matrix(0.06234567901234565,0,0,0.06234567901234565,90.77530864197526,0)" xlink:href="#z"/><use transform="matrix(0.06234567901234565,0,0,0.06234567901234565,101.99753086419747,0)" xlink:href="#A"/><use transform="matrix(0.06234567901234565,0,0,0.06234567901234565,106.92283950617278,0)" xlink:href="#B"/><use transform="matrix(0.06234567901234565,0,0,0.06234567901234565,118.14506172839499,0)" xlink:href="#x"/></g><path d="M143 4C61 4 22-44 18-125c-5-107 100-154 193-111 17 8 29 25 37 43l-32 9c-13-25-37-40-76-40-61 0-88 39-88 99 0 61 29 100 91 101 35 0 62-11 79-27v-45h-74v-28h105v86C228-13 192 4 143 4" id="aF"/><g id="o"><use transform="matrix(0.06234567901234567,0,0,0.06234567901234567,0,0)" xlink:href="#aF"/><use transform="matrix(0.06234567901234567,0,0,0.06234567901234567,17.456790123456788,0)" xlink:href="#y"/><use transform="matrix(0.06234567901234567,0,0,0.06234567901234567,24.875925925925923,0)" xlink:href="#K"/><use transform="matrix(0.06234567901234567,0,0,0.06234567901234567,37.34506172839505,0)" xlink:href="#av"/><use transform="matrix(0.06234567901234567,0,0,0.06234567901234567,49.814197530864185,0)" xlink:href="#F"/><use transform="matrix(0.06234567901234567,0,0,0.06234567901234567,62.28333333333332,0)" xlink:href="#w"/><use transform="matrix(0.06234567901234567,0,0,0.06234567901234567,77.24629629629628,0)" xlink:href="#x"/><use transform="matrix(0.06234567901234567,0,0,0.06234567901234567,89.7154320987654,0)" xlink:href="#y"/><use transform="matrix(0.06234567901234567,0,0,0.06234567901234567,97.13456790123453,0)" xlink:href="#z"/><use transform="matrix(0.06234567901234567,0,0,0.06234567901234567,108.35679012345675,0)" xlink:href="#A"/><use transform="matrix(0.06234567901234567,0,0,0.06234567901234567,113.28209876543205,0)" xlink:href="#B"/><use transform="matrix(0.06234567901234567,0,0,0.06234567901234567,124.50432098765427,0)" xlink:href="#x"/></g><g id="p"><use transform="matrix(0.06234567901234567,0,0,0.06234567901234567,0,0)" xlink:href="#aw"/><use transform="matrix(0.06234567901234567,0,0,0.06234567901234567,16.147530864197527,0)" xlink:href="#C"/><use transform="matrix(0.06234567901234567,0,0,0.06234567901234567,27.36975308641975,0)" xlink:href="#x"/><use transform="matrix(0.06234567901234567,0,0,0.06234567901234567,39.83888888888888,0)" xlink:href="#y"/><use transform="matrix(0.06234567901234567,0,0,0.06234567901234567,47.25802469135802,0)" xlink:href="#w"/><use transform="matrix(0.06234567901234567,0,0,0.06234567901234567,62.22098765432098,0)" xlink:href="#x"/><use transform="matrix(0.06234567901234567,0,0,0.06234567901234567,74.6901234567901,0)" xlink:href="#y"/><use transform="matrix(0.06234567901234567,0,0,0.06234567901234567,82.10925925925923,0)" xlink:href="#z"/><use transform="matrix(0.06234567901234567,0,0,0.06234567901234567,93.33148148148145,0)" xlink:href="#A"/><use transform="matrix(0.06234567901234567,0,0,0.06234567901234567,98.25679012345675,0)" xlink:href="#B"/><use transform="matrix(0.06234567901234567,0,0,0.06234567901234567,109.47901234567897,0)" xlink:href="#x"/></g><path d="M127-220V0H93v-220H8v-28h204v28h-85" id="aG"/><path d="M143 0L79-87 56-68V0H24v-261h32v163l83-92h37l-77 82L181 0h-38" id="aH"/><g id="q"><use transform="matrix(0.06234567901234567,0,0,0.06234567901234567,0,0)" xlink:href="#aG"/><use transform="matrix(0.06234567901234567,0,0,0.06234567901234567,11.159876543209876,0)" xlink:href="#J"/><use transform="matrix(0.06234567901234567,0,0,0.06234567901234567,23.62901234567901,0)" xlink:href="#C"/><use transform="matrix(0.06234567901234567,0,0,0.06234567901234567,34.85123456790123,0)" xlink:href="#aH"/><use transform="matrix(0.06234567901234567,0,0,0.06234567901234567,46.07345679012345,0)" xlink:href="#w"/><use transform="matrix(0.06234567901234567,0,0,0.06234567901234567,61.03641975308641,0)" xlink:href="#x"/><use transform="matrix(0.06234567901234567,0,0,0.06234567901234567,73.50555555555555,0)" xlink:href="#y"/><use transform="matrix(0.06234567901234567,0,0,0.06234567901234567,80.92469135802467,0)" xlink:href="#z"/><use transform="matrix(0.06234567901234567,0,0,0.06234567901234567,92.14691358024689,0)" xlink:href="#A"/><use transform="matrix(0.06234567901234567,0,0,0.06234567901234567,97.0722222222222,0)" xlink:href="#B"/><use transform="matrix(0.06234567901234567,0,0,0.06234567901234567,108.29444444444441,0)" xlink:href="#x"/></g><path d="M24 0v-248h195v40H76v63h132v40H76v65h150V0H24" id="aI"/><path d="M220-157c-53 9-28 100-34 157h-49v-107c1-27-5-49-29-50C55-147 81-57 75 0H25l-1-190h47c2 12-1 28 3 38 10-53 101-56 108 0 13-22 24-43 59-42 82 1 51 116 57 194h-49v-107c-1-25-5-48-29-50" id="aJ"/><path d="M133-34C117-15 103 5 69 4 32 3 11-16 11-54c-1-60 55-63 116-61 1-26-3-47-28-47-18 1-26 9-28 27l-52-2c7-38 36-58 82-57s74 22 75 68l1 82c-1 14 12 18 25 15v27c-30 8-71 5-69-32zm-48 3c29 0 43-24 42-57-32 0-66-3-65 30 0 17 8 27 23 27" id="aK"/><path d="M25 0v-261h50V0H25" id="aL"/><path d="M88-194c31-1 46 15 58 34l-1-101h50l1 261h-48c-2-10 0-23-3-31C134-8 116 4 84 4 32 4 16-41 15-95c0-56 19-97 73-99zm17 164c33 0 40-30 41-66 1-37-9-64-41-64s-38 30-39 65c0 43 13 65 39 65" id="aM"/><g id="r"><use transform="matrix(0.06234567901234567,0,0,0.06234567901234567,0,0)" xlink:href="#M"/><use transform="matrix(0.06234567901234567,0,0,0.06234567901234567,13.09259259259259,0)" xlink:href="#M"/><use transform="matrix(0.06234567901234567,0,0,0.06234567901234567,26.18518518518518,0)" xlink:href="#N"/><use transform="matrix(0.06234567901234567,0,0,0.06234567901234567,32.419753086419746,0)" xlink:href="#aI"/><use transform="matrix(0.06234567901234567,0,0,0.06234567901234567,47.38271604938271,0)" xlink:href="#aJ"/><use transform="matrix(0.06234567901234567,0,0,0.06234567901234567,67.33333333333331,0)" xlink:href="#aK"/><use transform="matrix(0.06234567901234567,0,0,0.06234567901234567,79.80246913580245,0)" xlink:href="#ax"/><use transform="matrix(0.06234567901234567,0,0,0.06234567901234567,86.03703703703702,0)" xlink:href="#aL"/><use transform="matrix(0.06234567901234567,0,0,0.06234567901234567,92.2716049382716,0)" xlink:href="#aB"/><use transform="matrix(0.06234567901234567,0,0,0.06234567901234567,107.23456790123456,0)" xlink:href="#R"/><use transform="matrix(0.06234567901234567,0,0,0.06234567901234567,119.7037037037037,0)" xlink:href="#S"/><use transform="matrix(0.06234567901234567,0,0,0.06234567901234567,133.3574074074074,0)" xlink:href="#aM"/><use transform="matrix(0.06234567901234567,0,0,0.06234567901234567,147.01111111111112,0)" xlink:href="#R"/><use transform="matrix(0.06234567901234567,0,0,0.06234567901234567,159.48024691358026,0)" xlink:href="#Q"/><use transform="matrix(0.06234567901234567,0,0,0.06234567901234567,168.20864197530867,0)" xlink:href="#W"/><use transform="matrix(0.06234567901234567,0,0,0.06234567901234567,181.30123456790125,0)" xlink:href="#W"/></g><path d="M136-208V0H84v-208H4v-40h212v40h-80" id="aN"/><path d="M147 0L96-86 75-71V0H25v-261h50v150l67-79h53l-66 74L201 0h-54" id="aO"/><g id="s"><use transform="matrix(0.06234567901234567,0,0,0.06234567901234567,0,0)" xlink:href="#M"/><use transform="matrix(0.06234567901234567,0,0,0.06234567901234567,13.09259259259259,0)" xlink:href="#M"/><use transform="matrix(0.06234567901234567,0,0,0.06234567901234567,26.18518518518518,0)" xlink:href="#aN"/><use transform="matrix(0.06234567901234567,0,0,0.06234567901234567,38.15555555555555,0)" xlink:href="#aK"/><use transform="matrix(0.06234567901234567,0,0,0.06234567901234567,50.624691358024684,0)" xlink:href="#V"/><use transform="matrix(0.06234567901234567,0,0,0.06234567901234567,63.09382716049382,0)" xlink:href="#aO"/><use transform="matrix(0.06234567901234567,0,0,0.06234567901234567,75.56296296296296,0)" xlink:href="#aB"/><use transform="matrix(0.06234567901234567,0,0,0.06234567901234567,90.52592592592592,0)" xlink:href="#R"/><use transform="matrix(0.06234567901234567,0,0,0.06234567901234567,102.99506172839506,0)" xlink:href="#Q"/><use transform="matrix(0.06234567901234567,0,0,0.06234567901234567,111.72345679012345,0)" xlink:href="#aC"/><use transform="matrix(0.06234567901234567,0,0,0.06234567901234567,124.19259259259258,0)" xlink:href="#ax"/><use transform="matrix(0.06234567901234567,0,0,0.06234567901234567,130.42716049382713,0)" xlink:href="#aD"/><use transform="matrix(0.06234567901234567,0,0,0.06234567901234567,142.89629629629627,0)" xlink:href="#R"/><use transform="matrix(0.06234567901234567,0,0,0.06234567901234567,155.3654320987654,0)" xlink:href="#W"/><use transform="matrix(0.06234567901234567,0,0,0.06234567901234567,168.458024691358,0)" xlink:href="#W"/></g><path d="M24-248c93 1 206-16 204 79-1 75-69 88-152 82V0H24v-248zm52 121c47 0 100 7 100-41 0-47-54-39-100-39v80" id="aP"/><path d="M24-248c120-7 223 5 221 122C244-46 201 0 124 0H24v-248zM76-40c74 7 117-18 117-86 0-67-45-88-117-82v168" id="aQ"/><path d="M76-208v77h127v40H76V0H24v-248h183v40H76" id="aR"/><path d="M231 0h-52l-39-155L100 0H48L-1-190h46L77-45c9-52 24-97 36-145h53l37 145 32-145h46" id="aS"/><g id="t"><use transform="matrix(0.06234567901234567,0,0,0.06234567901234567,0,0)" xlink:href="#M"/><use transform="matrix(0.06234567901234567,0,0,0.06234567901234567,13.09259259259259,0)" xlink:href="#M"/><use transform="matrix(0.06234567901234567,0,0,0.06234567901234567,26.18518518518518,0)" xlink:href="#N"/><use transform="matrix(0.06234567901234567,0,0,0.06234567901234567,32.419753086419746,0)" xlink:href="#aP"/><use transform="matrix(0.06234567901234567,0,0,0.06234567901234567,47.38271604938271,0)" xlink:href="#aQ"/><use transform="matrix(0.06234567901234567,0,0,0.06234567901234567,63.530246913580235,0)" xlink:href="#aR"/><use transform="matrix(0.06234567901234567,0,0,0.06234567901234567,77.18395061728394,0)" xlink:href="#aQ"/><use transform="matrix(0.06234567901234567,0,0,0.06234567901234567,93.33148148148146,0)" xlink:href="#az"/><use transform="matrix(0.06234567901234567,0,0,0.06234567901234567,106.98518518518516,0)" xlink:href="#aS"/><use transform="matrix(0.06234567901234567,0,0,0.06234567901234567,124.44197530864194,0)" xlink:href="#S"/><use transform="matrix(0.06234567901234567,0,0,0.06234567901234567,138.09567901234564,0)" xlink:href="#aL"/><use transform="matrix(0.06234567901234567,0,0,0.06234567901234567,144.3302469135802,0)" xlink:href="#az"/><use transform="matrix(0.06234567901234567,0,0,0.06234567901234567,157.9839506172839,0)" xlink:href="#aK"/><use transform="matrix(0.06234567901234567,0,0,0.06234567901234567,170.45308641975305,0)" xlink:href="#aM"/><use transform="matrix(0.06234567901234567,0,0,0.06234567901234567,184.10679012345676,0)" xlink:href="#R"/><use transform="matrix(0.06234567901234567,0,0,0.06234567901234567,196.5759259259259,0)" xlink:href="#Q"/><use transform="matrix(0.06234567901234567,0,0,0.06234567901234567,205.3043209876543,0)" xlink:href="#W"/><use transform="matrix(0.06234567901234567,0,0,0.06234567901234567,218.3969135802469,0)" xlink:href="#W"/></g><g id="u"><use transform="matrix(0.06234567901234567,0,0,0.06234567901234567,0,0)" xlink:href="#M"/><use transform="matrix(0.06234567901234567,0,0,0.06234567901234567,13.09259259259259,0)" xlink:href="#M"/><use transform="matrix(0.06234567901234567,0,0,0.06234567901234567,26.18518518518518,0)" xlink:href="#ax"/><use transform="matrix(0.06234567901234567,0,0,0.06234567901234567,32.419753086419746,0)" xlink:href="#U"/><use transform="matrix(0.06234567901234567,0,0,0.06234567901234567,48.56728395061727,0)" xlink:href="#V"/><use transform="matrix(0.06234567901234567,0,0,0.06234567901234567,61.036419753086406,0)" xlink:href="#R"/><use transform="matrix(0.06234567901234567,0,0,0.06234567901234567,73.50555555555553,0)" xlink:href="#Q"/><use transform="matrix(0.06234567901234567,0,0,0.06234567901234567,82.23395061728392,0)" xlink:href="#aB"/><use transform="matrix(0.06234567901234567,0,0,0.06234567901234567,97.19691358024689,0)" xlink:href="#R"/><use transform="matrix(0.06234567901234567,0,0,0.06234567901234567,109.66604938271601,0)" xlink:href="#Q"/><use transform="matrix(0.06234567901234567,0,0,0.06234567901234567,118.3944444444444,0)" xlink:href="#aC"/><use transform="matrix(0.06234567901234567,0,0,0.06234567901234567,130.86358024691353,0)" xlink:href="#ax"/><use transform="matrix(0.06234567901234567,0,0,0.06234567901234567,137.09814814814808,0)" xlink:href="#aD"/><use transform="matrix(0.06234567901234567,0,0,0.06234567901234567,149.56728395061722,0)" xlink:href="#R"/><use transform="matrix(0.06234567901234567,0,0,0.06234567901234567,162.03641975308636,0)" xlink:href="#W"/><use transform="matrix(0.06234567901234567,0,0,0.06234567901234567,175.12901234567894,0)" xlink:href="#W"/></g><path d="M30-248c87 1 191-15 191 75 0 78-77 80-158 76V0H30v-248zm33 125c57 0 124 11 124-50 0-59-68-47-124-48v98" id="aT"/><path d="M30-248c118-7 216 8 213 122C240-48 200 0 122 0H30v-248zM63-27c89 8 146-16 146-99s-60-101-146-95v194" id="aU"/><path d="M63-220v92h138v28H63V0H30v-248h175v28H63" id="aV"/><path d="M206 0h-36l-40-164L89 0H53L-1-190h32L70-26l43-164h34l41 164 42-164h31" id="aW"/><path d="M85-194c31 0 48 13 60 33l-1-100h32l1 261h-30c-2-10 0-23-3-31C134-8 116 4 85 4 32 4 16-35 15-94c0-66 23-100 70-100zm9 24c-40 0-46 34-46 75 0 40 6 74 45 74 42 0 51-32 51-76 0-42-9-74-50-73" id="aX"/><g id="v"><use transform="matrix(0.06234567901234567,0,0,0.06234567901234567,0,0)" xlink:href="#aT"/><use transform="matrix(0.06234567901234567,0,0,0.06234567901234567,14.96296296296296,0)" xlink:href="#aU"/><use transform="matrix(0.06234567901234567,0,0,0.06234567901234567,31.11049382716049,0)" xlink:href="#aV"/><use transform="matrix(0.06234567901234567,0,0,0.06234567901234567,44.764197530864195,0)" xlink:href="#aU"/><use transform="matrix(0.06234567901234567,0,0,0.06234567901234567,60.91172839506172,0)" xlink:href="#K"/><use transform="matrix(0.06234567901234567,0,0,0.06234567901234567,73.38086419753085,0)" xlink:href="#aW"/><use transform="matrix(0.06234567901234567,0,0,0.06234567901234567,89.52839506172839,0)" xlink:href="#H"/><use transform="matrix(0.06234567901234567,0,0,0.06234567901234567,101.99753086419753,0)" xlink:href="#G"/><use transform="matrix(0.06234567901234567,0,0,0.06234567901234567,106.92283950617283,0)" xlink:href="#K"/><use transform="matrix(0.06234567901234567,0,0,0.06234567901234567,119.39197530864197,0)" xlink:href="#J"/><use transform="matrix(0.06234567901234567,0,0,0.06234567901234567,131.86111111111111,0)" xlink:href="#aX"/><use transform="matrix(0.06234567901234567,0,0,0.06234567901234567,144.33024691358025,0)" xlink:href="#x"/><use transform="matrix(0.06234567901234567,0,0,0.06234567901234567,156.7993827160494,0)" xlink:href="#y"/></g></defs></g></svg>