<svg xmlns="http://www.w3.org/2000/svg" xmlns:xlink="http://www.w3.org/1999/xlink" xmlns:lucid="lucid" width="1118" height="1191"><g transform="translate(-153 -230)" lucid:page-tab-id="0_0"><path d="M0 0h2191.98v1779.74H0z" fill="#fff"/><path d="M453.15 117.16a8 8 0 0 1 8-8h837.7a8 8 0 0 1 8 8V120a8 8 0 0 1-8 8h-837.7a8 8 0 0 1-8-8z" stroke="#000" stroke-opacity="0" stroke-width="2" fill="#fff" fill-opacity="0"/><use xlink:href="#a" transform="matrix(1,0,0,1,457.1465527853434,113.15522395684805) translate(270.5852057613169 14.917037037037037)"/><use xlink:href="#b" transform="matrix(1,0,0,1,457.1465527853434,113.15522395684805) translate(310.6530041152264 14.917037037037037)"/><use xlink:href="#c" transform="matrix(1,0,0,1,457.1465527853434,113.15522395684805) translate(383.4803703703704 14.917037037037037)"/><use xlink:href="#d" transform="matrix(1,0,0,1,457.1465527853434,113.15522395684805) translate(463.44600823045266 14.917037037037037)"/><use xlink:href="#e" transform="matrix(1,0,0,1,457.1465527853434,113.15522395684805) translate(475.8954938271605 14.917037037037037)"/><use xlink:href="#f" transform="matrix(1,0,0,1,457.1465527853434,113.15522395684805) translate(522.5491975308641 14.917037037037037)"/><use xlink:href="#g" transform="matrix(1,0,0,1,457.1465527853434,113.15522395684805) translate(548.043024691358 14.917037037037037)"/><path d="M841.8 280.95A22.53 22.53 0 0 0 856 286h376a8 8 0 0 1 8 8v1098a8 8 0 0 1-8 8H188a8 8 0 0 1-8-8V268a8 8 0 0 1 8-8h620a22.53 22.53 0 0 1 14.2 5.05zM180 286h668" stroke="#333" fill="#fff"/><use xlink:href="#h" transform="matrix(1,0,0,1,188,260) translate(282.3398148148148 17.955555555555552)"/><path d="M563.8 339.2A14.32 14.32 0 0 0 576 346h176a8 8 0 0 1 8 8v298a8 8 0 0 1-8 8H248a8 8 0 0 1-8-8V328a8 8 0 0 1 8-8h296a14.32 14.32 0 0 1 12.2 6.8zM240 346h328" stroke="#333" fill="#fff"/><use xlink:href="#i" transform="matrix(1,0,0,1,248,320) translate(122.68240740740742 17.044444444444444)"/><path d="M1015.88 338.63A12.07 12.07 0 0 0 1027 346h125a8 8 0 0 1 8 8v358a8 8 0 0 1-8 8H788a8 8 0 0 1-8-8V328a8 8 0 0 1 8-8h212a12.07 12.07 0 0 1 11.12 7.37zM780 346h239" stroke="#333" fill="#fff"/><use xlink:href="#j" transform="matrix(1,0,0,1,788,320) translate(70.57129629629631 17.044444444444444)"/><path d="M800 371a8 8 0 0 1 8-8h144a8 8 0 0 1 8 8v144a8 8 0 0 1-8 8H808a8 8 0 0 1-8-8z" stroke="#333" fill="#fff"/><use xlink:href="#k" transform="matrix(1,0,0,1,805,368) translate(13.294135802469171 77.11527777777778)"/><path d="M980 371a8 8 0 0 1 8-8h144a8 8 0 0 1 8 8v144a8 8 0 0 1-8 8H988a8 8 0 0 1-8-8z" stroke="#333" fill="#fff"/><use xlink:href="#l" transform="matrix(1,0,0,1,985,368) translate(22.899691358024725 77.11527777777778)"/><path d="M800 548a8 8 0 0 1 8-8h144a8 8 0 0 1 8 8v144a8 8 0 0 1-8 8H808a8 8 0 0 1-8-8z" stroke="#333" fill="#fff"/><use xlink:href="#m" transform="matrix(1,0,0,1,805,545) translate(25.595987654321007 77.11527777777778)"/><path d="M980 548a8 8 0 0 1 8-8h144a8 8 0 0 1 8 8v144a8 8 0 0 1-8 8H988a8 8 0 0 1-8-8z" stroke="#333" fill="#fff"/><use xlink:href="#n" transform="matrix(1,0,0,1,985,545) translate(32.98271604938273 77.11527777777778)"/><path d="M814.14 780.56A20.37 20.37 0 0 0 828 786h324a8 8 0 0 1 8 8v538a8 8 0 0 1-8 8H248a8 8 0 0 1-8-8V768a8 8 0 0 1 8-8h536a20.37 20.37 0 0 1 13.86 5.44zM240 786h580" stroke="#333" fill="#fff"/><use xlink:href="#o" transform="matrix(1,0,0,1,248,760) translate(231.47592592592594 17.044444444444444)"/><path d="M300 820a8 8 0 0 1 8-8h344a8 8 0 0 1 8 8v188a8 8 0 0 1-8 8H308a8 8 0 0 1-8-8z" stroke="#333" fill="#fff"/><path d="M300 852.27h360M300 970.33h360" stroke="#333" fill="none"/><use xlink:href="#p" transform="matrix(1,0,0,1,308,819.9999999998179) translate(143.94166666666666 16.544444444444444)"/><use xlink:href="#q" transform="matrix(1,0,0,1,312,860.2666666664845) translate(92.53179012345683 19.14444444444445)"/><use xlink:href="#r" transform="matrix(1,0,0,1,312,860.2666666664845) translate(109.9453703703704 19.14444444444445)"/><use xlink:href="#s" transform="matrix(1,0,0,1,312,860.2666666664845) translate(194.14845679012345 19.14444444444445)"/><use xlink:href="#q" transform="matrix(1,0,0,1,312,860.2666666664845) translate(74.05092592592597 43.41111111111111)"/><use xlink:href="#t" transform="matrix(1,0,0,1,312,860.2666666664845) translate(91.46450617283953 43.41111111111111)"/><use xlink:href="#s" transform="matrix(1,0,0,1,312,860.2666666664845) translate(212.6293209876543 43.41111111111111)"/><use xlink:href="#q" transform="matrix(1,0,0,1,312,860.2666666664845) translate(48.239506172839555 67.67777777777776)"/><use xlink:href="#u" transform="matrix(1,0,0,1,312,860.2666666664845) translate(65.65308641975312 67.67777777777776)"/><use xlink:href="#v" transform="matrix(1,0,0,1,312,860.2666666664845) translate(128.5104938271605 67.67777777777776)"/><use xlink:href="#w" transform="matrix(1,0,0,1,312,860.2666666664845) translate(49.980864197530934 91.94444444444443)"/><use xlink:href="#x" transform="matrix(1,0,0,1,312,860.2666666664845) translate(125.70185185185187 91.94444444444443)"/><path d="M740 820a8 8 0 0 1 8-8h324a8 8 0 0 1 8 8v494a8 8 0 0 1-8 8H748a8 8 0 0 1-8-8z" stroke="#333" fill="#fff"/><path d="M740 852.27h340m-340 380.46h340" stroke="#333" fill="none"/><g><use xlink:href="#y" transform="matrix(1,0,0,1,748,819.9999999998179) translate(141.24413580246915 16.544444444444444)"/></g><g><use xlink:href="#q" transform="matrix(1,0,0,1,752,860.2666666664845) translate(89.8342592592593 40.944444444444514)"/><use xlink:href="#z" transform="matrix(1,0,0,1,752,860.2666666664845) translate(107.24783950617287 40.944444444444514)"/><use xlink:href="#s" transform="matrix(1,0,0,1,752,860.2666666664845) translate(176.845987654321 40.944444444444514)"/><use xlink:href="#q" transform="matrix(1,0,0,1,752,860.2666666664845) translate(92.10925925925929 65.21111111111117)"/><use xlink:href="#A" transform="matrix(1,0,0,1,752,860.2666666664845) translate(109.52283950617286 65.21111111111117)"/><use xlink:href="#s" transform="matrix(1,0,0,1,752,860.2666666664845) translate(174.57098765432096 65.21111111111117)"/><use xlink:href="#q" transform="matrix(1,0,0,1,752,860.2666666664845) translate(68.5728395061729 89.47777777777783)"/><use xlink:href="#B" transform="matrix(1,0,0,1,752,860.2666666664845) translate(85.98641975308647 89.47777777777783)"/><use xlink:href="#s" transform="matrix(1,0,0,1,752,860.2666666664845) translate(198.10740740740738 89.47777777777783)"/><use xlink:href="#q" transform="matrix(1,0,0,1,752,860.2666666664845) translate(57.70339506172844 113.7444444444445)"/><use xlink:href="#C" transform="matrix(1,0,0,1,752,860.2666666664845) translate(75.11697530864201 113.7444444444445)"/><use xlink:href="#D" transform="matrix(1,0,0,1,752,860.2666666664845) translate(171.62191358024688 113.7444444444445)"/><use xlink:href="#E" transform="matrix(1,0,0,1,752,860.2666666664845) translate(63.32067901234572 138.01111111111115)"/><use xlink:href="#D" transform="matrix(1,0,0,1,752,860.2666666664845) translate(166.00462962962962 138.01111111111115)"/><use xlink:href="#q" transform="matrix(1,0,0,1,752,860.2666666664845) translate(89.30061728395064 162.2777777777778)"/><use xlink:href="#F" transform="matrix(1,0,0,1,752,860.2666666664845) translate(106.71419753086421 162.2777777777778)"/><use xlink:href="#s" transform="matrix(1,0,0,1,752,860.2666666664845) translate(177.37962962962962 162.2777777777778)"/><use xlink:href="#G" transform="matrix(1,0,0,1,752,860.2666666664845) translate(103.90555555555558 186.54444444444445)"/><use xlink:href="#H" transform="matrix(1,0,0,1,752,860.2666666664845) translate(169.51543209876542 186.54444444444445)"/><use xlink:href="#q" transform="matrix(1,0,0,1,752,860.2666666664845) translate(82.53179012345683 210.8111111111111)"/><use xlink:href="#r" transform="matrix(1,0,0,1,752,860.2666666664845) translate(99.9453703703704 210.8111111111111)"/><use xlink:href="#s" transform="matrix(1,0,0,1,752,860.2666666664845) translate(184.14845679012345 210.8111111111111)"/><use xlink:href="#q" transform="matrix(1,0,0,1,752,860.2666666664845) translate(87.55925925925929 235.07777777777775)"/><use xlink:href="#I" transform="matrix(1,0,0,1,752,860.2666666664845) translate(104.97283950617286 235.07777777777775)"/><use xlink:href="#J" transform="matrix(1,0,0,1,752,860.2666666664845) translate(172.32407407407408 235.07777777777775)"/><use xlink:href="#q" transform="matrix(1,0,0,1,752,860.2666666664845) translate(41.020061728395135 259.3444444444444)"/><use xlink:href="#K" transform="matrix(1,0,0,1,752,860.2666666664845) translate(58.4336419753087 259.3444444444444)"/><use xlink:href="#L" transform="matrix(1,0,0,1,752,860.2666666664845) translate(151.56820987654322 259.3444444444444)"/><use xlink:href="#q" transform="matrix(1,0,0,1,752,860.2666666664845) translate(60.23117283950623 283.61111111111103)"/><use xlink:href="#M" transform="matrix(1,0,0,1,752,860.2666666664845) translate(77.6447530864198 283.61111111111103)"/><use xlink:href="#N" transform="matrix(1,0,0,1,752,860.2666666664845) translate(151.56820987654322 283.61111111111103)"/><use xlink:href="#q" transform="matrix(1,0,0,1,752,860.2666666664845) translate(65.6237654320988 307.8777777777777)"/><use xlink:href="#O" transform="matrix(1,0,0,1,752,860.2666666664845) translate(83.03734567901238 307.8777777777777)"/><use xlink:href="#P" transform="matrix(1,0,0,1,752,860.2666666664845) translate(151.56820987654322 307.8777777777777)"/><use xlink:href="#q" transform="matrix(1,0,0,1,752,860.2666666664845) translate(50.962654320987696 332.14444444444433)"/><use xlink:href="#Q" transform="matrix(1,0,0,1,752,860.2666666664845) translate(68.37623456790126 332.14444444444433)"/><use xlink:href="#R" transform="matrix(1,0,0,1,752,860.2666666664845) translate(178.36265432098764 332.14444444444433)"/></g><path d="M300 1048a8 8 0 0 1 8-8h344a8 8 0 0 1 8 8v245a8 8 0 0 1-8 8H308a8 8 0 0 1-8-8z" stroke="#333" fill="#fff"/><path d="M300 1080.27h360M300 1239.1h360" stroke="#333" fill="none"/><g><use xlink:href="#S" transform="matrix(1,0,0,1,308,1048) translate(91.25154320987659 16.544444444444444)"/><use xlink:href="#T" transform="matrix(1,0,0,1,308,1048) translate(139.44783950617287 16.544444444444444)"/></g><g><use xlink:href="#q" transform="matrix(1,0,0,1,312,1088.2666666666667) translate(81.94320987654325 27.011111111111124)"/><use xlink:href="#U" transform="matrix(1,0,0,1,312,1088.2666666666667) translate(99.35679012345682 27.011111111111124)"/><use xlink:href="#s" transform="matrix(1,0,0,1,312,1088.2666666666667) translate(204.73703703703703 27.011111111111124)"/><use xlink:href="#q" transform="matrix(1,0,0,1,312,1088.2666666666667) translate(83.01049382716054 51.277777777777786)"/><use xlink:href="#V" transform="matrix(1,0,0,1,312,1088.2666666666667) translate(100.42407407407411 51.277777777777786)"/><use xlink:href="#s" transform="matrix(1,0,0,1,312,1088.2666666666667) translate(203.66975308641975 51.277777777777786)"/><use xlink:href="#W" transform="matrix(1,0,0,1,312,1088.2666666666667) translate(93.73950617283954 75.54444444444444)"/><use xlink:href="#X" transform="matrix(1,0,0,1,312,1088.2666666666667) translate(158.22592592592594 75.54444444444444)"/><use xlink:href="#q" transform="matrix(1,0,0,1,312,1088.2666666666667) translate(48.239506172839555 99.8111111111111)"/><use xlink:href="#u" transform="matrix(1,0,0,1,312,1088.2666666666667) translate(65.65308641975312 99.8111111111111)"/><use xlink:href="#v" transform="matrix(1,0,0,1,312,1088.2666666666667) translate(128.5104938271605 99.8111111111111)"/><use xlink:href="#q" transform="matrix(1,0,0,1,312,1088.2666666666667) translate(33.63456790123462 124.07777777777775)"/><use xlink:href="#Y" transform="matrix(1,0,0,1,312,1088.2666666666667) translate(51.04814814814819 124.07777777777775)"/><use xlink:href="#Z" transform="matrix(1,0,0,1,312,1088.2666666666667) translate(128.5104938271605 124.07777777777775)"/></g><path d="M255 391.5a8 8 0 0 1 8-8h474a8 8 0 0 1 8 8v197a8 8 0 0 1-8 8H263a8 8 0 0 1-8-8z" stroke="#333" fill="#fff"/><path d="M255 423.77h490m-490 98.3h490" stroke="#333" fill="none"/><g><use xlink:href="#aa" transform="matrix(1,0,0,1,263,391.5) translate(59.15679012345686 16.544444444444444)"/><use xlink:href="#ab" transform="matrix(1,0,0,1,263,391.5) translate(176.95123456790125 16.544444444444444)"/><use xlink:href="#ac" transform="matrix(1,0,0,1,263,391.5) translate(188.1858024691358 16.544444444444444)"/></g><g><use xlink:href="#q" transform="matrix(1,0,0,1,267,431.76666666666665) translate(131.18672839506178 21.277777777777782)"/><use xlink:href="#ad" transform="matrix(1,0,0,1,267,431.76666666666665) translate(148.60030864197535 21.277777777777782)"/><use xlink:href="#ae" transform="matrix(1,0,0,1,267,431.76666666666665) translate(212.525 21.277777777777782)"/><use xlink:href="#q" transform="matrix(1,0,0,1,267,431.76666666666665) translate(132.25401234567906 45.54444444444444)"/><use xlink:href="#u" transform="matrix(1,0,0,1,267,431.76666666666665) translate(149.66759259259263 45.54444444444444)"/><use xlink:href="#af" transform="matrix(1,0,0,1,267,431.76666666666665) translate(212.525 45.54444444444444)"/><use xlink:href="#q" transform="matrix(1,0,0,1,267,431.76666666666665) translate(117.64907407407414 69.8111111111111)"/><use xlink:href="#Y" transform="matrix(1,0,0,1,267,431.76666666666665) translate(135.06265432098772 69.8111111111111)"/><use xlink:href="#ag" transform="matrix(1,0,0,1,267,431.76666666666665) translate(212.52500000000003 69.8111111111111)"/></g><g><use xlink:href="#q" transform="matrix(1,0,0,1,267,530.0666666666666) translate(8.33672839506184 21.411111111111115)"/><use xlink:href="#ah" transform="matrix(1,0,0,1,267,530.0666666666666) translate(25.750308641975412 21.411111111111115)"/><use xlink:href="#ai" transform="matrix(1,0,0,1,267,530.0666666666666) translate(176.91141975308645 45.67777777777778)"/></g><defs><path fill="#a9afb8" d="M30 0v-248h30L58-37l132-211h39V0h-30l1-209L70 0H30" id="aj"/><path fill="#a9afb8" d="M176-55C176 11 93 0 25 0v-190c61 3 142-15 144 47 1 29-21 35-39 44 27 3 46 16 46 44zm-34 0c0-41-47-30-85-32v64c38-1 85 8 85-32zm-6-83c0-36-44-26-79-28v56c34-2 79 8 79-28" id="ak"/><path fill="#a9afb8" d="M141-36C126-15 110 5 73 4 37 3 15-17 15-53c-1-64 63-63 125-63 3-35-9-54-41-54-24 1-41 7-42 31l-33-3c5-37 33-52 76-52 45 0 72 20 72 64v82c-1 20 7 32 28 27v20c-31 9-61-2-59-35zM48-53c0 20 12 33 32 33 41-3 63-29 60-74-43 2-92-5-92 41" id="al"/><path fill="#a9afb8" d="M57-190v80h85v-80h32V0h-32v-87H57V0H25v-190h32" id="am"/><g id="a"><use transform="matrix(0.04248971193415638,0,0,0.04248971193415638,0,0)" xlink:href="#aj"/><use transform="matrix(0.04248971193415638,0,0,0.04248971193415638,10.962345679012346,0)" xlink:href="#ak"/><use transform="matrix(0.04248971193415638,0,0,0.04248971193415638,18.90792181069959,0)" xlink:href="#al"/><use transform="matrix(0.04248971193415638,0,0,0.04248971193415638,27.405864197530867,0)" xlink:href="#am"/></g><path fill="#a9afb8" d="M197 0v-115H63V0H30v-248h33v105h134v-105h34V0h-34" id="an"/><path fill="#a9afb8" d="M56-190L54-37l88-153h34V0h-30l2-153L59 0H25v-190h31" id="ao"/><path fill="#a9afb8" d="M75-87c-4 1-14 3-19 3V0H24v-190h32v83c26-2 31-21 43-41l26-42h33l-61 86L159 0h-35" id="ap"/><path fill="#a9afb8" d="M100-194c62-1 85 37 85 99 1 63-27 99-86 99S16-35 15-95c0-66 28-99 85-99zM99-20c44 1 53-31 53-75 0-43-8-75-51-75s-53 32-53 75 10 74 51 75" id="aq"/><path fill="#a9afb8" d="M153 0v-167H87C74-108 81-27 38 0 29 5 12 6 2 1v-22c51 4 39-64 49-112 5-25 4-25 8-57h126V0h-32" id="ar"/><path fill="#a9afb8" d="M100-194c63 0 86 42 84 106H49c0 40 14 67 53 68 26 1 43-12 49-29l28 8c-11 28-37 45-77 45C44 4 14-33 15-96c1-61 26-98 85-98zm52 81c6-60-76-77-97-28-3 7-6 17-6 28h103" id="as"/><g id="b"><use transform="matrix(0.04248971193415638,0,0,0.04248971193415638,0,0)" xlink:href="#an"/><use transform="matrix(0.04248971193415638,0,0,0.04248971193415638,11.004835390946502,0)" xlink:href="#ao"/><use transform="matrix(0.04248971193415638,0,0,0.04248971193415638,19.545267489711932,0)" xlink:href="#ap"/><use transform="matrix(0.04248971193415638,0,0,0.04248971193415638,26.38611111111111,0)" xlink:href="#aq"/><use transform="matrix(0.04248971193415638,0,0,0.04248971193415638,34.544135802469135,0)" xlink:href="#ar"/><use transform="matrix(0.04248971193415638,0,0,0.04248971193415638,43.46697530864198,0)" xlink:href="#al"/><use transform="matrix(0.04248971193415638,0,0,0.04248971193415638,51.96491769547326,0)" xlink:href="#as"/><use transform="matrix(0.04248971193415638,0,0,0.04248971193415638,60.46286008230453,0)" xlink:href="#ak"/></g><path fill="#a9afb8" d="M240 0l2-218c-23 76-54 145-80 218h-23L58-218 59 0H30v-248h44l77 211c21-75 51-140 76-211h43V0h-30" id="at"/><path fill="#a9afb8" d="M141 0L90-78 38 0H4l68-98-65-92h35l48 74 47-74h35l-64 92 68 98h-35" id="au"/><path fill="#a9afb8" d="M165-267c8 67-110 75-125 20-2-7-4-13-4-20h29c1 23 13 35 36 35s34-13 36-35h28zM56-190L54-37l88-153h34V0h-30l2-153L59 0H25v-190h31" id="av"/><g id="c"><use transform="matrix(0.04248971193415638,0,0,0.04248971193415638,0,0)" xlink:href="#at"/><use transform="matrix(0.04248971193415638,0,0,0.04248971193415638,12.704423868312757,0)" xlink:href="#ao"/><use transform="matrix(0.04248971193415638,0,0,0.04248971193415638,21.244855967078188,0)" xlink:href="#au"/><use transform="matrix(0.04248971193415638,0,0,0.04248971193415638,28.72304526748971,0)" xlink:href="#al"/><use transform="matrix(0.04248971193415638,0,0,0.04248971193415638,37.220987654320986,0)" xlink:href="#av"/><use transform="matrix(0.04248971193415638,0,0,0.04248971193415638,45.761419753086415,0)" xlink:href="#ar"/><use transform="matrix(0.04248971193415638,0,0,0.04248971193415638,54.85421810699587,0)" xlink:href="#aq"/><use transform="matrix(0.04248971193415638,0,0,0.04248971193415638,63.35216049382715,0)" xlink:href="#ak"/></g><path fill="#a9afb8" d="M32 76v-337h29V76H32" id="aw"/><use transform="matrix(0.04248971193415638,0,0,0.04248971193415638,0,0)" xlink:href="#aw" id="d"/><path fill="#a9afb8" d="M240 0l2-218c-23 76-54 145-80 218h-23L58-218 59 0H30v-248h44l77 211c21-75 51-140 76-211h43V0h-30" id="ax"/><path fill="#a9afb8" d="M141-36C126-15 110 5 73 4 37 3 15-17 15-53c-1-64 63-63 125-63 3-35-9-54-41-54-24 1-41 7-42 31l-33-3c5-37 33-52 76-52 45 0 72 20 72 64v82c-1 20 7 32 28 27v20c-31 9-61-2-59-35zM48-53c0 20 12 33 32 33 41-3 63-29 60-74-43 2-92-5-92 41" id="ay"/><path fill="#a9afb8" d="M114-163C36-179 61-72 57 0H25l-1-190h30c1 12-1 29 2 39 6-27 23-49 58-41v29" id="az"/><path fill="#a9afb8" d="M96-169c-40 0-48 33-48 73s9 75 48 75c24 0 41-14 43-38l32 2c-6 37-31 61-74 61-59 0-76-41-82-99-10-93 101-131 147-64 4 7 5 14 7 22l-32 3c-4-21-16-35-41-35" id="aA"/><path fill="#a9afb8" d="M106-169C34-169 62-67 57 0H25v-261h32l-1 103c12-21 28-36 61-36 89 0 53 116 60 194h-32v-121c2-32-8-49-39-48" id="aB"/><g id="e"><use transform="matrix(0.04248971193415638,0,0,0.04248971193415638,0,0)" xlink:href="#ax"/><use transform="matrix(0.04248971193415638,0,0,0.04248971193415638,12.704423868312757,0)" xlink:href="#ay"/><use transform="matrix(0.04248971193415638,0,0,0.04248971193415638,21.20236625514403,0)" xlink:href="#az"/><use transform="matrix(0.04248971193415638,0,0,0.04248971193415638,26.25864197530864,0)" xlink:href="#aA"/><use transform="matrix(0.04248971193415638,0,0,0.04248971193415638,33.90679012345679,0)" xlink:href="#aB"/></g><path fill="#a9afb8" d="M101-251c82-7 93 87 43 132L82-64C71-53 59-42 53-27h129V0H18c2-99 128-94 128-182 0-28-16-43-45-43s-46 15-49 41l-32-3c6-41 34-60 81-64" id="aC"/><path fill="#a9afb8" d="M99-251c64 0 84 50 84 122C183-37 130 33 47-8c-14-7-20-23-25-40l30-5c6 39 69 39 84 7 9-19 16-44 16-74-10 22-31 35-62 35-49 0-73-33-73-83 0-54 28-83 82-83zm-1 141c31-1 51-18 51-49 0-36-14-67-51-67-34 0-49 23-49 58 0 34 15 58 49 58" id="aD"/><path fill="#a9afb8" d="M68-38c1 34 0 65-14 84H32c9-13 17-26 17-46H33v-38h35" id="aE"/><g id="f"><use transform="matrix(0.04248971193415638,0,0,0.04248971193415638,0,0)" xlink:href="#aC"/><use transform="matrix(0.04248971193415638,0,0,0.04248971193415638,8.497942386831275,0)" xlink:href="#aD"/><use transform="matrix(0.04248971193415638,0,0,0.04248971193415638,16.99588477366255,0)" xlink:href="#aE"/></g><path fill="#a9afb8" d="M101-251c68 0 85 55 85 127S166 4 100 4C33 4 14-52 14-124c0-73 17-127 87-127zm-1 229c47 0 54-49 54-102s-4-102-53-102c-51 0-55 48-55 102 0 53 5 102 54 102" id="aF"/><path fill="#a9afb8" d="M155-56V0h-30v-56H8v-25l114-167h33v167h35v25h-35zm-30-156c-27 46-58 90-88 131h88v-131" id="aG"/><g id="g"><use transform="matrix(0.04248971193415638,0,0,0.04248971193415638,0,0)" xlink:href="#aC"/><use transform="matrix(0.04248971193415638,0,0,0.04248971193415638,8.497942386831275,0)" xlink:href="#aF"/><use transform="matrix(0.04248971193415638,0,0,0.04248971193415638,16.99588477366255,0)" xlink:href="#aC"/><use transform="matrix(0.04248971193415638,0,0,0.04248971193415638,25.493827160493822,0)" xlink:href="#aG"/></g><path fill="#666" d="M30-248c118-7 216 8 213 122C240-48 200 0 122 0H30v-248zM63-27c89 8 146-16 146-99s-60-101-146-95v194" id="aH"/><path fill="#666" d="M141-36C126-15 110 5 73 4 37 3 15-17 15-53c-1-64 63-63 125-63 3-35-9-54-41-54-24 1-41 7-42 31l-33-3c5-37 33-52 76-52 45 0 72 20 72 64v82c-1 20 7 32 28 27v20c-31 9-61-2-59-35zM48-53c0 20 12 33 32 33 41-3 63-29 60-74-43 2-92-5-92 41" id="aI"/><path fill="#666" d="M59-47c-2 24 18 29 38 22v24C64 9 27 4 27-40v-127H5v-23h24l9-43h21v43h35v23H59v120" id="aJ"/><g id="h"><use transform="matrix(0.06234567901234567,0,0,0.06234567901234567,0,0)" xlink:href="#aH"/><use transform="matrix(0.06234567901234567,0,0,0.06234567901234567,16.147530864197527,0)" xlink:href="#aI"/><use transform="matrix(0.06234567901234567,0,0,0.06234567901234567,28.61666666666666,0)" xlink:href="#aJ"/><use transform="matrix(0.06234567901234567,0,0,0.06234567901234567,34.85123456790123,0)" xlink:href="#aI"/></g><path d="M30-248c118-7 216 8 213 122C240-48 200 0 122 0H30v-248zM63-27c89 8 146-16 146-99s-60-101-146-95v194" id="aK"/><path d="M141-36C126-15 110 5 73 4 37 3 15-17 15-53c-1-64 63-63 125-63 3-35-9-54-41-54-24 1-41 7-42 31l-33-3c5-37 33-52 76-52 45 0 72 20 72 64v82c-1 20 7 32 28 27v20c-31 9-61-2-59-35zM48-53c0 20 12 33 32 33 41-3 63-29 60-74-43 2-92-5-92 41" id="aL"/><path d="M59-47c-2 24 18 29 38 22v24C64 9 27 4 27-40v-127H5v-23h24l9-43h21v43h35v23H59v120" id="aM"/><g id="i"><use transform="matrix(0.056172839506172814,0,0,0.056172839506172814,0,0)" xlink:href="#aK"/><use transform="matrix(0.056172839506172814,0,0,0.056172839506172814,14.548765432098758,0)" xlink:href="#aL"/><use transform="matrix(0.056172839506172814,0,0,0.056172839506172814,25.78333333333332,0)" xlink:href="#aM"/><use transform="matrix(0.056172839506172814,0,0,0.056172839506172814,31.400617283950602,0)" xlink:href="#aL"/></g><path d="M30 0v-248h187v28H63v79h144v27H63v87h162V0H30" id="aN"/><path d="M117-194c89-4 53 116 60 194h-32v-121c0-31-8-49-39-48C34-167 62-67 57 0H25l-1-190h30c1 10-1 24 2 32 11-22 29-35 61-36" id="aO"/><path d="M84 4C-5 8 30-112 23-190h32v120c0 31 7 50 39 49 72-2 45-101 50-169h31l1 190h-30c-1-10 1-25-2-33-11 22-28 36-60 37" id="aP"/><path d="M210-169c-67 3-38 105-44 169h-31v-121c0-29-5-50-35-48C34-165 62-65 56 0H25l-1-190h30c1 10-1 24 2 32 10-44 99-50 107 0 11-21 27-35 58-36 85-2 47 119 55 194h-31v-121c0-29-5-49-35-48" id="aQ"/><path d="M135-143c-3-34-86-38-87 0 15 53 115 12 119 90S17 21 10-45l28-5c4 36 97 45 98 0-10-56-113-15-118-90-4-57 82-63 122-42 12 7 21 19 24 35" id="aR"/><g id="j"><use transform="matrix(0.056172839506172814,0,0,0.056172839506172814,0,0)" xlink:href="#aN"/><use transform="matrix(0.056172839506172814,0,0,0.056172839506172814,13.481481481481476,0)" xlink:href="#aO"/><use transform="matrix(0.056172839506172814,0,0,0.056172839506172814,24.716049382716037,0)" xlink:href="#aP"/><use transform="matrix(0.056172839506172814,0,0,0.056172839506172814,35.9506172839506,0)" xlink:href="#aQ"/><use transform="matrix(0.056172839506172814,0,0,0.056172839506172814,52.74629629629627,0)" xlink:href="#aR"/></g><path d="M127-220V0H93v-220H8v-28h204v28h-85" id="aS"/><path d="M143 0L79-87 56-68V0H24v-261h32v163l83-92h37l-77 82L181 0h-38" id="aT"/><path d="M212-179c-10-28-35-45-73-45-59 0-87 40-87 99 0 60 29 101 89 101 43 0 62-24 78-52l27 14C228-24 195 4 139 4 59 4 22-46 18-125c-6-104 99-153 187-111 19 9 31 26 39 46" id="aU"/><path d="M100-194c63 0 86 42 84 106H49c0 40 14 67 53 68 26 1 43-12 49-29l28 8c-11 28-37 45-77 45C44 4 14-33 15-96c1-61 26-98 85-98zm52 81c6-60-76-77-97-28-3 7-6 17-6 28h103" id="aV"/><path d="M177-190C167-65 218 103 67 71c-23-6-38-20-44-43l32-5c15 47 100 32 89-28v-30C133-14 115 1 83 1 29 1 15-40 15-95c0-56 16-97 71-98 29-1 48 16 59 35 1-10 0-23 2-32h30zM94-22c36 0 50-32 50-73 0-42-14-75-50-75-39 0-46 34-46 75s6 73 46 73" id="aW"/><path d="M100-194c62-1 85 37 85 99 1 63-27 99-86 99S16-35 15-95c0-66 28-99 85-99zM99-20c44 1 53-31 53-75 0-43-8-75-51-75s-53 32-53 75 10 74 51 75" id="aX"/><path d="M114-163C36-179 61-72 57 0H25l-1-190h30c1 12-1 29 2 39 6-27 23-49 58-41v29" id="aY"/><path d="M179-190L93 31C79 59 56 82 12 73V49c39 6 53-20 64-50L1-190h34L92-34l54-156h33" id="aZ"/><g id="k"><use transform="matrix(0.056172839506172814,0,0,0.056172839506172814,0,0)" xlink:href="#aS"/><use transform="matrix(0.056172839506172814,0,0,0.056172839506172814,10.054938271604934,0)" xlink:href="#aL"/><use transform="matrix(0.056172839506172814,0,0,0.056172839506172814,21.289506172839495,0)" xlink:href="#aR"/><use transform="matrix(0.056172839506172814,0,0,0.056172839506172814,31.400617283950602,0)" xlink:href="#aT"/><use transform="matrix(0.056172839506172814,0,0,0.056172839506172814,41.51172839506171,0)" xlink:href="#aU"/><use transform="matrix(0.056172839506172814,0,0,0.056172839506172814,56.06049382716047,0)" xlink:href="#aL"/><use transform="matrix(0.056172839506172814,0,0,0.056172839506172814,67.29506172839504,0)" xlink:href="#aM"/><use transform="matrix(0.056172839506172814,0,0,0.056172839506172814,72.91234567901232,0)" xlink:href="#aV"/><use transform="matrix(0.056172839506172814,0,0,0.056172839506172814,84.14691358024689,0)" xlink:href="#aW"/><use transform="matrix(0.056172839506172814,0,0,0.056172839506172814,95.38148148148144,0)" xlink:href="#aX"/><use transform="matrix(0.056172839506172814,0,0,0.056172839506172814,106.616049382716,0)" xlink:href="#aY"/><use transform="matrix(0.056172839506172814,0,0,0.056172839506172814,113.30061728395056,0)" xlink:href="#aZ"/></g><path d="M30-248c87 1 191-15 191 75 0 78-77 80-158 76V0H30v-248zm33 125c57 0 124 11 124-50 0-59-68-47-124-48v98" id="ba"/><path d="M24-231v-30h32v30H24zM24 0v-190h32V0H24" id="bb"/><g id="l"><use transform="matrix(0.056172839506172814,0,0,0.056172839506172814,0,0)" xlink:href="#aS"/><use transform="matrix(0.056172839506172814,0,0,0.056172839506172814,10.054938271604934,0)" xlink:href="#aL"/><use transform="matrix(0.056172839506172814,0,0,0.056172839506172814,21.289506172839495,0)" xlink:href="#aR"/><use transform="matrix(0.056172839506172814,0,0,0.056172839506172814,31.400617283950602,0)" xlink:href="#aT"/><use transform="matrix(0.056172839506172814,0,0,0.056172839506172814,41.51172839506171,0)" xlink:href="#ba"/><use transform="matrix(0.056172839506172814,0,0,0.056172839506172814,54.99320987654318,0)" xlink:href="#aY"/><use transform="matrix(0.056172839506172814,0,0,0.056172839506172814,61.67777777777775,0)" xlink:href="#bb"/><use transform="matrix(0.056172839506172814,0,0,0.056172839506172814,66.1154320987654,0)" xlink:href="#aX"/><use transform="matrix(0.056172839506172814,0,0,0.056172839506172814,77.34999999999997,0)" xlink:href="#aY"/><use transform="matrix(0.056172839506172814,0,0,0.056172839506172814,84.03456790123452,0)" xlink:href="#bb"/><use transform="matrix(0.056172839506172814,0,0,0.056172839506172814,88.47222222222217,0)" xlink:href="#aM"/><use transform="matrix(0.056172839506172814,0,0,0.056172839506172814,94.08950617283945,0)" xlink:href="#aZ"/></g><path d="M185-189c-5-48-123-54-124 2 14 75 158 14 163 119 3 78-121 87-175 55-17-10-28-26-33-46l33-7c5 56 141 63 141-1 0-78-155-14-162-118-5-82 145-84 179-34 5 7 8 16 11 25" id="bc"/><g id="m"><use transform="matrix(0.056172839506172814,0,0,0.056172839506172814,0,0)" xlink:href="#aS"/><use transform="matrix(0.056172839506172814,0,0,0.056172839506172814,10.054938271604934,0)" xlink:href="#aL"/><use transform="matrix(0.056172839506172814,0,0,0.056172839506172814,21.289506172839495,0)" xlink:href="#aR"/><use transform="matrix(0.056172839506172814,0,0,0.056172839506172814,31.400617283950602,0)" xlink:href="#aT"/><use transform="matrix(0.056172839506172814,0,0,0.056172839506172814,41.51172839506171,0)" xlink:href="#bc"/><use transform="matrix(0.056172839506172814,0,0,0.056172839506172814,54.99320987654318,0)" xlink:href="#aM"/><use transform="matrix(0.056172839506172814,0,0,0.056172839506172814,60.61049382716047,0)" xlink:href="#aL"/><use transform="matrix(0.056172839506172814,0,0,0.056172839506172814,71.84506172839502,0)" xlink:href="#aM"/><use transform="matrix(0.056172839506172814,0,0,0.056172839506172814,77.4623456790123,0)" xlink:href="#aP"/><use transform="matrix(0.056172839506172814,0,0,0.056172839506172814,88.69691358024687,0)" xlink:href="#aR"/></g><path d="M232-93c-1 65-40 97-104 97C67 4 28-28 28-90v-158h33c8 89-33 224 67 224 102 0 64-133 71-224h33v155" id="bd"/><path d="M233-177c-1 41-23 64-60 70L243 0h-38l-65-103H63V0H30v-248c88 3 205-21 203 71zM63-129c60-2 137 13 137-47 0-61-80-42-137-45v92" id="be"/><path d="M24 0v-261h32V0H24" id="bf"/><g id="n"><use transform="matrix(0.056172839506172814,0,0,0.056172839506172814,0,0)" xlink:href="#bd"/><use transform="matrix(0.056172839506172814,0,0,0.056172839506172814,14.548765432098758,0)" xlink:href="#aR"/><use transform="matrix(0.056172839506172814,0,0,0.056172839506172814,24.659876543209865,0)" xlink:href="#aV"/><use transform="matrix(0.056172839506172814,0,0,0.056172839506172814,35.89444444444443,0)" xlink:href="#aY"/><use transform="matrix(0.056172839506172814,0,0,0.056172839506172814,42.579012345679,0)" xlink:href="#be"/><use transform="matrix(0.056172839506172814,0,0,0.056172839506172814,57.12777777777775,0)" xlink:href="#aX"/><use transform="matrix(0.056172839506172814,0,0,0.056172839506172814,68.36234567901232,0)" xlink:href="#bf"/><use transform="matrix(0.056172839506172814,0,0,0.056172839506172814,72.79999999999997,0)" xlink:href="#aV"/></g><path d="M240 0l2-218c-23 76-54 145-80 218h-23L58-218 59 0H30v-248h44l77 211c21-75 51-140 76-211h43V0h-30" id="bg"/><path d="M85-194c31 0 48 13 60 33l-1-100h32l1 261h-30c-2-10 0-23-3-31C134-8 116 4 85 4 32 4 16-35 15-94c0-66 23-100 70-100zm9 24c-40 0-46 34-46 75 0 40 6 74 45 74 42 0 51-32 51-76 0-42-9-74-50-73" id="bh"/><g id="o"><use transform="matrix(0.056172839506172814,0,0,0.056172839506172814,0,0)" xlink:href="#bg"/><use transform="matrix(0.056172839506172814,0,0,0.056172839506172814,16.795679012345673,0)" xlink:href="#aX"/><use transform="matrix(0.056172839506172814,0,0,0.056172839506172814,28.030246913580235,0)" xlink:href="#bh"/><use transform="matrix(0.056172839506172814,0,0,0.056172839506172814,39.2648148148148,0)" xlink:href="#aV"/><use transform="matrix(0.056172839506172814,0,0,0.056172839506172814,50.49938271604936,0)" xlink:href="#bf"/><use transform="matrix(0.056172839506172814,0,0,0.056172839506172814,54.937037037037015,0)" xlink:href="#aR"/></g><path d="M143 4C61 4 22-44 18-125c-5-107 100-154 193-111 17 8 29 25 37 43l-32 9c-13-25-37-40-76-40-61 0-88 39-88 99 0 61 29 100 91 101 35 0 62-11 79-27v-45h-74v-28h105v86C228-13 192 4 143 4" id="bi"/><path d="M115-194c55 1 70 41 70 98S169 2 115 4C84 4 66-9 55-30l1 105H24l-1-265h31l2 30c10-21 28-34 59-34zm-8 174c40 0 45-34 45-75s-6-73-45-74c-42 0-51 32-51 76 0 43 10 73 51 73" id="bj"/><g id="p"><use transform="matrix(0.056172839506172814,0,0,0.056172839506172814,0,0)" xlink:href="#bi"/><use transform="matrix(0.056172839506172814,0,0,0.056172839506172814,15.728395061728389,0)" xlink:href="#aY"/><use transform="matrix(0.056172839506172814,0,0,0.056172839506172814,22.412962962962954,0)" xlink:href="#aX"/><use transform="matrix(0.056172839506172814,0,0,0.056172839506172814,33.64753086419752,0)" xlink:href="#aP"/><use transform="matrix(0.056172839506172814,0,0,0.056172839506172814,44.88209876543208,0)" xlink:href="#bj"/></g><path d="M118-107v75H92v-75H18v-26h74v-75h26v75h74v26h-74" id="bk"/><use transform="matrix(0.056172839506172814,0,0,0.056172839506172814,0,0)" xlink:href="#bk" id="q"/><path d="M33 0v-248h34V0H33" id="bl"/><path d="M33-154v-36h34v36H33zM33 0v-36h34V0H33" id="bm"/><g id="r"><use transform="matrix(0.056172839506172814,0,0,0.056172839506172814,0,0)" xlink:href="#bi"/><use transform="matrix(0.056172839506172814,0,0,0.056172839506172814,15.728395061728389,0)" xlink:href="#aY"/><use transform="matrix(0.056172839506172814,0,0,0.056172839506172814,22.412962962962954,0)" xlink:href="#aX"/><use transform="matrix(0.056172839506172814,0,0,0.056172839506172814,33.64753086419752,0)" xlink:href="#aP"/><use transform="matrix(0.056172839506172814,0,0,0.056172839506172814,44.88209876543208,0)" xlink:href="#bj"/><use transform="matrix(0.056172839506172814,0,0,0.056172839506172814,56.116666666666646,0)" xlink:href="#bl"/><use transform="matrix(0.056172839506172814,0,0,0.056172839506172814,61.733950617283924,0)" xlink:href="#bh"/><use transform="matrix(0.056172839506172814,0,0,0.056172839506172814,72.9685185185185,0)" xlink:href="#bm"/></g><g id="s"><use transform="matrix(0.056172839506172814,0,0,0.056172839506172814,0,0)" xlink:href="#aR"/><use transform="matrix(0.056172839506172814,0,0,0.056172839506172814,10.111111111111107,0)" xlink:href="#aM"/><use transform="matrix(0.056172839506172814,0,0,0.056172839506172814,15.728395061728389,0)" xlink:href="#aY"/><use transform="matrix(0.056172839506172814,0,0,0.056172839506172814,22.412962962962954,0)" xlink:href="#bb"/><use transform="matrix(0.056172839506172814,0,0,0.056172839506172814,26.850617283950605,0)" xlink:href="#aO"/><use transform="matrix(0.056172839506172814,0,0,0.056172839506172814,38.08518518518517,0)" xlink:href="#aW"/></g><path d="M190 0L58-211 59 0H30v-248h39L202-35l-2-213h31V0h-41" id="bn"/><g id="t"><use transform="matrix(0.056172839506172814,0,0,0.056172839506172814,0,0)" xlink:href="#bi"/><use transform="matrix(0.056172839506172814,0,0,0.056172839506172814,15.728395061728389,0)" xlink:href="#aY"/><use transform="matrix(0.056172839506172814,0,0,0.056172839506172814,22.412962962962954,0)" xlink:href="#aX"/><use transform="matrix(0.056172839506172814,0,0,0.056172839506172814,33.64753086419752,0)" xlink:href="#aP"/><use transform="matrix(0.056172839506172814,0,0,0.056172839506172814,44.88209876543208,0)" xlink:href="#bj"/><use transform="matrix(0.056172839506172814,0,0,0.056172839506172814,56.116666666666646,0)" xlink:href="#bn"/><use transform="matrix(0.056172839506172814,0,0,0.056172839506172814,70.66543209876541,0)" xlink:href="#aL"/><use transform="matrix(0.056172839506172814,0,0,0.056172839506172814,81.89999999999998,0)" xlink:href="#aQ"/><use transform="matrix(0.056172839506172814,0,0,0.056172839506172814,98.69567901234565,0)" xlink:href="#aV"/><use transform="matrix(0.056172839506172814,0,0,0.056172839506172814,109.93024691358022,0)" xlink:href="#bm"/></g><g id="u"><use transform="matrix(0.056172839506172814,0,0,0.056172839506172814,0,0)" xlink:href="#aS"/><use transform="matrix(0.056172839506172814,0,0,0.056172839506172814,10.054938271604934,0)" xlink:href="#aL"/><use transform="matrix(0.056172839506172814,0,0,0.056172839506172814,21.289506172839495,0)" xlink:href="#aR"/><use transform="matrix(0.056172839506172814,0,0,0.056172839506172814,31.400617283950602,0)" xlink:href="#aT"/><use transform="matrix(0.056172839506172814,0,0,0.056172839506172814,41.51172839506171,0)" xlink:href="#aR"/><use transform="matrix(0.056172839506172814,0,0,0.056172839506172814,51.62283950617282,0)" xlink:href="#bm"/></g><path d="M96-169c-40 0-48 33-48 73s9 75 48 75c24 0 41-14 43-38l32 2c-6 37-31 61-74 61-59 0-76-41-82-99-10-93 101-131 147-64 4 7 5 14 7 22l-32 3c-4-21-16-35-41-35" id="bo"/><path d="M18-100v-36l175-74v27L42-118l151 64v27" id="bp"/><path d="M18-27v-27l151-64-151-65v-27l175 74v36" id="bq"/><g id="v"><use transform="matrix(0.056172839506172814,0,0,0.056172839506172814,0,0)" xlink:href="#bl"/><use transform="matrix(0.056172839506172814,0,0,0.056172839506172814,5.617283950617281,0)" xlink:href="#aU"/><use transform="matrix(0.056172839506172814,0,0,0.056172839506172814,20.16604938271604,0)" xlink:href="#aX"/><use transform="matrix(0.056172839506172814,0,0,0.056172839506172814,31.400617283950602,0)" xlink:href="#bf"/><use transform="matrix(0.056172839506172814,0,0,0.056172839506172814,35.83827160493826,0)" xlink:href="#bf"/><use transform="matrix(0.056172839506172814,0,0,0.056172839506172814,40.27592592592591,0)" xlink:href="#aV"/><use transform="matrix(0.056172839506172814,0,0,0.056172839506172814,51.510493827160474,0)" xlink:href="#bo"/><use transform="matrix(0.056172839506172814,0,0,0.056172839506172814,61.621604938271574,0)" xlink:href="#aM"/><use transform="matrix(0.056172839506172814,0,0,0.056172839506172814,67.23888888888887,0)" xlink:href="#bb"/><use transform="matrix(0.056172839506172814,0,0,0.056172839506172814,71.67654320987651,0)" xlink:href="#aX"/><use transform="matrix(0.056172839506172814,0,0,0.056172839506172814,82.91111111111107,0)" xlink:href="#aO"/><use transform="matrix(0.056172839506172814,0,0,0.056172839506172814,94.14567901234562,0)" xlink:href="#bp"/><use transform="matrix(0.056172839506172814,0,0,0.056172839506172814,105.94197530864191,0)" xlink:href="#aS"/><use transform="matrix(0.056172839506172814,0,0,0.056172839506172814,115.99691358024685,0)" xlink:href="#aL"/><use transform="matrix(0.056172839506172814,0,0,0.056172839506172814,127.2314814814814,0)" xlink:href="#aR"/><use transform="matrix(0.056172839506172814,0,0,0.056172839506172814,137.34259259259252,0)" xlink:href="#aT"/><use transform="matrix(0.056172839506172814,0,0,0.056172839506172814,147.45370370370364,0)" xlink:href="#bq"/></g><g id="w"><use transform="matrix(0.056172839506172814,0,0,0.056172839506172814,0,0)" xlink:href="#bk"/><use transform="matrix(0.056172839506172814,0,0,0.056172839506172814,11.79629629629629,0)" xlink:href="#bd"/><use transform="matrix(0.056172839506172814,0,0,0.056172839506172814,26.34506172839505,0)" xlink:href="#aR"/><use transform="matrix(0.056172839506172814,0,0,0.056172839506172814,36.45617283950615,0)" xlink:href="#aV"/><use transform="matrix(0.056172839506172814,0,0,0.056172839506172814,47.690740740740715,0)" xlink:href="#aY"/><use transform="matrix(0.056172839506172814,0,0,0.056172839506172814,54.37530864197528,0)" xlink:href="#aR"/><use transform="matrix(0.056172839506172814,0,0,0.056172839506172814,64.48641975308638,0)" xlink:href="#bm"/></g><g id="x"><use transform="matrix(0.056172839506172814,0,0,0.056172839506172814,0,0)" xlink:href="#bl"/><use transform="matrix(0.056172839506172814,0,0,0.056172839506172814,5.617283950617281,0)" xlink:href="#aU"/><use transform="matrix(0.056172839506172814,0,0,0.056172839506172814,20.16604938271604,0)" xlink:href="#aX"/><use transform="matrix(0.056172839506172814,0,0,0.056172839506172814,31.400617283950602,0)" xlink:href="#bf"/><use transform="matrix(0.056172839506172814,0,0,0.056172839506172814,35.83827160493826,0)" xlink:href="#bf"/><use transform="matrix(0.056172839506172814,0,0,0.056172839506172814,40.27592592592591,0)" xlink:href="#aV"/><use transform="matrix(0.056172839506172814,0,0,0.056172839506172814,51.510493827160474,0)" xlink:href="#bo"/><use transform="matrix(0.056172839506172814,0,0,0.056172839506172814,61.621604938271574,0)" xlink:href="#aM"/><use transform="matrix(0.056172839506172814,0,0,0.056172839506172814,67.23888888888887,0)" xlink:href="#bb"/><use transform="matrix(0.056172839506172814,0,0,0.056172839506172814,71.67654320987651,0)" xlink:href="#aX"/><use transform="matrix(0.056172839506172814,0,0,0.056172839506172814,82.91111111111107,0)" xlink:href="#aO"/><use transform="matrix(0.056172839506172814,0,0,0.056172839506172814,94.14567901234562,0)" xlink:href="#bp"/><use transform="matrix(0.056172839506172814,0,0,0.056172839506172814,105.94197530864191,0)" xlink:href="#bd"/><use transform="matrix(0.056172839506172814,0,0,0.056172839506172814,120.49074074074069,0)" xlink:href="#aR"/><use transform="matrix(0.056172839506172814,0,0,0.056172839506172814,130.6018518518518,0)" xlink:href="#aV"/><use transform="matrix(0.056172839506172814,0,0,0.056172839506172814,141.83641975308635,0)" xlink:href="#aY"/><use transform="matrix(0.056172839506172814,0,0,0.056172839506172814,148.52098765432092,0)" xlink:href="#bq"/></g><g id="y"><use transform="matrix(0.056172839506172814,0,0,0.056172839506172814,0,0)" xlink:href="#aS"/><use transform="matrix(0.056172839506172814,0,0,0.056172839506172814,10.054938271604934,0)" xlink:href="#aL"/><use transform="matrix(0.056172839506172814,0,0,0.056172839506172814,21.289506172839495,0)" xlink:href="#aR"/><use transform="matrix(0.056172839506172814,0,0,0.056172839506172814,31.400617283950602,0)" xlink:href="#aT"/></g><g id="z"><use transform="matrix(0.056172839506172814,0,0,0.056172839506172814,0,0)" xlink:href="#aS"/><use transform="matrix(0.056172839506172814,0,0,0.056172839506172814,10.054938271604934,0)" xlink:href="#aL"/><use transform="matrix(0.056172839506172814,0,0,0.056172839506172814,21.289506172839495,0)" xlink:href="#aR"/><use transform="matrix(0.056172839506172814,0,0,0.056172839506172814,31.400617283950602,0)" xlink:href="#aT"/><use transform="matrix(0.056172839506172814,0,0,0.056172839506172814,41.51172839506171,0)" xlink:href="#bl"/><use transform="matrix(0.056172839506172814,0,0,0.056172839506172814,47.12901234567899,0)" xlink:href="#bh"/><use transform="matrix(0.056172839506172814,0,0,0.056172839506172814,58.36358024691356,0)" xlink:href="#bm"/></g><g id="A"><use transform="matrix(0.056172839506172814,0,0,0.056172839506172814,0,0)" xlink:href="#bn"/><use transform="matrix(0.056172839506172814,0,0,0.056172839506172814,14.548765432098758,0)" xlink:href="#aL"/><use transform="matrix(0.056172839506172814,0,0,0.056172839506172814,25.78333333333332,0)" xlink:href="#aQ"/><use transform="matrix(0.056172839506172814,0,0,0.056172839506172814,42.57901234567899,0)" xlink:href="#aV"/><use transform="matrix(0.056172839506172814,0,0,0.056172839506172814,53.81358024691355,0)" xlink:href="#bm"/></g><g id="B"><use transform="matrix(0.056172839506172814,0,0,0.056172839506172814,0,0)" xlink:href="#aK"/><use transform="matrix(0.056172839506172814,0,0,0.056172839506172814,14.548765432098758,0)" xlink:href="#aV"/><use transform="matrix(0.056172839506172814,0,0,0.056172839506172814,25.78333333333332,0)" xlink:href="#aR"/><use transform="matrix(0.056172839506172814,0,0,0.056172839506172814,35.89444444444443,0)" xlink:href="#bo"/><use transform="matrix(0.056172839506172814,0,0,0.056172839506172814,46.00555555555554,0)" xlink:href="#aY"/><use transform="matrix(0.056172839506172814,0,0,0.056172839506172814,52.690123456790104,0)" xlink:href="#bb"/><use transform="matrix(0.056172839506172814,0,0,0.056172839506172814,57.12777777777776,0)" xlink:href="#bj"/><use transform="matrix(0.056172839506172814,0,0,0.056172839506172814,68.36234567901232,0)" xlink:href="#aM"/><use transform="matrix(0.056172839506172814,0,0,0.056172839506172814,73.9796296296296,0)" xlink:href="#bb"/><use transform="matrix(0.056172839506172814,0,0,0.056172839506172814,78.41728395061725,0)" xlink:href="#aX"/><use transform="matrix(0.056172839506172814,0,0,0.056172839506172814,89.6518518518518,0)" xlink:href="#aO"/><use transform="matrix(0.056172839506172814,0,0,0.056172839506172814,100.88641975308636,0)" xlink:href="#bm"/></g><g id="C"><use transform="matrix(0.056172839506172814,0,0,0.056172839506172814,0,0)" xlink:href="#bc"/><use transform="matrix(0.056172839506172814,0,0,0.056172839506172814,13.481481481481476,0)" xlink:href="#aM"/><use transform="matrix(0.056172839506172814,0,0,0.056172839506172814,19.09876543209876,0)" xlink:href="#aL"/><use transform="matrix(0.056172839506172814,0,0,0.056172839506172814,30.333333333333318,0)" xlink:href="#aY"/><use transform="matrix(0.056172839506172814,0,0,0.056172839506172814,37.01790123456789,0)" xlink:href="#aM"/><use transform="matrix(0.056172839506172814,0,0,0.056172839506172814,42.635185185185165,0)" xlink:href="#aK"/><use transform="matrix(0.056172839506172814,0,0,0.056172839506172814,57.18395061728393,0)" xlink:href="#aL"/><use transform="matrix(0.056172839506172814,0,0,0.056172839506172814,68.41851851851848,0)" xlink:href="#aM"/><use transform="matrix(0.056172839506172814,0,0,0.056172839506172814,74.03580246913576,0)" xlink:href="#aV"/><use transform="matrix(0.056172839506172814,0,0,0.056172839506172814,85.27037037037033,0)" xlink:href="#bm"/></g><g id="D"><use transform="matrix(0.056172839506172814,0,0,0.056172839506172814,0,0)" xlink:href="#aK"/><use transform="matrix(0.056172839506172814,0,0,0.056172839506172814,14.548765432098758,0)" xlink:href="#aL"/><use transform="matrix(0.056172839506172814,0,0,0.056172839506172814,25.78333333333332,0)" xlink:href="#aM"/><use transform="matrix(0.056172839506172814,0,0,0.056172839506172814,31.400617283950602,0)" xlink:href="#aV"/><use transform="matrix(0.056172839506172814,0,0,0.056172839506172814,42.635185185185165,0)" xlink:href="#aS"/><use transform="matrix(0.056172839506172814,0,0,0.056172839506172814,54.20679012345677,0)" xlink:href="#bb"/><use transform="matrix(0.056172839506172814,0,0,0.056172839506172814,58.64444444444442,0)" xlink:href="#aQ"/><use transform="matrix(0.056172839506172814,0,0,0.056172839506172814,75.4401234567901,0)" xlink:href="#aV"/></g><g id="E"><use transform="matrix(0.056172839506172814,0,0,0.056172839506172814,0,0)" xlink:href="#bk"/><use transform="matrix(0.056172839506172814,0,0,0.056172839506172814,11.79629629629629,0)" xlink:href="#aK"/><use transform="matrix(0.056172839506172814,0,0,0.056172839506172814,26.34506172839505,0)" xlink:href="#aP"/><use transform="matrix(0.056172839506172814,0,0,0.056172839506172814,37.57962962962961,0)" xlink:href="#aV"/><use transform="matrix(0.056172839506172814,0,0,0.056172839506172814,48.81419753086417,0)" xlink:href="#aK"/><use transform="matrix(0.056172839506172814,0,0,0.056172839506172814,63.362962962962925,0)" xlink:href="#aL"/><use transform="matrix(0.056172839506172814,0,0,0.056172839506172814,74.5975308641975,0)" xlink:href="#aM"/><use transform="matrix(0.056172839506172814,0,0,0.056172839506172814,80.21481481481477,0)" xlink:href="#aV"/><use transform="matrix(0.056172839506172814,0,0,0.056172839506172814,91.44938271604934,0)" xlink:href="#bm"/></g><g id="F"><use transform="matrix(0.056172839506172814,0,0,0.056172839506172814,0,0)" xlink:href="#bd"/><use transform="matrix(0.056172839506172814,0,0,0.056172839506172814,14.548765432098758,0)" xlink:href="#aR"/><use transform="matrix(0.056172839506172814,0,0,0.056172839506172814,24.659876543209865,0)" xlink:href="#aV"/><use transform="matrix(0.056172839506172814,0,0,0.056172839506172814,35.89444444444443,0)" xlink:href="#aY"/><use transform="matrix(0.056172839506172814,0,0,0.056172839506172814,42.579012345679,0)" xlink:href="#bl"/><use transform="matrix(0.056172839506172814,0,0,0.056172839506172814,48.19629629629628,0)" xlink:href="#bh"/><use transform="matrix(0.056172839506172814,0,0,0.056172839506172814,59.43086419753085,0)" xlink:href="#bm"/></g><g id="G"><use transform="matrix(0.056172839506172814,0,0,0.056172839506172814,0,0)" xlink:href="#bk"/><use transform="matrix(0.056172839506172814,0,0,0.056172839506172814,11.79629629629629,0)" xlink:href="#bd"/><use transform="matrix(0.056172839506172814,0,0,0.056172839506172814,26.34506172839505,0)" xlink:href="#aR"/><use transform="matrix(0.056172839506172814,0,0,0.056172839506172814,36.45617283950615,0)" xlink:href="#aV"/><use transform="matrix(0.056172839506172814,0,0,0.056172839506172814,47.690740740740715,0)" xlink:href="#aY"/><use transform="matrix(0.056172839506172814,0,0,0.056172839506172814,54.37530864197528,0)" xlink:href="#bm"/></g><g id="H"><use transform="matrix(0.056172839506172814,0,0,0.056172839506172814,0,0)" xlink:href="#bd"/><use transform="matrix(0.056172839506172814,0,0,0.056172839506172814,14.548765432098758,0)" xlink:href="#aR"/><use transform="matrix(0.056172839506172814,0,0,0.056172839506172814,24.659876543209865,0)" xlink:href="#aV"/><use transform="matrix(0.056172839506172814,0,0,0.056172839506172814,35.89444444444443,0)" xlink:href="#aY"/></g><g id="I"><use transform="matrix(0.056172839506172814,0,0,0.056172839506172814,0,0)" xlink:href="#bi"/><use transform="matrix(0.056172839506172814,0,0,0.056172839506172814,15.728395061728389,0)" xlink:href="#aY"/><use transform="matrix(0.056172839506172814,0,0,0.056172839506172814,22.412962962962954,0)" xlink:href="#aX"/><use transform="matrix(0.056172839506172814,0,0,0.056172839506172814,33.64753086419752,0)" xlink:href="#aP"/><use transform="matrix(0.056172839506172814,0,0,0.056172839506172814,44.88209876543208,0)" xlink:href="#bj"/><use transform="matrix(0.056172839506172814,0,0,0.056172839506172814,56.116666666666646,0)" xlink:href="#bm"/></g><g id="J"><use transform="matrix(0.056172839506172814,0,0,0.056172839506172814,0,0)" xlink:href="#bi"/><use transform="matrix(0.056172839506172814,0,0,0.056172839506172814,15.728395061728389,0)" xlink:href="#aY"/><use transform="matrix(0.056172839506172814,0,0,0.056172839506172814,22.412962962962954,0)" xlink:href="#aX"/><use transform="matrix(0.056172839506172814,0,0,0.056172839506172814,33.64753086419752,0)" xlink:href="#aP"/><use transform="matrix(0.056172839506172814,0,0,0.056172839506172814,44.88209876543208,0)" xlink:href="#bj"/></g><g id="K"><use transform="matrix(0.056172839506172814,0,0,0.056172839506172814,0,0)" xlink:href="#aU"/><use transform="matrix(0.056172839506172814,0,0,0.056172839506172814,14.548765432098758,0)" xlink:href="#aL"/><use transform="matrix(0.056172839506172814,0,0,0.056172839506172814,25.78333333333332,0)" xlink:href="#aM"/><use transform="matrix(0.056172839506172814,0,0,0.056172839506172814,31.400617283950602,0)" xlink:href="#aV"/><use transform="matrix(0.056172839506172814,0,0,0.056172839506172814,42.635185185185165,0)" xlink:href="#aW"/><use transform="matrix(0.056172839506172814,0,0,0.056172839506172814,53.86975308641973,0)" xlink:href="#aX"/><use transform="matrix(0.056172839506172814,0,0,0.056172839506172814,65.10432098765429,0)" xlink:href="#aY"/><use transform="matrix(0.056172839506172814,0,0,0.056172839506172814,71.78888888888885,0)" xlink:href="#aZ"/><use transform="matrix(0.056172839506172814,0,0,0.056172839506172814,81.89999999999995,0)" xlink:href="#bm"/></g><g id="L"><use transform="matrix(0.056172839506172814,0,0,0.056172839506172814,0,0)" xlink:href="#aS"/><use transform="matrix(0.056172839506172814,0,0,0.056172839506172814,10.054938271604934,0)" xlink:href="#aL"/><use transform="matrix(0.056172839506172814,0,0,0.056172839506172814,21.289506172839495,0)" xlink:href="#aR"/><use transform="matrix(0.056172839506172814,0,0,0.056172839506172814,31.400617283950602,0)" xlink:href="#aT"/><use transform="matrix(0.056172839506172814,0,0,0.056172839506172814,41.51172839506171,0)" xlink:href="#aU"/><use transform="matrix(0.056172839506172814,0,0,0.056172839506172814,56.06049382716047,0)" xlink:href="#aL"/><use transform="matrix(0.056172839506172814,0,0,0.056172839506172814,67.29506172839504,0)" xlink:href="#aM"/><use transform="matrix(0.056172839506172814,0,0,0.056172839506172814,72.91234567901232,0)" xlink:href="#aV"/><use transform="matrix(0.056172839506172814,0,0,0.056172839506172814,84.14691358024689,0)" xlink:href="#aW"/><use transform="matrix(0.056172839506172814,0,0,0.056172839506172814,95.38148148148144,0)" xlink:href="#aX"/><use transform="matrix(0.056172839506172814,0,0,0.056172839506172814,106.616049382716,0)" xlink:href="#aY"/><use transform="matrix(0.056172839506172814,0,0,0.056172839506172814,113.30061728395056,0)" xlink:href="#aZ"/></g><g id="M"><use transform="matrix(0.056172839506172814,0,0,0.056172839506172814,0,0)" xlink:href="#ba"/><use transform="matrix(0.056172839506172814,0,0,0.056172839506172814,13.481481481481476,0)" xlink:href="#aY"/><use transform="matrix(0.056172839506172814,0,0,0.056172839506172814,20.16604938271604,0)" xlink:href="#bb"/><use transform="matrix(0.056172839506172814,0,0,0.056172839506172814,24.603703703703694,0)" xlink:href="#aX"/><use transform="matrix(0.056172839506172814,0,0,0.056172839506172814,35.83827160493826,0)" xlink:href="#aY"/><use transform="matrix(0.056172839506172814,0,0,0.056172839506172814,42.52283950617282,0)" xlink:href="#bb"/><use transform="matrix(0.056172839506172814,0,0,0.056172839506172814,46.96049382716048,0)" xlink:href="#aM"/><use transform="matrix(0.056172839506172814,0,0,0.056172839506172814,52.577777777777754,0)" xlink:href="#aZ"/><use transform="matrix(0.056172839506172814,0,0,0.056172839506172814,62.68888888888886,0)" xlink:href="#bm"/></g><g id="N"><use transform="matrix(0.056172839506172814,0,0,0.056172839506172814,0,0)" xlink:href="#aS"/><use transform="matrix(0.056172839506172814,0,0,0.056172839506172814,10.054938271604934,0)" xlink:href="#aL"/><use transform="matrix(0.056172839506172814,0,0,0.056172839506172814,21.289506172839495,0)" xlink:href="#aR"/><use transform="matrix(0.056172839506172814,0,0,0.056172839506172814,31.400617283950602,0)" xlink:href="#aT"/><use transform="matrix(0.056172839506172814,0,0,0.056172839506172814,41.51172839506171,0)" xlink:href="#ba"/><use transform="matrix(0.056172839506172814,0,0,0.056172839506172814,54.99320987654318,0)" xlink:href="#aY"/><use transform="matrix(0.056172839506172814,0,0,0.056172839506172814,61.67777777777775,0)" xlink:href="#bb"/><use transform="matrix(0.056172839506172814,0,0,0.056172839506172814,66.1154320987654,0)" xlink:href="#aX"/><use transform="matrix(0.056172839506172814,0,0,0.056172839506172814,77.34999999999997,0)" xlink:href="#aY"/><use transform="matrix(0.056172839506172814,0,0,0.056172839506172814,84.03456790123452,0)" xlink:href="#bb"/><use transform="matrix(0.056172839506172814,0,0,0.056172839506172814,88.47222222222217,0)" xlink:href="#aM"/><use transform="matrix(0.056172839506172814,0,0,0.056172839506172814,94.08950617283945,0)" xlink:href="#aZ"/></g><g id="O"><use transform="matrix(0.056172839506172814,0,0,0.056172839506172814,0,0)" xlink:href="#bc"/><use transform="matrix(0.056172839506172814,0,0,0.056172839506172814,13.481481481481476,0)" xlink:href="#aM"/><use transform="matrix(0.056172839506172814,0,0,0.056172839506172814,19.09876543209876,0)" xlink:href="#aL"/><use transform="matrix(0.056172839506172814,0,0,0.056172839506172814,30.333333333333318,0)" xlink:href="#aM"/><use transform="matrix(0.056172839506172814,0,0,0.056172839506172814,35.950617283950606,0)" xlink:href="#aP"/><use transform="matrix(0.056172839506172814,0,0,0.056172839506172814,47.18518518518517,0)" xlink:href="#aR"/><use transform="matrix(0.056172839506172814,0,0,0.056172839506172814,57.296296296296276,0)" xlink:href="#bm"/></g><g id="P"><use transform="matrix(0.056172839506172814,0,0,0.056172839506172814,0,0)" xlink:href="#aS"/><use transform="matrix(0.056172839506172814,0,0,0.056172839506172814,10.054938271604934,0)" xlink:href="#aL"/><use transform="matrix(0.056172839506172814,0,0,0.056172839506172814,21.289506172839495,0)" xlink:href="#aR"/><use transform="matrix(0.056172839506172814,0,0,0.056172839506172814,31.400617283950602,0)" xlink:href="#aT"/><use transform="matrix(0.056172839506172814,0,0,0.056172839506172814,41.51172839506171,0)" xlink:href="#bc"/><use transform="matrix(0.056172839506172814,0,0,0.056172839506172814,54.99320987654318,0)" xlink:href="#aM"/><use transform="matrix(0.056172839506172814,0,0,0.056172839506172814,60.61049382716047,0)" xlink:href="#aL"/><use transform="matrix(0.056172839506172814,0,0,0.056172839506172814,71.84506172839502,0)" xlink:href="#aM"/><use transform="matrix(0.056172839506172814,0,0,0.056172839506172814,77.4623456790123,0)" xlink:href="#aP"/><use transform="matrix(0.056172839506172814,0,0,0.056172839506172814,88.69691358024687,0)" xlink:href="#aR"/></g><path d="M140-251c81 0 123 46 123 126C263-46 219 4 140 4 59 4 17-45 17-125s42-126 123-126zm0 227c63 0 89-41 89-101s-29-99-89-99c-61 0-89 39-89 99S79-25 140-24" id="br"/><g id="Q"><use transform="matrix(0.056172839506172814,0,0,0.056172839506172814,0,0)" xlink:href="#aU"/><use transform="matrix(0.056172839506172814,0,0,0.056172839506172814,14.548765432098758,0)" xlink:href="#aY"/><use transform="matrix(0.056172839506172814,0,0,0.056172839506172814,21.233333333333324,0)" xlink:href="#aV"/><use transform="matrix(0.056172839506172814,0,0,0.056172839506172814,32.46790123456789,0)" xlink:href="#aL"/><use transform="matrix(0.056172839506172814,0,0,0.056172839506172814,43.70246913580245,0)" xlink:href="#aM"/><use transform="matrix(0.056172839506172814,0,0,0.056172839506172814,49.31975308641974,0)" xlink:href="#aV"/><use transform="matrix(0.056172839506172814,0,0,0.056172839506172814,60.55432098765431,0)" xlink:href="#bh"/><use transform="matrix(0.056172839506172814,0,0,0.056172839506172814,71.78888888888886,0)" xlink:href="#br"/><use transform="matrix(0.056172839506172814,0,0,0.056172839506172814,87.51728395061726,0)" xlink:href="#aO"/><use transform="matrix(0.056172839506172814,0,0,0.056172839506172814,98.75185185185182,0)" xlink:href="#bm"/></g><g id="R"><use transform="matrix(0.056172839506172814,0,0,0.056172839506172814,0,0)" xlink:href="#aK"/><use transform="matrix(0.056172839506172814,0,0,0.056172839506172814,14.548765432098758,0)" xlink:href="#aL"/><use transform="matrix(0.056172839506172814,0,0,0.056172839506172814,25.78333333333332,0)" xlink:href="#aM"/><use transform="matrix(0.056172839506172814,0,0,0.056172839506172814,31.400617283950602,0)" xlink:href="#aV"/><use transform="matrix(0.056172839506172814,0,0,0.056172839506172814,42.635185185185165,0)" xlink:href="#aS"/><use transform="matrix(0.056172839506172814,0,0,0.056172839506172814,54.20679012345677,0)" xlink:href="#bb"/><use transform="matrix(0.056172839506172814,0,0,0.056172839506172814,58.64444444444442,0)" xlink:href="#aQ"/><use transform="matrix(0.056172839506172814,0,0,0.056172839506172814,75.4401234567901,0)" xlink:href="#aV"/></g><g id="S"><use transform="matrix(0.056172839506172814,0,0,0.056172839506172814,0,0)" xlink:href="#bd"/><use transform="matrix(0.056172839506172814,0,0,0.056172839506172814,14.548765432098758,0)" xlink:href="#aR"/><use transform="matrix(0.056172839506172814,0,0,0.056172839506172814,24.659876543209865,0)" xlink:href="#aV"/><use transform="matrix(0.056172839506172814,0,0,0.056172839506172814,35.89444444444443,0)" xlink:href="#aY"/></g><g id="T"><use transform="matrix(0.056172839506172814,0,0,0.056172839506172814,0,0)" xlink:href="#bm"/><use transform="matrix(0.056172839506172814,0,0,0.056172839506172814,5.617283950617281,0)" xlink:href="#bl"/><use transform="matrix(0.056172839506172814,0,0,0.056172839506172814,11.234567901234563,0)" xlink:href="#bh"/><use transform="matrix(0.056172839506172814,0,0,0.056172839506172814,22.469135802469125,0)" xlink:href="#aV"/><use transform="matrix(0.056172839506172814,0,0,0.056172839506172814,33.70370370370369,0)" xlink:href="#aO"/><use transform="matrix(0.056172839506172814,0,0,0.056172839506172814,44.93827160493825,0)" xlink:href="#aM"/><use transform="matrix(0.056172839506172814,0,0,0.056172839506172814,50.55555555555553,0)" xlink:href="#bb"/><use transform="matrix(0.056172839506172814,0,0,0.056172839506172814,54.99320987654318,0)" xlink:href="#aM"/><use transform="matrix(0.056172839506172814,0,0,0.056172839506172814,60.61049382716047,0)" xlink:href="#aZ"/><use transform="matrix(0.056172839506172814,0,0,0.056172839506172814,70.72160493827158,0)" xlink:href="#bd"/><use transform="matrix(0.056172839506172814,0,0,0.056172839506172814,85.27037037037034,0)" xlink:href="#aR"/><use transform="matrix(0.056172839506172814,0,0,0.056172839506172814,95.38148148148144,0)" xlink:href="#aV"/><use transform="matrix(0.056172839506172814,0,0,0.056172839506172814,106.616049382716,0)" xlink:href="#aY"/></g><path d="M63-220v92h138v28H63V0H30v-248h175v28H63" id="bs"/><g id="U"><use transform="matrix(0.056172839506172814,0,0,0.056172839506172814,0,0)" xlink:href="#bs"/><use transform="matrix(0.056172839506172814,0,0,0.056172839506172814,12.301851851851847,0)" xlink:href="#bl"/><use transform="matrix(0.056172839506172814,0,0,0.056172839506172814,17.91913580246913,0)" xlink:href="#aY"/><use transform="matrix(0.056172839506172814,0,0,0.056172839506172814,24.603703703703694,0)" xlink:href="#aR"/><use transform="matrix(0.056172839506172814,0,0,0.056172839506172814,34.7148148148148,0)" xlink:href="#aM"/><use transform="matrix(0.056172839506172814,0,0,0.056172839506172814,40.33209876543208,0)" xlink:href="#bn"/><use transform="matrix(0.056172839506172814,0,0,0.056172839506172814,54.88086419753084,0)" xlink:href="#aL"/><use transform="matrix(0.056172839506172814,0,0,0.056172839506172814,66.11543209876541,0)" xlink:href="#aQ"/><use transform="matrix(0.056172839506172814,0,0,0.056172839506172814,82.91111111111108,0)" xlink:href="#aV"/><use transform="matrix(0.056172839506172814,0,0,0.056172839506172814,94.14567901234565,0)" xlink:href="#bm"/></g><path d="M30 0v-248h33v221h125V0H30" id="bt"/><g id="V"><use transform="matrix(0.056172839506172814,0,0,0.056172839506172814,0,0)" xlink:href="#bt"/><use transform="matrix(0.056172839506172814,0,0,0.056172839506172814,11.234567901234563,0)" xlink:href="#aL"/><use transform="matrix(0.056172839506172814,0,0,0.056172839506172814,22.469135802469125,0)" xlink:href="#aR"/><use transform="matrix(0.056172839506172814,0,0,0.056172839506172814,32.58024691358023,0)" xlink:href="#aM"/><use transform="matrix(0.056172839506172814,0,0,0.056172839506172814,38.19753086419752,0)" xlink:href="#bn"/><use transform="matrix(0.056172839506172814,0,0,0.056172839506172814,52.74629629629628,0)" xlink:href="#aL"/><use transform="matrix(0.056172839506172814,0,0,0.056172839506172814,63.98086419753085,0)" xlink:href="#aQ"/><use transform="matrix(0.056172839506172814,0,0,0.056172839506172814,80.77654320987651,0)" xlink:href="#aV"/><use transform="matrix(0.056172839506172814,0,0,0.056172839506172814,92.01111111111106,0)" xlink:href="#bm"/></g><g id="W"><use transform="matrix(0.056172839506172814,0,0,0.056172839506172814,0,0)" xlink:href="#bk"/><use transform="matrix(0.056172839506172814,0,0,0.056172839506172814,11.79629629629629,0)" xlink:href="#be"/><use transform="matrix(0.056172839506172814,0,0,0.056172839506172814,26.34506172839505,0)" xlink:href="#aX"/><use transform="matrix(0.056172839506172814,0,0,0.056172839506172814,37.57962962962961,0)" xlink:href="#bf"/><use transform="matrix(0.056172839506172814,0,0,0.056172839506172814,42.01728395061726,0)" xlink:href="#aV"/><use transform="matrix(0.056172839506172814,0,0,0.056172839506172814,53.251851851851825,0)" xlink:href="#bm"/></g><g id="X"><use transform="matrix(0.056172839506172814,0,0,0.056172839506172814,0,0)" xlink:href="#bd"/><use transform="matrix(0.056172839506172814,0,0,0.056172839506172814,14.548765432098758,0)" xlink:href="#aR"/><use transform="matrix(0.056172839506172814,0,0,0.056172839506172814,24.659876543209865,0)" xlink:href="#aV"/><use transform="matrix(0.056172839506172814,0,0,0.056172839506172814,35.89444444444443,0)" xlink:href="#aY"/><use transform="matrix(0.056172839506172814,0,0,0.056172839506172814,42.579012345679,0)" xlink:href="#be"/><use transform="matrix(0.056172839506172814,0,0,0.056172839506172814,57.12777777777775,0)" xlink:href="#aX"/><use transform="matrix(0.056172839506172814,0,0,0.056172839506172814,68.36234567901232,0)" xlink:href="#bf"/><use transform="matrix(0.056172839506172814,0,0,0.056172839506172814,72.79999999999997,0)" xlink:href="#aV"/></g><g id="Y"><use transform="matrix(0.056172839506172814,0,0,0.056172839506172814,0,0)" xlink:href="#bi"/><use transform="matrix(0.056172839506172814,0,0,0.056172839506172814,15.728395061728389,0)" xlink:href="#aY"/><use transform="matrix(0.056172839506172814,0,0,0.056172839506172814,22.412962962962954,0)" xlink:href="#aX"/><use transform="matrix(0.056172839506172814,0,0,0.056172839506172814,33.64753086419752,0)" xlink:href="#aP"/><use transform="matrix(0.056172839506172814,0,0,0.056172839506172814,44.88209876543208,0)" xlink:href="#bj"/><use transform="matrix(0.056172839506172814,0,0,0.056172839506172814,56.116666666666646,0)" xlink:href="#aR"/><use transform="matrix(0.056172839506172814,0,0,0.056172839506172814,66.22777777777776,0)" xlink:href="#bm"/></g><g id="Z"><use transform="matrix(0.056172839506172814,0,0,0.056172839506172814,0,0)" xlink:href="#bl"/><use transform="matrix(0.056172839506172814,0,0,0.056172839506172814,5.617283950617281,0)" xlink:href="#aU"/><use transform="matrix(0.056172839506172814,0,0,0.056172839506172814,20.16604938271604,0)" xlink:href="#aX"/><use transform="matrix(0.056172839506172814,0,0,0.056172839506172814,31.400617283950602,0)" xlink:href="#bf"/><use transform="matrix(0.056172839506172814,0,0,0.056172839506172814,35.83827160493826,0)" xlink:href="#bf"/><use transform="matrix(0.056172839506172814,0,0,0.056172839506172814,40.27592592592591,0)" xlink:href="#aV"/><use transform="matrix(0.056172839506172814,0,0,0.056172839506172814,51.510493827160474,0)" xlink:href="#bo"/><use transform="matrix(0.056172839506172814,0,0,0.056172839506172814,61.621604938271574,0)" xlink:href="#aM"/><use transform="matrix(0.056172839506172814,0,0,0.056172839506172814,67.23888888888887,0)" xlink:href="#bb"/><use transform="matrix(0.056172839506172814,0,0,0.056172839506172814,71.67654320987651,0)" xlink:href="#aX"/><use transform="matrix(0.056172839506172814,0,0,0.056172839506172814,82.91111111111107,0)" xlink:href="#aO"/><use transform="matrix(0.056172839506172814,0,0,0.056172839506172814,94.14567901234562,0)" xlink:href="#bp"/><use transform="matrix(0.056172839506172814,0,0,0.056172839506172814,105.94197530864191,0)" xlink:href="#bi"/><use transform="matrix(0.056172839506172814,0,0,0.056172839506172814,121.67037037037032,0)" xlink:href="#aY"/><use transform="matrix(0.056172839506172814,0,0,0.056172839506172814,128.35493827160488,0)" xlink:href="#aX"/><use transform="matrix(0.056172839506172814,0,0,0.056172839506172814,139.58950617283944,0)" xlink:href="#aP"/><use transform="matrix(0.056172839506172814,0,0,0.056172839506172814,150.824074074074,0)" xlink:href="#bj"/><use transform="matrix(0.056172839506172814,0,0,0.056172839506172814,162.05864197530855,0)" xlink:href="#bq"/></g><path d="M141 0L90-78 38 0H4l68-98-65-92h35l48 74 47-74h35l-64 92 68 98h-35" id="bu"/><g id="aa"><use transform="matrix(0.056172839506172814,0,0,0.056172839506172814,0,0)" xlink:href="#aS"/><use transform="matrix(0.056172839506172814,0,0,0.056172839506172814,12.301851851851847,0)" xlink:href="#bg"/><use transform="matrix(0.056172839506172814,0,0,0.056172839506172814,29.097530864197516,0)" xlink:href="#bc"/><use transform="matrix(0.056172839506172814,0,0,0.056172839506172814,42.579012345679,0)" xlink:href="#aU"/><use transform="matrix(0.056172839506172814,0,0,0.056172839506172814,57.12777777777775,0)" xlink:href="#aX"/><use transform="matrix(0.056172839506172814,0,0,0.056172839506172814,68.36234567901232,0)" xlink:href="#aO"/><use transform="matrix(0.056172839506172814,0,0,0.056172839506172814,79.59691358024688,0)" xlink:href="#aM"/><use transform="matrix(0.056172839506172814,0,0,0.056172839506172814,85.21419753086415,0)" xlink:href="#aV"/><use transform="matrix(0.056172839506172814,0,0,0.056172839506172814,96.44876543209872,0)" xlink:href="#bu"/><use transform="matrix(0.056172839506172814,0,0,0.056172839506172814,106.55987654320984,0)" xlink:href="#aM"/></g><use transform="matrix(0.056172839506172814,0,0,0.056172839506172814,0,0)" xlink:href="#bm" id="ab"/><path d="M115-194c53 0 69 39 70 98 0 66-23 100-70 100C84 3 66-7 56-30L54 0H23l1-261h32v101c10-23 28-34 59-34zm-8 174c40 0 45-34 45-75 0-40-5-75-45-74-42 0-51 32-51 76 0 43 10 73 51 73" id="bv"/><g id="ac"><use transform="matrix(0.056172839506172814,0,0,0.056172839506172814,0,0)" xlink:href="#bl"/><use transform="matrix(0.056172839506172814,0,0,0.056172839506172814,5.617283950617281,0)" xlink:href="#bh"/><use transform="matrix(0.056172839506172814,0,0,0.056172839506172814,16.851851851851844,0)" xlink:href="#aV"/><use transform="matrix(0.056172839506172814,0,0,0.056172839506172814,28.086419753086407,0)" xlink:href="#aO"/><use transform="matrix(0.056172839506172814,0,0,0.056172839506172814,39.32098765432097,0)" xlink:href="#aM"/><use transform="matrix(0.056172839506172814,0,0,0.056172839506172814,44.93827160493825,0)" xlink:href="#bb"/><use transform="matrix(0.056172839506172814,0,0,0.056172839506172814,49.375925925925905,0)" xlink:href="#aM"/><use transform="matrix(0.056172839506172814,0,0,0.056172839506172814,54.99320987654319,0)" xlink:href="#aZ"/><use transform="matrix(0.056172839506172814,0,0,0.056172839506172814,65.10432098765429,0)" xlink:href="#aK"/><use transform="matrix(0.056172839506172814,0,0,0.056172839506172814,79.65308641975305,0)" xlink:href="#bv"/><use transform="matrix(0.056172839506172814,0,0,0.056172839506172814,90.88765432098762,0)" xlink:href="#aU"/><use transform="matrix(0.056172839506172814,0,0,0.056172839506172814,105.43641975308638,0)" xlink:href="#aX"/><use transform="matrix(0.056172839506172814,0,0,0.056172839506172814,116.67098765432097,0)" xlink:href="#aO"/><use transform="matrix(0.056172839506172814,0,0,0.056172839506172814,127.9055555555555,0)" xlink:href="#aM"/><use transform="matrix(0.056172839506172814,0,0,0.056172839506172814,133.5228395061728,0)" xlink:href="#aV"/><use transform="matrix(0.056172839506172814,0,0,0.056172839506172814,144.75740740740736,0)" xlink:href="#bu"/><use transform="matrix(0.056172839506172814,0,0,0.056172839506172814,154.86851851851847,0)" xlink:href="#aM"/><use transform="matrix(0.056172839506172814,0,0,0.056172839506172814,160.48580246913576,0)" xlink:href="#bp"/><use transform="matrix(0.056172839506172814,0,0,0.056172839506172814,172.28209876543207,0)" xlink:href="#bd"/><use transform="matrix(0.056172839506172814,0,0,0.056172839506172814,186.83086419753081,0)" xlink:href="#aR"/><use transform="matrix(0.056172839506172814,0,0,0.056172839506172814,196.94197530864193,0)" xlink:href="#aV"/><use transform="matrix(0.056172839506172814,0,0,0.056172839506172814,208.17654320987648,0)" xlink:href="#aY"/><use transform="matrix(0.056172839506172814,0,0,0.056172839506172814,214.86111111111106,0)" xlink:href="#bq"/></g><g id="ad"><use transform="matrix(0.056172839506172814,0,0,0.056172839506172814,0,0)" xlink:href="#bd"/><use transform="matrix(0.056172839506172814,0,0,0.056172839506172814,14.548765432098758,0)" xlink:href="#aR"/><use transform="matrix(0.056172839506172814,0,0,0.056172839506172814,24.659876543209865,0)" xlink:href="#aV"/><use transform="matrix(0.056172839506172814,0,0,0.056172839506172814,35.89444444444443,0)" xlink:href="#aY"/><use transform="matrix(0.056172839506172814,0,0,0.056172839506172814,42.579012345679,0)" xlink:href="#aR"/><use transform="matrix(0.056172839506172814,0,0,0.056172839506172814,52.690123456790104,0)" xlink:href="#bm"/></g><g id="ae"><use transform="matrix(0.056172839506172814,0,0,0.056172839506172814,0,0)" xlink:href="#aK"/><use transform="matrix(0.056172839506172814,0,0,0.056172839506172814,14.548765432098758,0)" xlink:href="#bv"/><use transform="matrix(0.056172839506172814,0,0,0.056172839506172814,25.78333333333332,0)" xlink:href="#bc"/><use transform="matrix(0.056172839506172814,0,0,0.056172839506172814,39.2648148148148,0)" xlink:href="#aV"/><use transform="matrix(0.056172839506172814,0,0,0.056172839506172814,50.49938271604936,0)" xlink:href="#aM"/><use transform="matrix(0.056172839506172814,0,0,0.056172839506172814,56.116666666666646,0)" xlink:href="#bp"/><use transform="matrix(0.056172839506172814,0,0,0.056172839506172814,67.91296296296294,0)" xlink:href="#bd"/><use transform="matrix(0.056172839506172814,0,0,0.056172839506172814,82.4617283950617,0)" xlink:href="#aR"/><use transform="matrix(0.056172839506172814,0,0,0.056172839506172814,92.57283950617281,0)" xlink:href="#aV"/><use transform="matrix(0.056172839506172814,0,0,0.056172839506172814,103.80740740740737,0)" xlink:href="#aY"/><use transform="matrix(0.056172839506172814,0,0,0.056172839506172814,110.49197530864193,0)" xlink:href="#bq"/></g><g id="af"><use transform="matrix(0.056172839506172814,0,0,0.056172839506172814,0,0)" xlink:href="#aK"/><use transform="matrix(0.056172839506172814,0,0,0.056172839506172814,14.548765432098758,0)" xlink:href="#bv"/><use transform="matrix(0.056172839506172814,0,0,0.056172839506172814,25.78333333333332,0)" xlink:href="#bc"/><use transform="matrix(0.056172839506172814,0,0,0.056172839506172814,39.2648148148148,0)" xlink:href="#aV"/><use transform="matrix(0.056172839506172814,0,0,0.056172839506172814,50.49938271604936,0)" xlink:href="#aM"/><use transform="matrix(0.056172839506172814,0,0,0.056172839506172814,56.116666666666646,0)" xlink:href="#bp"/><use transform="matrix(0.056172839506172814,0,0,0.056172839506172814,67.91296296296294,0)" xlink:href="#aS"/><use transform="matrix(0.056172839506172814,0,0,0.056172839506172814,77.96790123456788,0)" xlink:href="#aL"/><use transform="matrix(0.056172839506172814,0,0,0.056172839506172814,89.20246913580243,0)" xlink:href="#aR"/><use transform="matrix(0.056172839506172814,0,0,0.056172839506172814,99.31358024691355,0)" xlink:href="#aT"/><use transform="matrix(0.056172839506172814,0,0,0.056172839506172814,109.42469135802466,0)" xlink:href="#bq"/></g><g id="ag"><use transform="matrix(0.056172839506172814,0,0,0.056172839506172814,0,0)" xlink:href="#aK"/><use transform="matrix(0.056172839506172814,0,0,0.056172839506172814,14.548765432098758,0)" xlink:href="#bv"/><use transform="matrix(0.056172839506172814,0,0,0.056172839506172814,25.78333333333332,0)" xlink:href="#bc"/><use transform="matrix(0.056172839506172814,0,0,0.056172839506172814,39.2648148148148,0)" xlink:href="#aV"/><use transform="matrix(0.056172839506172814,0,0,0.056172839506172814,50.49938271604936,0)" xlink:href="#aM"/><use transform="matrix(0.056172839506172814,0,0,0.056172839506172814,56.116666666666646,0)" xlink:href="#bp"/><use transform="matrix(0.056172839506172814,0,0,0.056172839506172814,67.91296296296294,0)" xlink:href="#bi"/><use transform="matrix(0.056172839506172814,0,0,0.056172839506172814,83.64135802469133,0)" xlink:href="#aY"/><use transform="matrix(0.056172839506172814,0,0,0.056172839506172814,90.32592592592589,0)" xlink:href="#aX"/><use transform="matrix(0.056172839506172814,0,0,0.056172839506172814,101.56049382716046,0)" xlink:href="#aP"/><use transform="matrix(0.056172839506172814,0,0,0.056172839506172814,112.79506172839501,0)" xlink:href="#bj"/><use transform="matrix(0.056172839506172814,0,0,0.056172839506172814,124.02962962962957,0)" xlink:href="#bq"/></g><path d="M87 75C49 33 22-17 22-94c0-76 28-126 65-167h31c-38 41-64 92-64 168S80 34 118 75H87" id="bw"/><path d="M33-261c38 41 65 92 65 168S71 34 33 75H2C39 34 66-17 66-93S39-220 2-261h31" id="bx"/><g id="ah"><use transform="matrix(0.056172839506172814,0,0,0.056172839506172814,0,0)" xlink:href="#aS"/><use transform="matrix(0.056172839506172814,0,0,0.056172839506172814,12.301851851851847,0)" xlink:href="#bg"/><use transform="matrix(0.056172839506172814,0,0,0.056172839506172814,29.097530864197516,0)" xlink:href="#bc"/><use transform="matrix(0.056172839506172814,0,0,0.056172839506172814,42.579012345679,0)" xlink:href="#aU"/><use transform="matrix(0.056172839506172814,0,0,0.056172839506172814,57.12777777777775,0)" xlink:href="#aX"/><use transform="matrix(0.056172839506172814,0,0,0.056172839506172814,68.36234567901232,0)" xlink:href="#aO"/><use transform="matrix(0.056172839506172814,0,0,0.056172839506172814,79.59691358024688,0)" xlink:href="#aM"/><use transform="matrix(0.056172839506172814,0,0,0.056172839506172814,85.21419753086415,0)" xlink:href="#aV"/><use transform="matrix(0.056172839506172814,0,0,0.056172839506172814,96.44876543209872,0)" xlink:href="#bu"/><use transform="matrix(0.056172839506172814,0,0,0.056172839506172814,106.55987654320984,0)" xlink:href="#aM"/><use transform="matrix(0.056172839506172814,0,0,0.056172839506172814,112.17716049382712,0)" xlink:href="#bw"/><use transform="matrix(0.056172839506172814,0,0,0.056172839506172814,118.86172839506168,0)" xlink:href="#aK"/><use transform="matrix(0.056172839506172814,0,0,0.056172839506172814,133.41049382716042,0)" xlink:href="#bv"/><use transform="matrix(0.056172839506172814,0,0,0.056172839506172814,144.64506172839498,0)" xlink:href="#aU"/><use transform="matrix(0.056172839506172814,0,0,0.056172839506172814,159.19382716049373,0)" xlink:href="#aX"/><use transform="matrix(0.056172839506172814,0,0,0.056172839506172814,170.42839506172828,0)" xlink:href="#aO"/><use transform="matrix(0.056172839506172814,0,0,0.056172839506172814,181.66296296296284,0)" xlink:href="#aM"/><use transform="matrix(0.056172839506172814,0,0,0.056172839506172814,187.28024691358013,0)" xlink:href="#aV"/><use transform="matrix(0.056172839506172814,0,0,0.056172839506172814,198.51481481481468,0)" xlink:href="#bu"/><use transform="matrix(0.056172839506172814,0,0,0.056172839506172814,208.6259259259258,0)" xlink:href="#aM"/><use transform="matrix(0.056172839506172814,0,0,0.056172839506172814,214.2432098765431,0)" xlink:href="#br"/><use transform="matrix(0.056172839506172814,0,0,0.056172839506172814,229.97160493827147,0)" xlink:href="#bj"/><use transform="matrix(0.056172839506172814,0,0,0.056172839506172814,241.20617283950602,0)" xlink:href="#aM"/><use transform="matrix(0.056172839506172814,0,0,0.056172839506172814,246.8234567901233,0)" xlink:href="#bb"/><use transform="matrix(0.056172839506172814,0,0,0.056172839506172814,251.261111111111,0)" xlink:href="#aX"/><use transform="matrix(0.056172839506172814,0,0,0.056172839506172814,262.49567901234553,0)" xlink:href="#aO"/><use transform="matrix(0.056172839506172814,0,0,0.056172839506172814,273.7302469135801,0)" xlink:href="#aR"/><use transform="matrix(0.056172839506172814,0,0,0.056172839506172814,283.8413580246912,0)" xlink:href="#bp"/><use transform="matrix(0.056172839506172814,0,0,0.056172839506172814,295.6376543209875,0)" xlink:href="#aS"/><use transform="matrix(0.056172839506172814,0,0,0.056172839506172814,307.93950617283934,0)" xlink:href="#bg"/><use transform="matrix(0.056172839506172814,0,0,0.056172839506172814,324.735185185185,0)" xlink:href="#bc"/><use transform="matrix(0.056172839506172814,0,0,0.056172839506172814,338.21666666666647,0)" xlink:href="#aU"/><use transform="matrix(0.056172839506172814,0,0,0.056172839506172814,352.76543209876525,0)" xlink:href="#aX"/><use transform="matrix(0.056172839506172814,0,0,0.056172839506172814,363.99999999999983,0)" xlink:href="#aO"/><use transform="matrix(0.056172839506172814,0,0,0.056172839506172814,375.2345679012344,0)" xlink:href="#aM"/><use transform="matrix(0.056172839506172814,0,0,0.056172839506172814,380.8518518518517,0)" xlink:href="#aV"/><use transform="matrix(0.056172839506172814,0,0,0.056172839506172814,392.08641975308626,0)" xlink:href="#bu"/><use transform="matrix(0.056172839506172814,0,0,0.056172839506172814,402.19753086419735,0)" xlink:href="#aM"/><use transform="matrix(0.056172839506172814,0,0,0.056172839506172814,407.8148148148146,0)" xlink:href="#bq"/><use transform="matrix(0.056172839506172814,0,0,0.056172839506172814,419.6111111111109,0)" xlink:href="#bx"/><use transform="matrix(0.056172839506172814,0,0,0.056172839506172814,426.2956790123455,0)" xlink:href="#bm"/></g><g id="ai"><use transform="matrix(0.056172839506172814,0,0,0.056172839506172814,0,0)" xlink:href="#aS"/><use transform="matrix(0.056172839506172814,0,0,0.056172839506172814,12.301851851851847,0)" xlink:href="#bg"/><use transform="matrix(0.056172839506172814,0,0,0.056172839506172814,29.097530864197516,0)" xlink:href="#bc"/><use transform="matrix(0.056172839506172814,0,0,0.056172839506172814,42.579012345679,0)" xlink:href="#aU"/><use transform="matrix(0.056172839506172814,0,0,0.056172839506172814,57.12777777777775,0)" xlink:href="#aX"/><use transform="matrix(0.056172839506172814,0,0,0.056172839506172814,68.36234567901232,0)" xlink:href="#aO"/><use transform="matrix(0.056172839506172814,0,0,0.056172839506172814,79.59691358024688,0)" xlink:href="#aM"/><use transform="matrix(0.056172839506172814,0,0,0.056172839506172814,85.21419753086415,0)" xlink:href="#aV"/><use transform="matrix(0.056172839506172814,0,0,0.056172839506172814,96.44876543209872,0)" xlink:href="#bu"/><use transform="matrix(0.056172839506172814,0,0,0.056172839506172814,106.55987654320984,0)" xlink:href="#aM"/></g></defs></g></svg>