<svg xmlns="http://www.w3.org/2000/svg" xmlns:xlink="http://www.w3.org/1999/xlink" xmlns:lucid="lucid" width="2000" height="2000"><g transform="translate(500 1000)" lucid:page-tab-id="0_0"><path d="M-500-1000h2000v2000H-500z" fill="#fff"/><path d="M800-163.8a8 8 0 0 1 8-8h333.6a8 8 0 0 1 8 8v152a8 8 0 0 1-8 8H808a8 8 0 0 1-8-8z" fill="#fff"/><path d="M800-163.8a8 8 0 0 1 8-8h333.6a8 8 0 0 1 8 8v152a8 8 0 0 1-8 8H808a8 8 0 0 1-8-8zM800-131.8h349.6M844-131.8v128M1017.8-131.8v128" stroke="#3a414a" fill="none"/><use xlink:href="#a" transform="matrix(1,0,0,1,810,-171.7893154535239) translate(112.57499999999999 23.6)"/><use xlink:href="#b" transform="matrix(1,0,0,1,805,-129.2893154535239) translate(5 17.1)"/><use xlink:href="#c" transform="matrix(1,0,0,1,849,-129.2893154535239) translate(0 17.1)"/><use xlink:href="#d" transform="matrix(1,0,0,1,1022.8,-129.2893154535239) translate(0 17.1)"/><use xlink:href="#e" transform="matrix(1,0,0,1,849,-97.2893154535239) translate(0 17.1)"/><use xlink:href="#f" transform="matrix(1,0,0,1,1022.8,-97.2893154535239) translate(0 17.1)"/><use xlink:href="#g" transform="matrix(1,0,0,1,849,-65.2893154535239) translate(0 17.1)"/><use xlink:href="#f" transform="matrix(1,0,0,1,1022.8,-65.2893154535239) translate(0 17.1)"/><use xlink:href="#h" transform="matrix(1,0,0,1,849,-33.2893154535239) translate(0 17.1)"/><use xlink:href="#i" transform="matrix(1,0,0,1,1022.8,-33.2893154535239) translate(0 17.1)"/><path d="M-200 508a8 8 0 0 1 8-8H77.6a8 8 0 0 1 8 8v376a8 8 0 0 1-8 8H-192a8 8 0 0 1-8-8z" fill="#fff"/><path d="M-200 508a8 8 0 0 1 8-8H77.6a8 8 0 0 1 8 8v376a8 8 0 0 1-8 8H-192a8 8 0 0 1-8-8zM-200 540H85.6M-156 540v352M-46.2 540v352" stroke="#3a414a" fill="none"/><use xlink:href="#j" transform="matrix(1,0,0,1,-190,500) translate(110.025 23.6)"/><use xlink:href="#b" transform="matrix(1,0,0,1,-195,542.5) translate(5 17.1)"/><use xlink:href="#k" transform="matrix(1,0,0,1,-151,542.5) translate(0 17.1)"/><use xlink:href="#d" transform="matrix(1,0,0,1,-41.19999999999999,542.5) translate(0 17.1)"/><use xlink:href="#e" transform="matrix(1,0,0,1,-151,574.5) translate(0 17.1)"/><use xlink:href="#i" transform="matrix(1,0,0,1,-41.19999999999999,574.5) translate(0 17.1)"/><use xlink:href="#l" transform="matrix(1,0,0,1,-151,606.5) translate(0 17.1)"/><use xlink:href="#i" transform="matrix(1,0,0,1,-41.19999999999999,606.5) translate(0 17.1)"/><use xlink:href="#m" transform="matrix(1,0,0,1,-151,638.5) translate(0 17.1)"/><use xlink:href="#n" transform="matrix(1,0,0,1,-41.19999999999999,638.5) translate(0 17.1)"/><use xlink:href="#o" transform="matrix(1,0,0,1,-151,670.5) translate(0 17.1)"/><use xlink:href="#n" transform="matrix(1,0,0,1,-41.19999999999999,670.5) translate(0 17.1)"/><use xlink:href="#p" transform="matrix(1,0,0,1,-195,702.5) translate(5.524999999999999 17.1)"/><use xlink:href="#q" transform="matrix(1,0,0,1,-151,702.5) translate(0 17.1)"/><use xlink:href="#d" transform="matrix(1,0,0,1,-41.19999999999999,702.5) translate(0 17.1)"/><use xlink:href="#p" transform="matrix(1,0,0,1,-195,734.5) translate(5.524999999999999 17.1)"/><use xlink:href="#r" transform="matrix(1,0,0,1,-151,734.5) translate(0 17.1)"/><use xlink:href="#d" transform="matrix(1,0,0,1,-41.19999999999999,734.5) translate(0 17.1)"/><use xlink:href="#s" transform="matrix(1,0,0,1,-151,766.5) translate(0 17.1)"/><use xlink:href="#t" transform="matrix(1,0,0,1,-41.19999999999999,766.5) translate(0 17.1)"/><use xlink:href="#u" transform="matrix(1,0,0,1,-151,798.5) translate(0 17.1)"/><use xlink:href="#t" transform="matrix(1,0,0,1,-41.19999999999999,798.5) translate(0 17.1)"/><use xlink:href="#v" transform="matrix(1,0,0,1,-151,830.5) translate(0 17.1)"/><use xlink:href="#t" transform="matrix(1,0,0,1,-41.19999999999999,830.5) translate(0 17.1)"/><use xlink:href="#w" transform="matrix(1,0,0,1,-151,862.5) translate(0 17.1)"/><use xlink:href="#n" transform="matrix(1,0,0,1,-41.19999999999999,862.5) translate(0 17.1)"/><path d="M160 348a8 8 0 0 1 8-8h331.65a8 8 0 0 1 8 8v88a8 8 0 0 1-8 8H168a8 8 0 0 1-8-8z" fill="#fff"/><path d="M160 348a8 8 0 0 1 8-8h331.65a8 8 0 0 1 8 8v88a8 8 0 0 1-8 8H168a8 8 0 0 1-8-8zM160 380h347.65M231.95 380v64M375.85 380v64" stroke="#3a414a" fill="none"/><use xlink:href="#x" transform="matrix(1,0,0,1,170,340) translate(120.07499999999999 23.6)"/><use xlink:href="#y" transform="matrix(1,0,0,1,165,382.5) translate(5.024999999999999 17.1)"/><use xlink:href="#z" transform="matrix(1,0,0,1,236.95,382.5) translate(0 17.1)"/><use xlink:href="#d" transform="matrix(1,0,0,1,380.85,382.5) translate(0 17.1)"/><use xlink:href="#y" transform="matrix(1,0,0,1,165,414.5) translate(5.024999999999999 17.1)"/><use xlink:href="#A" transform="matrix(1,0,0,1,236.95,414.5) translate(0 17.1)"/><use xlink:href="#d" transform="matrix(1,0,0,1,380.85,414.5) translate(0 17.1)"/><path d="M440 588a8 8 0 0 1 8-8h277.65a8 8 0 0 1 8 8v88a8 8 0 0 1-8 8H448a8 8 0 0 1-8-8z" fill="#fff"/><path d="M440 588a8 8 0 0 1 8-8h277.65a8 8 0 0 1 8 8v88a8 8 0 0 1-8 8H448a8 8 0 0 1-8-8zM440 620h293.65M484 620v64M601.85 620v64" stroke="#3a414a" fill="none"/><use xlink:href="#B" transform="matrix(1,0,0,1,450,580) translate(107.525 23.6)"/><use xlink:href="#b" transform="matrix(1,0,0,1,445,622.5) translate(5 17.1)"/><use xlink:href="#r" transform="matrix(1,0,0,1,489,622.5) translate(0 17.1)"/><use xlink:href="#d" transform="matrix(1,0,0,1,606.85,622.5) translate(0 17.1)"/><use xlink:href="#C" transform="matrix(1,0,0,1,489,654.5) translate(0 17.1)"/><use xlink:href="#i" transform="matrix(1,0,0,1,606.85,654.5) translate(0 17.1)"/><path d="M419.5 636h-8a12 12 0 0 1-12-12V524a12 12 0 0 1 12-12h124.65a12 12 0 0 0 12-12v-92a12 12 0 0 0-12-12h-8.6" stroke="#3a414a" fill="none"/><path d="M419.5 626v20M439.5 636h-20" stroke="#3a414a" fill="#fff"/><path d="M508.37 386l20 10-20 10" stroke="#3a414a" fill="#fff" fill-opacity="0"/><path d="M508.37 396h20" stroke="#3a414a" fill="#fff"/><path d="M-260-532a8 8 0 0 1 8-8h379.2a8 8 0 0 1 8 8V68a8 8 0 0 1-8 8H-252a8 8 0 0 1-8-8z" fill="#fff"/><path d="M-260-532a8 8 0 0 1 8-8h379.2a8 8 0 0 1 8 8V68a8 8 0 0 1-8 8H-252a8 8 0 0 1-8-8zM-260-500h395.2M-216-500V76M2.65-500V76" stroke="#3a414a" fill="none"/><use xlink:href="#D" transform="matrix(1,0,0,1,-250,-540) translate(135.075 23.6)"/><use xlink:href="#b" transform="matrix(1,0,0,1,-255,-497.5) translate(5 17.1)"/><use xlink:href="#c" transform="matrix(1,0,0,1,-211,-497.5) translate(0 17.1)"/><use xlink:href="#d" transform="matrix(1,0,0,1,7.649999999999977,-497.5) translate(0 17.1)"/><use xlink:href="#E" transform="matrix(1,0,0,1,-211,-465.5) translate(0 17.1)"/><use xlink:href="#i" transform="matrix(1,0,0,1,7.649999999999977,-465.5) translate(0 17.1)"/><use xlink:href="#F" transform="matrix(1,0,0,1,-211,-433.5) translate(0 17.1)"/><use xlink:href="#i" transform="matrix(1,0,0,1,7.649999999999977,-433.5) translate(0 17.1)"/><use xlink:href="#G" transform="matrix(1,0,0,1,-211,-401.5) translate(0 17.1)"/><use xlink:href="#f" transform="matrix(1,0,0,1,7.649999999999977,-401.5) translate(0 17.1)"/><use xlink:href="#H" transform="matrix(1,0,0,1,-211,-369.5) translate(0 17.1)"/><use xlink:href="#i" transform="matrix(1,0,0,1,7.649999999999977,-369.5) translate(0 17.1)"/><use xlink:href="#I" transform="matrix(1,0,0,1,-211,-337.5) translate(0 17.1)"/><use xlink:href="#f" transform="matrix(1,0,0,1,7.649999999999977,-337.5) translate(0 17.1)"/><use xlink:href="#J" transform="matrix(1,0,0,1,-211,-305.5) translate(0 17.1)"/><use xlink:href="#t" transform="matrix(1,0,0,1,7.649999999999977,-305.5) translate(0 17.1)"/><use xlink:href="#K" transform="matrix(1,0,0,1,-211,-273.5) translate(0 17.1)"/><use xlink:href="#t" transform="matrix(1,0,0,1,7.649999999999977,-273.5) translate(0 17.1)"/><use xlink:href="#h" transform="matrix(1,0,0,1,-211,-241.5) translate(0 17.1)"/><use xlink:href="#i" transform="matrix(1,0,0,1,7.649999999999977,-241.5) translate(0 17.1)"/><use xlink:href="#L" transform="matrix(1,0,0,1,-211,-209.5) translate(0 17.1)"/><use xlink:href="#M" transform="matrix(1,0,0,1,7.649999999999977,-209.5) translate(0 17.1)"/><use xlink:href="#N" transform="matrix(1,0,0,1,-211,-177.5) translate(0 17.1)"/><use xlink:href="#M" transform="matrix(1,0,0,1,7.649999999999977,-177.5) translate(0 17.1)"/><use xlink:href="#O" transform="matrix(1,0,0,1,-211,-145.5) translate(0 17.1)"/><use xlink:href="#P" transform="matrix(1,0,0,1,7.649999999999977,-145.5) translate(0 17.1)"/><use xlink:href="#Q" transform="matrix(1,0,0,1,-211,-113.5) translate(0 17.1)"/><use xlink:href="#f" transform="matrix(1,0,0,1,7.649999999999977,-113.5) translate(0 17.1)"/><use xlink:href="#R" transform="matrix(1,0,0,1,-211,-81.5) translate(0 17.1)"/><use xlink:href="#f" transform="matrix(1,0,0,1,7.649999999999977,-81.5) translate(0 17.1)"/><use xlink:href="#S" transform="matrix(1,0,0,1,-211,-49.5) translate(0 17.1)"/><use xlink:href="#i" transform="matrix(1,0,0,1,7.649999999999977,-49.5) translate(0 17.1)"/><use xlink:href="#T" transform="matrix(1,0,0,1,-211,-17.5) translate(0 17.1)"/><use xlink:href="#M" transform="matrix(1,0,0,1,7.649999999999977,-17.5) translate(0 17.1)"/><use xlink:href="#U" transform="matrix(1,0,0,1,-211,14.5) translate(0 17.1)"/><use xlink:href="#i" transform="matrix(1,0,0,1,7.649999999999977,14.5) translate(0 17.1)"/><use xlink:href="#V" transform="matrix(1,0,0,1,-211,46.5) translate(0 17.1)"/><use xlink:href="#M" transform="matrix(1,0,0,1,7.649999999999977,46.5) translate(0 17.1)"/><path d="M147.6-476.54V420.6" stroke="#3a414a" fill="none"/><path d="M146.6-465.12l11.26-16.53M135.7-484.64l16.53 11.26" stroke="#3a414a" fill="#fff"/><path d="M153.97 436.44L142.4 417.3l22.25 2.23" stroke="#3a414a" fill="#fff" fill-opacity="0"/><path d="M159.3 427.98l-16.9-10.67" stroke="#3a414a" fill="#fff"/><path d="M-280.5-484.64h-8a12 12 0 0 0-12 12v1176.7a12 12 0 0 0 12 12h68.6" stroke="#3a414a" fill="none"/><path d="M-280.5-494.64v20M-260.5-484.64h-20" stroke="#3a414a" fill="#fff"/><path d="M-200.72 726.07l-20-10 20-10" stroke="#3a414a" fill="#fff" fill-opacity="0"/><path d="M-200.72 716.07h-20" stroke="#3a414a" fill="#fff"/><path d="M300-196a8 8 0 0 1 8-8h259.65a8 8 0 0 1 8 8v88a8 8 0 0 1-8 8H308a8 8 0 0 1-8-8z" fill="#fff"/><path d="M300-196a8 8 0 0 1 8-8h259.65a8 8 0 0 1 8 8v88a8 8 0 0 1-8 8H308a8 8 0 0 1-8-8zM300-164h275.65M371.95-164v64M443.85-164v64" stroke="#3a414a" fill="none"/><use xlink:href="#W" transform="matrix(1,0,0,1,310,-204) translate(56.625 23.6)"/><use xlink:href="#y" transform="matrix(1,0,0,1,305,-161.5) translate(5.024999999999999 17.1)"/><use xlink:href="#q" transform="matrix(1,0,0,1,376.95,-161.5) translate(0 17.1)"/><use xlink:href="#d" transform="matrix(1,0,0,1,448.85,-161.5) translate(0 17.1)"/><use xlink:href="#y" transform="matrix(1,0,0,1,305,-129.5) translate(5.024999999999999 17.1)"/><use xlink:href="#X" transform="matrix(1,0,0,1,376.95,-129.5) translate(0 17.1)"/><use xlink:href="#d" transform="matrix(1,0,0,1,448.85,-129.5) translate(0 17.1)"/><path d="M155.7-484.64h49.9a12 12 0 0 1 12 12V-160a12 12 0 0 0 12 12h50.5" stroke="#3a414a" fill="none"/><path d="M155.7-474.64v-20M135.7-484.64h20" stroke="#3a414a" fill="#fff"/><path d="M299.28-138l-20-10 20-10" stroke="#3a414a" fill="#fff" fill-opacity="0"/><path d="M299.28-148h-20" stroke="#3a414a" fill="#fff"/><path d="M779.5-115.87H595.56" stroke="#3a414a" fill="none"/><path d="M779.5-125.87v20M799.5-115.87h-20" stroke="#3a414a" fill="#fff"/><path d="M576.38-125.87l20 10-20 10" stroke="#3a414a" fill="#fff" fill-opacity="0"/><path d="M576.38-115.87h20" stroke="#3a414a" fill="#fff"/><path d="M-220.5 748.18h-8a12 12 0 0 0-12 12V920a12 12 0 0 0 12 12h990.65a12 12 0 0 0 12-12V648a12 12 0 0 0-12-12h-8.6" stroke="#3a414a" fill="none"/><path d="M-220.5 738.18v20M-200.5 748.18h-20" stroke="#3a414a" fill="#fff"/><path d="M734.37 626l20 10-20 10" stroke="#3a414a" fill="#fff" fill-opacity="0"/><path d="M734.37 636h20" stroke="#3a414a" fill="#fff"/><path d="M831.7 128a8 8 0 0 1 8-8h270.2a8 8 0 0 1 8 8v152a8 8 0 0 1-8 8H839.7a8 8 0 0 1-8-8z" fill="#fff"/><path d="M831.7 128a8 8 0 0 1 8-8h270.2a8 8 0 0 1 8 8v152a8 8 0 0 1-8 8H839.7a8 8 0 0 1-8-8zM831.7 160h286.2M875.7 160v128M986.1 160v128" stroke="#3a414a" fill="none"/><use xlink:href="#Y" transform="matrix(1,0,0,1,841.6999999999999,120) translate(58.175 23.6)"/><use xlink:href="#b" transform="matrix(1,0,0,1,836.6999999999999,162.5) translate(5 17.1)"/><use xlink:href="#c" transform="matrix(1,0,0,1,880.6999999999999,162.5) translate(0 17.1)"/><use xlink:href="#t" transform="matrix(1,0,0,1,991.0999999999999,162.5) translate(0 17.1)"/><use xlink:href="#p" transform="matrix(1,0,0,1,836.6999999999999,194.5) translate(5.524999999999999 17.1)"/><use xlink:href="#X" transform="matrix(1,0,0,1,880.6999999999999,194.5) translate(0 17.1)"/><use xlink:href="#d" transform="matrix(1,0,0,1,991.0999999999999,194.5) translate(0 17.1)"/><use xlink:href="#Z" transform="matrix(1,0,0,1,880.6999999999999,226.5) translate(0 17.1)"/><use xlink:href="#i" transform="matrix(1,0,0,1,991.0999999999999,226.5) translate(0 17.1)"/><use xlink:href="#aa" transform="matrix(1,0,0,1,880.6999999999999,258.5) translate(0 17.1)"/><use xlink:href="#i" transform="matrix(1,0,0,1,991.0999999999999,258.5) translate(0 17.1)"/><path d="M1170.1-120.12h8a12 12 0 0 1 12 12V46.1a12 12 0 0 1-12 12H803.2a12 12 0 0 0-12 12V186.8a12 12 0 0 0 12 12h8.6" stroke="#3a414a" fill="none"/><path d="M1170.1-110.12v-20M1150.1-120.12h20" stroke="#3a414a" fill="#fff"/><path d="M830.98 208.78l-20-10 20-10" stroke="#3a414a" fill="#fff" fill-opacity="0"/><path d="M830.98 198.78h-20" stroke="#3a414a" fill="#fff"/><path d="M420-532a8 8 0 0 1 8-8h270.2a8 8 0 0 1 8 8v152a8 8 0 0 1-8 8H428a8 8 0 0 1-8-8z" fill="#fff"/><path d="M420-532a8 8 0 0 1 8-8h270.2a8 8 0 0 1 8 8v152a8 8 0 0 1-8 8H428a8 8 0 0 1-8-8zM420-500h286.2M464-500v128M574.4-500v128" stroke="#3a414a" fill="none"/><use xlink:href="#ab" transform="matrix(1,0,0,1,430,-540) translate(57.675 23.6)"/><use xlink:href="#b" transform="matrix(1,0,0,1,425,-497.5) translate(5 17.1)"/><use xlink:href="#c" transform="matrix(1,0,0,1,469,-497.5) translate(0 17.1)"/><use xlink:href="#t" transform="matrix(1,0,0,1,579.4000000000001,-497.5) translate(0 17.1)"/><use xlink:href="#p" transform="matrix(1,0,0,1,425,-465.5) translate(5.524999999999999 17.1)"/><use xlink:href="#q" transform="matrix(1,0,0,1,469,-465.5) translate(0 17.1)"/><use xlink:href="#d" transform="matrix(1,0,0,1,579.4000000000001,-465.5) translate(0 17.1)"/><use xlink:href="#Z" transform="matrix(1,0,0,1,469,-433.5) translate(0 17.1)"/><use xlink:href="#i" transform="matrix(1,0,0,1,579.4000000000001,-433.5) translate(0 17.1)"/><use xlink:href="#aa" transform="matrix(1,0,0,1,469,-401.5) translate(0 17.1)"/><use xlink:href="#i" transform="matrix(1,0,0,1,579.4000000000001,-401.5) translate(0 17.1)"/><path d="M155.7-484.64h109.9a12 12 0 0 1 12 12v8.65a12 12 0 0 0 12 12h110.5" stroke="#3a414a" fill="none"/><path d="M155.7-474.64v-20M135.7-484.64h20" stroke="#3a414a" fill="#fff"/><path d="M419.28-442l-20-10 20-10" stroke="#3a414a" fill="#fff" fill-opacity="0"/><path d="M419.28-452h-20" stroke="#3a414a" fill="#fff"/><defs><path d="M205 0l-28-72H64L36 0H1l101-248h38L239 0h-34zm-38-99l-47-123c-12 45-31 82-46 123h93" id="ac"/><path d="M135-143c-3-34-86-38-87 0 15 53 115 12 119 90S17 21 10-45l28-5c4 36 97 45 98 0-10-56-113-15-118-90-4-57 82-63 122-42 12 7 21 19 24 35" id="ad"/><path d="M115-194c55 1 70 41 70 98S169 2 115 4C84 4 66-9 55-30l1 105H24l-1-265h31l2 30c10-21 28-34 59-34zm-8 174c40 0 45-34 45-75s-6-73-45-74c-42 0-51 32-51 76 0 43 10 73 51 73" id="ae"/><path d="M190 0L58-211 59 0H30v-248h39L202-35l-2-213h31V0h-41" id="af"/><path d="M100-194c63 0 86 42 84 106H49c0 40 14 67 53 68 26 1 43-12 49-29l28 8c-11 28-37 45-77 45C44 4 14-33 15-96c1-61 26-98 85-98zm52 81c6-60-76-77-97-28-3 7-6 17-6 28h103" id="ag"/><path d="M59-47c-2 24 18 29 38 22v24C64 9 27 4 27-40v-127H5v-23h24l9-43h21v43h35v23H59v120" id="ah"/><path d="M233-177c-1 41-23 64-60 70L243 0h-38l-65-103H63V0H30v-248c88 3 205-21 203 71zM63-129c60-2 137 13 137-47 0-61-80-42-137-45v92" id="ai"/><path d="M100-194c62-1 85 37 85 99 1 63-27 99-86 99S16-35 15-95c0-66 28-99 85-99zM99-20c44 1 53-31 53-75 0-43-8-75-51-75s-53 32-53 75 10 74 51 75" id="aj"/><path d="M24 0v-261h32V0H24" id="ak"/><g id="a"><use transform="matrix(0.05,0,0,0.05,0,0)" xlink:href="#ac"/><use transform="matrix(0.05,0,0,0.05,12,0)" xlink:href="#ad"/><use transform="matrix(0.05,0,0,0.05,21,0)" xlink:href="#ae"/><use transform="matrix(0.05,0,0,0.05,31,0)" xlink:href="#af"/><use transform="matrix(0.05,0,0,0.05,43.95,0)" xlink:href="#ag"/><use transform="matrix(0.05,0,0,0.05,53.95,0)" xlink:href="#ah"/><use transform="matrix(0.05,0,0,0.05,58.95,0)" xlink:href="#ai"/><use transform="matrix(0.05,0,0,0.05,71.9,0)" xlink:href="#aj"/><use transform="matrix(0.05,0,0,0.05,81.9,0)" xlink:href="#ak"/><use transform="matrix(0.05,0,0,0.05,85.85000000000001,0)" xlink:href="#ag"/><use transform="matrix(0.05,0,0,0.05,95.85000000000001,0)" xlink:href="#ad"/></g><path d="M30-248c87 1 191-15 191 75 0 78-77 80-158 76V0H30v-248zm33 125c57 0 124 11 124-50 0-59-68-47-124-48v98" id="al"/><path d="M194 0L95-120 63-95V0H30v-248h33v124l119-124h40L117-140 236 0h-42" id="am"/><g id="b"><use transform="matrix(0.05,0,0,0.05,0,0)" xlink:href="#al"/><use transform="matrix(0.05,0,0,0.05,12,0)" xlink:href="#am"/></g><path d="M33 0v-248h34V0H33" id="an"/><path d="M85-194c31 0 48 13 60 33l-1-100h32l1 261h-30c-2-10 0-23-3-31C134-8 116 4 85 4 32 4 16-35 15-94c0-66 23-100 70-100zm9 24c-40 0-46 34-46 75 0 40 6 74 45 74 42 0 51-32 51-76 0-42-9-74-50-73" id="ao"/><g id="c"><use transform="matrix(0.05,0,0,0.05,0,0)" xlink:href="#an"/><use transform="matrix(0.05,0,0,0.05,5,0)" xlink:href="#ao"/></g><path d="M117-194c89-4 53 116 60 194h-32v-121c0-31-8-49-39-48C34-167 62-67 57 0H25l-1-190h30c1 10-1 24 2 32 11-22 29-35 61-36" id="ap"/><path d="M108 0H70L1-190h34L89-25l56-165h34" id="aq"/><path d="M141-36C126-15 110 5 73 4 37 3 15-17 15-53c-1-64 63-63 125-63 3-35-9-54-41-54-24 1-41 7-42 31l-33-3c5-37 33-52 76-52 45 0 72 20 72 64v82c-1 20 7 32 28 27v20c-31 9-61-2-59-35zM48-53c0 20 12 33 32 33 41-3 63-29 60-74-43 2-92-5-92 41" id="ar"/><path d="M114-163C36-179 61-72 57 0H25l-1-190h30c1 12-1 29 2 39 6-27 23-49 58-41v29" id="as"/><path d="M96-169c-40 0-48 33-48 73s9 75 48 75c24 0 41-14 43-38l32 2c-6 37-31 61-74 61-59 0-76-41-82-99-10-93 101-131 147-64 4 7 5 14 7 22l-32 3c-4-21-16-35-41-35" id="at"/><path d="M106-169C34-169 62-67 57 0H25v-261h32l-1 103c12-21 28-36 61-36 89 0 53 116 60 194h-32v-121c2-32-8-49-39-48" id="au"/><path d="M87 75C49 33 22-17 22-94c0-76 28-126 65-167h31c-38 41-64 92-64 168S80 34 118 75H87" id="av"/><path d="M155-56V0h-30v-56H8v-25l114-167h33v167h35v25h-35zm-30-156c-27 46-58 90-88 131h88v-131" id="aw"/><path d="M54-142c48-35 137-8 131 61C196 18 31 33 14-55l32-4c7 23 22 37 52 37 35-1 51-22 54-58 4-55-73-65-99-34H22l8-134h141v27H59" id="ax"/><path d="M101-251c68 0 85 55 85 127S166 4 100 4C33 4 14-52 14-124c0-73 17-127 87-127zm-1 229c47 0 54-49 54-102s-4-102-53-102c-51 0-55 48-55 102 0 53 5 102 54 102" id="ay"/><path d="M33-261c38 41 65 92 65 168S71 34 33 75H2C39 34 66-17 66-93S39-220 2-261h31" id="az"/><g id="d"><use transform="matrix(0.05,0,0,0.05,0,0)" xlink:href="#ap"/><use transform="matrix(0.05,0,0,0.05,10,0)" xlink:href="#aq"/><use transform="matrix(0.05,0,0,0.05,19,0)" xlink:href="#ar"/><use transform="matrix(0.05,0,0,0.05,29,0)" xlink:href="#as"/><use transform="matrix(0.05,0,0,0.05,34.95,0)" xlink:href="#at"/><use transform="matrix(0.05,0,0,0.05,43.95,0)" xlink:href="#au"/><use transform="matrix(0.05,0,0,0.05,53.95,0)" xlink:href="#ar"/><use transform="matrix(0.05,0,0,0.05,63.95,0)" xlink:href="#as"/><use transform="matrix(0.05,0,0,0.05,69.9,0)" xlink:href="#av"/><use transform="matrix(0.05,0,0,0.05,75.85000000000001,0)" xlink:href="#aw"/><use transform="matrix(0.05,0,0,0.05,85.85000000000001,0)" xlink:href="#ax"/><use transform="matrix(0.05,0,0,0.05,95.85000000000001,0)" xlink:href="#ay"/><use transform="matrix(0.05,0,0,0.05,105.85000000000001,0)" xlink:href="#az"/></g><path d="M210-169c-67 3-38 105-44 169h-31v-121c0-29-5-50-35-48C34-165 62-65 56 0H25l-1-190h30c1 10-1 24 2 32 10-44 99-50 107 0 11-21 27-35 58-36 85-2 47 119 55 194h-31v-121c0-29-5-49-35-48" id="aA"/><g id="e"><use transform="matrix(0.05,0,0,0.05,0,0)" xlink:href="#af"/><use transform="matrix(0.05,0,0,0.05,12.950000000000001,0)" xlink:href="#ar"/><use transform="matrix(0.05,0,0,0.05,22.950000000000003,0)" xlink:href="#aA"/><use transform="matrix(0.05,0,0,0.05,37.900000000000006,0)" xlink:href="#ag"/></g><path d="M101-251c82-7 93 87 43 132L82-64C71-53 59-42 53-27h129V0H18c2-99 128-94 128-182 0-28-16-43-45-43s-46 15-49 41l-32-3c6-41 34-60 81-64" id="aB"/><path d="M110-160c48 1 74 30 74 79 0 53-28 85-80 85-65 0-83-55-86-122-5-90 50-162 133-122 14 7 22 21 27 39l-31 6c-5-40-67-38-82-6-9 19-15 44-15 74 11-20 30-34 60-33zm-7 138c34 0 49-23 49-58s-16-56-50-56c-29 0-50 16-49 49 1 36 15 65 50 65" id="aC"/><g id="f"><use transform="matrix(0.05,0,0,0.05,0,0)" xlink:href="#ap"/><use transform="matrix(0.05,0,0,0.05,10,0)" xlink:href="#aq"/><use transform="matrix(0.05,0,0,0.05,19,0)" xlink:href="#ar"/><use transform="matrix(0.05,0,0,0.05,29,0)" xlink:href="#as"/><use transform="matrix(0.05,0,0,0.05,34.95,0)" xlink:href="#at"/><use transform="matrix(0.05,0,0,0.05,43.95,0)" xlink:href="#au"/><use transform="matrix(0.05,0,0,0.05,53.95,0)" xlink:href="#ar"/><use transform="matrix(0.05,0,0,0.05,63.95,0)" xlink:href="#as"/><use transform="matrix(0.05,0,0,0.05,69.9,0)" xlink:href="#av"/><use transform="matrix(0.05,0,0,0.05,75.85000000000001,0)" xlink:href="#aB"/><use transform="matrix(0.05,0,0,0.05,85.85000000000001,0)" xlink:href="#ax"/><use transform="matrix(0.05,0,0,0.05,95.85000000000001,0)" xlink:href="#aC"/><use transform="matrix(0.05,0,0,0.05,105.85000000000001,0)" xlink:href="#az"/></g><path d="M24-231v-30h32v30H24zM24 0v-190h32V0H24" id="aD"/><path d="M9 0v-24l116-142H16v-24h144v24L44-24h123V0H9" id="aE"/><g id="g"><use transform="matrix(0.05,0,0,0.05,0,0)" xlink:href="#af"/><use transform="matrix(0.05,0,0,0.05,12.950000000000001,0)" xlink:href="#aj"/><use transform="matrix(0.05,0,0,0.05,22.950000000000003,0)" xlink:href="#as"/><use transform="matrix(0.05,0,0,0.05,28.900000000000002,0)" xlink:href="#aA"/><use transform="matrix(0.05,0,0,0.05,43.85,0)" xlink:href="#ar"/><use transform="matrix(0.05,0,0,0.05,53.85,0)" xlink:href="#ak"/><use transform="matrix(0.05,0,0,0.05,57.800000000000004,0)" xlink:href="#aD"/><use transform="matrix(0.05,0,0,0.05,61.75,0)" xlink:href="#aE"/><use transform="matrix(0.05,0,0,0.05,70.75,0)" xlink:href="#ag"/><use transform="matrix(0.05,0,0,0.05,80.75,0)" xlink:href="#ao"/><use transform="matrix(0.05,0,0,0.05,90.75,0)" xlink:href="#af"/><use transform="matrix(0.05,0,0,0.05,103.7,0)" xlink:href="#ar"/><use transform="matrix(0.05,0,0,0.05,113.7,0)" xlink:href="#aA"/><use transform="matrix(0.05,0,0,0.05,128.65,0)" xlink:href="#ag"/></g><path d="M212-179c-10-28-35-45-73-45-59 0-87 40-87 99 0 60 29 101 89 101 43 0 62-24 78-52l27 14C228-24 195 4 139 4 59 4 22-46 18-125c-6-104 99-153 187-111 19 9 31 26 39 46" id="aF"/><path d="M84 4C-5 8 30-112 23-190h32v120c0 31 7 50 39 49 72-2 45-101 50-169h31l1 190h-30c-1-10 1-25-2-33-11 22-28 36-60 37" id="aG"/><path d="M179-190L93 31C79 59 56 82 12 73V49c39 6 53-20 64-50L1-190h34L92-34l54-156h33" id="aH"/><path d="M185-189c-5-48-123-54-124 2 14 75 158 14 163 119 3 78-121 87-175 55-17-10-28-26-33-46l33-7c5 56 141 63 141-1 0-78-155-14-162-118-5-82 145-84 179-34 5 7 8 16 11 25" id="aI"/><g id="h"><use transform="matrix(0.05,0,0,0.05,0,0)" xlink:href="#aF"/><use transform="matrix(0.05,0,0,0.05,12.950000000000001,0)" xlink:href="#aj"/><use transform="matrix(0.05,0,0,0.05,22.950000000000003,0)" xlink:href="#ap"/><use transform="matrix(0.05,0,0,0.05,32.95,0)" xlink:href="#at"/><use transform="matrix(0.05,0,0,0.05,41.95,0)" xlink:href="#aG"/><use transform="matrix(0.05,0,0,0.05,51.95,0)" xlink:href="#as"/><use transform="matrix(0.05,0,0,0.05,57.900000000000006,0)" xlink:href="#as"/><use transform="matrix(0.05,0,0,0.05,63.85,0)" xlink:href="#ag"/><use transform="matrix(0.05,0,0,0.05,73.85000000000001,0)" xlink:href="#ap"/><use transform="matrix(0.05,0,0,0.05,83.85000000000001,0)" xlink:href="#at"/><use transform="matrix(0.05,0,0,0.05,92.85000000000001,0)" xlink:href="#aH"/><use transform="matrix(0.05,0,0,0.05,101.85000000000001,0)" xlink:href="#aI"/><use transform="matrix(0.05,0,0,0.05,113.85000000000001,0)" xlink:href="#ah"/><use transform="matrix(0.05,0,0,0.05,118.85000000000001,0)" xlink:href="#ar"/><use transform="matrix(0.05,0,0,0.05,128.85000000000002,0)" xlink:href="#aA"/><use transform="matrix(0.05,0,0,0.05,143.8,0)" xlink:href="#ae"/></g><g id="i"><use transform="matrix(0.05,0,0,0.05,0,0)" xlink:href="#ap"/><use transform="matrix(0.05,0,0,0.05,10,0)" xlink:href="#aq"/><use transform="matrix(0.05,0,0,0.05,19,0)" xlink:href="#ar"/><use transform="matrix(0.05,0,0,0.05,29,0)" xlink:href="#as"/><use transform="matrix(0.05,0,0,0.05,34.95,0)" xlink:href="#at"/><use transform="matrix(0.05,0,0,0.05,43.95,0)" xlink:href="#au"/><use transform="matrix(0.05,0,0,0.05,53.95,0)" xlink:href="#ar"/><use transform="matrix(0.05,0,0,0.05,63.95,0)" xlink:href="#as"/></g><path d="M127-220V0H93v-220H8v-28h204v28h-85" id="aJ"/><path d="M143 0L79-87 56-68V0H24v-261h32v163l83-92h37l-77 82L181 0h-38" id="aK"/><g id="j"><use transform="matrix(0.05,0,0,0.05,0,0)" xlink:href="#aJ"/><use transform="matrix(0.05,0,0,0.05,8.950000000000001,0)" xlink:href="#ar"/><use transform="matrix(0.05,0,0,0.05,18.950000000000003,0)" xlink:href="#ad"/><use transform="matrix(0.05,0,0,0.05,27.950000000000003,0)" xlink:href="#aK"/><use transform="matrix(0.05,0,0,0.05,36.95,0)" xlink:href="#ad"/></g><g id="k"><use transform="matrix(0.05,0,0,0.05,0,0)" xlink:href="#aJ"/><use transform="matrix(0.05,0,0,0.05,8.950000000000001,0)" xlink:href="#ar"/><use transform="matrix(0.05,0,0,0.05,18.950000000000003,0)" xlink:href="#ad"/><use transform="matrix(0.05,0,0,0.05,27.950000000000003,0)" xlink:href="#aK"/><use transform="matrix(0.05,0,0,0.05,36.95,0)" xlink:href="#an"/><use transform="matrix(0.05,0,0,0.05,41.95,0)" xlink:href="#ao"/></g><path d="M30-248c118-7 216 8 213 122C240-48 200 0 122 0H30v-248zM63-27c89 8 146-16 146-99s-60-101-146-95v194" id="aL"/><g id="l"><use transform="matrix(0.05,0,0,0.05,0,0)" xlink:href="#aL"/><use transform="matrix(0.05,0,0,0.05,12.950000000000001,0)" xlink:href="#ag"/><use transform="matrix(0.05,0,0,0.05,22.950000000000003,0)" xlink:href="#ad"/><use transform="matrix(0.05,0,0,0.05,31.950000000000003,0)" xlink:href="#at"/><use transform="matrix(0.05,0,0,0.05,40.95,0)" xlink:href="#as"/><use transform="matrix(0.05,0,0,0.05,46.900000000000006,0)" xlink:href="#aD"/><use transform="matrix(0.05,0,0,0.05,50.85000000000001,0)" xlink:href="#ae"/><use transform="matrix(0.05,0,0,0.05,60.85,0)" xlink:href="#ah"/><use transform="matrix(0.05,0,0,0.05,65.85000000000001,0)" xlink:href="#aD"/><use transform="matrix(0.05,0,0,0.05,69.80000000000001,0)" xlink:href="#aj"/><use transform="matrix(0.05,0,0,0.05,79.80000000000001,0)" xlink:href="#ap"/></g><g id="m"><use transform="matrix(0.05,0,0,0.05,0,0)" xlink:href="#aI"/><use transform="matrix(0.05,0,0,0.05,12,0)" xlink:href="#ah"/><use transform="matrix(0.05,0,0,0.05,17,0)" xlink:href="#ar"/><use transform="matrix(0.05,0,0,0.05,27,0)" xlink:href="#as"/><use transform="matrix(0.05,0,0,0.05,32.95,0)" xlink:href="#ah"/><use transform="matrix(0.05,0,0,0.05,37.95,0)" xlink:href="#aL"/><use transform="matrix(0.05,0,0,0.05,50.900000000000006,0)" xlink:href="#ar"/><use transform="matrix(0.05,0,0,0.05,60.900000000000006,0)" xlink:href="#ah"/><use transform="matrix(0.05,0,0,0.05,65.9,0)" xlink:href="#ag"/></g><g id="n"><use transform="matrix(0.05,0,0,0.05,0,0)" xlink:href="#ao"/><use transform="matrix(0.05,0,0,0.05,10,0)" xlink:href="#ar"/><use transform="matrix(0.05,0,0,0.05,20,0)" xlink:href="#ah"/><use transform="matrix(0.05,0,0,0.05,25,0)" xlink:href="#ag"/><use transform="matrix(0.05,0,0,0.05,35,0)" xlink:href="#ah"/><use transform="matrix(0.05,0,0,0.05,40,0)" xlink:href="#aD"/><use transform="matrix(0.05,0,0,0.05,43.95,0)" xlink:href="#aA"/><use transform="matrix(0.05,0,0,0.05,58.900000000000006,0)" xlink:href="#ag"/><use transform="matrix(0.05,0,0,0.05,68.9,0)" xlink:href="#aB"/></g><g id="o"><use transform="matrix(0.05,0,0,0.05,0,0)" xlink:href="#aL"/><use transform="matrix(0.05,0,0,0.05,12.950000000000001,0)" xlink:href="#aG"/><use transform="matrix(0.05,0,0,0.05,22.950000000000003,0)" xlink:href="#ag"/><use transform="matrix(0.05,0,0,0.05,32.95,0)" xlink:href="#aL"/><use transform="matrix(0.05,0,0,0.05,45.900000000000006,0)" xlink:href="#ar"/><use transform="matrix(0.05,0,0,0.05,55.900000000000006,0)" xlink:href="#ah"/><use transform="matrix(0.05,0,0,0.05,60.900000000000006,0)" xlink:href="#ag"/></g><path d="M63-220v92h138v28H63V0H30v-248h175v28H63" id="aM"/><g id="p"><use transform="matrix(0.05,0,0,0.05,0,0)" xlink:href="#aM"/><use transform="matrix(0.05,0,0,0.05,10.950000000000001,0)" xlink:href="#am"/></g><path d="M232-93c-1 65-40 97-104 97C67 4 28-28 28-90v-158h33c8 89-33 224 67 224 102 0 64-133 71-224h33v155" id="aN"/><g id="q"><use transform="matrix(0.05,0,0,0.05,0,0)" xlink:href="#aN"/><use transform="matrix(0.05,0,0,0.05,12.950000000000001,0)" xlink:href="#ad"/><use transform="matrix(0.05,0,0,0.05,21.950000000000003,0)" xlink:href="#ag"/><use transform="matrix(0.05,0,0,0.05,31.950000000000003,0)" xlink:href="#as"/><use transform="matrix(0.05,0,0,0.05,37.900000000000006,0)" xlink:href="#an"/><use transform="matrix(0.05,0,0,0.05,42.900000000000006,0)" xlink:href="#ao"/></g><path d="M143 4C61 4 22-44 18-125c-5-107 100-154 193-111 17 8 29 25 37 43l-32 9c-13-25-37-40-76-40-61 0-88 39-88 99 0 61 29 100 91 101 35 0 62-11 79-27v-45h-74v-28h105v86C228-13 192 4 143 4" id="aO"/><g id="r"><use transform="matrix(0.05,0,0,0.05,0,0)" xlink:href="#aO"/><use transform="matrix(0.05,0,0,0.05,14,0)" xlink:href="#as"/><use transform="matrix(0.05,0,0,0.05,19.95,0)" xlink:href="#aj"/><use transform="matrix(0.05,0,0,0.05,29.950000000000003,0)" xlink:href="#aG"/><use transform="matrix(0.05,0,0,0.05,39.95,0)" xlink:href="#ae"/><use transform="matrix(0.05,0,0,0.05,49.95,0)" xlink:href="#an"/><use transform="matrix(0.05,0,0,0.05,54.95,0)" xlink:href="#ao"/></g><path d="M177-190C167-65 218 103 67 71c-23-6-38-20-44-43l32-5c15 47 100 32 89-28v-30C133-14 115 1 83 1 29 1 15-40 15-95c0-56 16-97 71-98 29-1 48 16 59 35 1-10 0-23 2-32h30zM94-22c36 0 50-32 50-73 0-42-14-75-50-75-39 0-46 34-46 75s6 73 46 73" id="aP"/><g id="s"><use transform="matrix(0.05,0,0,0.05,0,0)" xlink:href="#aF"/><use transform="matrix(0.05,0,0,0.05,12.950000000000001,0)" xlink:href="#ar"/><use transform="matrix(0.05,0,0,0.05,22.950000000000003,0)" xlink:href="#ah"/><use transform="matrix(0.05,0,0,0.05,27.950000000000003,0)" xlink:href="#ag"/><use transform="matrix(0.05,0,0,0.05,37.95,0)" xlink:href="#aP"/><use transform="matrix(0.05,0,0,0.05,47.95,0)" xlink:href="#aj"/><use transform="matrix(0.05,0,0,0.05,57.95,0)" xlink:href="#as"/><use transform="matrix(0.05,0,0,0.05,63.900000000000006,0)" xlink:href="#aH"/></g><g id="t"><use transform="matrix(0.05,0,0,0.05,0,0)" xlink:href="#aD"/><use transform="matrix(0.05,0,0,0.05,3.95,0)" xlink:href="#ap"/><use transform="matrix(0.05,0,0,0.05,13.949999999999998,0)" xlink:href="#ah"/></g><g id="u"><use transform="matrix(0.05,0,0,0.05,0,0)" xlink:href="#al"/><use transform="matrix(0.05,0,0,0.05,12,0)" xlink:href="#as"/><use transform="matrix(0.05,0,0,0.05,17.95,0)" xlink:href="#aD"/><use transform="matrix(0.05,0,0,0.05,21.9,0)" xlink:href="#aj"/><use transform="matrix(0.05,0,0,0.05,31.899999999999995,0)" xlink:href="#as"/><use transform="matrix(0.05,0,0,0.05,37.85,0)" xlink:href="#aD"/><use transform="matrix(0.05,0,0,0.05,41.800000000000004,0)" xlink:href="#ah"/><use transform="matrix(0.05,0,0,0.05,46.800000000000004,0)" xlink:href="#aH"/></g><g id="v"><use transform="matrix(0.05,0,0,0.05,0,0)" xlink:href="#aI"/><use transform="matrix(0.05,0,0,0.05,12,0)" xlink:href="#ah"/><use transform="matrix(0.05,0,0,0.05,17,0)" xlink:href="#ar"/><use transform="matrix(0.05,0,0,0.05,27,0)" xlink:href="#ah"/><use transform="matrix(0.05,0,0,0.05,32,0)" xlink:href="#aG"/><use transform="matrix(0.05,0,0,0.05,42,0)" xlink:href="#ad"/></g><path d="M140-251c81 0 123 46 123 126C263-46 219 4 140 4 59 4 17-45 17-125s42-126 123-126zm0 227c63 0 89-41 89-101s-29-99-89-99c-61 0-89 39-89 99S79-25 140-24" id="aQ"/><g id="w"><use transform="matrix(0.05,0,0,0.05,0,0)" xlink:href="#aF"/><use transform="matrix(0.05,0,0,0.05,12.950000000000001,0)" xlink:href="#as"/><use transform="matrix(0.05,0,0,0.05,18.900000000000002,0)" xlink:href="#ag"/><use transform="matrix(0.05,0,0,0.05,28.900000000000002,0)" xlink:href="#ar"/><use transform="matrix(0.05,0,0,0.05,38.900000000000006,0)" xlink:href="#ah"/><use transform="matrix(0.05,0,0,0.05,43.900000000000006,0)" xlink:href="#ag"/><use transform="matrix(0.05,0,0,0.05,53.900000000000006,0)" xlink:href="#ao"/><use transform="matrix(0.05,0,0,0.05,63.900000000000006,0)" xlink:href="#aQ"/><use transform="matrix(0.05,0,0,0.05,77.9,0)" xlink:href="#ap"/></g><g id="x"><use transform="matrix(0.05,0,0,0.05,0,0)" xlink:href="#aO"/><use transform="matrix(0.05,0,0,0.05,14,0)" xlink:href="#as"/><use transform="matrix(0.05,0,0,0.05,19.95,0)" xlink:href="#aj"/><use transform="matrix(0.05,0,0,0.05,29.950000000000003,0)" xlink:href="#aG"/><use transform="matrix(0.05,0,0,0.05,39.95,0)" xlink:href="#ae"/><use transform="matrix(0.05,0,0,0.05,49.95,0)" xlink:href="#aN"/><use transform="matrix(0.05,0,0,0.05,62.900000000000006,0)" xlink:href="#ad"/><use transform="matrix(0.05,0,0,0.05,71.9,0)" xlink:href="#ag"/><use transform="matrix(0.05,0,0,0.05,81.9,0)" xlink:href="#as"/></g><path d="M68-38c1 34 0 65-14 84H32c9-13 17-26 17-46H33v-38h35" id="aR"/><g id="y"><use transform="matrix(0.05,0,0,0.05,0,0)" xlink:href="#al"/><use transform="matrix(0.05,0,0,0.05,12,0)" xlink:href="#am"/><use transform="matrix(0.05,0,0,0.05,24,0)" xlink:href="#aR"/><use transform="matrix(0.05,0,0,0.05,29,0)" xlink:href="#aM"/><use transform="matrix(0.05,0,0,0.05,39.95,0)" xlink:href="#am"/></g><g id="z"><use transform="matrix(0.05,0,0,0.05,0,0)" xlink:href="#aO"/><use transform="matrix(0.05,0,0,0.05,14,0)" xlink:href="#as"/><use transform="matrix(0.05,0,0,0.05,19.95,0)" xlink:href="#aj"/><use transform="matrix(0.05,0,0,0.05,29.950000000000003,0)" xlink:href="#aG"/><use transform="matrix(0.05,0,0,0.05,39.95,0)" xlink:href="#ae"/><use transform="matrix(0.05,0,0,0.05,49.95,0)" xlink:href="#ad"/><use transform="matrix(0.05,0,0,0.05,58.95,0)" xlink:href="#aO"/><use transform="matrix(0.05,0,0,0.05,72.95,0)" xlink:href="#as"/><use transform="matrix(0.05,0,0,0.05,78.9,0)" xlink:href="#aj"/><use transform="matrix(0.05,0,0,0.05,88.9,0)" xlink:href="#aG"/><use transform="matrix(0.05,0,0,0.05,98.9,0)" xlink:href="#ae"/><use transform="matrix(0.05,0,0,0.05,108.9,0)" xlink:href="#an"/><use transform="matrix(0.05,0,0,0.05,113.9,0)" xlink:href="#ao"/></g><g id="A"><use transform="matrix(0.05,0,0,0.05,0,0)" xlink:href="#aN"/><use transform="matrix(0.05,0,0,0.05,12.950000000000001,0)" xlink:href="#ad"/><use transform="matrix(0.05,0,0,0.05,21.950000000000003,0)" xlink:href="#ag"/><use transform="matrix(0.05,0,0,0.05,31.950000000000003,0)" xlink:href="#as"/><use transform="matrix(0.05,0,0,0.05,37.900000000000006,0)" xlink:href="#ad"/><use transform="matrix(0.05,0,0,0.05,46.900000000000006,0)" xlink:href="#an"/><use transform="matrix(0.05,0,0,0.05,51.900000000000006,0)" xlink:href="#ao"/></g><g id="B"><use transform="matrix(0.05,0,0,0.05,0,0)" xlink:href="#aO"/><use transform="matrix(0.05,0,0,0.05,14,0)" xlink:href="#as"/><use transform="matrix(0.05,0,0,0.05,19.95,0)" xlink:href="#aj"/><use transform="matrix(0.05,0,0,0.05,29.950000000000003,0)" xlink:href="#aG"/><use transform="matrix(0.05,0,0,0.05,39.95,0)" xlink:href="#ae"/><use transform="matrix(0.05,0,0,0.05,49.95,0)" xlink:href="#ad"/></g><g id="C"><use transform="matrix(0.05,0,0,0.05,0,0)" xlink:href="#aO"/><use transform="matrix(0.05,0,0,0.05,14,0)" xlink:href="#as"/><use transform="matrix(0.05,0,0,0.05,19.95,0)" xlink:href="#aj"/><use transform="matrix(0.05,0,0,0.05,29.950000000000003,0)" xlink:href="#aG"/><use transform="matrix(0.05,0,0,0.05,39.95,0)" xlink:href="#ae"/><use transform="matrix(0.05,0,0,0.05,49.95,0)" xlink:href="#af"/><use transform="matrix(0.05,0,0,0.05,62.900000000000006,0)" xlink:href="#ar"/><use transform="matrix(0.05,0,0,0.05,72.9,0)" xlink:href="#aA"/><use transform="matrix(0.05,0,0,0.05,87.85000000000001,0)" xlink:href="#ag"/></g><g id="D"><use transform="matrix(0.05,0,0,0.05,0,0)" xlink:href="#ac"/><use transform="matrix(0.05,0,0,0.05,12,0)" xlink:href="#ad"/><use transform="matrix(0.05,0,0,0.05,21,0)" xlink:href="#ae"/><use transform="matrix(0.05,0,0,0.05,31,0)" xlink:href="#af"/><use transform="matrix(0.05,0,0,0.05,43.95,0)" xlink:href="#ag"/><use transform="matrix(0.05,0,0,0.05,53.95,0)" xlink:href="#ah"/><use transform="matrix(0.05,0,0,0.05,58.95,0)" xlink:href="#aN"/><use transform="matrix(0.05,0,0,0.05,71.9,0)" xlink:href="#ad"/><use transform="matrix(0.05,0,0,0.05,80.9,0)" xlink:href="#ag"/><use transform="matrix(0.05,0,0,0.05,90.9,0)" xlink:href="#as"/><use transform="matrix(0.05,0,0,0.05,96.85000000000001,0)" xlink:href="#ad"/></g><g id="E"><use transform="matrix(0.05,0,0,0.05,0,0)" xlink:href="#aM"/><use transform="matrix(0.05,0,0,0.05,10.950000000000001,0)" xlink:href="#aD"/><use transform="matrix(0.05,0,0,0.05,14.9,0)" xlink:href="#as"/><use transform="matrix(0.05,0,0,0.05,20.85,0)" xlink:href="#ad"/><use transform="matrix(0.05,0,0,0.05,29.85,0)" xlink:href="#ah"/><use transform="matrix(0.05,0,0,0.05,34.85,0)" xlink:href="#af"/><use transform="matrix(0.05,0,0,0.05,47.800000000000004,0)" xlink:href="#ar"/><use transform="matrix(0.05,0,0,0.05,57.800000000000004,0)" xlink:href="#aA"/><use transform="matrix(0.05,0,0,0.05,72.75,0)" xlink:href="#ag"/></g><path d="M30 0v-248h33v221h125V0H30" id="aS"/><g id="F"><use transform="matrix(0.05,0,0,0.05,0,0)" xlink:href="#aS"/><use transform="matrix(0.05,0,0,0.05,10,0)" xlink:href="#ar"/><use transform="matrix(0.05,0,0,0.05,20,0)" xlink:href="#ad"/><use transform="matrix(0.05,0,0,0.05,29,0)" xlink:href="#ah"/><use transform="matrix(0.05,0,0,0.05,34,0)" xlink:href="#af"/><use transform="matrix(0.05,0,0,0.05,46.95,0)" xlink:href="#ar"/><use transform="matrix(0.05,0,0,0.05,56.95,0)" xlink:href="#aA"/><use transform="matrix(0.05,0,0,0.05,71.9,0)" xlink:href="#ag"/></g><g id="G"><use transform="matrix(0.05,0,0,0.05,0,0)" xlink:href="#aN"/><use transform="matrix(0.05,0,0,0.05,12.950000000000001,0)" xlink:href="#ad"/><use transform="matrix(0.05,0,0,0.05,21.950000000000003,0)" xlink:href="#ag"/><use transform="matrix(0.05,0,0,0.05,31.950000000000003,0)" xlink:href="#as"/><use transform="matrix(0.05,0,0,0.05,37.900000000000006,0)" xlink:href="#af"/><use transform="matrix(0.05,0,0,0.05,50.85000000000001,0)" xlink:href="#ar"/><use transform="matrix(0.05,0,0,0.05,60.85,0)" xlink:href="#aA"/><use transform="matrix(0.05,0,0,0.05,75.80000000000001,0)" xlink:href="#ag"/></g><path d="M206 0h-36l-40-164L89 0H53L-1-190h32L70-26l43-164h34l41 164 42-164h31" id="aT"/><path d="M197 0v-115H63V0H30v-248h33v105h134v-105h34V0h-34" id="aU"/><g id="H"><use transform="matrix(0.05,0,0,0.05,0,0)" xlink:href="#al"/><use transform="matrix(0.05,0,0,0.05,12,0)" xlink:href="#ar"/><use transform="matrix(0.05,0,0,0.05,22,0)" xlink:href="#ad"/><use transform="matrix(0.05,0,0,0.05,31,0)" xlink:href="#ad"/><use transform="matrix(0.05,0,0,0.05,40,0)" xlink:href="#aT"/><use transform="matrix(0.05,0,0,0.05,52.95,0)" xlink:href="#aj"/><use transform="matrix(0.05,0,0,0.05,62.95,0)" xlink:href="#as"/><use transform="matrix(0.05,0,0,0.05,68.9,0)" xlink:href="#ao"/><use transform="matrix(0.05,0,0,0.05,78.9,0)" xlink:href="#aU"/><use transform="matrix(0.05,0,0,0.05,91.85000000000001,0)" xlink:href="#ar"/><use transform="matrix(0.05,0,0,0.05,101.85000000000001,0)" xlink:href="#ad"/><use transform="matrix(0.05,0,0,0.05,110.85000000000001,0)" xlink:href="#au"/></g><path d="M30 0v-248h187v28H63v79h144v27H63v87h162V0H30" id="aV"/><g id="I"><use transform="matrix(0.05,0,0,0.05,0,0)" xlink:href="#aV"/><use transform="matrix(0.05,0,0,0.05,12,0)" xlink:href="#aA"/><use transform="matrix(0.05,0,0,0.05,26.950000000000003,0)" xlink:href="#ar"/><use transform="matrix(0.05,0,0,0.05,36.95,0)" xlink:href="#aD"/><use transform="matrix(0.05,0,0,0.05,40.900000000000006,0)" xlink:href="#ak"/></g><g id="J"><use transform="matrix(0.05,0,0,0.05,0,0)" xlink:href="#ai"/><use transform="matrix(0.05,0,0,0.05,12.950000000000001,0)" xlink:href="#aj"/><use transform="matrix(0.05,0,0,0.05,22.950000000000003,0)" xlink:href="#ak"/><use transform="matrix(0.05,0,0,0.05,26.900000000000002,0)" xlink:href="#ag"/></g><g id="K"><use transform="matrix(0.05,0,0,0.05,0,0)" xlink:href="#ac"/><use transform="matrix(0.05,0,0,0.05,12,0)" xlink:href="#at"/><use transform="matrix(0.05,0,0,0.05,21,0)" xlink:href="#at"/><use transform="matrix(0.05,0,0,0.05,30,0)" xlink:href="#ag"/><use transform="matrix(0.05,0,0,0.05,40,0)" xlink:href="#ad"/><use transform="matrix(0.05,0,0,0.05,49,0)" xlink:href="#ad"/><use transform="matrix(0.05,0,0,0.05,58,0)" xlink:href="#aM"/><use transform="matrix(0.05,0,0,0.05,68.95,0)" xlink:href="#ar"/><use transform="matrix(0.05,0,0,0.05,78.95,0)" xlink:href="#aD"/><use transform="matrix(0.05,0,0,0.05,82.9,0)" xlink:href="#ak"/><use transform="matrix(0.05,0,0,0.05,86.85000000000001,0)" xlink:href="#ag"/><use transform="matrix(0.05,0,0,0.05,96.85000000000001,0)" xlink:href="#ao"/><use transform="matrix(0.05,0,0,0.05,106.85000000000001,0)" xlink:href="#aF"/><use transform="matrix(0.05,0,0,0.05,119.80000000000001,0)" xlink:href="#aj"/><use transform="matrix(0.05,0,0,0.05,129.8,0)" xlink:href="#aG"/><use transform="matrix(0.05,0,0,0.05,139.8,0)" xlink:href="#ap"/><use transform="matrix(0.05,0,0,0.05,149.8,0)" xlink:href="#ah"/></g><path d="M101-234c-31-9-42 10-38 44h38v23H63V0H32v-167H5v-23h27c-7-52 17-82 69-68v24" id="aW"/><g id="L"><use transform="matrix(0.05,0,0,0.05,0,0)" xlink:href="#aV"/><use transform="matrix(0.05,0,0,0.05,12,0)" xlink:href="#aA"/><use transform="matrix(0.05,0,0,0.05,26.950000000000003,0)" xlink:href="#ar"/><use transform="matrix(0.05,0,0,0.05,36.95,0)" xlink:href="#aD"/><use transform="matrix(0.05,0,0,0.05,40.900000000000006,0)" xlink:href="#ak"/><use transform="matrix(0.05,0,0,0.05,44.85000000000001,0)" xlink:href="#aF"/><use transform="matrix(0.05,0,0,0.05,57.80000000000001,0)" xlink:href="#aj"/><use transform="matrix(0.05,0,0,0.05,67.80000000000001,0)" xlink:href="#ap"/><use transform="matrix(0.05,0,0,0.05,77.80000000000001,0)" xlink:href="#aW"/><use transform="matrix(0.05,0,0,0.05,82.80000000000001,0)" xlink:href="#aD"/><use transform="matrix(0.05,0,0,0.05,86.75000000000001,0)" xlink:href="#as"/><use transform="matrix(0.05,0,0,0.05,92.70000000000002,0)" xlink:href="#aA"/><use transform="matrix(0.05,0,0,0.05,107.65000000000003,0)" xlink:href="#ag"/><use transform="matrix(0.05,0,0,0.05,117.65000000000003,0)" xlink:href="#ao"/></g><path d="M115-194c53 0 69 39 70 98 0 66-23 100-70 100C84 3 66-7 56-30L54 0H23l1-261h32v101c10-23 28-34 59-34zm-8 174c40 0 45-34 45-75 0-40-5-75-45-74-42 0-51 32-51 76 0 43 10 73 51 73" id="aX"/><g id="M"><use transform="matrix(0.05,0,0,0.05,0,0)" xlink:href="#aX"/><use transform="matrix(0.05,0,0,0.05,10,0)" xlink:href="#aD"/><use transform="matrix(0.05,0,0,0.05,13.949999999999998,0)" xlink:href="#ah"/></g><g id="N"><use transform="matrix(0.05,0,0,0.05,0,0)" xlink:href="#aS"/><use transform="matrix(0.05,0,0,0.05,10,0)" xlink:href="#aj"/><use transform="matrix(0.05,0,0,0.05,20,0)" xlink:href="#at"/><use transform="matrix(0.05,0,0,0.05,29,0)" xlink:href="#aK"/><use transform="matrix(0.05,0,0,0.05,38,0)" xlink:href="#aj"/><use transform="matrix(0.05,0,0,0.05,48,0)" xlink:href="#aG"/><use transform="matrix(0.05,0,0,0.05,58,0)" xlink:href="#ah"/><use transform="matrix(0.05,0,0,0.05,63,0)" xlink:href="#aV"/><use transform="matrix(0.05,0,0,0.05,75,0)" xlink:href="#ap"/><use transform="matrix(0.05,0,0,0.05,85,0)" xlink:href="#ar"/><use transform="matrix(0.05,0,0,0.05,95,0)" xlink:href="#aX"/><use transform="matrix(0.05,0,0,0.05,105,0)" xlink:href="#ak"/><use transform="matrix(0.05,0,0,0.05,108.95,0)" xlink:href="#ag"/><use transform="matrix(0.05,0,0,0.05,118.95,0)" xlink:href="#ao"/></g><g id="O"><use transform="matrix(0.05,0,0,0.05,0,0)" xlink:href="#aS"/><use transform="matrix(0.05,0,0,0.05,10,0)" xlink:href="#aj"/><use transform="matrix(0.05,0,0,0.05,20,0)" xlink:href="#at"/><use transform="matrix(0.05,0,0,0.05,29,0)" xlink:href="#aK"/><use transform="matrix(0.05,0,0,0.05,38,0)" xlink:href="#aj"/><use transform="matrix(0.05,0,0,0.05,48,0)" xlink:href="#aG"/><use transform="matrix(0.05,0,0,0.05,58,0)" xlink:href="#ah"/><use transform="matrix(0.05,0,0,0.05,63,0)" xlink:href="#aV"/><use transform="matrix(0.05,0,0,0.05,75,0)" xlink:href="#ap"/><use transform="matrix(0.05,0,0,0.05,85,0)" xlink:href="#ao"/></g><g id="P"><use transform="matrix(0.05,0,0,0.05,0,0)" xlink:href="#ao"/><use transform="matrix(0.05,0,0,0.05,10,0)" xlink:href="#ar"/><use transform="matrix(0.05,0,0,0.05,20,0)" xlink:href="#ah"/><use transform="matrix(0.05,0,0,0.05,25,0)" xlink:href="#ag"/><use transform="matrix(0.05,0,0,0.05,35,0)" xlink:href="#ah"/><use transform="matrix(0.05,0,0,0.05,40,0)" xlink:href="#aD"/><use transform="matrix(0.05,0,0,0.05,43.95,0)" xlink:href="#aA"/><use transform="matrix(0.05,0,0,0.05,58.900000000000006,0)" xlink:href="#ag"/><use transform="matrix(0.05,0,0,0.05,68.9,0)" xlink:href="#aj"/><use transform="matrix(0.05,0,0,0.05,78.9,0)" xlink:href="#aW"/><use transform="matrix(0.05,0,0,0.05,83.55000000000001,0)" xlink:href="#aW"/><use transform="matrix(0.05,0,0,0.05,88.55000000000001,0)" xlink:href="#ad"/><use transform="matrix(0.05,0,0,0.05,97.55000000000001,0)" xlink:href="#ag"/><use transform="matrix(0.05,0,0,0.05,107.55000000000001,0)" xlink:href="#ah"/></g><g id="Q"><use transform="matrix(0.05,0,0,0.05,0,0)" xlink:href="#af"/><use transform="matrix(0.05,0,0,0.05,12.950000000000001,0)" xlink:href="#aj"/><use transform="matrix(0.05,0,0,0.05,22.950000000000003,0)" xlink:href="#as"/><use transform="matrix(0.05,0,0,0.05,28.900000000000002,0)" xlink:href="#aA"/><use transform="matrix(0.05,0,0,0.05,43.85,0)" xlink:href="#ar"/><use transform="matrix(0.05,0,0,0.05,53.85,0)" xlink:href="#ak"/><use transform="matrix(0.05,0,0,0.05,57.800000000000004,0)" xlink:href="#aD"/><use transform="matrix(0.05,0,0,0.05,61.75,0)" xlink:href="#aE"/><use transform="matrix(0.05,0,0,0.05,70.75,0)" xlink:href="#ag"/><use transform="matrix(0.05,0,0,0.05,80.75,0)" xlink:href="#ao"/><use transform="matrix(0.05,0,0,0.05,90.75,0)" xlink:href="#aV"/><use transform="matrix(0.05,0,0,0.05,102.75,0)" xlink:href="#aA"/><use transform="matrix(0.05,0,0,0.05,117.7,0)" xlink:href="#ar"/><use transform="matrix(0.05,0,0,0.05,127.7,0)" xlink:href="#aD"/><use transform="matrix(0.05,0,0,0.05,131.65,0)" xlink:href="#ak"/></g><g id="R"><use transform="matrix(0.05,0,0,0.05,0,0)" xlink:href="#af"/><use transform="matrix(0.05,0,0,0.05,12.950000000000001,0)" xlink:href="#aj"/><use transform="matrix(0.05,0,0,0.05,22.950000000000003,0)" xlink:href="#as"/><use transform="matrix(0.05,0,0,0.05,28.900000000000002,0)" xlink:href="#aA"/><use transform="matrix(0.05,0,0,0.05,43.85,0)" xlink:href="#ar"/><use transform="matrix(0.05,0,0,0.05,53.85,0)" xlink:href="#ak"/><use transform="matrix(0.05,0,0,0.05,57.800000000000004,0)" xlink:href="#aD"/><use transform="matrix(0.05,0,0,0.05,61.75,0)" xlink:href="#aE"/><use transform="matrix(0.05,0,0,0.05,70.75,0)" xlink:href="#ag"/><use transform="matrix(0.05,0,0,0.05,80.75,0)" xlink:href="#ao"/><use transform="matrix(0.05,0,0,0.05,90.75,0)" xlink:href="#aN"/><use transform="matrix(0.05,0,0,0.05,103.7,0)" xlink:href="#ad"/><use transform="matrix(0.05,0,0,0.05,112.7,0)" xlink:href="#ag"/><use transform="matrix(0.05,0,0,0.05,122.7,0)" xlink:href="#as"/><use transform="matrix(0.05,0,0,0.05,128.65,0)" xlink:href="#af"/><use transform="matrix(0.05,0,0,0.05,141.6,0)" xlink:href="#ar"/><use transform="matrix(0.05,0,0,0.05,151.6,0)" xlink:href="#aA"/><use transform="matrix(0.05,0,0,0.05,166.54999999999998,0)" xlink:href="#ag"/></g><g id="S"><use transform="matrix(0.05,0,0,0.05,0,0)" xlink:href="#al"/><use transform="matrix(0.05,0,0,0.05,12,0)" xlink:href="#au"/><use transform="matrix(0.05,0,0,0.05,22,0)" xlink:href="#aj"/><use transform="matrix(0.05,0,0,0.05,32,0)" xlink:href="#ap"/><use transform="matrix(0.05,0,0,0.05,42,0)" xlink:href="#ag"/><use transform="matrix(0.05,0,0,0.05,52,0)" xlink:href="#af"/><use transform="matrix(0.05,0,0,0.05,64.95,0)" xlink:href="#aG"/><use transform="matrix(0.05,0,0,0.05,74.95,0)" xlink:href="#aA"/><use transform="matrix(0.05,0,0,0.05,89.9,0)" xlink:href="#aX"/><use transform="matrix(0.05,0,0,0.05,99.9,0)" xlink:href="#ag"/><use transform="matrix(0.05,0,0,0.05,109.9,0)" xlink:href="#as"/></g><g id="T"><use transform="matrix(0.05,0,0,0.05,0,0)" xlink:href="#al"/><use transform="matrix(0.05,0,0,0.05,12,0)" xlink:href="#au"/><use transform="matrix(0.05,0,0,0.05,22,0)" xlink:href="#aj"/><use transform="matrix(0.05,0,0,0.05,32,0)" xlink:href="#ap"/><use transform="matrix(0.05,0,0,0.05,42,0)" xlink:href="#ag"/><use transform="matrix(0.05,0,0,0.05,52,0)" xlink:href="#af"/><use transform="matrix(0.05,0,0,0.05,64.95,0)" xlink:href="#aG"/><use transform="matrix(0.05,0,0,0.05,74.95,0)" xlink:href="#aA"/><use transform="matrix(0.05,0,0,0.05,89.9,0)" xlink:href="#aX"/><use transform="matrix(0.05,0,0,0.05,99.9,0)" xlink:href="#ag"/><use transform="matrix(0.05,0,0,0.05,109.9,0)" xlink:href="#as"/><use transform="matrix(0.05,0,0,0.05,115.85000000000001,0)" xlink:href="#aF"/><use transform="matrix(0.05,0,0,0.05,128.8,0)" xlink:href="#aj"/><use transform="matrix(0.05,0,0,0.05,138.8,0)" xlink:href="#ap"/><use transform="matrix(0.05,0,0,0.05,148.8,0)" xlink:href="#aW"/><use transform="matrix(0.05,0,0,0.05,153.8,0)" xlink:href="#aD"/><use transform="matrix(0.05,0,0,0.05,157.75,0)" xlink:href="#as"/><use transform="matrix(0.05,0,0,0.05,163.7,0)" xlink:href="#aA"/><use transform="matrix(0.05,0,0,0.05,178.64999999999998,0)" xlink:href="#ag"/><use transform="matrix(0.05,0,0,0.05,188.64999999999998,0)" xlink:href="#ao"/></g><g id="U"><use transform="matrix(0.05,0,0,0.05,0,0)" xlink:href="#aI"/><use transform="matrix(0.05,0,0,0.05,12,0)" xlink:href="#ag"/><use transform="matrix(0.05,0,0,0.05,22,0)" xlink:href="#at"/><use transform="matrix(0.05,0,0,0.05,31,0)" xlink:href="#aG"/><use transform="matrix(0.05,0,0,0.05,41,0)" xlink:href="#as"/><use transform="matrix(0.05,0,0,0.05,46.95,0)" xlink:href="#aD"/><use transform="matrix(0.05,0,0,0.05,50.900000000000006,0)" xlink:href="#ah"/><use transform="matrix(0.05,0,0,0.05,55.900000000000006,0)" xlink:href="#aH"/><use transform="matrix(0.05,0,0,0.05,64.9,0)" xlink:href="#aI"/><use transform="matrix(0.05,0,0,0.05,76.9,0)" xlink:href="#ah"/><use transform="matrix(0.05,0,0,0.05,81.9,0)" xlink:href="#ar"/><use transform="matrix(0.05,0,0,0.05,91.9,0)" xlink:href="#aA"/><use transform="matrix(0.05,0,0,0.05,106.85000000000001,0)" xlink:href="#ae"/></g><g id="V"><use transform="matrix(0.05,0,0,0.05,0,0)" xlink:href="#aJ"/><use transform="matrix(0.05,0,0,0.05,9.950000000000001,0)" xlink:href="#aT"/><use transform="matrix(0.05,0,0,0.05,22.900000000000002,0)" xlink:href="#aj"/><use transform="matrix(0.05,0,0,0.05,32.900000000000006,0)" xlink:href="#aM"/><use transform="matrix(0.05,0,0,0.05,43.85000000000001,0)" xlink:href="#ar"/><use transform="matrix(0.05,0,0,0.05,53.85,0)" xlink:href="#at"/><use transform="matrix(0.05,0,0,0.05,62.85,0)" xlink:href="#ah"/><use transform="matrix(0.05,0,0,0.05,67.85000000000001,0)" xlink:href="#aj"/><use transform="matrix(0.05,0,0,0.05,77.85000000000001,0)" xlink:href="#as"/><use transform="matrix(0.05,0,0,0.05,83.80000000000001,0)" xlink:href="#aV"/><use transform="matrix(0.05,0,0,0.05,95.80000000000001,0)" xlink:href="#ap"/><use transform="matrix(0.05,0,0,0.05,105.80000000000001,0)" xlink:href="#ar"/><use transform="matrix(0.05,0,0,0.05,115.80000000000001,0)" xlink:href="#aX"/><use transform="matrix(0.05,0,0,0.05,125.80000000000001,0)" xlink:href="#ak"/><use transform="matrix(0.05,0,0,0.05,129.75,0)" xlink:href="#ag"/><use transform="matrix(0.05,0,0,0.05,139.75,0)" xlink:href="#ao"/></g><g id="W"><use transform="matrix(0.05,0,0,0.05,0,0)" xlink:href="#ac"/><use transform="matrix(0.05,0,0,0.05,12,0)" xlink:href="#ad"/><use transform="matrix(0.05,0,0,0.05,21,0)" xlink:href="#ae"/><use transform="matrix(0.05,0,0,0.05,31,0)" xlink:href="#af"/><use transform="matrix(0.05,0,0,0.05,43.95,0)" xlink:href="#ag"/><use transform="matrix(0.05,0,0,0.05,53.95,0)" xlink:href="#ah"/><use transform="matrix(0.05,0,0,0.05,58.95,0)" xlink:href="#aN"/><use transform="matrix(0.05,0,0,0.05,71.9,0)" xlink:href="#ad"/><use transform="matrix(0.05,0,0,0.05,80.9,0)" xlink:href="#ag"/><use transform="matrix(0.05,0,0,0.05,90.9,0)" xlink:href="#as"/><use transform="matrix(0.05,0,0,0.05,96.85000000000001,0)" xlink:href="#ai"/><use transform="matrix(0.05,0,0,0.05,109.80000000000001,0)" xlink:href="#aj"/><use transform="matrix(0.05,0,0,0.05,119.80000000000001,0)" xlink:href="#ak"/><use transform="matrix(0.05,0,0,0.05,123.75,0)" xlink:href="#ag"/><use transform="matrix(0.05,0,0,0.05,133.75,0)" xlink:href="#ad"/></g><g id="X"><use transform="matrix(0.05,0,0,0.05,0,0)" xlink:href="#ai"/><use transform="matrix(0.05,0,0,0.05,12.950000000000001,0)" xlink:href="#aj"/><use transform="matrix(0.05,0,0,0.05,22.950000000000003,0)" xlink:href="#ak"/><use transform="matrix(0.05,0,0,0.05,26.900000000000002,0)" xlink:href="#ag"/><use transform="matrix(0.05,0,0,0.05,36.900000000000006,0)" xlink:href="#an"/><use transform="matrix(0.05,0,0,0.05,41.900000000000006,0)" xlink:href="#ao"/></g><g id="Y"><use transform="matrix(0.05,0,0,0.05,0,0)" xlink:href="#ac"/><use transform="matrix(0.05,0,0,0.05,12,0)" xlink:href="#ad"/><use transform="matrix(0.05,0,0,0.05,21,0)" xlink:href="#ae"/><use transform="matrix(0.05,0,0,0.05,31,0)" xlink:href="#af"/><use transform="matrix(0.05,0,0,0.05,43.95,0)" xlink:href="#ag"/><use transform="matrix(0.05,0,0,0.05,53.95,0)" xlink:href="#ah"/><use transform="matrix(0.05,0,0,0.05,58.95,0)" xlink:href="#ai"/><use transform="matrix(0.05,0,0,0.05,71.9,0)" xlink:href="#aj"/><use transform="matrix(0.05,0,0,0.05,81.9,0)" xlink:href="#ak"/><use transform="matrix(0.05,0,0,0.05,85.85000000000001,0)" xlink:href="#ag"/><use transform="matrix(0.05,0,0,0.05,95.85000000000001,0)" xlink:href="#aF"/><use transform="matrix(0.05,0,0,0.05,108.80000000000001,0)" xlink:href="#ak"/><use transform="matrix(0.05,0,0,0.05,112.75,0)" xlink:href="#ar"/><use transform="matrix(0.05,0,0,0.05,122.75,0)" xlink:href="#aD"/><use transform="matrix(0.05,0,0,0.05,126.7,0)" xlink:href="#aA"/><use transform="matrix(0.05,0,0,0.05,141.65,0)" xlink:href="#ad"/></g><g id="Z"><use transform="matrix(0.05,0,0,0.05,0,0)" xlink:href="#aF"/><use transform="matrix(0.05,0,0,0.05,12.950000000000001,0)" xlink:href="#ak"/><use transform="matrix(0.05,0,0,0.05,16.900000000000002,0)" xlink:href="#ar"/><use transform="matrix(0.05,0,0,0.05,26.900000000000002,0)" xlink:href="#aD"/><use transform="matrix(0.05,0,0,0.05,30.85,0)" xlink:href="#aA"/><use transform="matrix(0.05,0,0,0.05,45.800000000000004,0)" xlink:href="#aJ"/><use transform="matrix(0.05,0,0,0.05,55.75,0)" xlink:href="#aH"/><use transform="matrix(0.05,0,0,0.05,64.75,0)" xlink:href="#ae"/><use transform="matrix(0.05,0,0,0.05,74.75,0)" xlink:href="#ag"/></g><path d="M137 0h-34L2-248h35l83 218 83-218h36" id="aY"/><g id="aa"><use transform="matrix(0.05,0,0,0.05,0,0)" xlink:href="#aF"/><use transform="matrix(0.05,0,0,0.05,12.950000000000001,0)" xlink:href="#ak"/><use transform="matrix(0.05,0,0,0.05,16.900000000000002,0)" xlink:href="#ar"/><use transform="matrix(0.05,0,0,0.05,26.900000000000002,0)" xlink:href="#aD"/><use transform="matrix(0.05,0,0,0.05,30.85,0)" xlink:href="#aA"/><use transform="matrix(0.05,0,0,0.05,45.800000000000004,0)" xlink:href="#aY"/><use transform="matrix(0.05,0,0,0.05,56.45,0)" xlink:href="#ar"/><use transform="matrix(0.05,0,0,0.05,66.45,0)" xlink:href="#ak"/><use transform="matrix(0.05,0,0,0.05,70.4,0)" xlink:href="#aG"/><use transform="matrix(0.05,0,0,0.05,80.4,0)" xlink:href="#ag"/></g><g id="ab"><use transform="matrix(0.05,0,0,0.05,0,0)" xlink:href="#ac"/><use transform="matrix(0.05,0,0,0.05,12,0)" xlink:href="#ad"/><use transform="matrix(0.05,0,0,0.05,21,0)" xlink:href="#ae"/><use transform="matrix(0.05,0,0,0.05,31,0)" xlink:href="#af"/><use transform="matrix(0.05,0,0,0.05,43.95,0)" xlink:href="#ag"/><use transform="matrix(0.05,0,0,0.05,53.95,0)" xlink:href="#ah"/><use transform="matrix(0.05,0,0,0.05,58.95,0)" xlink:href="#aN"/><use transform="matrix(0.05,0,0,0.05,71.9,0)" xlink:href="#ad"/><use transform="matrix(0.05,0,0,0.05,80.9,0)" xlink:href="#ag"/><use transform="matrix(0.05,0,0,0.05,90.9,0)" xlink:href="#as"/><use transform="matrix(0.05,0,0,0.05,96.85000000000001,0)" xlink:href="#aF"/><use transform="matrix(0.05,0,0,0.05,109.80000000000001,0)" xlink:href="#ak"/><use transform="matrix(0.05,0,0,0.05,113.75,0)" xlink:href="#ar"/><use transform="matrix(0.05,0,0,0.05,123.75,0)" xlink:href="#aD"/><use transform="matrix(0.05,0,0,0.05,127.7,0)" xlink:href="#aA"/><use transform="matrix(0.05,0,0,0.05,142.65,0)" xlink:href="#ad"/></g></defs></g></svg>