<svg xmlns="http://www.w3.org/2000/svg" xmlns:xlink="http://www.w3.org/1999/xlink" xmlns:lucid="lucid" width="302" height="123"><g transform="translate(-433 -570)" lucid:page-tab-id="0_0"><path d="M-500-1000h2000v2000H-500z" fill="#fff"/><path d="M440 588a8 8 0 0 1 8-8h277.65a8 8 0 0 1 8 8v88a8 8 0 0 1-8 8H448a8 8 0 0 1-8-8z" fill="#fff"/><path d="M440 588a8 8 0 0 1 8-8h277.65a8 8 0 0 1 8 8v88a8 8 0 0 1-8 8H448a8 8 0 0 1-8-8zM440 620h293.65M484 620v64M601.85 620v64" stroke="#3a414a" fill="none"/><use xlink:href="#a" transform="matrix(1,0,0,1,450,580) translate(107.525 23.6)"/><use xlink:href="#b" transform="matrix(1,0,0,1,445,622.5) translate(5 17.1)"/><use xlink:href="#c" transform="matrix(1,0,0,1,489,622.5) translate(0 17.1)"/><use xlink:href="#d" transform="matrix(1,0,0,1,606.85,622.5) translate(0 17.1)"/><use xlink:href="#e" transform="matrix(1,0,0,1,489,654.5) translate(0 17.1)"/><use xlink:href="#f" transform="matrix(1,0,0,1,606.85,654.5) translate(0 17.1)"/><path d="M419.5 636h-8a12 12 0 0 1-12-12V524a12 12 0 0 1 12-12h124.65a12 12 0 0 0 12-12v-92a12 12 0 0 0-12-12h-8.6" stroke="#3a414a" fill="none"/><path d="M419.5 626v20M439.5 636h-20" stroke="#3a414a" fill="#fff"/><path d="M508.37 386l20 10-20 10" stroke="#3a414a" fill="#fff" fill-opacity="0"/><path d="M508.37 396h20" stroke="#3a414a" fill="#fff"/><path d="M-220.5 748.18h-8a12 12 0 0 0-12 12V920a12 12 0 0 0 12 12h990.65a12 12 0 0 0 12-12V648a12 12 0 0 0-12-12h-8.6" stroke="#3a414a" fill="none"/><path d="M-220.5 738.18v20M-200.5 748.18h-20" stroke="#3a414a" fill="#fff"/><path d="M734.37 626l20 10-20 10" stroke="#3a414a" fill="#fff" fill-opacity="0"/><path d="M734.37 636h20" stroke="#3a414a" fill="#fff"/><defs><path d="M143 4C61 4 22-44 18-125c-5-107 100-154 193-111 17 8 29 25 37 43l-32 9c-13-25-37-40-76-40-61 0-88 39-88 99 0 61 29 100 91 101 35 0 62-11 79-27v-45h-74v-28h105v86C228-13 192 4 143 4" id="g"/><path d="M114-163C36-179 61-72 57 0H25l-1-190h30c1 12-1 29 2 39 6-27 23-49 58-41v29" id="h"/><path d="M100-194c62-1 85 37 85 99 1 63-27 99-86 99S16-35 15-95c0-66 28-99 85-99zM99-20c44 1 53-31 53-75 0-43-8-75-51-75s-53 32-53 75 10 74 51 75" id="i"/><path d="M84 4C-5 8 30-112 23-190h32v120c0 31 7 50 39 49 72-2 45-101 50-169h31l1 190h-30c-1-10 1-25-2-33-11 22-28 36-60 37" id="j"/><path d="M115-194c55 1 70 41 70 98S169 2 115 4C84 4 66-9 55-30l1 105H24l-1-265h31l2 30c10-21 28-34 59-34zm-8 174c40 0 45-34 45-75s-6-73-45-74c-42 0-51 32-51 76 0 43 10 73 51 73" id="k"/><path d="M135-143c-3-34-86-38-87 0 15 53 115 12 119 90S17 21 10-45l28-5c4 36 97 45 98 0-10-56-113-15-118-90-4-57 82-63 122-42 12 7 21 19 24 35" id="l"/><g id="a"><use transform="matrix(0.05,0,0,0.05,0,0)" xlink:href="#g"/><use transform="matrix(0.05,0,0,0.05,14,0)" xlink:href="#h"/><use transform="matrix(0.05,0,0,0.05,19.95,0)" xlink:href="#i"/><use transform="matrix(0.05,0,0,0.05,29.950000000000003,0)" xlink:href="#j"/><use transform="matrix(0.05,0,0,0.05,39.95,0)" xlink:href="#k"/><use transform="matrix(0.05,0,0,0.05,49.95,0)" xlink:href="#l"/></g><path d="M30-248c87 1 191-15 191 75 0 78-77 80-158 76V0H30v-248zm33 125c57 0 124 11 124-50 0-59-68-47-124-48v98" id="m"/><path d="M194 0L95-120 63-95V0H30v-248h33v124l119-124h40L117-140 236 0h-42" id="n"/><g id="b"><use transform="matrix(0.05,0,0,0.05,0,0)" xlink:href="#m"/><use transform="matrix(0.05,0,0,0.05,12,0)" xlink:href="#n"/></g><path d="M33 0v-248h34V0H33" id="o"/><path d="M85-194c31 0 48 13 60 33l-1-100h32l1 261h-30c-2-10 0-23-3-31C134-8 116 4 85 4 32 4 16-35 15-94c0-66 23-100 70-100zm9 24c-40 0-46 34-46 75 0 40 6 74 45 74 42 0 51-32 51-76 0-42-9-74-50-73" id="p"/><g id="c"><use transform="matrix(0.05,0,0,0.05,0,0)" xlink:href="#g"/><use transform="matrix(0.05,0,0,0.05,14,0)" xlink:href="#h"/><use transform="matrix(0.05,0,0,0.05,19.95,0)" xlink:href="#i"/><use transform="matrix(0.05,0,0,0.05,29.950000000000003,0)" xlink:href="#j"/><use transform="matrix(0.05,0,0,0.05,39.95,0)" xlink:href="#k"/><use transform="matrix(0.05,0,0,0.05,49.95,0)" xlink:href="#o"/><use transform="matrix(0.05,0,0,0.05,54.95,0)" xlink:href="#p"/></g><path d="M117-194c89-4 53 116 60 194h-32v-121c0-31-8-49-39-48C34-167 62-67 57 0H25l-1-190h30c1 10-1 24 2 32 11-22 29-35 61-36" id="q"/><path d="M108 0H70L1-190h34L89-25l56-165h34" id="r"/><path d="M141-36C126-15 110 5 73 4 37 3 15-17 15-53c-1-64 63-63 125-63 3-35-9-54-41-54-24 1-41 7-42 31l-33-3c5-37 33-52 76-52 45 0 72 20 72 64v82c-1 20 7 32 28 27v20c-31 9-61-2-59-35zM48-53c0 20 12 33 32 33 41-3 63-29 60-74-43 2-92-5-92 41" id="s"/><path d="M96-169c-40 0-48 33-48 73s9 75 48 75c24 0 41-14 43-38l32 2c-6 37-31 61-74 61-59 0-76-41-82-99-10-93 101-131 147-64 4 7 5 14 7 22l-32 3c-4-21-16-35-41-35" id="t"/><path d="M106-169C34-169 62-67 57 0H25v-261h32l-1 103c12-21 28-36 61-36 89 0 53 116 60 194h-32v-121c2-32-8-49-39-48" id="u"/><path d="M87 75C49 33 22-17 22-94c0-76 28-126 65-167h31c-38 41-64 92-64 168S80 34 118 75H87" id="v"/><path d="M155-56V0h-30v-56H8v-25l114-167h33v167h35v25h-35zm-30-156c-27 46-58 90-88 131h88v-131" id="w"/><path d="M54-142c48-35 137-8 131 61C196 18 31 33 14-55l32-4c7 23 22 37 52 37 35-1 51-22 54-58 4-55-73-65-99-34H22l8-134h141v27H59" id="x"/><path d="M101-251c68 0 85 55 85 127S166 4 100 4C33 4 14-52 14-124c0-73 17-127 87-127zm-1 229c47 0 54-49 54-102s-4-102-53-102c-51 0-55 48-55 102 0 53 5 102 54 102" id="y"/><path d="M33-261c38 41 65 92 65 168S71 34 33 75H2C39 34 66-17 66-93S39-220 2-261h31" id="z"/><g id="d"><use transform="matrix(0.05,0,0,0.05,0,0)" xlink:href="#q"/><use transform="matrix(0.05,0,0,0.05,10,0)" xlink:href="#r"/><use transform="matrix(0.05,0,0,0.05,19,0)" xlink:href="#s"/><use transform="matrix(0.05,0,0,0.05,29,0)" xlink:href="#h"/><use transform="matrix(0.05,0,0,0.05,34.95,0)" xlink:href="#t"/><use transform="matrix(0.05,0,0,0.05,43.95,0)" xlink:href="#u"/><use transform="matrix(0.05,0,0,0.05,53.95,0)" xlink:href="#s"/><use transform="matrix(0.05,0,0,0.05,63.95,0)" xlink:href="#h"/><use transform="matrix(0.05,0,0,0.05,69.9,0)" xlink:href="#v"/><use transform="matrix(0.05,0,0,0.05,75.85000000000001,0)" xlink:href="#w"/><use transform="matrix(0.05,0,0,0.05,85.85000000000001,0)" xlink:href="#x"/><use transform="matrix(0.05,0,0,0.05,95.85000000000001,0)" xlink:href="#y"/><use transform="matrix(0.05,0,0,0.05,105.85000000000001,0)" xlink:href="#z"/></g><path d="M190 0L58-211 59 0H30v-248h39L202-35l-2-213h31V0h-41" id="A"/><path d="M210-169c-67 3-38 105-44 169h-31v-121c0-29-5-50-35-48C34-165 62-65 56 0H25l-1-190h30c1 10-1 24 2 32 10-44 99-50 107 0 11-21 27-35 58-36 85-2 47 119 55 194h-31v-121c0-29-5-49-35-48" id="B"/><path d="M100-194c63 0 86 42 84 106H49c0 40 14 67 53 68 26 1 43-12 49-29l28 8c-11 28-37 45-77 45C44 4 14-33 15-96c1-61 26-98 85-98zm52 81c6-60-76-77-97-28-3 7-6 17-6 28h103" id="C"/><g id="e"><use transform="matrix(0.05,0,0,0.05,0,0)" xlink:href="#g"/><use transform="matrix(0.05,0,0,0.05,14,0)" xlink:href="#h"/><use transform="matrix(0.05,0,0,0.05,19.95,0)" xlink:href="#i"/><use transform="matrix(0.05,0,0,0.05,29.950000000000003,0)" xlink:href="#j"/><use transform="matrix(0.05,0,0,0.05,39.95,0)" xlink:href="#k"/><use transform="matrix(0.05,0,0,0.05,49.95,0)" xlink:href="#A"/><use transform="matrix(0.05,0,0,0.05,62.900000000000006,0)" xlink:href="#s"/><use transform="matrix(0.05,0,0,0.05,72.9,0)" xlink:href="#B"/><use transform="matrix(0.05,0,0,0.05,87.85000000000001,0)" xlink:href="#C"/></g><g id="f"><use transform="matrix(0.05,0,0,0.05,0,0)" xlink:href="#q"/><use transform="matrix(0.05,0,0,0.05,10,0)" xlink:href="#r"/><use transform="matrix(0.05,0,0,0.05,19,0)" xlink:href="#s"/><use transform="matrix(0.05,0,0,0.05,29,0)" xlink:href="#h"/><use transform="matrix(0.05,0,0,0.05,34.95,0)" xlink:href="#t"/><use transform="matrix(0.05,0,0,0.05,43.95,0)" xlink:href="#u"/><use transform="matrix(0.05,0,0,0.05,53.95,0)" xlink:href="#s"/><use transform="matrix(0.05,0,0,0.05,63.95,0)" xlink:href="#h"/></g></defs></g></svg>