<svg xmlns="http://www.w3.org/2000/svg" xmlns:xlink="http://www.w3.org/1999/xlink" xmlns:lucid="lucid" width="887" height="414"><g transform="translate(74 -1055)" lucid:page-tab-id="0_0"><path d="M-500-1000h2000v2500H-500z" fill="#fff"/><path d="M-60 1068a8 8 0 0 1 8-8h269.6a8 8 0 0 1 8 8v376a8 8 0 0 1-8 8H-52a8 8 0 0 1-8-8z" fill="#fff"/><path d="M-60 1068a8 8 0 0 1 8-8h269.6a8 8 0 0 1 8 8v376a8 8 0 0 1-8 8H-52a8 8 0 0 1-8-8zM-60 1100h285.6M-16 1100v352M93.8 1100v352" stroke="#3a414a" fill="none"/><use xlink:href="#a" transform="matrix(1,0,0,1,-50,1060) translate(110.025 23.6)"/><use xlink:href="#b" transform="matrix(1,0,0,1,-55,1102.5) translate(5 17.1)"/><use xlink:href="#c" transform="matrix(1,0,0,1,-11,1102.5) translate(0 17.1)"/><use xlink:href="#d" transform="matrix(1,0,0,1,98.80000000000001,1102.5) translate(0 17.1)"/><use xlink:href="#e" transform="matrix(1,0,0,1,-11,1134.5) translate(0 17.1)"/><use xlink:href="#f" transform="matrix(1,0,0,1,98.80000000000001,1134.5) translate(0 17.1)"/><use xlink:href="#g" transform="matrix(1,0,0,1,-11,1166.5) translate(0 17.1)"/><use xlink:href="#f" transform="matrix(1,0,0,1,98.80000000000001,1166.5) translate(0 17.1)"/><use xlink:href="#h" transform="matrix(1,0,0,1,-11,1198.5) translate(0 17.1)"/><use xlink:href="#i" transform="matrix(1,0,0,1,98.80000000000001,1198.5) translate(0 17.1)"/><use xlink:href="#j" transform="matrix(1,0,0,1,-11,1230.5) translate(0 17.1)"/><use xlink:href="#i" transform="matrix(1,0,0,1,98.80000000000001,1230.5) translate(0 17.1)"/><use xlink:href="#k" transform="matrix(1,0,0,1,-55,1262.5) translate(5.524999999999999 17.1)"/><use xlink:href="#l" transform="matrix(1,0,0,1,-11,1262.5) translate(0 17.1)"/><use xlink:href="#d" transform="matrix(1,0,0,1,98.80000000000001,1262.5) translate(0 17.1)"/><use xlink:href="#k" transform="matrix(1,0,0,1,-55,1294.5) translate(5.524999999999999 17.1)"/><use xlink:href="#m" transform="matrix(1,0,0,1,-11,1294.5) translate(0 17.1)"/><use xlink:href="#d" transform="matrix(1,0,0,1,98.80000000000001,1294.5) translate(0 17.1)"/><use xlink:href="#n" transform="matrix(1,0,0,1,-11,1326.5) translate(0 17.1)"/><use xlink:href="#o" transform="matrix(1,0,0,1,98.80000000000001,1326.5) translate(0 17.1)"/><use xlink:href="#p" transform="matrix(1,0,0,1,-11,1358.5) translate(0 17.1)"/><use xlink:href="#o" transform="matrix(1,0,0,1,98.80000000000001,1358.5) translate(0 17.1)"/><use xlink:href="#q" transform="matrix(1,0,0,1,-11,1390.5) translate(0 17.1)"/><use xlink:href="#o" transform="matrix(1,0,0,1,98.80000000000001,1390.5) translate(0 17.1)"/><use xlink:href="#r" transform="matrix(1,0,0,1,-11,1422.5) translate(0 17.1)"/><use xlink:href="#i" transform="matrix(1,0,0,1,98.80000000000001,1422.5) translate(0 17.1)"/><path d="M506.35 1260.17a8 8 0 0 1 8-8H792a8 8 0 0 1 8 8v88a8 8 0 0 1-8 8H514.35a8 8 0 0 1-8-8z" fill="#fff"/><path d="M506.35 1260.17a8 8 0 0 1 8-8H792a8 8 0 0 1 8 8v88a8 8 0 0 1-8 8H514.35a8 8 0 0 1-8-8zM506.35 1292.17H800M550.35 1292.17v64M668.2 1292.17v64" stroke="#3a414a" fill="none"/><use xlink:href="#s" transform="matrix(1,0,0,1,516.3499999999999,1252.1684395035215) translate(107.525 23.6)"/><use xlink:href="#b" transform="matrix(1,0,0,1,511.3499999999999,1294.6684395035215) translate(5 17.1)"/><use xlink:href="#m" transform="matrix(1,0,0,1,555.3499999999999,1294.6684395035215) translate(0 17.1)"/><use xlink:href="#d" transform="matrix(1,0,0,1,673.1999999999999,1294.6684395035215) translate(0 17.1)"/><use xlink:href="#t" transform="matrix(1,0,0,1,555.3499999999999,1326.6684395035215) translate(0 17.1)"/><use xlink:href="#f" transform="matrix(1,0,0,1,673.1999999999999,1326.6684395035215) translate(0 17.1)"/><path d="M485.85 1308.18H245.5" stroke="#3a414a" fill="none"/><path d="M485.85 1298.18v20M505.85 1308.18h-20" stroke="#3a414a" fill="#fff"/><path d="M226.32 1298.18l20 10-20 10" stroke="#3a414a" fill="#fff" fill-opacity="0"/><path d="M226.32 1308.18h20" stroke="#3a414a" fill="#fff"/><defs><path d="M127-220V0H93v-220H8v-28h204v28h-85" id="u"/><path d="M141-36C126-15 110 5 73 4 37 3 15-17 15-53c-1-64 63-63 125-63 3-35-9-54-41-54-24 1-41 7-42 31l-33-3c5-37 33-52 76-52 45 0 72 20 72 64v82c-1 20 7 32 28 27v20c-31 9-61-2-59-35zM48-53c0 20 12 33 32 33 41-3 63-29 60-74-43 2-92-5-92 41" id="v"/><path d="M135-143c-3-34-86-38-87 0 15 53 115 12 119 90S17 21 10-45l28-5c4 36 97 45 98 0-10-56-113-15-118-90-4-57 82-63 122-42 12 7 21 19 24 35" id="w"/><path d="M143 0L79-87 56-68V0H24v-261h32v163l83-92h37l-77 82L181 0h-38" id="x"/><g id="a"><use transform="matrix(0.05,0,0,0.05,0,0)" xlink:href="#u"/><use transform="matrix(0.05,0,0,0.05,8.950000000000001,0)" xlink:href="#v"/><use transform="matrix(0.05,0,0,0.05,18.950000000000003,0)" xlink:href="#w"/><use transform="matrix(0.05,0,0,0.05,27.950000000000003,0)" xlink:href="#x"/><use transform="matrix(0.05,0,0,0.05,36.95,0)" xlink:href="#w"/></g><path d="M30-248c87 1 191-15 191 75 0 78-77 80-158 76V0H30v-248zm33 125c57 0 124 11 124-50 0-59-68-47-124-48v98" id="y"/><path d="M194 0L95-120 63-95V0H30v-248h33v124l119-124h40L117-140 236 0h-42" id="z"/><g id="b"><use transform="matrix(0.05,0,0,0.05,0,0)" xlink:href="#y"/><use transform="matrix(0.05,0,0,0.05,12,0)" xlink:href="#z"/></g><path d="M33 0v-248h34V0H33" id="A"/><path d="M85-194c31 0 48 13 60 33l-1-100h32l1 261h-30c-2-10 0-23-3-31C134-8 116 4 85 4 32 4 16-35 15-94c0-66 23-100 70-100zm9 24c-40 0-46 34-46 75 0 40 6 74 45 74 42 0 51-32 51-76 0-42-9-74-50-73" id="B"/><g id="c"><use transform="matrix(0.05,0,0,0.05,0,0)" xlink:href="#u"/><use transform="matrix(0.05,0,0,0.05,8.950000000000001,0)" xlink:href="#v"/><use transform="matrix(0.05,0,0,0.05,18.950000000000003,0)" xlink:href="#w"/><use transform="matrix(0.05,0,0,0.05,27.950000000000003,0)" xlink:href="#x"/><use transform="matrix(0.05,0,0,0.05,36.95,0)" xlink:href="#A"/><use transform="matrix(0.05,0,0,0.05,41.95,0)" xlink:href="#B"/></g><path d="M117-194c89-4 53 116 60 194h-32v-121c0-31-8-49-39-48C34-167 62-67 57 0H25l-1-190h30c1 10-1 24 2 32 11-22 29-35 61-36" id="C"/><path d="M108 0H70L1-190h34L89-25l56-165h34" id="D"/><path d="M114-163C36-179 61-72 57 0H25l-1-190h30c1 12-1 29 2 39 6-27 23-49 58-41v29" id="E"/><path d="M96-169c-40 0-48 33-48 73s9 75 48 75c24 0 41-14 43-38l32 2c-6 37-31 61-74 61-59 0-76-41-82-99-10-93 101-131 147-64 4 7 5 14 7 22l-32 3c-4-21-16-35-41-35" id="F"/><path d="M106-169C34-169 62-67 57 0H25v-261h32l-1 103c12-21 28-36 61-36 89 0 53 116 60 194h-32v-121c2-32-8-49-39-48" id="G"/><path d="M87 75C49 33 22-17 22-94c0-76 28-126 65-167h31c-38 41-64 92-64 168S80 34 118 75H87" id="H"/><path d="M155-56V0h-30v-56H8v-25l114-167h33v167h35v25h-35zm-30-156c-27 46-58 90-88 131h88v-131" id="I"/><path d="M54-142c48-35 137-8 131 61C196 18 31 33 14-55l32-4c7 23 22 37 52 37 35-1 51-22 54-58 4-55-73-65-99-34H22l8-134h141v27H59" id="J"/><path d="M101-251c68 0 85 55 85 127S166 4 100 4C33 4 14-52 14-124c0-73 17-127 87-127zm-1 229c47 0 54-49 54-102s-4-102-53-102c-51 0-55 48-55 102 0 53 5 102 54 102" id="K"/><path d="M33-261c38 41 65 92 65 168S71 34 33 75H2C39 34 66-17 66-93S39-220 2-261h31" id="L"/><g id="d"><use transform="matrix(0.05,0,0,0.05,0,0)" xlink:href="#C"/><use transform="matrix(0.05,0,0,0.05,10,0)" xlink:href="#D"/><use transform="matrix(0.05,0,0,0.05,19,0)" xlink:href="#v"/><use transform="matrix(0.05,0,0,0.05,29,0)" xlink:href="#E"/><use transform="matrix(0.05,0,0,0.05,34.95,0)" xlink:href="#F"/><use transform="matrix(0.05,0,0,0.05,43.95,0)" xlink:href="#G"/><use transform="matrix(0.05,0,0,0.05,53.95,0)" xlink:href="#v"/><use transform="matrix(0.05,0,0,0.05,63.95,0)" xlink:href="#E"/><use transform="matrix(0.05,0,0,0.05,69.9,0)" xlink:href="#H"/><use transform="matrix(0.05,0,0,0.05,75.85000000000001,0)" xlink:href="#I"/><use transform="matrix(0.05,0,0,0.05,85.85000000000001,0)" xlink:href="#J"/><use transform="matrix(0.05,0,0,0.05,95.85000000000001,0)" xlink:href="#K"/><use transform="matrix(0.05,0,0,0.05,105.85000000000001,0)" xlink:href="#L"/></g><path d="M190 0L58-211 59 0H30v-248h39L202-35l-2-213h31V0h-41" id="M"/><path d="M210-169c-67 3-38 105-44 169h-31v-121c0-29-5-50-35-48C34-165 62-65 56 0H25l-1-190h30c1 10-1 24 2 32 10-44 99-50 107 0 11-21 27-35 58-36 85-2 47 119 55 194h-31v-121c0-29-5-49-35-48" id="N"/><path d="M100-194c63 0 86 42 84 106H49c0 40 14 67 53 68 26 1 43-12 49-29l28 8c-11 28-37 45-77 45C44 4 14-33 15-96c1-61 26-98 85-98zm52 81c6-60-76-77-97-28-3 7-6 17-6 28h103" id="O"/><g id="e"><use transform="matrix(0.05,0,0,0.05,0,0)" xlink:href="#M"/><use transform="matrix(0.05,0,0,0.05,12.950000000000001,0)" xlink:href="#v"/><use transform="matrix(0.05,0,0,0.05,22.950000000000003,0)" xlink:href="#N"/><use transform="matrix(0.05,0,0,0.05,37.900000000000006,0)" xlink:href="#O"/></g><g id="f"><use transform="matrix(0.05,0,0,0.05,0,0)" xlink:href="#C"/><use transform="matrix(0.05,0,0,0.05,10,0)" xlink:href="#D"/><use transform="matrix(0.05,0,0,0.05,19,0)" xlink:href="#v"/><use transform="matrix(0.05,0,0,0.05,29,0)" xlink:href="#E"/><use transform="matrix(0.05,0,0,0.05,34.95,0)" xlink:href="#F"/><use transform="matrix(0.05,0,0,0.05,43.95,0)" xlink:href="#G"/><use transform="matrix(0.05,0,0,0.05,53.95,0)" xlink:href="#v"/><use transform="matrix(0.05,0,0,0.05,63.95,0)" xlink:href="#E"/></g><path d="M30-248c118-7 216 8 213 122C240-48 200 0 122 0H30v-248zM63-27c89 8 146-16 146-99s-60-101-146-95v194" id="P"/><path d="M24-231v-30h32v30H24zM24 0v-190h32V0H24" id="Q"/><path d="M115-194c55 1 70 41 70 98S169 2 115 4C84 4 66-9 55-30l1 105H24l-1-265h31l2 30c10-21 28-34 59-34zm-8 174c40 0 45-34 45-75s-6-73-45-74c-42 0-51 32-51 76 0 43 10 73 51 73" id="R"/><path d="M59-47c-2 24 18 29 38 22v24C64 9 27 4 27-40v-127H5v-23h24l9-43h21v43h35v23H59v120" id="S"/><path d="M100-194c62-1 85 37 85 99 1 63-27 99-86 99S16-35 15-95c0-66 28-99 85-99zM99-20c44 1 53-31 53-75 0-43-8-75-51-75s-53 32-53 75 10 74 51 75" id="T"/><g id="g"><use transform="matrix(0.05,0,0,0.05,0,0)" xlink:href="#P"/><use transform="matrix(0.05,0,0,0.05,12.950000000000001,0)" xlink:href="#O"/><use transform="matrix(0.05,0,0,0.05,22.950000000000003,0)" xlink:href="#w"/><use transform="matrix(0.05,0,0,0.05,31.950000000000003,0)" xlink:href="#F"/><use transform="matrix(0.05,0,0,0.05,40.95,0)" xlink:href="#E"/><use transform="matrix(0.05,0,0,0.05,46.900000000000006,0)" xlink:href="#Q"/><use transform="matrix(0.05,0,0,0.05,50.85000000000001,0)" xlink:href="#R"/><use transform="matrix(0.05,0,0,0.05,60.85,0)" xlink:href="#S"/><use transform="matrix(0.05,0,0,0.05,65.85000000000001,0)" xlink:href="#Q"/><use transform="matrix(0.05,0,0,0.05,69.80000000000001,0)" xlink:href="#T"/><use transform="matrix(0.05,0,0,0.05,79.80000000000001,0)" xlink:href="#C"/></g><path d="M185-189c-5-48-123-54-124 2 14 75 158 14 163 119 3 78-121 87-175 55-17-10-28-26-33-46l33-7c5 56 141 63 141-1 0-78-155-14-162-118-5-82 145-84 179-34 5 7 8 16 11 25" id="U"/><g id="h"><use transform="matrix(0.05,0,0,0.05,0,0)" xlink:href="#U"/><use transform="matrix(0.05,0,0,0.05,12,0)" xlink:href="#S"/><use transform="matrix(0.05,0,0,0.05,17,0)" xlink:href="#v"/><use transform="matrix(0.05,0,0,0.05,27,0)" xlink:href="#E"/><use transform="matrix(0.05,0,0,0.05,32.95,0)" xlink:href="#S"/><use transform="matrix(0.05,0,0,0.05,37.95,0)" xlink:href="#P"/><use transform="matrix(0.05,0,0,0.05,50.900000000000006,0)" xlink:href="#v"/><use transform="matrix(0.05,0,0,0.05,60.900000000000006,0)" xlink:href="#S"/><use transform="matrix(0.05,0,0,0.05,65.9,0)" xlink:href="#O"/></g><path d="M101-251c82-7 93 87 43 132L82-64C71-53 59-42 53-27h129V0H18c2-99 128-94 128-182 0-28-16-43-45-43s-46 15-49 41l-32-3c6-41 34-60 81-64" id="V"/><g id="i"><use transform="matrix(0.05,0,0,0.05,0,0)" xlink:href="#B"/><use transform="matrix(0.05,0,0,0.05,10,0)" xlink:href="#v"/><use transform="matrix(0.05,0,0,0.05,20,0)" xlink:href="#S"/><use transform="matrix(0.05,0,0,0.05,25,0)" xlink:href="#O"/><use transform="matrix(0.05,0,0,0.05,35,0)" xlink:href="#S"/><use transform="matrix(0.05,0,0,0.05,40,0)" xlink:href="#Q"/><use transform="matrix(0.05,0,0,0.05,43.95,0)" xlink:href="#N"/><use transform="matrix(0.05,0,0,0.05,58.900000000000006,0)" xlink:href="#O"/><use transform="matrix(0.05,0,0,0.05,68.9,0)" xlink:href="#V"/></g><path d="M84 4C-5 8 30-112 23-190h32v120c0 31 7 50 39 49 72-2 45-101 50-169h31l1 190h-30c-1-10 1-25-2-33-11 22-28 36-60 37" id="W"/><g id="j"><use transform="matrix(0.05,0,0,0.05,0,0)" xlink:href="#P"/><use transform="matrix(0.05,0,0,0.05,12.950000000000001,0)" xlink:href="#W"/><use transform="matrix(0.05,0,0,0.05,22.950000000000003,0)" xlink:href="#O"/><use transform="matrix(0.05,0,0,0.05,32.95,0)" xlink:href="#P"/><use transform="matrix(0.05,0,0,0.05,45.900000000000006,0)" xlink:href="#v"/><use transform="matrix(0.05,0,0,0.05,55.900000000000006,0)" xlink:href="#S"/><use transform="matrix(0.05,0,0,0.05,60.900000000000006,0)" xlink:href="#O"/></g><path d="M63-220v92h138v28H63V0H30v-248h175v28H63" id="X"/><g id="k"><use transform="matrix(0.05,0,0,0.05,0,0)" xlink:href="#X"/><use transform="matrix(0.05,0,0,0.05,10.950000000000001,0)" xlink:href="#z"/></g><path d="M232-93c-1 65-40 97-104 97C67 4 28-28 28-90v-158h33c8 89-33 224 67 224 102 0 64-133 71-224h33v155" id="Y"/><g id="l"><use transform="matrix(0.05,0,0,0.05,0,0)" xlink:href="#Y"/><use transform="matrix(0.05,0,0,0.05,12.950000000000001,0)" xlink:href="#w"/><use transform="matrix(0.05,0,0,0.05,21.950000000000003,0)" xlink:href="#O"/><use transform="matrix(0.05,0,0,0.05,31.950000000000003,0)" xlink:href="#E"/><use transform="matrix(0.05,0,0,0.05,37.900000000000006,0)" xlink:href="#A"/><use transform="matrix(0.05,0,0,0.05,42.900000000000006,0)" xlink:href="#B"/></g><path d="M143 4C61 4 22-44 18-125c-5-107 100-154 193-111 17 8 29 25 37 43l-32 9c-13-25-37-40-76-40-61 0-88 39-88 99 0 61 29 100 91 101 35 0 62-11 79-27v-45h-74v-28h105v86C228-13 192 4 143 4" id="Z"/><g id="m"><use transform="matrix(0.05,0,0,0.05,0,0)" xlink:href="#Z"/><use transform="matrix(0.05,0,0,0.05,14,0)" xlink:href="#E"/><use transform="matrix(0.05,0,0,0.05,19.95,0)" xlink:href="#T"/><use transform="matrix(0.05,0,0,0.05,29.950000000000003,0)" xlink:href="#W"/><use transform="matrix(0.05,0,0,0.05,39.95,0)" xlink:href="#R"/><use transform="matrix(0.05,0,0,0.05,49.95,0)" xlink:href="#A"/><use transform="matrix(0.05,0,0,0.05,54.95,0)" xlink:href="#B"/></g><path d="M212-179c-10-28-35-45-73-45-59 0-87 40-87 99 0 60 29 101 89 101 43 0 62-24 78-52l27 14C228-24 195 4 139 4 59 4 22-46 18-125c-6-104 99-153 187-111 19 9 31 26 39 46" id="aa"/><path d="M177-190C167-65 218 103 67 71c-23-6-38-20-44-43l32-5c15 47 100 32 89-28v-30C133-14 115 1 83 1 29 1 15-40 15-95c0-56 16-97 71-98 29-1 48 16 59 35 1-10 0-23 2-32h30zM94-22c36 0 50-32 50-73 0-42-14-75-50-75-39 0-46 34-46 75s6 73 46 73" id="ab"/><path d="M179-190L93 31C79 59 56 82 12 73V49c39 6 53-20 64-50L1-190h34L92-34l54-156h33" id="ac"/><g id="n"><use transform="matrix(0.05,0,0,0.05,0,0)" xlink:href="#aa"/><use transform="matrix(0.05,0,0,0.05,12.950000000000001,0)" xlink:href="#v"/><use transform="matrix(0.05,0,0,0.05,22.950000000000003,0)" xlink:href="#S"/><use transform="matrix(0.05,0,0,0.05,27.950000000000003,0)" xlink:href="#O"/><use transform="matrix(0.05,0,0,0.05,37.95,0)" xlink:href="#ab"/><use transform="matrix(0.05,0,0,0.05,47.95,0)" xlink:href="#T"/><use transform="matrix(0.05,0,0,0.05,57.95,0)" xlink:href="#E"/><use transform="matrix(0.05,0,0,0.05,63.900000000000006,0)" xlink:href="#ac"/></g><g id="o"><use transform="matrix(0.05,0,0,0.05,0,0)" xlink:href="#Q"/><use transform="matrix(0.05,0,0,0.05,3.95,0)" xlink:href="#C"/><use transform="matrix(0.05,0,0,0.05,13.949999999999998,0)" xlink:href="#S"/></g><g id="p"><use transform="matrix(0.05,0,0,0.05,0,0)" xlink:href="#y"/><use transform="matrix(0.05,0,0,0.05,12,0)" xlink:href="#E"/><use transform="matrix(0.05,0,0,0.05,17.95,0)" xlink:href="#Q"/><use transform="matrix(0.05,0,0,0.05,21.9,0)" xlink:href="#T"/><use transform="matrix(0.05,0,0,0.05,31.899999999999995,0)" xlink:href="#E"/><use transform="matrix(0.05,0,0,0.05,37.85,0)" xlink:href="#Q"/><use transform="matrix(0.05,0,0,0.05,41.800000000000004,0)" xlink:href="#S"/><use transform="matrix(0.05,0,0,0.05,46.800000000000004,0)" xlink:href="#ac"/></g><g id="q"><use transform="matrix(0.05,0,0,0.05,0,0)" xlink:href="#U"/><use transform="matrix(0.05,0,0,0.05,12,0)" xlink:href="#S"/><use transform="matrix(0.05,0,0,0.05,17,0)" xlink:href="#v"/><use transform="matrix(0.05,0,0,0.05,27,0)" xlink:href="#S"/><use transform="matrix(0.05,0,0,0.05,32,0)" xlink:href="#W"/><use transform="matrix(0.05,0,0,0.05,42,0)" xlink:href="#w"/></g><path d="M140-251c81 0 123 46 123 126C263-46 219 4 140 4 59 4 17-45 17-125s42-126 123-126zm0 227c63 0 89-41 89-101s-29-99-89-99c-61 0-89 39-89 99S79-25 140-24" id="ad"/><g id="r"><use transform="matrix(0.05,0,0,0.05,0,0)" xlink:href="#aa"/><use transform="matrix(0.05,0,0,0.05,12.950000000000001,0)" xlink:href="#E"/><use transform="matrix(0.05,0,0,0.05,18.900000000000002,0)" xlink:href="#O"/><use transform="matrix(0.05,0,0,0.05,28.900000000000002,0)" xlink:href="#v"/><use transform="matrix(0.05,0,0,0.05,38.900000000000006,0)" xlink:href="#S"/><use transform="matrix(0.05,0,0,0.05,43.900000000000006,0)" xlink:href="#O"/><use transform="matrix(0.05,0,0,0.05,53.900000000000006,0)" xlink:href="#B"/><use transform="matrix(0.05,0,0,0.05,63.900000000000006,0)" xlink:href="#ad"/><use transform="matrix(0.05,0,0,0.05,77.9,0)" xlink:href="#C"/></g><g id="s"><use transform="matrix(0.05,0,0,0.05,0,0)" xlink:href="#Z"/><use transform="matrix(0.05,0,0,0.05,14,0)" xlink:href="#E"/><use transform="matrix(0.05,0,0,0.05,19.95,0)" xlink:href="#T"/><use transform="matrix(0.05,0,0,0.05,29.950000000000003,0)" xlink:href="#W"/><use transform="matrix(0.05,0,0,0.05,39.95,0)" xlink:href="#R"/><use transform="matrix(0.05,0,0,0.05,49.95,0)" xlink:href="#w"/></g><g id="t"><use transform="matrix(0.05,0,0,0.05,0,0)" xlink:href="#Z"/><use transform="matrix(0.05,0,0,0.05,14,0)" xlink:href="#E"/><use transform="matrix(0.05,0,0,0.05,19.95,0)" xlink:href="#T"/><use transform="matrix(0.05,0,0,0.05,29.950000000000003,0)" xlink:href="#W"/><use transform="matrix(0.05,0,0,0.05,39.95,0)" xlink:href="#R"/><use transform="matrix(0.05,0,0,0.05,49.95,0)" xlink:href="#M"/><use transform="matrix(0.05,0,0,0.05,62.900000000000006,0)" xlink:href="#v"/><use transform="matrix(0.05,0,0,0.05,72.9,0)" xlink:href="#N"/><use transform="matrix(0.05,0,0,0.05,87.85000000000001,0)" xlink:href="#O"/></g></defs></g></svg>