<svg xmlns="http://www.w3.org/2000/svg" xmlns:xlink="http://www.w3.org/1999/xlink" xmlns:lucid="lucid" width="1624" height="705"><g transform="translate(-1596 -377)" lucid:page-tab-id="0_0"><path d="M-500-1000h4000v2500H-500z" fill="#fff"/><path d="M1680 448a8 8 0 0 1 8-8h379.2a8 8 0 0 1 8 8v600a8 8 0 0 1-8 8H1688a8 8 0 0 1-8-8z" fill="#fff"/><path d="M1680 448a8 8 0 0 1 8-8h379.2a8 8 0 0 1 8 8v600a8 8 0 0 1-8 8H1688a8 8 0 0 1-8-8zM1680 480h395.2M1724 480v576M1942.65 480v576" stroke="#3a414a" fill="none"/><use xlink:href="#a" transform="matrix(1,0,0,1,1690,440) translate(135.075 23.6)"/><use xlink:href="#b" transform="matrix(1,0,0,1,1685,482.5) translate(5 17.1)"/><use xlink:href="#c" transform="matrix(1,0,0,1,1729,482.5) translate(0 17.1)"/><use xlink:href="#d" transform="matrix(1,0,0,1,1947.65,482.5) translate(0 17.1)"/><use xlink:href="#e" transform="matrix(1,0,0,1,1729,514.5) translate(0 17.1)"/><use xlink:href="#f" transform="matrix(1,0,0,1,1947.65,514.5) translate(0 17.1)"/><use xlink:href="#g" transform="matrix(1,0,0,1,1729,546.5) translate(0 17.1)"/><use xlink:href="#f" transform="matrix(1,0,0,1,1947.65,546.5) translate(0 17.1)"/><use xlink:href="#h" transform="matrix(1,0,0,1,1729,578.5) translate(0 17.1)"/><use xlink:href="#i" transform="matrix(1,0,0,1,1947.65,578.5) translate(0 17.1)"/><use xlink:href="#j" transform="matrix(1,0,0,1,1729,610.5) translate(0 17.1)"/><use xlink:href="#f" transform="matrix(1,0,0,1,1947.65,610.5) translate(0 17.1)"/><use xlink:href="#k" transform="matrix(1,0,0,1,1729,642.5) translate(0 17.1)"/><use xlink:href="#i" transform="matrix(1,0,0,1,1947.65,642.5) translate(0 17.1)"/><use xlink:href="#l" transform="matrix(1,0,0,1,1729,674.5) translate(0 17.1)"/><use xlink:href="#m" transform="matrix(1,0,0,1,1947.65,674.5) translate(0 17.1)"/><use xlink:href="#n" transform="matrix(1,0,0,1,1729,706.5) translate(0 17.1)"/><use xlink:href="#m" transform="matrix(1,0,0,1,1947.65,706.5) translate(0 17.1)"/><use xlink:href="#o" transform="matrix(1,0,0,1,1729,738.5) translate(0 17.1)"/><use xlink:href="#f" transform="matrix(1,0,0,1,1947.65,738.5) translate(0 17.1)"/><use xlink:href="#p" transform="matrix(1,0,0,1,1729,770.5) translate(0 17.1)"/><use xlink:href="#q" transform="matrix(1,0,0,1,1947.65,770.5) translate(0 17.1)"/><use xlink:href="#r" transform="matrix(1,0,0,1,1729,802.5) translate(0 17.1)"/><use xlink:href="#q" transform="matrix(1,0,0,1,1947.65,802.5) translate(0 17.1)"/><use xlink:href="#s" transform="matrix(1,0,0,1,1729,834.5) translate(0 17.1)"/><use xlink:href="#t" transform="matrix(1,0,0,1,1947.65,834.5) translate(0 17.1)"/><use xlink:href="#u" transform="matrix(1,0,0,1,1729,866.5) translate(0 17.1)"/><use xlink:href="#i" transform="matrix(1,0,0,1,1947.65,866.5) translate(0 17.1)"/><use xlink:href="#v" transform="matrix(1,0,0,1,1729,898.5) translate(0 17.1)"/><use xlink:href="#i" transform="matrix(1,0,0,1,1947.65,898.5) translate(0 17.1)"/><use xlink:href="#w" transform="matrix(1,0,0,1,1729,930.5) translate(0 17.1)"/><use xlink:href="#f" transform="matrix(1,0,0,1,1947.65,930.5) translate(0 17.1)"/><use xlink:href="#x" transform="matrix(1,0,0,1,1729,962.5) translate(0 17.1)"/><use xlink:href="#q" transform="matrix(1,0,0,1,1947.65,962.5) translate(0 17.1)"/><use xlink:href="#y" transform="matrix(1,0,0,1,1729,994.5) translate(0 17.1)"/><use xlink:href="#f" transform="matrix(1,0,0,1,1947.65,994.5) translate(0 17.1)"/><use xlink:href="#z" transform="matrix(1,0,0,1,1729,1026.5) translate(0 17.1)"/><use xlink:href="#q" transform="matrix(1,0,0,1,1947.65,1026.5) translate(0 17.1)"/><path d="M2280 452a8 8 0 0 1 8-8h259.65a8 8 0 0 1 8 8v88a8 8 0 0 1-8 8H2288a8 8 0 0 1-8-8z" fill="#fff"/><path d="M2280 452a8 8 0 0 1 8-8h259.65a8 8 0 0 1 8 8v88a8 8 0 0 1-8 8H2288a8 8 0 0 1-8-8zM2280 484h275.65M2351.95 484v64M2423.85 484v64" stroke="#3a414a" fill="none"/><use xlink:href="#A" transform="matrix(1,0,0,1,2290,444) translate(56.625 23.6)"/><use xlink:href="#B" transform="matrix(1,0,0,1,2285,486.5) translate(5.024999999999999 17.1)"/><use xlink:href="#C" transform="matrix(1,0,0,1,2356.95,486.5) translate(0 17.1)"/><use xlink:href="#d" transform="matrix(1,0,0,1,2428.85,486.5) translate(0 17.1)"/><use xlink:href="#B" transform="matrix(1,0,0,1,2285,518.5) translate(5.024999999999999 17.1)"/><use xlink:href="#D" transform="matrix(1,0,0,1,2356.95,518.5) translate(0 17.1)"/><use xlink:href="#d" transform="matrix(1,0,0,1,2428.85,518.5) translate(0 17.1)"/><path d="M2800 524a8 8 0 0 1 8-8h333.6a8 8 0 0 1 8 8v152a8 8 0 0 1-8 8H2808a8 8 0 0 1-8-8z" fill="#fff"/><path d="M2800 524a8 8 0 0 1 8-8h333.6a8 8 0 0 1 8 8v152a8 8 0 0 1-8 8H2808a8 8 0 0 1-8-8zM2800 556h349.6M2844 556v128M3017.8 556v128" stroke="#3a414a" fill="none"/><use xlink:href="#E" transform="matrix(1,0,0,1,2810,516) translate(112.57499999999999 23.6)"/><use xlink:href="#b" transform="matrix(1,0,0,1,2805,558.5) translate(5 17.1)"/><use xlink:href="#c" transform="matrix(1,0,0,1,2849,558.5) translate(0 17.1)"/><use xlink:href="#d" transform="matrix(1,0,0,1,3022.8,558.5) translate(0 17.1)"/><use xlink:href="#F" transform="matrix(1,0,0,1,2849,590.5) translate(0 17.1)"/><use xlink:href="#i" transform="matrix(1,0,0,1,3022.8,590.5) translate(0 17.1)"/><use xlink:href="#G" transform="matrix(1,0,0,1,2849,622.5) translate(0 17.1)"/><use xlink:href="#i" transform="matrix(1,0,0,1,3022.8,622.5) translate(0 17.1)"/><use xlink:href="#o" transform="matrix(1,0,0,1,2849,654.5) translate(0 17.1)"/><use xlink:href="#f" transform="matrix(1,0,0,1,3022.8,654.5) translate(0 17.1)"/><path d="M2779.5 571.92h-89.68a12 12 0 0 1-12-12v-15.8a12 12 0 0 0-12-12h-90.26" stroke="#3a414a" fill="none"/><path d="M2779.5 561.92v20M2799.5 571.92h-20" stroke="#3a414a" fill="#fff"/><path d="M2556.37 522.13l20 10-20 10" stroke="#3a414a" fill="#fff" fill-opacity="0"/><path d="M2556.37 532.13h20" stroke="#3a414a" fill="#fff"/><path d="M2095.7 495.36h164.4" stroke="#3a414a" fill="none"/><path d="M2095.7 505.36v-20M2075.7 495.36h20" stroke="#3a414a" fill="#fff"/><path d="M2279.28 505.36l-20-10 20-10" stroke="#3a414a" fill="#fff" fill-opacity="0"/><path d="M2279.28 495.36h-20" stroke="#3a414a" fill="#fff"/><defs><path d="M205 0l-28-72H64L36 0H1l101-248h38L239 0h-34zm-38-99l-47-123c-12 45-31 82-46 123h93" id="H"/><path d="M135-143c-3-34-86-38-87 0 15 53 115 12 119 90S17 21 10-45l28-5c4 36 97 45 98 0-10-56-113-15-118-90-4-57 82-63 122-42 12 7 21 19 24 35" id="I"/><path d="M115-194c55 1 70 41 70 98S169 2 115 4C84 4 66-9 55-30l1 105H24l-1-265h31l2 30c10-21 28-34 59-34zm-8 174c40 0 45-34 45-75s-6-73-45-74c-42 0-51 32-51 76 0 43 10 73 51 73" id="J"/><path d="M190 0L58-211 59 0H30v-248h39L202-35l-2-213h31V0h-41" id="K"/><path d="M100-194c63 0 86 42 84 106H49c0 40 14 67 53 68 26 1 43-12 49-29l28 8c-11 28-37 45-77 45C44 4 14-33 15-96c1-61 26-98 85-98zm52 81c6-60-76-77-97-28-3 7-6 17-6 28h103" id="L"/><path d="M59-47c-2 24 18 29 38 22v24C64 9 27 4 27-40v-127H5v-23h24l9-43h21v43h35v23H59v120" id="M"/><path d="M232-93c-1 65-40 97-104 97C67 4 28-28 28-90v-158h33c8 89-33 224 67 224 102 0 64-133 71-224h33v155" id="N"/><path d="M114-163C36-179 61-72 57 0H25l-1-190h30c1 12-1 29 2 39 6-27 23-49 58-41v29" id="O"/><g id="a"><use transform="matrix(0.05,0,0,0.05,0,0)" xlink:href="#H"/><use transform="matrix(0.05,0,0,0.05,12,0)" xlink:href="#I"/><use transform="matrix(0.05,0,0,0.05,21,0)" xlink:href="#J"/><use transform="matrix(0.05,0,0,0.05,31,0)" xlink:href="#K"/><use transform="matrix(0.05,0,0,0.05,43.95,0)" xlink:href="#L"/><use transform="matrix(0.05,0,0,0.05,53.95,0)" xlink:href="#M"/><use transform="matrix(0.05,0,0,0.05,58.95,0)" xlink:href="#N"/><use transform="matrix(0.05,0,0,0.05,71.9,0)" xlink:href="#I"/><use transform="matrix(0.05,0,0,0.05,80.9,0)" xlink:href="#L"/><use transform="matrix(0.05,0,0,0.05,90.9,0)" xlink:href="#O"/><use transform="matrix(0.05,0,0,0.05,96.85000000000001,0)" xlink:href="#I"/></g><path d="M30-248c87 1 191-15 191 75 0 78-77 80-158 76V0H30v-248zm33 125c57 0 124 11 124-50 0-59-68-47-124-48v98" id="P"/><path d="M194 0L95-120 63-95V0H30v-248h33v124l119-124h40L117-140 236 0h-42" id="Q"/><g id="b"><use transform="matrix(0.05,0,0,0.05,0,0)" xlink:href="#P"/><use transform="matrix(0.05,0,0,0.05,12,0)" xlink:href="#Q"/></g><path d="M33 0v-248h34V0H33" id="R"/><path d="M85-194c31 0 48 13 60 33l-1-100h32l1 261h-30c-2-10 0-23-3-31C134-8 116 4 85 4 32 4 16-35 15-94c0-66 23-100 70-100zm9 24c-40 0-46 34-46 75 0 40 6 74 45 74 42 0 51-32 51-76 0-42-9-74-50-73" id="S"/><g id="c"><use transform="matrix(0.05,0,0,0.05,0,0)" xlink:href="#R"/><use transform="matrix(0.05,0,0,0.05,5,0)" xlink:href="#S"/></g><path d="M117-194c89-4 53 116 60 194h-32v-121c0-31-8-49-39-48C34-167 62-67 57 0H25l-1-190h30c1 10-1 24 2 32 11-22 29-35 61-36" id="T"/><path d="M108 0H70L1-190h34L89-25l56-165h34" id="U"/><path d="M141-36C126-15 110 5 73 4 37 3 15-17 15-53c-1-64 63-63 125-63 3-35-9-54-41-54-24 1-41 7-42 31l-33-3c5-37 33-52 76-52 45 0 72 20 72 64v82c-1 20 7 32 28 27v20c-31 9-61-2-59-35zM48-53c0 20 12 33 32 33 41-3 63-29 60-74-43 2-92-5-92 41" id="V"/><path d="M96-169c-40 0-48 33-48 73s9 75 48 75c24 0 41-14 43-38l32 2c-6 37-31 61-74 61-59 0-76-41-82-99-10-93 101-131 147-64 4 7 5 14 7 22l-32 3c-4-21-16-35-41-35" id="W"/><path d="M106-169C34-169 62-67 57 0H25v-261h32l-1 103c12-21 28-36 61-36 89 0 53 116 60 194h-32v-121c2-32-8-49-39-48" id="X"/><path d="M87 75C49 33 22-17 22-94c0-76 28-126 65-167h31c-38 41-64 92-64 168S80 34 118 75H87" id="Y"/><path d="M155-56V0h-30v-56H8v-25l114-167h33v167h35v25h-35zm-30-156c-27 46-58 90-88 131h88v-131" id="Z"/><path d="M54-142c48-35 137-8 131 61C196 18 31 33 14-55l32-4c7 23 22 37 52 37 35-1 51-22 54-58 4-55-73-65-99-34H22l8-134h141v27H59" id="aa"/><path d="M101-251c68 0 85 55 85 127S166 4 100 4C33 4 14-52 14-124c0-73 17-127 87-127zm-1 229c47 0 54-49 54-102s-4-102-53-102c-51 0-55 48-55 102 0 53 5 102 54 102" id="ab"/><path d="M33-261c38 41 65 92 65 168S71 34 33 75H2C39 34 66-17 66-93S39-220 2-261h31" id="ac"/><g id="d"><use transform="matrix(0.05,0,0,0.05,0,0)" xlink:href="#T"/><use transform="matrix(0.05,0,0,0.05,10,0)" xlink:href="#U"/><use transform="matrix(0.05,0,0,0.05,19,0)" xlink:href="#V"/><use transform="matrix(0.05,0,0,0.05,29,0)" xlink:href="#O"/><use transform="matrix(0.05,0,0,0.05,34.95,0)" xlink:href="#W"/><use transform="matrix(0.05,0,0,0.05,43.95,0)" xlink:href="#X"/><use transform="matrix(0.05,0,0,0.05,53.95,0)" xlink:href="#V"/><use transform="matrix(0.05,0,0,0.05,63.95,0)" xlink:href="#O"/><use transform="matrix(0.05,0,0,0.05,69.9,0)" xlink:href="#Y"/><use transform="matrix(0.05,0,0,0.05,75.85000000000001,0)" xlink:href="#Z"/><use transform="matrix(0.05,0,0,0.05,85.85000000000001,0)" xlink:href="#aa"/><use transform="matrix(0.05,0,0,0.05,95.85000000000001,0)" xlink:href="#ab"/><use transform="matrix(0.05,0,0,0.05,105.85000000000001,0)" xlink:href="#ac"/></g><path d="M63-220v92h138v28H63V0H30v-248h175v28H63" id="ad"/><path d="M24-231v-30h32v30H24zM24 0v-190h32V0H24" id="ae"/><path d="M210-169c-67 3-38 105-44 169h-31v-121c0-29-5-50-35-48C34-165 62-65 56 0H25l-1-190h30c1 10-1 24 2 32 10-44 99-50 107 0 11-21 27-35 58-36 85-2 47 119 55 194h-31v-121c0-29-5-49-35-48" id="af"/><g id="e"><use transform="matrix(0.05,0,0,0.05,0,0)" xlink:href="#ad"/><use transform="matrix(0.05,0,0,0.05,10.950000000000001,0)" xlink:href="#ae"/><use transform="matrix(0.05,0,0,0.05,14.9,0)" xlink:href="#O"/><use transform="matrix(0.05,0,0,0.05,20.85,0)" xlink:href="#I"/><use transform="matrix(0.05,0,0,0.05,29.85,0)" xlink:href="#M"/><use transform="matrix(0.05,0,0,0.05,34.85,0)" xlink:href="#K"/><use transform="matrix(0.05,0,0,0.05,47.800000000000004,0)" xlink:href="#V"/><use transform="matrix(0.05,0,0,0.05,57.800000000000004,0)" xlink:href="#af"/><use transform="matrix(0.05,0,0,0.05,72.75,0)" xlink:href="#L"/></g><g id="f"><use transform="matrix(0.05,0,0,0.05,0,0)" xlink:href="#T"/><use transform="matrix(0.05,0,0,0.05,10,0)" xlink:href="#U"/><use transform="matrix(0.05,0,0,0.05,19,0)" xlink:href="#V"/><use transform="matrix(0.05,0,0,0.05,29,0)" xlink:href="#O"/><use transform="matrix(0.05,0,0,0.05,34.95,0)" xlink:href="#W"/><use transform="matrix(0.05,0,0,0.05,43.95,0)" xlink:href="#X"/><use transform="matrix(0.05,0,0,0.05,53.95,0)" xlink:href="#V"/><use transform="matrix(0.05,0,0,0.05,63.95,0)" xlink:href="#O"/></g><path d="M30 0v-248h33v221h125V0H30" id="ag"/><g id="g"><use transform="matrix(0.05,0,0,0.05,0,0)" xlink:href="#ag"/><use transform="matrix(0.05,0,0,0.05,10,0)" xlink:href="#V"/><use transform="matrix(0.05,0,0,0.05,20,0)" xlink:href="#I"/><use transform="matrix(0.05,0,0,0.05,29,0)" xlink:href="#M"/><use transform="matrix(0.05,0,0,0.05,34,0)" xlink:href="#K"/><use transform="matrix(0.05,0,0,0.05,46.95,0)" xlink:href="#V"/><use transform="matrix(0.05,0,0,0.05,56.95,0)" xlink:href="#af"/><use transform="matrix(0.05,0,0,0.05,71.9,0)" xlink:href="#L"/></g><g id="h"><use transform="matrix(0.05,0,0,0.05,0,0)" xlink:href="#N"/><use transform="matrix(0.05,0,0,0.05,12.950000000000001,0)" xlink:href="#I"/><use transform="matrix(0.05,0,0,0.05,21.950000000000003,0)" xlink:href="#L"/><use transform="matrix(0.05,0,0,0.05,31.950000000000003,0)" xlink:href="#O"/><use transform="matrix(0.05,0,0,0.05,37.900000000000006,0)" xlink:href="#K"/><use transform="matrix(0.05,0,0,0.05,50.85000000000001,0)" xlink:href="#V"/><use transform="matrix(0.05,0,0,0.05,60.85,0)" xlink:href="#af"/><use transform="matrix(0.05,0,0,0.05,75.80000000000001,0)" xlink:href="#L"/></g><path d="M101-251c82-7 93 87 43 132L82-64C71-53 59-42 53-27h129V0H18c2-99 128-94 128-182 0-28-16-43-45-43s-46 15-49 41l-32-3c6-41 34-60 81-64" id="ah"/><path d="M110-160c48 1 74 30 74 79 0 53-28 85-80 85-65 0-83-55-86-122-5-90 50-162 133-122 14 7 22 21 27 39l-31 6c-5-40-67-38-82-6-9 19-15 44-15 74 11-20 30-34 60-33zm-7 138c34 0 49-23 49-58s-16-56-50-56c-29 0-50 16-49 49 1 36 15 65 50 65" id="ai"/><g id="i"><use transform="matrix(0.05,0,0,0.05,0,0)" xlink:href="#T"/><use transform="matrix(0.05,0,0,0.05,10,0)" xlink:href="#U"/><use transform="matrix(0.05,0,0,0.05,19,0)" xlink:href="#V"/><use transform="matrix(0.05,0,0,0.05,29,0)" xlink:href="#O"/><use transform="matrix(0.05,0,0,0.05,34.95,0)" xlink:href="#W"/><use transform="matrix(0.05,0,0,0.05,43.95,0)" xlink:href="#X"/><use transform="matrix(0.05,0,0,0.05,53.95,0)" xlink:href="#V"/><use transform="matrix(0.05,0,0,0.05,63.95,0)" xlink:href="#O"/><use transform="matrix(0.05,0,0,0.05,69.9,0)" xlink:href="#Y"/><use transform="matrix(0.05,0,0,0.05,75.85000000000001,0)" xlink:href="#ah"/><use transform="matrix(0.05,0,0,0.05,85.85000000000001,0)" xlink:href="#aa"/><use transform="matrix(0.05,0,0,0.05,95.85000000000001,0)" xlink:href="#ai"/><use transform="matrix(0.05,0,0,0.05,105.85000000000001,0)" xlink:href="#ac"/></g><path d="M206 0h-36l-40-164L89 0H53L-1-190h32L70-26l43-164h34l41 164 42-164h31" id="aj"/><path d="M100-194c62-1 85 37 85 99 1 63-27 99-86 99S16-35 15-95c0-66 28-99 85-99zM99-20c44 1 53-31 53-75 0-43-8-75-51-75s-53 32-53 75 10 74 51 75" id="ak"/><path d="M197 0v-115H63V0H30v-248h33v105h134v-105h34V0h-34" id="al"/><g id="j"><use transform="matrix(0.05,0,0,0.05,0,0)" xlink:href="#P"/><use transform="matrix(0.05,0,0,0.05,12,0)" xlink:href="#V"/><use transform="matrix(0.05,0,0,0.05,22,0)" xlink:href="#I"/><use transform="matrix(0.05,0,0,0.05,31,0)" xlink:href="#I"/><use transform="matrix(0.05,0,0,0.05,40,0)" xlink:href="#aj"/><use transform="matrix(0.05,0,0,0.05,52.95,0)" xlink:href="#ak"/><use transform="matrix(0.05,0,0,0.05,62.95,0)" xlink:href="#O"/><use transform="matrix(0.05,0,0,0.05,68.9,0)" xlink:href="#S"/><use transform="matrix(0.05,0,0,0.05,78.9,0)" xlink:href="#al"/><use transform="matrix(0.05,0,0,0.05,91.85000000000001,0)" xlink:href="#V"/><use transform="matrix(0.05,0,0,0.05,101.85000000000001,0)" xlink:href="#I"/><use transform="matrix(0.05,0,0,0.05,110.85000000000001,0)" xlink:href="#X"/></g><path d="M30 0v-248h187v28H63v79h144v27H63v87h162V0H30" id="am"/><path d="M24 0v-261h32V0H24" id="an"/><g id="k"><use transform="matrix(0.05,0,0,0.05,0,0)" xlink:href="#am"/><use transform="matrix(0.05,0,0,0.05,12,0)" xlink:href="#af"/><use transform="matrix(0.05,0,0,0.05,26.950000000000003,0)" xlink:href="#V"/><use transform="matrix(0.05,0,0,0.05,36.95,0)" xlink:href="#ae"/><use transform="matrix(0.05,0,0,0.05,40.900000000000006,0)" xlink:href="#an"/></g><path d="M233-177c-1 41-23 64-60 70L243 0h-38l-65-103H63V0H30v-248c88 3 205-21 203 71zM63-129c60-2 137 13 137-47 0-61-80-42-137-45v92" id="ao"/><g id="l"><use transform="matrix(0.05,0,0,0.05,0,0)" xlink:href="#ao"/><use transform="matrix(0.05,0,0,0.05,12.950000000000001,0)" xlink:href="#ak"/><use transform="matrix(0.05,0,0,0.05,22.950000000000003,0)" xlink:href="#an"/><use transform="matrix(0.05,0,0,0.05,26.900000000000002,0)" xlink:href="#L"/></g><g id="m"><use transform="matrix(0.05,0,0,0.05,0,0)" xlink:href="#ae"/><use transform="matrix(0.05,0,0,0.05,3.95,0)" xlink:href="#T"/><use transform="matrix(0.05,0,0,0.05,13.949999999999998,0)" xlink:href="#M"/></g><path d="M212-179c-10-28-35-45-73-45-59 0-87 40-87 99 0 60 29 101 89 101 43 0 62-24 78-52l27 14C228-24 195 4 139 4 59 4 22-46 18-125c-6-104 99-153 187-111 19 9 31 26 39 46" id="ap"/><path d="M84 4C-5 8 30-112 23-190h32v120c0 31 7 50 39 49 72-2 45-101 50-169h31l1 190h-30c-1-10 1-25-2-33-11 22-28 36-60 37" id="aq"/><g id="n"><use transform="matrix(0.05,0,0,0.05,0,0)" xlink:href="#H"/><use transform="matrix(0.05,0,0,0.05,12,0)" xlink:href="#W"/><use transform="matrix(0.05,0,0,0.05,21,0)" xlink:href="#W"/><use transform="matrix(0.05,0,0,0.05,30,0)" xlink:href="#L"/><use transform="matrix(0.05,0,0,0.05,40,0)" xlink:href="#I"/><use transform="matrix(0.05,0,0,0.05,49,0)" xlink:href="#I"/><use transform="matrix(0.05,0,0,0.05,58,0)" xlink:href="#ad"/><use transform="matrix(0.05,0,0,0.05,68.95,0)" xlink:href="#V"/><use transform="matrix(0.05,0,0,0.05,78.95,0)" xlink:href="#ae"/><use transform="matrix(0.05,0,0,0.05,82.9,0)" xlink:href="#an"/><use transform="matrix(0.05,0,0,0.05,86.85000000000001,0)" xlink:href="#L"/><use transform="matrix(0.05,0,0,0.05,96.85000000000001,0)" xlink:href="#S"/><use transform="matrix(0.05,0,0,0.05,106.85000000000001,0)" xlink:href="#ap"/><use transform="matrix(0.05,0,0,0.05,119.80000000000001,0)" xlink:href="#ak"/><use transform="matrix(0.05,0,0,0.05,129.8,0)" xlink:href="#aq"/><use transform="matrix(0.05,0,0,0.05,139.8,0)" xlink:href="#T"/><use transform="matrix(0.05,0,0,0.05,149.8,0)" xlink:href="#M"/></g><path d="M179-190L93 31C79 59 56 82 12 73V49c39 6 53-20 64-50L1-190h34L92-34l54-156h33" id="ar"/><path d="M185-189c-5-48-123-54-124 2 14 75 158 14 163 119 3 78-121 87-175 55-17-10-28-26-33-46l33-7c5 56 141 63 141-1 0-78-155-14-162-118-5-82 145-84 179-34 5 7 8 16 11 25" id="as"/><g id="o"><use transform="matrix(0.05,0,0,0.05,0,0)" xlink:href="#ap"/><use transform="matrix(0.05,0,0,0.05,12.950000000000001,0)" xlink:href="#ak"/><use transform="matrix(0.05,0,0,0.05,22.950000000000003,0)" xlink:href="#T"/><use transform="matrix(0.05,0,0,0.05,32.95,0)" xlink:href="#W"/><use transform="matrix(0.05,0,0,0.05,41.95,0)" xlink:href="#aq"/><use transform="matrix(0.05,0,0,0.05,51.95,0)" xlink:href="#O"/><use transform="matrix(0.05,0,0,0.05,57.900000000000006,0)" xlink:href="#O"/><use transform="matrix(0.05,0,0,0.05,63.85,0)" xlink:href="#L"/><use transform="matrix(0.05,0,0,0.05,73.85000000000001,0)" xlink:href="#T"/><use transform="matrix(0.05,0,0,0.05,83.85000000000001,0)" xlink:href="#W"/><use transform="matrix(0.05,0,0,0.05,92.85000000000001,0)" xlink:href="#ar"/><use transform="matrix(0.05,0,0,0.05,101.85000000000001,0)" xlink:href="#as"/><use transform="matrix(0.05,0,0,0.05,113.85000000000001,0)" xlink:href="#M"/><use transform="matrix(0.05,0,0,0.05,118.85000000000001,0)" xlink:href="#V"/><use transform="matrix(0.05,0,0,0.05,128.85000000000002,0)" xlink:href="#af"/><use transform="matrix(0.05,0,0,0.05,143.8,0)" xlink:href="#J"/></g><path d="M101-234c-31-9-42 10-38 44h38v23H63V0H32v-167H5v-23h27c-7-52 17-82 69-68v24" id="at"/><g id="p"><use transform="matrix(0.05,0,0,0.05,0,0)" xlink:href="#am"/><use transform="matrix(0.05,0,0,0.05,12,0)" xlink:href="#af"/><use transform="matrix(0.05,0,0,0.05,26.950000000000003,0)" xlink:href="#V"/><use transform="matrix(0.05,0,0,0.05,36.95,0)" xlink:href="#ae"/><use transform="matrix(0.05,0,0,0.05,40.900000000000006,0)" xlink:href="#an"/><use transform="matrix(0.05,0,0,0.05,44.85000000000001,0)" xlink:href="#ap"/><use transform="matrix(0.05,0,0,0.05,57.80000000000001,0)" xlink:href="#ak"/><use transform="matrix(0.05,0,0,0.05,67.80000000000001,0)" xlink:href="#T"/><use transform="matrix(0.05,0,0,0.05,77.80000000000001,0)" xlink:href="#at"/><use transform="matrix(0.05,0,0,0.05,82.80000000000001,0)" xlink:href="#ae"/><use transform="matrix(0.05,0,0,0.05,86.75000000000001,0)" xlink:href="#O"/><use transform="matrix(0.05,0,0,0.05,92.70000000000002,0)" xlink:href="#af"/><use transform="matrix(0.05,0,0,0.05,107.65000000000003,0)" xlink:href="#L"/><use transform="matrix(0.05,0,0,0.05,117.65000000000003,0)" xlink:href="#S"/></g><path d="M115-194c53 0 69 39 70 98 0 66-23 100-70 100C84 3 66-7 56-30L54 0H23l1-261h32v101c10-23 28-34 59-34zm-8 174c40 0 45-34 45-75 0-40-5-75-45-74-42 0-51 32-51 76 0 43 10 73 51 73" id="au"/><g id="q"><use transform="matrix(0.05,0,0,0.05,0,0)" xlink:href="#au"/><use transform="matrix(0.05,0,0,0.05,10,0)" xlink:href="#ae"/><use transform="matrix(0.05,0,0,0.05,13.949999999999998,0)" xlink:href="#M"/></g><path d="M143 0L79-87 56-68V0H24v-261h32v163l83-92h37l-77 82L181 0h-38" id="av"/><g id="r"><use transform="matrix(0.05,0,0,0.05,0,0)" xlink:href="#ag"/><use transform="matrix(0.05,0,0,0.05,10,0)" xlink:href="#ak"/><use transform="matrix(0.05,0,0,0.05,20,0)" xlink:href="#W"/><use transform="matrix(0.05,0,0,0.05,29,0)" xlink:href="#av"/><use transform="matrix(0.05,0,0,0.05,38,0)" xlink:href="#ak"/><use transform="matrix(0.05,0,0,0.05,48,0)" xlink:href="#aq"/><use transform="matrix(0.05,0,0,0.05,58,0)" xlink:href="#M"/><use transform="matrix(0.05,0,0,0.05,63,0)" xlink:href="#am"/><use transform="matrix(0.05,0,0,0.05,75,0)" xlink:href="#T"/><use transform="matrix(0.05,0,0,0.05,85,0)" xlink:href="#V"/><use transform="matrix(0.05,0,0,0.05,95,0)" xlink:href="#au"/><use transform="matrix(0.05,0,0,0.05,105,0)" xlink:href="#an"/><use transform="matrix(0.05,0,0,0.05,108.95,0)" xlink:href="#L"/><use transform="matrix(0.05,0,0,0.05,118.95,0)" xlink:href="#S"/></g><g id="s"><use transform="matrix(0.05,0,0,0.05,0,0)" xlink:href="#ag"/><use transform="matrix(0.05,0,0,0.05,10,0)" xlink:href="#ak"/><use transform="matrix(0.05,0,0,0.05,20,0)" xlink:href="#W"/><use transform="matrix(0.05,0,0,0.05,29,0)" xlink:href="#av"/><use transform="matrix(0.05,0,0,0.05,38,0)" xlink:href="#ak"/><use transform="matrix(0.05,0,0,0.05,48,0)" xlink:href="#aq"/><use transform="matrix(0.05,0,0,0.05,58,0)" xlink:href="#M"/><use transform="matrix(0.05,0,0,0.05,63,0)" xlink:href="#am"/><use transform="matrix(0.05,0,0,0.05,75,0)" xlink:href="#T"/><use transform="matrix(0.05,0,0,0.05,85,0)" xlink:href="#S"/></g><g id="t"><use transform="matrix(0.05,0,0,0.05,0,0)" xlink:href="#S"/><use transform="matrix(0.05,0,0,0.05,10,0)" xlink:href="#V"/><use transform="matrix(0.05,0,0,0.05,20,0)" xlink:href="#M"/><use transform="matrix(0.05,0,0,0.05,25,0)" xlink:href="#L"/><use transform="matrix(0.05,0,0,0.05,35,0)" xlink:href="#M"/><use transform="matrix(0.05,0,0,0.05,40,0)" xlink:href="#ae"/><use transform="matrix(0.05,0,0,0.05,43.95,0)" xlink:href="#af"/><use transform="matrix(0.05,0,0,0.05,58.900000000000006,0)" xlink:href="#L"/><use transform="matrix(0.05,0,0,0.05,68.9,0)" xlink:href="#ak"/><use transform="matrix(0.05,0,0,0.05,78.9,0)" xlink:href="#at"/><use transform="matrix(0.05,0,0,0.05,83.55000000000001,0)" xlink:href="#at"/><use transform="matrix(0.05,0,0,0.05,88.55000000000001,0)" xlink:href="#I"/><use transform="matrix(0.05,0,0,0.05,97.55000000000001,0)" xlink:href="#L"/><use transform="matrix(0.05,0,0,0.05,107.55000000000001,0)" xlink:href="#M"/></g><path d="M9 0v-24l116-142H16v-24h144v24L44-24h123V0H9" id="aw"/><g id="u"><use transform="matrix(0.05,0,0,0.05,0,0)" xlink:href="#K"/><use transform="matrix(0.05,0,0,0.05,12.950000000000001,0)" xlink:href="#ak"/><use transform="matrix(0.05,0,0,0.05,22.950000000000003,0)" xlink:href="#O"/><use transform="matrix(0.05,0,0,0.05,28.900000000000002,0)" xlink:href="#af"/><use transform="matrix(0.05,0,0,0.05,43.85,0)" xlink:href="#V"/><use transform="matrix(0.05,0,0,0.05,53.85,0)" xlink:href="#an"/><use transform="matrix(0.05,0,0,0.05,57.800000000000004,0)" xlink:href="#ae"/><use transform="matrix(0.05,0,0,0.05,61.75,0)" xlink:href="#aw"/><use transform="matrix(0.05,0,0,0.05,70.75,0)" xlink:href="#L"/><use transform="matrix(0.05,0,0,0.05,80.75,0)" xlink:href="#S"/><use transform="matrix(0.05,0,0,0.05,90.75,0)" xlink:href="#am"/><use transform="matrix(0.05,0,0,0.05,102.75,0)" xlink:href="#af"/><use transform="matrix(0.05,0,0,0.05,117.7,0)" xlink:href="#V"/><use transform="matrix(0.05,0,0,0.05,127.7,0)" xlink:href="#ae"/><use transform="matrix(0.05,0,0,0.05,131.65,0)" xlink:href="#an"/></g><g id="v"><use transform="matrix(0.05,0,0,0.05,0,0)" xlink:href="#K"/><use transform="matrix(0.05,0,0,0.05,12.950000000000001,0)" xlink:href="#ak"/><use transform="matrix(0.05,0,0,0.05,22.950000000000003,0)" xlink:href="#O"/><use transform="matrix(0.05,0,0,0.05,28.900000000000002,0)" xlink:href="#af"/><use transform="matrix(0.05,0,0,0.05,43.85,0)" xlink:href="#V"/><use transform="matrix(0.05,0,0,0.05,53.85,0)" xlink:href="#an"/><use transform="matrix(0.05,0,0,0.05,57.800000000000004,0)" xlink:href="#ae"/><use transform="matrix(0.05,0,0,0.05,61.75,0)" xlink:href="#aw"/><use transform="matrix(0.05,0,0,0.05,70.75,0)" xlink:href="#L"/><use transform="matrix(0.05,0,0,0.05,80.75,0)" xlink:href="#S"/><use transform="matrix(0.05,0,0,0.05,90.75,0)" xlink:href="#N"/><use transform="matrix(0.05,0,0,0.05,103.7,0)" xlink:href="#I"/><use transform="matrix(0.05,0,0,0.05,112.7,0)" xlink:href="#L"/><use transform="matrix(0.05,0,0,0.05,122.7,0)" xlink:href="#O"/><use transform="matrix(0.05,0,0,0.05,128.65,0)" xlink:href="#K"/><use transform="matrix(0.05,0,0,0.05,141.6,0)" xlink:href="#V"/><use transform="matrix(0.05,0,0,0.05,151.6,0)" xlink:href="#af"/><use transform="matrix(0.05,0,0,0.05,166.54999999999998,0)" xlink:href="#L"/></g><g id="w"><use transform="matrix(0.05,0,0,0.05,0,0)" xlink:href="#P"/><use transform="matrix(0.05,0,0,0.05,12,0)" xlink:href="#X"/><use transform="matrix(0.05,0,0,0.05,22,0)" xlink:href="#ak"/><use transform="matrix(0.05,0,0,0.05,32,0)" xlink:href="#T"/><use transform="matrix(0.05,0,0,0.05,42,0)" xlink:href="#L"/><use transform="matrix(0.05,0,0,0.05,52,0)" xlink:href="#K"/><use transform="matrix(0.05,0,0,0.05,64.95,0)" xlink:href="#aq"/><use transform="matrix(0.05,0,0,0.05,74.95,0)" xlink:href="#af"/><use transform="matrix(0.05,0,0,0.05,89.9,0)" xlink:href="#au"/><use transform="matrix(0.05,0,0,0.05,99.9,0)" xlink:href="#L"/><use transform="matrix(0.05,0,0,0.05,109.9,0)" xlink:href="#O"/></g><g id="x"><use transform="matrix(0.05,0,0,0.05,0,0)" xlink:href="#P"/><use transform="matrix(0.05,0,0,0.05,12,0)" xlink:href="#X"/><use transform="matrix(0.05,0,0,0.05,22,0)" xlink:href="#ak"/><use transform="matrix(0.05,0,0,0.05,32,0)" xlink:href="#T"/><use transform="matrix(0.05,0,0,0.05,42,0)" xlink:href="#L"/><use transform="matrix(0.05,0,0,0.05,52,0)" xlink:href="#K"/><use transform="matrix(0.05,0,0,0.05,64.95,0)" xlink:href="#aq"/><use transform="matrix(0.05,0,0,0.05,74.95,0)" xlink:href="#af"/><use transform="matrix(0.05,0,0,0.05,89.9,0)" xlink:href="#au"/><use transform="matrix(0.05,0,0,0.05,99.9,0)" xlink:href="#L"/><use transform="matrix(0.05,0,0,0.05,109.9,0)" xlink:href="#O"/><use transform="matrix(0.05,0,0,0.05,115.85000000000001,0)" xlink:href="#ap"/><use transform="matrix(0.05,0,0,0.05,128.8,0)" xlink:href="#ak"/><use transform="matrix(0.05,0,0,0.05,138.8,0)" xlink:href="#T"/><use transform="matrix(0.05,0,0,0.05,148.8,0)" xlink:href="#at"/><use transform="matrix(0.05,0,0,0.05,153.8,0)" xlink:href="#ae"/><use transform="matrix(0.05,0,0,0.05,157.75,0)" xlink:href="#O"/><use transform="matrix(0.05,0,0,0.05,163.7,0)" xlink:href="#af"/><use transform="matrix(0.05,0,0,0.05,178.64999999999998,0)" xlink:href="#L"/><use transform="matrix(0.05,0,0,0.05,188.64999999999998,0)" xlink:href="#S"/></g><g id="y"><use transform="matrix(0.05,0,0,0.05,0,0)" xlink:href="#as"/><use transform="matrix(0.05,0,0,0.05,12,0)" xlink:href="#L"/><use transform="matrix(0.05,0,0,0.05,22,0)" xlink:href="#W"/><use transform="matrix(0.05,0,0,0.05,31,0)" xlink:href="#aq"/><use transform="matrix(0.05,0,0,0.05,41,0)" xlink:href="#O"/><use transform="matrix(0.05,0,0,0.05,46.95,0)" xlink:href="#ae"/><use transform="matrix(0.05,0,0,0.05,50.900000000000006,0)" xlink:href="#M"/><use transform="matrix(0.05,0,0,0.05,55.900000000000006,0)" xlink:href="#ar"/><use transform="matrix(0.05,0,0,0.05,64.9,0)" xlink:href="#as"/><use transform="matrix(0.05,0,0,0.05,76.9,0)" xlink:href="#M"/><use transform="matrix(0.05,0,0,0.05,81.9,0)" xlink:href="#V"/><use transform="matrix(0.05,0,0,0.05,91.9,0)" xlink:href="#af"/><use transform="matrix(0.05,0,0,0.05,106.85000000000001,0)" xlink:href="#J"/></g><path d="M127-220V0H93v-220H8v-28h204v28h-85" id="ax"/><g id="z"><use transform="matrix(0.05,0,0,0.05,0,0)" xlink:href="#ax"/><use transform="matrix(0.05,0,0,0.05,9.950000000000001,0)" xlink:href="#aj"/><use transform="matrix(0.05,0,0,0.05,22.900000000000002,0)" xlink:href="#ak"/><use transform="matrix(0.05,0,0,0.05,32.900000000000006,0)" xlink:href="#ad"/><use transform="matrix(0.05,0,0,0.05,43.85000000000001,0)" xlink:href="#V"/><use transform="matrix(0.05,0,0,0.05,53.85,0)" xlink:href="#W"/><use transform="matrix(0.05,0,0,0.05,62.85,0)" xlink:href="#M"/><use transform="matrix(0.05,0,0,0.05,67.85000000000001,0)" xlink:href="#ak"/><use transform="matrix(0.05,0,0,0.05,77.85000000000001,0)" xlink:href="#O"/><use transform="matrix(0.05,0,0,0.05,83.80000000000001,0)" xlink:href="#am"/><use transform="matrix(0.05,0,0,0.05,95.80000000000001,0)" xlink:href="#T"/><use transform="matrix(0.05,0,0,0.05,105.80000000000001,0)" xlink:href="#V"/><use transform="matrix(0.05,0,0,0.05,115.80000000000001,0)" xlink:href="#au"/><use transform="matrix(0.05,0,0,0.05,125.80000000000001,0)" xlink:href="#an"/><use transform="matrix(0.05,0,0,0.05,129.75,0)" xlink:href="#L"/><use transform="matrix(0.05,0,0,0.05,139.75,0)" xlink:href="#S"/></g><g id="A"><use transform="matrix(0.05,0,0,0.05,0,0)" xlink:href="#H"/><use transform="matrix(0.05,0,0,0.05,12,0)" xlink:href="#I"/><use transform="matrix(0.05,0,0,0.05,21,0)" xlink:href="#J"/><use transform="matrix(0.05,0,0,0.05,31,0)" xlink:href="#K"/><use transform="matrix(0.05,0,0,0.05,43.95,0)" xlink:href="#L"/><use transform="matrix(0.05,0,0,0.05,53.95,0)" xlink:href="#M"/><use transform="matrix(0.05,0,0,0.05,58.95,0)" xlink:href="#N"/><use transform="matrix(0.05,0,0,0.05,71.9,0)" xlink:href="#I"/><use transform="matrix(0.05,0,0,0.05,80.9,0)" xlink:href="#L"/><use transform="matrix(0.05,0,0,0.05,90.9,0)" xlink:href="#O"/><use transform="matrix(0.05,0,0,0.05,96.85000000000001,0)" xlink:href="#ao"/><use transform="matrix(0.05,0,0,0.05,109.80000000000001,0)" xlink:href="#ak"/><use transform="matrix(0.05,0,0,0.05,119.80000000000001,0)" xlink:href="#an"/><use transform="matrix(0.05,0,0,0.05,123.75,0)" xlink:href="#L"/><use transform="matrix(0.05,0,0,0.05,133.75,0)" xlink:href="#I"/></g><path d="M68-38c1 34 0 65-14 84H32c9-13 17-26 17-46H33v-38h35" id="ay"/><g id="B"><use transform="matrix(0.05,0,0,0.05,0,0)" xlink:href="#P"/><use transform="matrix(0.05,0,0,0.05,12,0)" xlink:href="#Q"/><use transform="matrix(0.05,0,0,0.05,24,0)" xlink:href="#ay"/><use transform="matrix(0.05,0,0,0.05,29,0)" xlink:href="#ad"/><use transform="matrix(0.05,0,0,0.05,39.95,0)" xlink:href="#Q"/></g><g id="C"><use transform="matrix(0.05,0,0,0.05,0,0)" xlink:href="#N"/><use transform="matrix(0.05,0,0,0.05,12.950000000000001,0)" xlink:href="#I"/><use transform="matrix(0.05,0,0,0.05,21.950000000000003,0)" xlink:href="#L"/><use transform="matrix(0.05,0,0,0.05,31.950000000000003,0)" xlink:href="#O"/><use transform="matrix(0.05,0,0,0.05,37.900000000000006,0)" xlink:href="#R"/><use transform="matrix(0.05,0,0,0.05,42.900000000000006,0)" xlink:href="#S"/></g><g id="D"><use transform="matrix(0.05,0,0,0.05,0,0)" xlink:href="#ao"/><use transform="matrix(0.05,0,0,0.05,12.950000000000001,0)" xlink:href="#ak"/><use transform="matrix(0.05,0,0,0.05,22.950000000000003,0)" xlink:href="#an"/><use transform="matrix(0.05,0,0,0.05,26.900000000000002,0)" xlink:href="#L"/><use transform="matrix(0.05,0,0,0.05,36.900000000000006,0)" xlink:href="#R"/><use transform="matrix(0.05,0,0,0.05,41.900000000000006,0)" xlink:href="#S"/></g><g id="E"><use transform="matrix(0.05,0,0,0.05,0,0)" xlink:href="#H"/><use transform="matrix(0.05,0,0,0.05,12,0)" xlink:href="#I"/><use transform="matrix(0.05,0,0,0.05,21,0)" xlink:href="#J"/><use transform="matrix(0.05,0,0,0.05,31,0)" xlink:href="#K"/><use transform="matrix(0.05,0,0,0.05,43.95,0)" xlink:href="#L"/><use transform="matrix(0.05,0,0,0.05,53.95,0)" xlink:href="#M"/><use transform="matrix(0.05,0,0,0.05,58.95,0)" xlink:href="#ao"/><use transform="matrix(0.05,0,0,0.05,71.9,0)" xlink:href="#ak"/><use transform="matrix(0.05,0,0,0.05,81.9,0)" xlink:href="#an"/><use transform="matrix(0.05,0,0,0.05,85.85000000000001,0)" xlink:href="#L"/><use transform="matrix(0.05,0,0,0.05,95.85000000000001,0)" xlink:href="#I"/></g><g id="F"><use transform="matrix(0.05,0,0,0.05,0,0)" xlink:href="#K"/><use transform="matrix(0.05,0,0,0.05,12.950000000000001,0)" xlink:href="#V"/><use transform="matrix(0.05,0,0,0.05,22.950000000000003,0)" xlink:href="#af"/><use transform="matrix(0.05,0,0,0.05,37.900000000000006,0)" xlink:href="#L"/></g><g id="G"><use transform="matrix(0.05,0,0,0.05,0,0)" xlink:href="#K"/><use transform="matrix(0.05,0,0,0.05,12.950000000000001,0)" xlink:href="#ak"/><use transform="matrix(0.05,0,0,0.05,22.950000000000003,0)" xlink:href="#O"/><use transform="matrix(0.05,0,0,0.05,28.900000000000002,0)" xlink:href="#af"/><use transform="matrix(0.05,0,0,0.05,43.85,0)" xlink:href="#V"/><use transform="matrix(0.05,0,0,0.05,53.85,0)" xlink:href="#an"/><use transform="matrix(0.05,0,0,0.05,57.800000000000004,0)" xlink:href="#ae"/><use transform="matrix(0.05,0,0,0.05,61.75,0)" xlink:href="#aw"/><use transform="matrix(0.05,0,0,0.05,70.75,0)" xlink:href="#L"/><use transform="matrix(0.05,0,0,0.05,80.75,0)" xlink:href="#S"/><use transform="matrix(0.05,0,0,0.05,90.75,0)" xlink:href="#K"/><use transform="matrix(0.05,0,0,0.05,103.7,0)" xlink:href="#V"/><use transform="matrix(0.05,0,0,0.05,113.7,0)" xlink:href="#af"/><use transform="matrix(0.05,0,0,0.05,128.65,0)" xlink:href="#L"/></g></defs></g></svg>