<svg xmlns="http://www.w3.org/2000/svg" xmlns:xlink="http://www.w3.org/1999/xlink" xmlns:lucid="lucid" width="1534.83" height="965.54"><g transform="translate(-704.65 -1376.950156647517)" lucid:page-tab-id="0_0"><path d="M500 1000h2000v1500H500z" fill="#fff"/><path d="M1044.66 1519.95v10m-.03 10.02l-.02 20.02m0 10l-.03 20.02m0 10l-.04 20.03m0 10l-.04 20.03m-.02 10.02l-.03 20.02m0 10l-.04 20.03m0 10l-.03 20.03m0 10l-.04 20.03m0 10.02l-.04 20.02m-.02 10l-.03 20.03m0 10l-.04 20.03m0 10l-.03 20.03m0 10l-.04 20.03m0 10l-.04 20.03m-.02 10l-.03 20.02m0 10l-.04 20.04m0 10l-.03 20.03m0 10l-.04 20.02m0 10l-.04 20.03m-.02 10l-.03 20.03m0 10l-.04 20.03m0 10.02l-.03 20.02m0 10l-.04 20.03m0 10l-.04 20.03m-.02 10l-.03 20.03m0 10l-.03 20.03m-.02 10.02v10" stroke="#333" fill="none"/><path d="M1045.14 1519.96h-.95v-.5h.94z" stroke="#333" stroke-width=".05" fill="#333"/><path d="M1043.6 2330.77v.52M1404.42 1519.95v9.76m0 9.77V1559m0 9.76v19.53m0 9.75v19.52m0 9.77v19.52m0 9.76v19.53m0 9.76v19.54m0 9.76v19.52m0 9.76V1764m0 9.77v19.53m0 9.76v19.52m0 9.77v19.52m0 9.76v19.53m0 9.76v19.53m0 9.76v19.53m0 9.76V1969m0 9.76v19.53m0 9.77v19.52m0 9.76v19.52m0 9.76v19.53m0 9.76v19.53m0 9.76v19.52m0 9.77v19.53m0 9.76v19.52m0 9.76v19.52m0 9.77v19.52m0 9.75v19.53m0 9.76v19.53m0 9.76v9.76" stroke="#333" fill="none"/><path d="M1404.9 1519.96h-.95v-.5h.95z" stroke="#333" stroke-width=".05" fill="#333"/><path d="M1404.42 2339.98v.5M1764.18 1519.95v10.1m0 10.12v20.23m0 10.1v20.23m0 10.1v20.24m0 10.1v20.23m0 10.1v20.23m0 10.12v20.22m0 10.1v20.23m0 10.12v20.22m0 10.1v20.23m0 10.1v20.24m0 10.12v20.22m0 10.1v20.24m0 10.1v20.23m0 10.12v20.22m0 10.12v20.22m0 10.1v20.23m0 10.13v20.22m0 10.1v20.23m0 10.1v20.24m0 10.1v20.23m0 10.1v20.24m0 10.1v20.22m0 10.1v20.24m0 10.1v20.23m0 10.1v20.22m0 10.12v20.22m0 10.1V2339.1l.03.08.04.08.05.08.05.07.07.05.08.04.08.03.1.02h.08" stroke="#333" fill="none"/><path d="M1764.66 1519.96h-.95v-.5h.96z" stroke="#333" stroke-width=".05" fill="#333"/><path d="M1764.74 2339.55h.52" stroke="#333" fill="none"/><path d="M949.62 1405.45a8 8 0 0 1 8-8h174.08a8 8 0 0 1 8 8v106a8 8 0 0 1-8 8H957.62a8 8 0 0 1-8-8z" stroke="#000" stroke-opacity="0" fill="#fff"/><use xlink:href="#a" transform="matrix(1,0,0,1,957.6243639566258,1405.450156647517) translate(19.59876543209876 56.55555555555555)"/><use xlink:href="#b" transform="matrix(1,0,0,1,957.6243639566258,1405.450156647517) translate(54.46296296296296 56.55555555555555)"/><path d="M1309.38 1405.45a8 8 0 0 1 8-8h174.08a8 8 0 0 1 8 8v106a8 8 0 0 1-8 8h-174.08a8 8 0 0 1-8-8z" stroke="#000" stroke-opacity="0" fill="#fff"/><use xlink:href="#c" transform="matrix(1,0,0,1,1317.3848257465197,1405.450156647517) translate(48.75925925925926 56.55555555555555)"/><path d="M1669.14 1405.45a8 8 0 0 1 8-8h174.08a8 8 0 0 1 8 8v106a8 8 0 0 1-8 8h-174.08a8 8 0 0 1-8-8z" stroke="#000" stroke-opacity="0" fill="#fff"/><use xlink:href="#d" transform="matrix(1,0,0,1,1677.1452875364137,1405.450156647517) translate(23.57407407407407 45.888888888888886)"/><use xlink:href="#e" transform="matrix(1,0,0,1,1677.1452875364137,1405.450156647517) translate(71.67283950617283 45.888888888888886)"/><use xlink:href="#f" transform="matrix(1,0,0,1,1677.1452875364137,1405.450156647517) translate(94.6358024691358 45.888888888888886)"/><use xlink:href="#g" transform="matrix(1,0,0,1,1677.1452875364137,1405.450156647517) translate(60.0679012345679 67.22222222222223)"/><path d="M2028.9 1405.45a8 8 0 0 1 8-8H2211a8 8 0 0 1 8 8v106a8 8 0 0 1-8 8H2036.9a8 8 0 0 1-8-8z" stroke="#000" stroke-opacity="0" fill="#fff"/><use xlink:href="#h" transform="matrix(1,0,0,1,2036.9057493263076,1405.450156647517) translate(40.462962962962955 56.55555555555555)"/><use xlink:href="#i" transform="matrix(1,0,0,1,2036.9057493263076,1405.450156647517) translate(84.80864197530863 56.55555555555555)"/><path d="M2123.94 1519.95v10.12m0 10.12v20.22m0 10.12v20.24m0 10.1v20.25m0 10.12v20.23m0 10.12v20.24m0 10.1v20.25m0 10.1v20.24m0 10.12v20.24m0 10.12v20.23m0 10.12v20.24m0 10.12v20.24m0 10.12v20.23m0 10.13v20.24m0 10.1v20.25m0 10.12v20.23m0 10.12v20.23m0 10.12v20.23m0 10.12v20.24m0 10.1v20.25m0 10.1v20.24m0 10.12v20.24m0 10.1v20.25m0 10.12v20.23m0 10.12v20.24m0 10.12v20.23m0 10.13v20.23m0 10.12v10.12" stroke="#3a414a" fill="none"/><path d="M2124.42 1519.96h-.95v-.5h.95z" stroke="#3a414a" stroke-width=".05" fill="#3a414a"/><path d="M2123.94 2339.5v.5" stroke="#3a414a" fill="none"/><path d="M799.75 1479.75c0 10.9-8.84 19.75-19.75 19.75-10.9 0-19.75-8.84-19.75-19.75 0-10.9 8.84-19.75 19.75-19.75 10.9 0 19.75 8.84 19.75 19.75z" stroke="#333" fill="#fff"/><path d="M780 1499.5v47.3a27.6 27.6 0 0 0 4.28 14.76L820 1618m-40-63.2l-40 63.2m0-98.75h80" stroke="#333" fill="none"/><path d="M740 1468a8 8 0 0 1 8-8h64a8 8 0 0 1 8 8v164a8 8 0 0 1-8 8h-64a8 8 0 0 1-8-8z" fill="none"/><use xlink:href="#j" transform="matrix(1,0,0,1,660,1618) translate(65.65 14.6)"/><path d="M779.5 1539.43v10.18m0 10.2v20.35m0 10.17v20.36m0 10.18v20.36m0 10.18v20.35m0 10.18v20.36m0 10.17v20.36m0 10.17v20.36m0 10.18v20.36m0 10.17v20.36m0 10.18v20.37m0 10.18v20.35m0 10.18v20.36m0 10.18v20.36m0 10.18v20.35m0 10.2v20.35m0 10.18v20.35m0 10.18v20.36m0 10.18v20.36m0 10.17v20.36m0 10.17v20.36m0 10.18v20.36m0 10.18v20.36m0 10.18v20.35m0 10.18v20.37m0 10.18V2313m0 10.18v10.18M779.5 1539.44v-3.5M779.5 2333.35v.5" stroke="#3a414a" fill="none"/><path d="M1444.3 2088a8 8 0 0 1 8-8h264a8 8 0 0 1 8 8v44a8 8 0 0 1-8 8h-264a8 8 0 0 1-8-8z" fill="none"/><use xlink:href="#k" transform="matrix(1,0,0,1,1444.30267570639,2080) translate(8 14.4)"/><use xlink:href="#l" transform="matrix(1,0,0,1,1444.30267570639,2080) translate(142.3 14.4)"/><use xlink:href="#m" transform="matrix(1,0,0,1,1444.30267570639,2080) translate(167.20000000000002 14.4)"/><use xlink:href="#n" transform="matrix(1,0,0,1,1444.30267570639,2080) translate(240.55 14.4)"/><use xlink:href="#o" transform="matrix(1,0,0,1,1444.30267570639,2080) translate(26.19999999999999 36)"/><use xlink:href="#p" transform="matrix(1,0,0,1,1444.30267570639,2080) translate(83.54999999999998 36)"/><use xlink:href="#q" transform="matrix(1,0,0,1,1444.30267570639,2080) translate(106.79999999999998 36)"/><use xlink:href="#r" transform="matrix(1,0,0,1,1444.30267570639,2080) translate(169.7 36)"/><use xlink:href="#s" transform="matrix(1,0,0,1,1444.30267570639,2080) translate(183.7 36)"/><use xlink:href="#t" transform="matrix(1,0,0,1,1444.30267570639,2080) translate(243.75 36)"/><use xlink:href="#u" transform="matrix(1,0,0,1,1444.30267570639,2080) translate(47.525000000000006 57.6)"/><use xlink:href="#l" transform="matrix(1,0,0,1,1444.30267570639,2080) translate(145.22500000000002 57.6)"/><use xlink:href="#v" transform="matrix(1,0,0,1,1444.30267570639,2080) translate(170.125 57.6)"/><use xlink:href="#w" transform="matrix(1,0,0,1,1444.30267570639,2080) translate(140 79.20000000000002)"/><path d="M760 1688a8 8 0 0 1 8-8h24a8 8 0 0 1 8 8v544a8 8 0 0 1-8 8h-24a8 8 0 0 1-8-8zM1024.66 1688a8 8 0 0 1 8-8h24a8 8 0 0 1 8 8v524a8 8 0 0 1-8 8h-24a8 8 0 0 1-8-8zM1384.42 1747.72a8 8 0 0 1 8-8h24a8 8 0 0 1 8 8V2152a8 8 0 0 1-8 8h-24a8 8 0 0 1-8-8zM1744.18 1747.72a8 8 0 0 1 8-8h24a8 8 0 0 1 8 8V2132a8 8 0 0 1-8 8h-24a8 8 0 0 1-8-8zM2103.94 1808a8 8 0 0 1 8-8h24a8 8 0 0 1 8 8v244a8 8 0 0 1-8 8h-24a8 8 0 0 1-8-8z" stroke="#3a414a" fill="#fff"/><path d="M801 1720h206.78" stroke="#3a414a" fill="none"/><path d="M801 1720.47h-.5v-.94h.5z" stroke="#3a414a" stroke-width=".05" fill="#3a414a"/><path d="M1022.54 1720l-14.26 4.63v-9.27z" stroke="#3a414a" fill="#3a414a"/><path d="M1023.66 2200H816.88" stroke="#3a414a" fill="none"/><path d="M1024.16 2200.47h-.5v-.94h.5z" stroke="#3a414a" stroke-width=".05" fill="#3a414a"/><path d="M802.12 2200l14.26-4.64v9.28z" stroke="#3a414a" fill="#3a414a"/><path d="M1065.66 1780h301.88" stroke="#3a414a" fill="none"/><path d="M1065.67 1780.47h-.5v-.94h.5z" stroke="#3a414a" stroke-width=".05" fill="#3a414a"/><path d="M1382.3 1780l-14.26 4.63v-9.27z" stroke="#3a414a" fill="#3a414a"/><use xlink:href="#x" transform="matrix(1,0,0,1,1090.6171766868267,1784.000000000053) translate(0.0049999999999954525 14.4)"/><use xlink:href="#l" transform="matrix(1,0,0,1,1090.6171766868267,1784.000000000053) translate(100.555 14.4)"/><use xlink:href="#s" transform="matrix(1,0,0,1,1090.6171766868267,1784.000000000053) translate(125.45500000000001 14.4)"/><use xlink:href="#r" transform="matrix(1,0,0,1,1090.6171766868267,1784.000000000053) translate(185.50500000000002 14.4)"/><use xlink:href="#y" transform="matrix(1,0,0,1,1090.6171766868267,1784.000000000053) translate(199.50500000000002 14.4)"/><path d="M1383.42 2140h-301.88" stroke="#3a414a" fill="none"/><path d="M1383.92 2140.47h-.5v-.95h.5z" stroke="#3a414a" stroke-width=".05" fill="#3a414a"/><path d="M1066.78 2140l14.27-4.64v9.27z" stroke="#3a414a" fill="#3a414a"/><path d="M1425.42 1820h301.88" stroke="#3a414a" fill="none"/><path d="M1425.43 1820.47h-.5v-.94h.5z" stroke="#3a414a" stroke-width=".05" fill="#3a414a"/><path d="M1742.06 1820l-14.26 4.63v-9.27z" stroke="#3a414a" fill="#3a414a"/><use xlink:href="#x" transform="matrix(1,0,0,1,1434.3776440492877,1828.6352549156231) translate(0.0049999999999954525 14.4)"/><use xlink:href="#l" transform="matrix(1,0,0,1,1434.3776440492877,1828.6352549156231) translate(100.555 14.4)"/><use xlink:href="#z" transform="matrix(1,0,0,1,1434.3776440492877,1828.6352549156231) translate(125.45500000000001 14.4)"/><use xlink:href="#A" transform="matrix(1,0,0,1,1434.3776440492877,1828.6352549156231) translate(180.805 14.4)"/><use xlink:href="#B" transform="matrix(1,0,0,1,1434.3776440492877,1828.6352549156231) translate(203.60500000000002 14.4)"/><path d="M1743.18 2080H1441.3" stroke="#3a414a" fill="none"/><path d="M1743.68 2080.47h-.5v-.95h.5z" stroke="#3a414a" stroke-width=".05" fill="#3a414a"/><path d="M1426.54 2080l14.27-4.64v9.27z" stroke="#3a414a" fill="#3a414a"/><path d="M1785.18 1860h301.88" stroke="#3a414a" fill="none"/><path d="M1785.2 1860.47h-.52v-.94h.52z" stroke="#3a414a" stroke-width=".05" fill="#3a414a"/><path d="M2101.82 1860l-14.26 4.63v-9.27z" stroke="#3a414a" fill="#3a414a"/><path d="M2102.94 2020h-10.6m-10.58 0h-21.2m-10.58 0h-21.18m-10.6 0h-21.18m-10.6 0h-21.17m-10.6 0H1934.54m-9.53 0h-19.07m-9.53 0h-19.07m-9.53 0h-19.07m-9.53 0h-19.07m-9.53 0h-9.53" stroke="#3a414a" fill="none"/><path d="M2103.44 2020.47h-.5v-.94h.5z" stroke="#3a414a" stroke-width=".05" fill="#3a414a"/><path d="M1786.3 2020l14.27-4.63v9.27z" stroke="#3a414a" fill="#3a414a"/><path d="M814.66 1728a8 8 0 0 1 8-8H1002a8 8 0 0 1 8 8v63.72a8 8 0 0 1-8 8H822.66a8 8 0 0 1-8-8z" fill="none"/><g><use xlink:href="#C" transform="matrix(1,0,0,1,814.6619830215491,1720) translate(5.674999999999997 22)"/><use xlink:href="#l" transform="matrix(1,0,0,1,814.6619830215491,1720) translate(81.77499999999999 22)"/><use xlink:href="#D" transform="matrix(1,0,0,1,814.6619830215491,1720) translate(106.675 22)"/><use xlink:href="#E" transform="matrix(1,0,0,1,814.6619830215491,1720) translate(13.974999999999994 43.6)"/><use xlink:href="#F" transform="matrix(1,0,0,1,814.6619830215491,1720) translate(64.025 43.6)"/><use xlink:href="#G" transform="matrix(1,0,0,1,814.6619830215491,1720) translate(99.625 43.6)"/><use xlink:href="#H" transform="matrix(1,0,0,1,814.6619830215491,1720) translate(162.32500000000002 43.6)"/><use xlink:href="#I" transform="matrix(1,0,0,1,814.6619830215491,1720) translate(60 65.2)"/></g><path d="M800 2208a8 8 0 0 1 8-8h224a8 8 0 0 1 8 8v44a8 8 0 0 1-8 8H808a8 8 0 0 1-8-8z" fill="none"/><g><use xlink:href="#J" transform="matrix(1,0,0,1,800,2200) translate(20.224999999999994 22.799999999999997)"/><use xlink:href="#l" transform="matrix(1,0,0,1,800,2200) translate(125.825 22.799999999999997)"/><use xlink:href="#s" transform="matrix(1,0,0,1,800,2200) translate(150.725 22.799999999999997)"/><use xlink:href="#K" transform="matrix(1,0,0,1,800,2200) translate(210.775 22.799999999999997)"/><use xlink:href="#y" transform="matrix(1,0,0,1,800,2200) translate(85.825 44.4)"/></g><path d="M1104.54 2148a8 8 0 0 1 8-8h224a8 8 0 0 1 8 8v44a8 8 0 0 1-8 8h-224a8 8 0 0 1-8-8z" fill="none"/><g><use xlink:href="#J" transform="matrix(1,0,0,1,1104.5422139164962,2140) translate(11.950000000000003 22.799999999999997)"/><use xlink:href="#l" transform="matrix(1,0,0,1,1104.5422139164962,2140) translate(117.55000000000001 22.799999999999997)"/><use xlink:href="#L" transform="matrix(1,0,0,1,1104.5422139164962,2140) translate(142.45 22.799999999999997)"/><use xlink:href="#M" transform="matrix(1,0,0,1,1104.5422139164962,2140) translate(209.8 22.799999999999997)"/><use xlink:href="#q" transform="matrix(1,0,0,1,1104.5422139164962,2140) translate(54.02499999999999 44.4)"/><use xlink:href="#r" transform="matrix(1,0,0,1,1104.5422139164962,2140) translate(116.925 44.4)"/><use xlink:href="#N" transform="matrix(1,0,0,1,1104.5422139164962,2140) translate(130.925 44.4)"/></g><path d="M1785.18 1928.84h301.88" stroke="#3a414a" fill="none"/><path d="M1785.2 1929.3h-.52v-.94h.52z" stroke="#3a414a" stroke-width=".05" fill="#3a414a"/><path d="M2101.82 1928.84l-14.26 4.63v-9.27z" stroke="#3a414a" fill="#3a414a"/><g><use xlink:href="#x" transform="matrix(1,0,0,1,1800.6131358241616,1937.4746048968418) translate(0.0049999999999954525 14.4)"/><use xlink:href="#l" transform="matrix(1,0,0,1,1800.6131358241616,1937.4746048968418) translate(100.555 14.4)"/><use xlink:href="#O" transform="matrix(1,0,0,1,1800.6131358241616,1937.4746048968418) translate(125.45500000000001 14.4)"/><use xlink:href="#P" transform="matrix(1,0,0,1,1800.6131358241616,1937.4746048968418) translate(186.205 14.4)"/><use xlink:href="#I" transform="matrix(1,0,0,1,1800.6131358241616,1937.4746048968418) translate(210.90500000000003 14.4)"/></g><path d="M1824.06 2028a8 8 0 0 1 8-8h224a8 8 0 0 1 8 8v44a8 8 0 0 1-8 8h-224a8 8 0 0 1-8-8z" fill="none"/><g><use xlink:href="#Q" transform="matrix(1,0,0,1,1824.063137496284,2020) translate(19.55000000000001 22.799999999999997)"/><use xlink:href="#l" transform="matrix(1,0,0,1,1824.063137496284,2020) translate(102.50000000000001 22.799999999999997)"/><use xlink:href="#m" transform="matrix(1,0,0,1,1824.063137496284,2020) translate(127.4 22.799999999999997)"/><use xlink:href="#H" transform="matrix(1,0,0,1,1824.063137496284,2020) translate(200.75 22.799999999999997)"/><use xlink:href="#R" transform="matrix(1,0,0,1,1824.063137496284,2020) translate(41.875 44.4)"/><use xlink:href="#I" transform="matrix(1,0,0,1,1824.063137496284,2020) translate(122.125 44.4)"/></g><path d="M1840 1868a8 8 0 0 1 8-8h224a8 8 0 0 1 8 8v44a8 8 0 0 1-8 8h-224a8 8 0 0 1-8-8z" fill="none"/><g><use xlink:href="#k" transform="matrix(1,0,0,1,1840,1860) translate(6.224999999999994 14.4)"/><use xlink:href="#l" transform="matrix(1,0,0,1,1840,1860) translate(140.525 14.4)"/><use xlink:href="#S" transform="matrix(1,0,0,1,1840,1860) translate(165.425 14.4)"/><use xlink:href="#T" transform="matrix(1,0,0,1,1840,1860) translate(4.0249999999999915 36)"/><use xlink:href="#o" transform="matrix(1,0,0,1,1840,1860) translate(40.474999999999994 36)"/><use xlink:href="#p" transform="matrix(1,0,0,1,1840,1860) translate(97.825 36)"/><use xlink:href="#q" transform="matrix(1,0,0,1,1840,1860) translate(121.075 36)"/><use xlink:href="#r" transform="matrix(1,0,0,1,1840,1860) translate(183.97500000000002 36)"/><use xlink:href="#U" transform="matrix(1,0,0,1,1840,1860) translate(197.97500000000002 36)"/><use xlink:href="#V" transform="matrix(1,0,0,1,1840,1860) translate(94.825 57.6)"/></g><defs><path fill="#333" d="M30-34c39 28 70-14 80-46L10-248h38l79 138 67-138h36L114-29C100 3 49 14 16-9" id="W"/><path fill="#333" d="M100-194c63 0 86 42 84 106H49c0 40 14 67 53 68 26 1 43-12 49-29l28 8c-11 28-37 45-77 45C44 4 14-33 15-96c1-61 26-98 85-98zm52 81c6-60-76-77-97-28-3 7-6 17-6 28h103" id="X"/><path fill="#333" d="M105-20c41 1 53-27 53-68 0-40-9-69-50-69s-54 27-54 69c0 40 12 68 51 68zM47-134c10-28 31-47 68-47 56 0 76 33 76 92 1 60-28 90-86 93C-9 9 1-201 72-238c29-15 73-21 110-26v28c-67 12-144 10-135 102" id="Y"/><g id="a"><use transform="matrix(0.04938271604938272,0,0,0.04938271604938272,0,0)" xlink:href="#W"/><use transform="matrix(0.04938271604938272,0,0,0.04938271604938272,10.074074074074074,0)" xlink:href="#X"/><use transform="matrix(0.04938271604938272,0,0,0.04938271604938272,19.75308641975309,0)" xlink:href="#Y"/></g><path fill="#333" d="M170-190V0h-32v-167H57V0H25v-190h145" id="Z"/><path fill="#333" d="M115-194c55 1 70 41 70 98S169 2 115 4C84 4 66-9 55-30l1 105H24l-1-265h31l2 30c10-21 28-34 59-34zm-8 174c40 0 45-34 45-75s-6-73-45-74c-42 0-51 32-51 76 0 43 10 73 51 73" id="aa"/><path fill="#333" d="M56-190L54-37l88-153h34V0h-30l2-153L59 0H25v-190h31" id="ab"/><path fill="#333" d="M153 0v-167H87C74-108 81-27 38 0 29 5 12 6 2 1v-22c51 4 39-64 49-112 5-25 4-25 8-57h126V0h-32" id="ac"/><path fill="#333" d="M100-194c62-1 85 37 85 99 1 63-27 99-86 99S16-35 15-95c0-66 28-99 85-99zM99-20c44 1 53-31 53-75 0-43-8-75-51-75s-53 32-53 75 10 74 51 75" id="ad"/><path fill="#333" d="M156-87c-4 1-15 3-20 3V0h-31v-84c-5 0-16-2-20-3L36 0H1l62-104c-22-24-40-59-60-86h33l50 76c5 5 9 7 19 7v-83h31v83c27-1 31-21 43-41l26-42h33l-60 86L240 0h-36" id="ae"/><path fill="#333" d="M57-190v80h85v-80h32V0h-32v-87H57V0H25v-190h32" id="af"/><g id="b"><use transform="matrix(0.04938271604938272,0,0,0.04938271604938272,0,0)" xlink:href="#Z"/><use transform="matrix(0.04938271604938272,0,0,0.04938271604938272,9.580246913580249,0)" xlink:href="#aa"/><use transform="matrix(0.04938271604938272,0,0,0.04938271604938272,19.45679012345679,0)" xlink:href="#ab"/><use transform="matrix(0.04938271604938272,0,0,0.04938271604938272,29.38271604938272,0)" xlink:href="#ac"/><use transform="matrix(0.04938271604938272,0,0,0.04938271604938272,39.95061728395062,0)" xlink:href="#ad"/><use transform="matrix(0.04938271604938272,0,0,0.04938271604938272,49.62962962962963,0)" xlink:href="#ae"/><use transform="matrix(0.04938271604938272,0,0,0.04938271604938272,61.48148148148149,0)" xlink:href="#X"/><use transform="matrix(0.04938271604938272,0,0,0.04938271604938272,71.35802469135803,0)" xlink:href="#af"/><use transform="matrix(0.04938271604938272,0,0,0.04938271604938272,81.1358024691358,0)" xlink:href="#ab"/><use transform="matrix(0.04938271604938272,0,0,0.04938271604938272,91.06172839506172,0)" xlink:href="#X"/></g><path fill="#333" d="M94-120c-9 3-20 7-31 7V0H30v-248h33v109c41-1 47-27 65-55l36-54h35c-23 32-58 90-81 112L208 0h-39" id="ag"/><path fill="#333" d="M6-190h153v23H98V0H67v-167H6v-23" id="ah"/><g id="c"><use transform="matrix(0.04938271604938272,0,0,0.04938271604938272,0,0)" xlink:href="#ag"/><use transform="matrix(0.04938271604938272,0,0,0.04938271604938272,10.320987654320989,0)" xlink:href="#ad"/><use transform="matrix(0.04938271604938272,0,0,0.04938271604938272,20.19753086419753,0)" xlink:href="#af"/><use transform="matrix(0.04938271604938272,0,0,0.04938271604938272,29.97530864197531,0)" xlink:href="#ah"/><use transform="matrix(0.04938271604938272,0,0,0.04938271604938272,37.876543209876544,0)" xlink:href="#ad"/><use transform="matrix(0.04938271604938272,0,0,0.04938271604938272,47.358024691358025,0)" xlink:href="#ac"/><use transform="matrix(0.04938271604938272,0,0,0.04938271604938272,57.7283950617284,0)" xlink:href="#X"/><use transform="matrix(0.04938271604938272,0,0,0.04938271604938272,67.60493827160494,0)" xlink:href="#aa"/></g><path fill="#333" d="M212-179c-10-28-35-45-73-45-59 0-87 40-87 99 0 60 29 101 89 101 43 0 62-24 78-52l27 14C228-24 195 4 139 4 59 4 22-46 18-125c-6-104 99-153 187-111 19 9 31 26 39 46" id="ai"/><path fill="#333" d="M165-267c8 67-110 75-125 20-2-7-4-13-4-20h29c1 23 13 35 36 35s34-13 36-35h28zM56-190L54-37l88-153h34V0h-30l2-153L59 0H25v-190h31" id="aj"/><g id="d"><use transform="matrix(0.04938271604938272,0,0,0.04938271604938272,0,0)" xlink:href="#ai"/><use transform="matrix(0.04938271604938272,0,0,0.04938271604938272,12.790123456790125,0)" xlink:href="#ac"/><use transform="matrix(0.04938271604938272,0,0,0.04938271604938272,23.35802469135803,0)" xlink:href="#ad"/><use transform="matrix(0.04938271604938272,0,0,0.04938271604938272,33.23456790123457,0)" xlink:href="#aj"/></g><path fill="#333" d="M152-53C154 19 21 22 9-41l28-8c5 36 84 42 81-4-1-29-28-34-58-35v-24c28 0 55-4 55-30 0-19-14-29-34-28-20 0-35 7-38 25l-28-3c4-33 30-46 66-46 37 0 66 15 66 50 0 27-20 41-44 44 27 5 48 17 49 47" id="ak"/><path fill="#333" d="M141-36C126-15 110 5 73 4 37 3 15-17 15-53c-1-64 63-63 125-63 3-35-9-54-41-54-24 1-41 7-42 31l-33-3c5-37 33-52 76-52 45 0 72 20 72 64v82c-1 20 7 32 28 27v20c-31 9-61-2-59-35zM48-53c0 20 12 33 32 33 41-3 63-29 60-74-43 2-92-5-92 41" id="al"/><g id="e"><use transform="matrix(0.04938271604938272,0,0,0.04938271604938272,0,0)" xlink:href="#ak"/><use transform="matrix(0.04938271604938272,0,0,0.04938271604938272,8.148148148148149,0)" xlink:href="#al"/></g><path fill="#333" d="M96-169c-40 0-48 33-48 73s9 75 48 75c24 0 41-14 43-38l32 2c-6 37-31 61-74 61-59 0-76-41-82-99-10-93 101-131 147-64 4 7 5 14 7 22l-32 3c-4-21-16-35-41-35" id="am"/><g id="f"><use transform="matrix(0.04938271604938272,0,0,0.04938271604938272,0,0)" xlink:href="#Y"/><use transform="matrix(0.04938271604938272,0,0,0.04938271604938272,10.17283950617284,0)" xlink:href="#ab"/><use transform="matrix(0.04938271604938272,0,0,0.04938271604938272,20.098765432098766,0)" xlink:href="#ak"/><use transform="matrix(0.04938271604938272,0,0,0.04938271604938272,28.246913580246915,0)" xlink:href="#af"/><use transform="matrix(0.04938271604938272,0,0,0.04938271604938272,38.0246913580247,0)" xlink:href="#X"/><use transform="matrix(0.04938271604938272,0,0,0.04938271604938272,47.90123456790124,0)" xlink:href="#am"/></g><path fill="#333" d="M121-190v23H57V0H25v-190h96" id="an"/><path fill="#333" d="M75-87c-4 1-14 3-19 3V0H24v-190h32v83c26-2 31-21 43-41l26-42h33l-61 86L159 0h-35" id="ao"/><g id="g"><use transform="matrix(0.04938271604938272,0,0,0.04938271604938272,0,0)" xlink:href="#ac"/><use transform="matrix(0.04938271604938272,0,0,0.04938271604938272,10.567901234567904,0)" xlink:href="#ad"/><use transform="matrix(0.04938271604938272,0,0,0.04938271604938272,20.44444444444445,0)" xlink:href="#an"/><use transform="matrix(0.04938271604938272,0,0,0.04938271604938272,26.91358024691359,0)" xlink:href="#ab"/><use transform="matrix(0.04938271604938272,0,0,0.04938271604938272,36.83950617283951,0)" xlink:href="#ao"/><use transform="matrix(0.04938271604938272,0,0,0.04938271604938272,44.987654320987666,0)" xlink:href="#al"/></g><path fill="#333" d="M63-143c77-2 155-4 155 70C218 13 117 1 30 0v-248h162v28H63v77zm0 116c54-1 121 11 121-45 0-53-67-44-121-44v89" id="ap"/><g id="h"><use transform="matrix(0.04938271604938272,0,0,0.04938271604938272,0,0)" xlink:href="#ap"/><use transform="matrix(0.04938271604938272,0,0,0.04938271604938272,11.654320987654321,0)" xlink:href="#al"/><use transform="matrix(0.04938271604938272,0,0,0.04938271604938272,21.333333333333336,0)" xlink:href="#ak"/><use transform="matrix(0.04938271604938272,0,0,0.04938271604938272,29.481481481481485,0)" xlink:href="#ab"/></g><path fill="#333" d="M147-167H93C83-118 77-63 59-23h88v-144zM24-23c26-44 31-102 41-167h113v167h26v95h-29V0H32v72H4v-95h20" id="aq"/><g id="i"><use transform="matrix(0.04938271604938272,0,0,0.04938271604938272,0,0)" xlink:href="#aq"/><use transform="matrix(0.04938271604938272,0,0,0.04938271604938272,10.370370370370372,0)" xlink:href="#al"/><use transform="matrix(0.04938271604938272,0,0,0.04938271604938272,20.24691358024692,0)" xlink:href="#af"/><use transform="matrix(0.04938271604938272,0,0,0.04938271604938272,30.0246913580247,0)" xlink:href="#af"/><use transform="matrix(0.04938271604938272,0,0,0.04938271604938272,39.802469135802475,0)" xlink:href="#ab"/></g><path fill="#3a414a" d="M30-248c87 1 191-15 191 75 0 78-77 80-158 76V0H30v-248zm33 125c57 0 124 11 124-50 0-59-68-47-124-48v98" id="ar"/><path fill="#3a414a" d="M210-56c0 67-78 56-144 56v-167H8v-23h89v80c57-1 113-2 113 54zm-33 0c0-37-42-32-80-32v66c38 0 80 4 80-34" id="as"/><path fill="#3a414a" d="M75-87c-4 1-14 3-19 3V0H24v-190h32v83c26-2 31-21 43-41l26-42h33l-61 86L159 0h-35" id="at"/><path fill="#3a414a" d="M100-194c62-1 85 37 85 99 1 63-27 99-86 99S16-35 15-95c0-66 28-99 85-99zM99-20c44 1 53-31 53-75 0-43-8-75-51-75s-53 32-53 75 10 74 51 75" id="au"/><path fill="#3a414a" d="M176-55C176 11 93 0 25 0v-190c61 3 142-15 144 47 1 29-21 35-39 44 27 3 46 16 46 44zm-34 0c0-41-47-30-85-32v64c38-1 85 8 85-32zm-6-83c0-36-44-26-79-28v56c34-2 79 8 79-28" id="av"/><path fill="#3a414a" d="M147-167H93C83-118 77-63 59-23h88v-144zM24-23c26-44 31-102 41-167h113v167h26v95h-29V0H32v72H4v-95h20" id="aw"/><path fill="#3a414a" d="M56-190L54-37l88-153h34V0h-30l2-153L59 0H25v-190h31" id="ax"/><path fill="#3a414a" d="M6-190h153v23H98V0H67v-167H6v-23" id="ay"/><path fill="#3a414a" d="M100-194c63 0 86 42 84 106H49c0 40 14 67 53 68 26 1 43-12 49-29l28 8c-11 28-37 45-77 45C44 4 14-33 15-96c1-61 26-98 85-98zm52 81c6-60-76-77-97-28-3 7-6 17-6 28h103" id="az"/><path fill="#3a414a" d="M153 0v-167H87C74-108 81-27 38 0 29 5 12 6 2 1v-22c51 4 39-64 49-112 5-25 4-25 8-57h126V0h-32" id="aA"/><g id="j"><use transform="matrix(0.05,0,0,0.05,0,0)" xlink:href="#ar"/><use transform="matrix(0.05,0,0,0.05,12,0)" xlink:href="#as"/><use transform="matrix(0.05,0,0,0.05,23.25,0)" xlink:href="#at"/><use transform="matrix(0.05,0,0,0.05,31.3,0)" xlink:href="#au"/><use transform="matrix(0.05,0,0,0.05,41.3,0)" xlink:href="#av"/><use transform="matrix(0.05,0,0,0.05,50.64999999999999,0)" xlink:href="#au"/><use transform="matrix(0.05,0,0,0.05,60.24999999999999,0)" xlink:href="#aw"/><use transform="matrix(0.05,0,0,0.05,70.75,0)" xlink:href="#ax"/><use transform="matrix(0.05,0,0,0.05,80.8,0)" xlink:href="#ay"/><use transform="matrix(0.05,0,0,0.05,88.8,0)" xlink:href="#az"/><use transform="matrix(0.05,0,0,0.05,98.2,0)" xlink:href="#aA"/></g><path fill="#3a414a" d="M197 0v-219H63V0H30v-248h201V0h-34" id="aB"/><path fill="#3a414a" d="M115-194c55 1 70 41 70 98S169 2 115 4C84 4 66-9 55-30l1 105H24l-1-265h31l2 30c10-21 28-34 59-34zm-8 174c40 0 45-34 45-75s-6-73-45-74c-42 0-51 32-51 76 0 43 10 73 51 73" id="aC"/><path fill="#3a414a" d="M105-20c41 1 53-27 53-68 0-40-9-69-50-69s-54 27-54 69c0 40 12 68 51 68zM47-134c10-28 31-47 68-47 56 0 76 33 76 92 1 60-28 90-86 93C-9 9 1-201 72-238c29-15 73-21 110-26v28c-67 12-144 10-135 102" id="aD"/><path fill="#3a414a" d="M141-36C126-15 110 5 73 4 37 3 15-17 15-53c-1-64 63-63 125-63 3-35-9-54-41-54-24 1-41 7-42 31l-33-3c5-37 33-52 76-52 45 0 72 20 72 64v82c-1 20 7 32 28 27v20c-31 9-61-2-59-35zM48-53c0 20 12 33 32 33 41-3 63-29 60-74-43 2-92-5-92 41" id="aE"/><path fill="#3a414a" d="M152-53C154 19 21 22 9-41l28-8c5 36 84 42 81-4-1-29-28-34-58-35v-24c28 0 55-4 55-30 0-19-14-29-34-28-20 0-35 7-38 25l-28-3c4-33 30-46 66-46 37 0 66 15 66 50 0 27-20 41-44 44 27 5 48 17 49 47" id="aF"/><path fill="#3a414a" d="M179-190L93 31C79 59 56 82 12 73V49c39 6 53-20 64-50L1-190h34L92-34l54-156h33" id="aG"/><path fill="#3a414a" d="M57-190v80h85v-80h32V0h-32v-87H57V0H25v-190h32" id="aH"/><g id="k"><use transform="matrix(0.05,0,0,0.05,0,0)" xlink:href="#aB"/><use transform="matrix(0.05,0,0,0.05,12.9,0)" xlink:href="#aC"/><use transform="matrix(0.05,0,0,0.05,22.9,0)" xlink:href="#az"/><use transform="matrix(0.05,0,0,0.05,32.9,0)" xlink:href="#au"/><use transform="matrix(0.05,0,0,0.05,42.9,0)" xlink:href="#aD"/><use transform="matrix(0.05,0,0,0.05,53.2,0)" xlink:href="#aC"/><use transform="matrix(0.05,0,0,0.05,63.2,0)" xlink:href="#aE"/><use transform="matrix(0.05,0,0,0.05,73,0)" xlink:href="#aF"/><use transform="matrix(0.05,0,0,0.05,81.05,0)" xlink:href="#aG"/><use transform="matrix(0.05,0,0,0.05,90.05,0)" xlink:href="#av"/><use transform="matrix(0.05,0,0,0.05,99.39999999999999,0)" xlink:href="#aE"/><use transform="matrix(0.05,0,0,0.05,109.39999999999998,0)" xlink:href="#aH"/><use transform="matrix(0.05,0,0,0.05,119.30000000000001,0)" xlink:href="#az"/></g><g id="l"><use transform="matrix(0.05,0,0,0.05,0,0)" xlink:href="#aH"/><use transform="matrix(0.05,0,0,0.05,9.9,0)" xlink:href="#aE"/></g><g id="m"><use transform="matrix(0.05,0,0,0.05,0,0)" xlink:href="#aw"/><use transform="matrix(0.05,0,0,0.05,10.5,0)" xlink:href="#aE"/><use transform="matrix(0.05,0,0,0.05,20.5,0)" xlink:href="#aH"/><use transform="matrix(0.05,0,0,0.05,30.399999999999995,0)" xlink:href="#aH"/><use transform="matrix(0.05,0,0,0.05,40.3,0)" xlink:href="#ax"/><use transform="matrix(0.05,0,0,0.05,50.349999999999994,0)" xlink:href="#ay"/><use transform="matrix(0.05,0,0,0.05,58.349999999999994,0)" xlink:href="#az"/></g><path fill="#3a414a" d="M138 0h-27L54-167c3 53 2 111 2 167H25v-190h49c16 56 39 106 51 166 11-61 34-110 50-166h48V0h-31l2-168" id="aI"/><g id="n"><use transform="matrix(0.05,0,0,0.05,0,0)" xlink:href="#at"/><use transform="matrix(0.05,0,0,0.05,7.8500000000000005,0)" xlink:href="#as"/><use transform="matrix(0.05,0,0,0.05,19.1,0)" xlink:href="#aI"/></g><g id="o"><use transform="matrix(0.05,0,0,0.05,0,0)" xlink:href="#aI"/><use transform="matrix(0.05,0,0,0.05,12.350000000000001,0)" xlink:href="#au"/><use transform="matrix(0.05,0,0,0.05,21.950000000000003,0)" xlink:href="#aw"/><use transform="matrix(0.05,0,0,0.05,32.45,0)" xlink:href="#az"/><use transform="matrix(0.05,0,0,0.05,41.85,0)" xlink:href="#aA"/></g><g id="p"><use transform="matrix(0.05,0,0,0.05,0,0)" xlink:href="#aF"/><use transform="matrix(0.05,0,0,0.05,8.25,0)" xlink:href="#aE"/></g><g id="q"><use transform="matrix(0.05,0,0,0.05,0,0)" xlink:href="#aC"/><use transform="matrix(0.05,0,0,0.05,10,0)" xlink:href="#aE"/><use transform="matrix(0.05,0,0,0.05,20,0)" xlink:href="#aD"/><use transform="matrix(0.05,0,0,0.05,30.3,0)" xlink:href="#au"/><use transform="matrix(0.05,0,0,0.05,39.900000000000006,0)" xlink:href="#ay"/><use transform="matrix(0.05,0,0,0.05,47.900000000000006,0)" xlink:href="#aE"/></g><path fill="#3a414a" d="M96-169c-40 0-48 33-48 73s9 75 48 75c24 0 41-14 43-38l32 2c-6 37-31 61-74 61-59 0-76-41-82-99-10-93 101-131 147-64 4 7 5 14 7 22l-32 3c-4-21-16-35-41-35" id="aJ"/><use transform="matrix(0.05,0,0,0.05,0,0)" xlink:href="#aJ" id="r"/><path fill="#3a414a" d="M121-190v23H57V0H25v-190h96" id="aK"/><g id="s"><use transform="matrix(0.05,0,0,0.05,0,0)" xlink:href="#ax"/><use transform="matrix(0.05,0,0,0.05,10.05,0)" xlink:href="#aF"/><use transform="matrix(0.05,0,0,0.05,18.3,0)" xlink:href="#aK"/><use transform="matrix(0.05,0,0,0.05,24.450000000000003,0)" xlink:href="#aA"/><use transform="matrix(0.05,0,0,0.05,34.95,0)" xlink:href="#az"/><use transform="matrix(0.05,0,0,0.05,44.550000000000004,0)" xlink:href="#aw"/></g><use transform="matrix(0.05,0,0,0.05,0,0)" xlink:href="#ax" id="t"/><path fill="#3a414a" d="M170-190V0h-32v-167H57V0H25v-190h145" id="aL"/><path fill="#3a414a" d="M25 0v-190h32v167h71v-167h31v167h71v-167h32v167h26v95h-29V0H25" id="aM"/><g id="u"><use transform="matrix(0.05,0,0,0.05,0,0)" xlink:href="#ax"/><use transform="matrix(0.05,0,0,0.05,10.05,0)" xlink:href="#aF"/><use transform="matrix(0.05,0,0,0.05,18.3,0)" xlink:href="#aL"/><use transform="matrix(0.05,0,0,0.05,28,0)" xlink:href="#aC"/><use transform="matrix(0.05,0,0,0.05,38,0)" xlink:href="#aE"/><use transform="matrix(0.05,0,0,0.05,48,0)" xlink:href="#aM"/><use transform="matrix(0.05,0,0,0.05,62.79999999999999,0)" xlink:href="#aE"/><use transform="matrix(0.05,0,0,0.05,72.8,0)" xlink:href="#aH"/><use transform="matrix(0.05,0,0,0.05,82.7,0)" xlink:href="#az"/></g><g id="v"><use transform="matrix(0.05,0,0,0.05,0,0)" xlink:href="#aI"/><use transform="matrix(0.05,0,0,0.05,12.350000000000001,0)" xlink:href="#au"/><use transform="matrix(0.05,0,0,0.05,21.950000000000003,0)" xlink:href="#aw"/><use transform="matrix(0.05,0,0,0.05,32.45,0)" xlink:href="#az"/><use transform="matrix(0.05,0,0,0.05,41.85,0)" xlink:href="#aA"/><use transform="matrix(0.05,0,0,0.05,52.35,0)" xlink:href="#aE"/></g><path fill="#3a414a" d="M30 0v-248h30L58-37l132-211h39V0h-30l1-209L70 0H30" id="aN"/><g id="x"><use transform="matrix(0.05,0,0,0.05,0,0)" xlink:href="#aN"/><use transform="matrix(0.05,0,0,0.05,12.9,0)" xlink:href="#aF"/><use transform="matrix(0.05,0,0,0.05,21.15,0)" xlink:href="#aL"/><use transform="matrix(0.05,0,0,0.05,30.85,0)" xlink:href="#aC"/><use transform="matrix(0.05,0,0,0.05,40.85,0)" xlink:href="#aE"/><use transform="matrix(0.05,0,0,0.05,50.85,0)" xlink:href="#aM"/><use transform="matrix(0.05,0,0,0.05,65.65,0)" xlink:href="#aE"/><use transform="matrix(0.05,0,0,0.05,75.65,0)" xlink:href="#aH"/><use transform="matrix(0.05,0,0,0.05,85.55000000000001,0)" xlink:href="#az"/></g><g id="y"><use transform="matrix(0.05,0,0,0.05,0,0)" xlink:href="#aw"/><use transform="matrix(0.05,0,0,0.05,10.5,0)" xlink:href="#aE"/><use transform="matrix(0.05,0,0,0.05,20.5,0)" xlink:href="#aH"/><use transform="matrix(0.05,0,0,0.05,30.399999999999995,0)" xlink:href="#aH"/><use transform="matrix(0.05,0,0,0.05,40.3,0)" xlink:href="#ax"/><use transform="matrix(0.05,0,0,0.05,50.349999999999994,0)" xlink:href="#ay"/><use transform="matrix(0.05,0,0,0.05,58.349999999999994,0)" xlink:href="#az"/></g><g id="z"><use transform="matrix(0.05,0,0,0.05,0,0)" xlink:href="#aw"/><use transform="matrix(0.05,0,0,0.05,10.5,0)" xlink:href="#aE"/><use transform="matrix(0.05,0,0,0.05,20.5,0)" xlink:href="#aH"/><use transform="matrix(0.05,0,0,0.05,30.399999999999995,0)" xlink:href="#aH"/><use transform="matrix(0.05,0,0,0.05,40.3,0)" xlink:href="#ax"/></g><g id="A"><use transform="matrix(0.05,0,0,0.05,0,0)" xlink:href="#au"/><use transform="matrix(0.05,0,0,0.05,9.6,0)" xlink:href="#ay"/></g><g id="B"><use transform="matrix(0.05,0,0,0.05,0,0)" xlink:href="#at"/><use transform="matrix(0.05,0,0,0.05,8.05,0)" xlink:href="#au"/><use transform="matrix(0.05,0,0,0.05,18.05,0)" xlink:href="#aH"/><use transform="matrix(0.05,0,0,0.05,27.950000000000003,0)" xlink:href="#ay"/><use transform="matrix(0.05,0,0,0.05,36.150000000000006,0)" xlink:href="#aC"/><use transform="matrix(0.05,0,0,0.05,46.150000000000006,0)" xlink:href="#au"/><use transform="matrix(0.05,0,0,0.05,55.75,0)" xlink:href="#aA"/><use transform="matrix(0.05,0,0,0.05,66.25,0)" xlink:href="#az"/><use transform="matrix(0.05,0,0,0.05,76.25,0)" xlink:href="#aC"/><use transform="matrix(0.05,0,0,0.05,86.25,0)" xlink:href="#aE"/></g><path fill="#3a414a" d="M127-220V0H93v-220H8v-28h204v28h-85" id="aO"/><g id="C"><use transform="matrix(0.05,0,0,0.05,0,0)" xlink:href="#aO"/><use transform="matrix(0.05,0,0,0.05,10.950000000000001,0)" xlink:href="#as"/><use transform="matrix(0.05,0,0,0.05,22.200000000000003,0)" xlink:href="#aC"/><use transform="matrix(0.05,0,0,0.05,32.2,0)" xlink:href="#aJ"/><use transform="matrix(0.05,0,0,0.05,41.2,0)" xlink:href="#az"/><use transform="matrix(0.05,0,0,0.05,51.2,0)" xlink:href="#aH"/><use transform="matrix(0.05,0,0,0.05,61.1,0)" xlink:href="#az"/></g><path fill="#3a414a" d="M156-87c-4 1-15 3-20 3V0h-31v-84c-5 0-16-2-20-3L36 0H1l62-104c-22-24-40-59-60-86h33l50 76c5 5 9 7 19 7v-83h31v83c27-1 31-21 43-41l26-42h33l-60 86L240 0h-36" id="aP"/><path fill="#3a414a" d="M68-38c1 34 0 65-14 84H32c9-13 17-26 17-46H33v-38h35" id="aQ"/><g id="D"><use transform="matrix(0.05,0,0,0.05,0,0)" xlink:href="#aJ"/><use transform="matrix(0.05,0,0,0.05,9,0)" xlink:href="#aA"/><use transform="matrix(0.05,0,0,0.05,19.5,0)" xlink:href="#aG"/><use transform="matrix(0.05,0,0,0.05,28.700000000000003,0)" xlink:href="#aP"/><use transform="matrix(0.05,0,0,0.05,40.7,0)" xlink:href="#ax"/><use transform="matrix(0.05,0,0,0.05,50.75,0)" xlink:href="#ay"/><use transform="matrix(0.05,0,0,0.05,58.75,0)" xlink:href="#az"/><use transform="matrix(0.05,0,0,0.05,68.15,0)" xlink:href="#aA"/><use transform="matrix(0.05,0,0,0.05,78.65,0)" xlink:href="#aQ"/></g><g id="E"><use transform="matrix(0.05,0,0,0.05,0,0)" xlink:href="#aK"/><use transform="matrix(0.05,0,0,0.05,6.550000000000001,0)" xlink:href="#aC"/><use transform="matrix(0.05,0,0,0.05,16.35,0)" xlink:href="#aG"/><use transform="matrix(0.05,0,0,0.05,25.35,0)" xlink:href="#aL"/><use transform="matrix(0.05,0,0,0.05,35.050000000000004,0)" xlink:href="#aE"/></g><g id="F"><use transform="matrix(0.05,0,0,0.05,0,0)" xlink:href="#ax"/><use transform="matrix(0.05,0,0,0.05,10.05,0)" xlink:href="#aA"/><use transform="matrix(0.05,0,0,0.05,20.55,0)" xlink:href="#ax"/></g><path fill="#3a414a" d="M131-81C94-61 21-56 21-118v-72h32c4 39-16 99 29 99 19 0 33-5 49-8v-91h31V0h-31v-81" id="aR"/><g id="G"><use transform="matrix(0.05,0,0,0.05,0,0)" xlink:href="#aF"/><use transform="matrix(0.05,0,0,0.05,8.25,0)" xlink:href="#aE"/><use transform="matrix(0.05,0,0,0.05,18.25,0)" xlink:href="#aw"/><use transform="matrix(0.05,0,0,0.05,28.75,0)" xlink:href="#aE"/><use transform="matrix(0.05,0,0,0.05,38.35,0)" xlink:href="#aR"/><use transform="matrix(0.05,0,0,0.05,47.7,0)" xlink:href="#aE"/></g><g id="H"><use transform="matrix(0.05,0,0,0.05,0,0)" xlink:href="#aL"/><use transform="matrix(0.05,0,0,0.05,9.700000000000001,0)" xlink:href="#au"/></g><g id="I"><use transform="matrix(0.05,0,0,0.05,0,0)" xlink:href="#at"/><use transform="matrix(0.05,0,0,0.05,7.8500000000000005,0)" xlink:href="#aC"/><use transform="matrix(0.05,0,0,0.05,17.85,0)" xlink:href="#ax"/><use transform="matrix(0.05,0,0,0.05,27.900000000000002,0)" xlink:href="#ay"/><use transform="matrix(0.05,0,0,0.05,35.900000000000006,0)" xlink:href="#az"/><use transform="matrix(0.05,0,0,0.05,45.900000000000006,0)" xlink:href="#aC"/><use transform="matrix(0.05,0,0,0.05,55.900000000000006,0)" xlink:href="#ax"/><use transform="matrix(0.05,0,0,0.05,65.95,0)" xlink:href="#ax"/></g><g id="J"><use transform="matrix(0.05,0,0,0.05,0,0)" xlink:href="#aB"/><use transform="matrix(0.05,0,0,0.05,12.9,0)" xlink:href="#au"/><use transform="matrix(0.05,0,0,0.05,22.5,0)" xlink:href="#aA"/><use transform="matrix(0.05,0,0,0.05,33,0)" xlink:href="#aG"/><use transform="matrix(0.05,0,0,0.05,42,0)" xlink:href="#aR"/><use transform="matrix(0.05,0,0,0.05,51.35,0)" xlink:href="#aE"/><use transform="matrix(0.05,0,0,0.05,61.35,0)" xlink:href="#av"/><use transform="matrix(0.05,0,0,0.05,70.7,0)" xlink:href="#aE"/><use transform="matrix(0.05,0,0,0.05,80.7,0)" xlink:href="#aH"/><use transform="matrix(0.05,0,0,0.05,90.60000000000001,0)" xlink:href="#az"/></g><use transform="matrix(0.05,0,0,0.05,0,0)" xlink:href="#aJ" id="K"/><g id="L"><use transform="matrix(0.05,0,0,0.05,0,0)" xlink:href="#aI"/><use transform="matrix(0.05,0,0,0.05,12.350000000000001,0)" xlink:href="#au"/><use transform="matrix(0.05,0,0,0.05,21.950000000000003,0)" xlink:href="#aw"/><use transform="matrix(0.05,0,0,0.05,32.45,0)" xlink:href="#az"/><use transform="matrix(0.05,0,0,0.05,41.85,0)" xlink:href="#aA"/><use transform="matrix(0.05,0,0,0.05,52.35,0)" xlink:href="#aE"/></g><g id="M"><use transform="matrix(0.05,0,0,0.05,0,0)" xlink:href="#aF"/><use transform="matrix(0.05,0,0,0.05,8.25,0)" xlink:href="#aE"/></g><g id="N"><use transform="matrix(0.05,0,0,0.05,0,0)" xlink:href="#ax"/><use transform="matrix(0.05,0,0,0.05,10.05,0)" xlink:href="#aF"/><use transform="matrix(0.05,0,0,0.05,18.3,0)" xlink:href="#aK"/><use transform="matrix(0.05,0,0,0.05,24.450000000000003,0)" xlink:href="#aA"/><use transform="matrix(0.05,0,0,0.05,34.95,0)" xlink:href="#az"/><use transform="matrix(0.05,0,0,0.05,44.550000000000004,0)" xlink:href="#aw"/></g><path fill="#3a414a" d="M20-138c-1-64 85-51 150-52V0h-32v-81H94L39 0H3l60-83c-28-5-43-24-43-55zm33 3c0 40 46 33 85 33v-66c-39 0-85-6-85 33" id="aS"/><g id="O"><use transform="matrix(0.05,0,0,0.05,0,0)" xlink:href="#aF"/><use transform="matrix(0.05,0,0,0.05,8.25,0)" xlink:href="#aE"/><use transform="matrix(0.05,0,0,0.05,18.25,0)" xlink:href="#aS"/><use transform="matrix(0.05,0,0,0.05,27.950000000000003,0)" xlink:href="#av"/><use transform="matrix(0.05,0,0,0.05,37.5,0)" xlink:href="#at"/><use transform="matrix(0.05,0,0,0.05,45.75,0)" xlink:href="#aE"/></g><g id="P"><use transform="matrix(0.05,0,0,0.05,0,0)" xlink:href="#aL"/><use transform="matrix(0.05,0,0,0.05,9.700000000000001,0)" xlink:href="#au"/></g><path fill="#3a414a" d="M160-131c35 5 61 23 61 61C221 17 115-2 30 0v-248c76 3 177-17 177 60 0 33-19 50-47 57zm-97-11c50-1 110 9 110-42 0-47-63-36-110-37v79zm0 115c55-2 124 14 124-45 0-56-70-42-124-44v89" id="aT"/><g id="Q"><use transform="matrix(0.05,0,0,0.05,0,0)" xlink:href="#aT"/><use transform="matrix(0.05,0,0,0.05,12,0)" xlink:href="#aC"/><use transform="matrix(0.05,0,0,0.05,22,0)" xlink:href="#as"/><use transform="matrix(0.05,0,0,0.05,33.25,0)" xlink:href="#aM"/><use transform="matrix(0.05,0,0,0.05,48.05,0)" xlink:href="#aE"/><use transform="matrix(0.05,0,0,0.05,58.04999999999999,0)" xlink:href="#aH"/><use transform="matrix(0.05,0,0,0.05,67.95,0)" xlink:href="#az"/></g><g id="R"><use transform="matrix(0.05,0,0,0.05,0,0)" xlink:href="#ax"/><use transform="matrix(0.05,0,0,0.05,10.05,0)" xlink:href="#aJ"/><use transform="matrix(0.05,0,0,0.05,19.05,0)" xlink:href="#at"/><use transform="matrix(0.05,0,0,0.05,27.3,0)" xlink:href="#aE"/><use transform="matrix(0.05,0,0,0.05,37.3,0)" xlink:href="#aH"/><use transform="matrix(0.05,0,0,0.05,47.199999999999996,0)" xlink:href="#ax"/><use transform="matrix(0.05,0,0,0.05,57.25,0)" xlink:href="#ay"/><use transform="matrix(0.05,0,0,0.05,65.25,0)" xlink:href="#az"/></g><g id="S"><use transform="matrix(0.05,0,0,0.05,0,0)" xlink:href="#aw"/><use transform="matrix(0.05,0,0,0.05,10.5,0)" xlink:href="#aE"/><use transform="matrix(0.05,0,0,0.05,20.5,0)" xlink:href="#aH"/><use transform="matrix(0.05,0,0,0.05,30.399999999999995,0)" xlink:href="#aH"/><use transform="matrix(0.05,0,0,0.05,40.3,0)" xlink:href="#ax"/><use transform="matrix(0.05,0,0,0.05,50.349999999999994,0)" xlink:href="#ay"/><use transform="matrix(0.05,0,0,0.05,58.349999999999994,0)" xlink:href="#az"/></g><g id="T"><use transform="matrix(0.05,0,0,0.05,0,0)" xlink:href="#at"/><use transform="matrix(0.05,0,0,0.05,7.8500000000000005,0)" xlink:href="#as"/><use transform="matrix(0.05,0,0,0.05,19.1,0)" xlink:href="#aI"/></g><g id="U"><use transform="matrix(0.05,0,0,0.05,0,0)" xlink:href="#aD"/><use transform="matrix(0.05,0,0,0.05,9.9,0)" xlink:href="#aE"/><use transform="matrix(0.05,0,0,0.05,19.700000000000003,0)" xlink:href="#aF"/><use transform="matrix(0.05,0,0,0.05,27.950000000000003,0)" xlink:href="#ax"/></g><g id="V"><use transform="matrix(0.05,0,0,0.05,0,0)" xlink:href="#aw"/><use transform="matrix(0.05,0,0,0.05,10.5,0)" xlink:href="#aE"/><use transform="matrix(0.05,0,0,0.05,20.5,0)" xlink:href="#aH"/><use transform="matrix(0.05,0,0,0.05,30.399999999999995,0)" xlink:href="#aH"/><use transform="matrix(0.05,0,0,0.05,40.3,0)" xlink:href="#ax"/></g></defs></g></svg>