<svg xmlns="http://www.w3.org/2000/svg" xmlns:xlink="http://www.w3.org/1999/xlink" xmlns:lucid="lucid" width="2361" height="1075"><g transform="translate(-71 -130)" lucid:page-tab-id="0_0"><path d="M0 0h2478.73v2113.1H0z" fill="#fff"/><path d="M453.15 76a8 8 0 0 1 8-8h836.75a8 8 0 0 1 8 8v25.16a8 8 0 0 1-8 8H461.15a8 8 0 0 1-8-8z" stroke="#000" stroke-opacity="0" stroke-width="2" fill="#fff" fill-opacity="0"/><use xlink:href="#a" transform="matrix(1,0,0,1,457.1465527853429,71.99999999994924) translate(219.71061728395063 25.782777777777778)"/><use xlink:href="#b" transform="matrix(1,0,0,1,457.1465527853429,71.99999999994924) translate(296.84765432098766 25.782777777777778)"/><use xlink:href="#c" transform="matrix(1,0,0,1,457.1465527853429,71.99999999994924) translate(405.9612345679012 25.782777777777778)"/><use xlink:href="#d" transform="matrix(1,0,0,1,457.1465527853429,71.99999999994924) translate(465.54395061728394 25.782777777777778)"/><use xlink:href="#e" transform="matrix(1,0,0,1,457.1465527853429,71.99999999994924) translate(528.9143209876543 25.782777777777778)"/><path d="M453.15 117.16a8 8 0 0 1 8-8h837.7a8 8 0 0 1 8 8V120a8 8 0 0 1-8 8h-837.7a8 8 0 0 1-8-8z" stroke="#000" stroke-opacity="0" stroke-width="2" fill="#fff" fill-opacity="0"/><use xlink:href="#f" transform="matrix(1,0,0,1,457.1465527853434,113.15522395684805) translate(270.5852057613169 14.917037037037037)"/><use xlink:href="#g" transform="matrix(1,0,0,1,457.1465527853434,113.15522395684805) translate(310.6530041152264 14.917037037037037)"/><use xlink:href="#h" transform="matrix(1,0,0,1,457.1465527853434,113.15522395684805) translate(383.4803703703704 14.917037037037037)"/><use xlink:href="#i" transform="matrix(1,0,0,1,457.1465527853434,113.15522395684805) translate(463.44600823045266 14.917037037037037)"/><use xlink:href="#j" transform="matrix(1,0,0,1,457.1465527853434,113.15522395684805) translate(475.8954938271605 14.917037037037037)"/><use xlink:href="#k" transform="matrix(1,0,0,1,457.1465527853434,113.15522395684805) translate(522.5491975308641 14.917037037037037)"/><use xlink:href="#l" transform="matrix(1,0,0,1,457.1465527853434,113.15522395684805) translate(548.043024691358 14.917037037037037)"/><path d="M1548.5 163.22A44.52 44.52 0 0 0 1564 166h838.32a8 8 0 0 1 8 8v978a8 8 0 0 1-8 8H108a8 8 0 0 1-8-8V148a8 8 0 0 1 8-8h1370a44.52 44.52 0 0 1 15.5 2.78zM100 166h1456" stroke="#333" fill="#fff"/><use xlink:href="#m" transform="matrix(1,0,0,1,108,140) translate(647.2 16.599999999999998)"/><use xlink:href="#n" transform="matrix(1,0,0,1,112,174) translate(1105.55 492.59999999999997)"/><path d="M1533.86 233.1a42.73 42.73 0 0 0 15.46 2.9h813a8 8 0 0 1 8 8v868a8 8 0 0 1-8 8h-2224a8 8 0 0 1-8-8V218a8 8 0 0 1 8-8h1328a42.73 42.73 0 0 1 15.46 2.9zM130.32 236h1411" stroke="#333" fill="#fff"/><use xlink:href="#o" transform="matrix(1,0,0,1,138.31860158311338,210) translate(636.225 16.599999999999998)"/><path d="M451 299.07a13.85 13.85 0 0 0 12 6.93h169a8 8 0 0 1 8 8v418a8 8 0 0 1-8 8H148a8 8 0 0 1-8-8V288a8 8 0 0 1 8-8h284a13.85 13.85 0 0 1 12 6.93zM140 306h315" stroke="#333" fill="#fff"/><use xlink:href="#p" transform="matrix(1,0,0,1,148,280) translate(119.05000000000001 16.599999999999998)"/><path d="M160 328a8 8 0 0 1 8-8h124a8 8 0 0 1 8 8v104a8 8 0 0 1-8 8H168a8 8 0 0 1-8-8z" stroke="#333" fill="#fff"/><use xlink:href="#q" transform="matrix(1,0,0,1,165,325) translate(38.05000000000001 59.08749999999999)"/><path d="M320 328a8 8 0 0 1 8-8h124a8 8 0 0 1 8 8v104a8 8 0 0 1-8 8H328a8 8 0 0 1-8-8z" stroke="#333" fill="#fff"/><use xlink:href="#r" transform="matrix(1,0,0,1,325,325) translate(39.050000000000004 59.08749999999999)"/><path d="M480 328a8 8 0 0 1 8-8h124a8 8 0 0 1 8 8v104a8 8 0 0 1-8 8H488a8 8 0 0 1-8-8z" stroke="#333" fill="#fff"/><use xlink:href="#s" transform="matrix(1,0,0,1,485,325) translate(37.57500000000001 59.08749999999999)"/><path d="M160 468a8 8 0 0 1 8-8h124a8 8 0 0 1 8 8v104a8 8 0 0 1-8 8H168a8 8 0 0 1-8-8z" stroke="#333" fill="#fff"/><use xlink:href="#t" transform="matrix(1,0,0,1,165,465) translate(49.525000000000006 59.08749999999999)"/><path d="M320 468a8 8 0 0 1 8-8h124a8 8 0 0 1 8 8v104a8 8 0 0 1-8 8H328a8 8 0 0 1-8-8z" stroke="#333" fill="#fff"/><use xlink:href="#u" transform="matrix(1,0,0,1,325,465) translate(21.025000000000013 48.77499999999999)"/><use xlink:href="#v" transform="matrix(1,0,0,1,325,465) translate(6.625000000000007 70.37499999999999)"/><path d="M480 468a8 8 0 0 1 8-8h124a8 8 0 0 1 8 8v104a8 8 0 0 1-8 8H488a8 8 0 0 1-8-8z" stroke="#333" fill="#fff"/><use xlink:href="#w" transform="matrix(1,0,0,1,485,465) translate(27.525000000000006 48.77499999999999)"/><use xlink:href="#x" transform="matrix(1,0,0,1,485,465) translate(2.6750000000000185 70.37499999999999)"/><path d="M160 608a8 8 0 0 1 8-8h124a8 8 0 0 1 8 8v104a8 8 0 0 1-8 8H168a8 8 0 0 1-8-8z" stroke="#333" fill="#fff"/><use xlink:href="#y" transform="matrix(1,0,0,1,165,605) translate(43.00000000000001 59.08749999999999)"/><path d="M991 299.07a13.85 13.85 0 0 0 12 6.93h169a8 8 0 0 1 8 8v418a8 8 0 0 1-8 8H688a8 8 0 0 1-8-8V288a8 8 0 0 1 8-8h284a13.85 13.85 0 0 1 12 6.93zM680 306h315" stroke="#333" fill="#fff"/><use xlink:href="#z" transform="matrix(1,0,0,1,688,280) translate(119.525 16.599999999999998)"/><path d="M700 328a8 8 0 0 1 8-8h124a8 8 0 0 1 8 8v104a8 8 0 0 1-8 8H708a8 8 0 0 1-8-8z" stroke="#333" fill="#fff"/><use xlink:href="#A" transform="matrix(1,0,0,1,705,325) translate(19.55000000000001 48.77499999999999)"/><use xlink:href="#B" transform="matrix(1,0,0,1,705,325) translate(30.55000000000001 70.37499999999999)"/><path d="M1020 328a8 8 0 0 1 8-8h124a8 8 0 0 1 8 8v104a8 8 0 0 1-8 8h-124a8 8 0 0 1-8-8z" stroke="#333" fill="#fff"/><use xlink:href="#q" transform="matrix(1,0,0,1,1025,325) translate(38.05000000000001 59.08749999999999)"/><path d="M860 328a8 8 0 0 1 8-8h124a8 8 0 0 1 8 8v104a8 8 0 0 1-8 8H868a8 8 0 0 1-8-8z" stroke="#333" fill="#fff"/><use xlink:href="#A" transform="matrix(1,0,0,1,865,325) translate(19.55000000000001 48.77499999999999)"/><use xlink:href="#C" transform="matrix(1,0,0,1,865,325) translate(36.57500000000002 70.37499999999999)"/><path d="M1020 468a8 8 0 0 1 8-8h124a8 8 0 0 1 8 8v104a8 8 0 0 1-8 8h-124a8 8 0 0 1-8-8z" stroke="#333" fill="#fff"/><use xlink:href="#t" transform="matrix(1,0,0,1,1025.0000000000002,465) translate(49.525000000000006 59.08749999999999)"/><path d="M860 468a8 8 0 0 1 8-8h124a8 8 0 0 1 8 8v104a8 8 0 0 1-8 8H868a8 8 0 0 1-8-8z" stroke="#333" fill="#fff"/><use xlink:href="#s" transform="matrix(1,0,0,1,865.0000000000001,465) translate(37.57500000000001 59.08749999999999)"/><path d="M700 468a8 8 0 0 1 8-8h124a8 8 0 0 1 8 8v104a8 8 0 0 1-8 8H708a8 8 0 0 1-8-8z" stroke="#333" fill="#fff"/><use xlink:href="#r" transform="matrix(1,0,0,1,705,465) translate(39.050000000000004 59.08749999999999)"/><path d="M700 608a8 8 0 0 1 8-8h124a8 8 0 0 1 8 8v104a8 8 0 0 1-8 8H708a8 8 0 0 1-8-8z" stroke="#333" fill="#fff"/><use xlink:href="#y" transform="matrix(1,0,0,1,704.9999999999999,605) translate(43.00000000000001 59.08749999999999)"/><path d="M1531 299.07a13.85 13.85 0 0 0 12 6.93h169a8 8 0 0 1 8 8v418a8 8 0 0 1-8 8h-484a8 8 0 0 1-8-8V288a8 8 0 0 1 8-8h284a13.85 13.85 0 0 1 12 6.93zM1220 306h315" stroke="#333" fill="#fff"/><use xlink:href="#D" transform="matrix(1,0,0,1,1228,280) translate(113.025 16.599999999999998)"/><path d="M1240 328a8 8 0 0 1 8-8h124a8 8 0 0 1 8 8v104a8 8 0 0 1-8 8h-124a8 8 0 0 1-8-8z" stroke="#333" fill="#fff"/><use xlink:href="#E" transform="matrix(1,0,0,1,1245,325) translate(19.07500000000001 48.77499999999999)"/><use xlink:href="#B" transform="matrix(1,0,0,1,1245,325) translate(30.55000000000001 70.37499999999999)"/><path d="M1560 328a8 8 0 0 1 8-8h124a8 8 0 0 1 8 8v104a8 8 0 0 1-8 8h-124a8 8 0 0 1-8-8z" stroke="#333" fill="#fff"/><use xlink:href="#r" transform="matrix(1,0,0,1,1565,325) translate(39.050000000000004 59.08749999999999)"/><path d="M1400 328a8 8 0 0 1 8-8h124a8 8 0 0 1 8 8v104a8 8 0 0 1-8 8h-124a8 8 0 0 1-8-8z" stroke="#333" fill="#fff"/><use xlink:href="#q" transform="matrix(1,0,0,1,1405,325) translate(38.05000000000001 59.08749999999999)"/><path d="M1240 608a8 8 0 0 1 8-8h124a8 8 0 0 1 8 8v104a8 8 0 0 1-8 8h-124a8 8 0 0 1-8-8z" stroke="#333" fill="#fff"/><use xlink:href="#F" transform="matrix(1,0,0,1,1245,605) translate(12.600000000000016 48.77499999999999)"/><use xlink:href="#G" transform="matrix(1,0,0,1,1245,605) translate(19.100000000000016 70.37499999999999)"/><path d="M1240 468a8 8 0 0 1 8-8h124a8 8 0 0 1 8 8v104a8 8 0 0 1-8 8h-124a8 8 0 0 1-8-8z" stroke="#333" fill="#fff"/><use xlink:href="#s" transform="matrix(1,0,0,1,1245,465) translate(37.57500000000001 59.08749999999999)"/><path d="M1400 468a8 8 0 0 1 8-8h124a8 8 0 0 1 8 8v104a8 8 0 0 1-8 8h-124a8 8 0 0 1-8-8z" stroke="#333" fill="#fff"/><use xlink:href="#t" transform="matrix(1,0,0,1,1405,465) translate(49.525000000000006 59.08749999999999)"/><path d="M1560 468a8 8 0 0 1 8-8h124a8 8 0 0 1 8 8v104a8 8 0 0 1-8 8h-124a8 8 0 0 1-8-8z" stroke="#333" fill="#fff"/><use xlink:href="#y" transform="matrix(1,0,0,1,1565,465) translate(43.00000000000001 59.08749999999999)"/><path d="M2071 299.07a13.85 13.85 0 0 0 12 6.93h169a8 8 0 0 1 8 8v418a8 8 0 0 1-8 8h-484a8 8 0 0 1-8-8V288a8 8 0 0 1 8-8h284a13.85 13.85 0 0 1 12 6.93zM1760 306h315" stroke="#333" fill="#fff"/><use xlink:href="#H" transform="matrix(1,0,0,1,1768,280) translate(105.5 16.599999999999998)"/><path d="M1940 608a8 8 0 0 1 8-8h124a8 8 0 0 1 8 8v104a8 8 0 0 1-8 8h-124a8 8 0 0 1-8-8z" stroke="#333" fill="#fff"/><use xlink:href="#I" transform="matrix(1,0,0,1,1945,605) translate(2.07500000000001 59.08749999999999)"/><path d="M1780 608a8 8 0 0 1 8-8h124a8 8 0 0 1 8 8v104a8 8 0 0 1-8 8h-124a8 8 0 0 1-8-8z" stroke="#333" fill="#fff"/><use xlink:href="#J" transform="matrix(1,0,0,1,1785,605) translate(31.57500000000001 48.77499999999999)"/><use xlink:href="#K" transform="matrix(1,0,0,1,1785,605) translate(14.125000000000014 70.37499999999999)"/><path d="M1780 468a8 8 0 0 1 8-8h124a8 8 0 0 1 8 8v104a8 8 0 0 1-8 8h-124a8 8 0 0 1-8-8z" stroke="#333" fill="#fff"/><use xlink:href="#L" transform="matrix(1,0,0,1,1785,465) translate(-0.8749999999999858 47.8)"/><use xlink:href="#K" transform="matrix(1,0,0,1,1785,465) translate(14.125000000000014 69.39999999999999)"/><path d="M1780 328a8 8 0 0 1 8-8h124a8 8 0 0 1 8 8v104a8 8 0 0 1-8 8h-124a8 8 0 0 1-8-8z" stroke="#333" fill="#fff"/><use xlink:href="#M" transform="matrix(1,0,0,1,1785,325) translate(27.05000000000001 59.08749999999999)"/><path d="M2100 328a8 8 0 0 1 8-8h124a8 8 0 0 1 8 8v104a8 8 0 0 1-8 8h-124a8 8 0 0 1-8-8z" stroke="#333" fill="#fff"/><use xlink:href="#N" transform="matrix(1,0,0,1,2105,325) translate(39.050000000000004 48.77499999999999)"/><use xlink:href="#O" transform="matrix(1,0,0,1,2105,325) translate(25.55000000000001 70.37499999999999)"/><path d="M1940 328a8 8 0 0 1 8-8h124a8 8 0 0 1 8 8v104a8 8 0 0 1-8 8h-124a8 8 0 0 1-8-8z" stroke="#333" fill="#fff"/><use xlink:href="#P" transform="matrix(1,0,0,1,1945,325) translate(42.57500000000001 48.77499999999999)"/><use xlink:href="#K" transform="matrix(1,0,0,1,1945,325) translate(14.125000000000014 70.37499999999999)"/><path d="M1940 468a8 8 0 0 1 8-8h124a8 8 0 0 1 8 8v104a8 8 0 0 1-8 8h-124a8 8 0 0 1-8-8z" stroke="#333" fill="#fff"/><g><use xlink:href="#Q" transform="matrix(1,0,0,1,1944.9999999999998,465) translate(43.025000000000006 59.08749999999999)"/></g><path d="M2100 608a8 8 0 0 1 8-8h124a8 8 0 0 1 8 8v104a8 8 0 0 1-8 8h-124a8 8 0 0 1-8-8z" stroke="#333" fill="#fff"/><g><use xlink:href="#R" transform="matrix(1,0,0,1,2105,605) translate(-0.42499999999998295 47.8)"/><use xlink:href="#K" transform="matrix(1,0,0,1,2105,605) translate(14.125000000000014 69.39999999999999)"/></g><path d="M2100 468a8 8 0 0 1 8-8h124a8 8 0 0 1 8 8v104a8 8 0 0 1-8 8h-124a8 8 0 0 1-8-8z" stroke="#333" fill="#fff"/><g><use xlink:href="#S" transform="matrix(1,0,0,1,2105,465) translate(31.57500000000001 59.08749999999999)"/></g><path d="M301.65 798.35A10.83 10.83 0 0 0 312 806h80a8 8 0 0 1 8 8v278a8 8 0 0 1-8 8H148a8 8 0 0 1-8-8V788a8 8 0 0 1 8-8h140a10.83 10.83 0 0 1 10.35 7.65zM140 806h164" stroke="#333" fill="#fff"/><g><use xlink:href="#T" transform="matrix(1,0,0,1,148,780) translate(42.05000000000001 16.599999999999998)"/></g><path d="M200 828a8 8 0 0 1 8-8h124a8 8 0 0 1 8 8v104a8 8 0 0 1-8 8H208a8 8 0 0 1-8-8z" stroke="#333" fill="#fff"/><g><use xlink:href="#y" transform="matrix(1,0,0,1,205,825) translate(43.00000000000001 59.08749999999999)"/></g><path d="M200 968a8 8 0 0 1 8-8h124a8 8 0 0 1 8 8v104a8 8 0 0 1-8 8H208a8 8 0 0 1-8-8z" stroke="#333" fill="#fff"/><g><use xlink:href="#U" transform="matrix(1,0,0,1,205,965) translate(35.550000000000004 59.08749999999999)"/></g><path d="M907.88 778.63A12.07 12.07 0 0 0 919 786h119.85a8 8 0 0 1 8 8v278a8 8 0 0 1-8 8H688a8 8 0 0 1-8-8V768a8 8 0 0 1 8-8h204a12.07 12.07 0 0 1 11.12 7.37zM680 786h231" stroke="#333" fill="#fff"/><g><use xlink:href="#V" transform="matrix(1,0,0,1,688,760) translate(69.525 16.599999999999998)"/></g><path d="M700 808a8 8 0 0 1 8-8h124a8 8 0 0 1 8 8v104a8 8 0 0 1-8 8H708a8 8 0 0 1-8-8z" stroke="#333" fill="#fff"/><g><use xlink:href="#W" transform="matrix(1,0,0,1,704.9999999999999,805) translate(33.00000000000001 59.08749999999999)"/></g><path d="M700 948a8 8 0 0 1 8-8h124a8 8 0 0 1 8 8v104a8 8 0 0 1-8 8H708a8 8 0 0 1-8-8z" stroke="#333" fill="#fff"/><g><use xlink:href="#X" transform="matrix(1,0,0,1,704.9999999999999,945) translate(45.075 59.08749999999999)"/></g><path d="M880 808a8 8 0 0 1 8-8h124a8 8 0 0 1 8 8v104a8 8 0 0 1-8 8H888a8 8 0 0 1-8-8z" stroke="#333" fill="#fff"/><g><use xlink:href="#Y" transform="matrix(1,0,0,1,885,805) translate(21.250000000000007 48.77499999999999)"/><use xlink:href="#Z" transform="matrix(1,0,0,1,885,805) translate(16.625000000000007 70.37499999999999)"/></g><defs><path fill="#a9afb8" d="M67-125c0 53 21 87 73 88 37 1 54-22 65-47l45 17C233-25 199 4 140 4 58 4 20-42 15-125 8-235 124-281 211-232c18 10 29 29 36 50l-46 12c-8-25-30-41-62-41-52 0-71 34-72 86" id="aa"/><path fill="#a9afb8" d="M25 0v-261h50V0H25" id="ab"/><path fill="#a9afb8" d="M133-34C117-15 103 5 69 4 32 3 11-16 11-54c-1-60 55-63 116-61 1-26-3-47-28-47-18 1-26 9-28 27l-52-2c7-38 36-58 82-57s74 22 75 68l1 82c-1 14 12 18 25 15v27c-30 8-71 5-69-32zm-48 3c29 0 43-24 42-57-32 0-66-3-65 30 0 17 8 27 23 27" id="ac"/><path fill="#a9afb8" d="M137-138c1-29-70-34-71-4 15 46 118 7 119 86 1 83-164 76-172 9l43-7c4 19 20 25 44 25 33 8 57-30 24-41C81-84 22-81 20-136c-2-80 154-74 161-7" id="ad"/><g id="a"><use transform="matrix(0.0728395061728395,0,0,0.0728395061728395,0,0)" xlink:href="#aa"/><use transform="matrix(0.0728395061728395,0,0,0.0728395061728395,18.86543209876543,0)" xlink:href="#ab"/><use transform="matrix(0.0728395061728395,0,0,0.0728395061728395,26.14938271604938,0)" xlink:href="#ac"/><use transform="matrix(0.0728395061728395,0,0,0.0728395061728395,40.717283950617286,0)" xlink:href="#ad"/><use transform="matrix(0.0728395061728395,0,0,0.0728395061728395,55.28518518518518,0)" xlink:href="#ad"/></g><path fill="#a9afb8" d="M88-194c31-1 46 15 58 34l-1-101h50l1 261h-48c-2-10 0-23-3-31C134-8 116 4 84 4 32 4 16-41 15-95c0-56 19-97 73-99zm17 164c33 0 40-30 41-66 1-37-9-64-41-64s-38 30-39 65c0 43 13 65 39 65" id="ae"/><path fill="#a9afb8" d="M25-224v-37h50v37H25zM25 0v-190h50V0H25" id="af"/><path fill="#a9afb8" d="M195-6C206 82 75 100 31 46c-4-6-6-13-8-21l49-6c3 16 16 24 34 25 40 0 42-37 40-79-11 22-30 35-61 35-53 0-70-43-70-97 0-56 18-96 73-97 30 0 46 14 59 34l2-30h47zm-90-29c32 0 41-27 41-63 0-35-9-62-40-62-32 0-39 29-40 63 0 36 9 62 39 62" id="ag"/><path fill="#a9afb8" d="M135-150c-39-12-60 13-60 57V0H25l-1-190h47c2 13-1 29 3 40 6-28 27-53 61-41v41" id="ah"/><path fill="#a9afb8" d="M220-157c-53 9-28 100-34 157h-49v-107c1-27-5-49-29-50C55-147 81-57 75 0H25l-1-190h47c2 12-1 28 3 38 10-53 101-56 108 0 13-22 24-43 59-42 82 1 51 116 57 194h-49v-107c-1-25-5-48-29-50" id="ai"/><g id="b"><use transform="matrix(0.0728395061728395,0,0,0.0728395061728395,0,0)" xlink:href="#ae"/><use transform="matrix(0.0728395061728395,0,0,0.0728395061728395,15.95185185185185,0)" xlink:href="#af"/><use transform="matrix(0.0728395061728395,0,0,0.0728395061728395,23.235802469135802,0)" xlink:href="#ac"/><use transform="matrix(0.0728395061728395,0,0,0.0728395061728395,37.803703703703704,0)" xlink:href="#ag"/><use transform="matrix(0.0728395061728395,0,0,0.0728395061728395,53.75555555555555,0)" xlink:href="#ah"/><use transform="matrix(0.0728395061728395,0,0,0.0728395061728395,63.953086419753085,0)" xlink:href="#ac"/><use transform="matrix(0.0728395061728395,0,0,0.0728395061728395,78.52098765432099,0)" xlink:href="#ai"/></g><path fill="#a9afb8" d="M231 0h-52l-39-155L100 0H48L-1-190h46L77-45c9-52 24-97 36-145h53l37 145 32-145h46" id="aj"/><path fill="#a9afb8" d="M115-3C79 11 28 4 28-45v-112H4v-33h27l15-45h31v45h36v33H77v99c-1 23 16 31 38 25v30" id="ak"/><path fill="#a9afb8" d="M114-157C55-157 80-60 75 0H25v-261h50l-1 109c12-26 28-41 61-42 86-1 58 113 63 194h-50c-7-57 23-157-34-157" id="al"/><g id="c"><use transform="matrix(0.0728395061728395,0,0,0.0728395061728395,0,0)" xlink:href="#aj"/><use transform="matrix(0.0728395061728395,0,0,0.0728395061728395,20.39506172839506,0)" xlink:href="#af"/><use transform="matrix(0.0728395061728395,0,0,0.0728395061728395,27.67901234567901,0)" xlink:href="#ak"/><use transform="matrix(0.0728395061728395,0,0,0.0728395061728395,36.34691358024691,0)" xlink:href="#al"/></g><path fill="#a9afb8" d="M238-95c0 69-44 99-111 99C63 4 22-25 22-93v-155h51v151c-1 38 19 59 55 60 90 1 49-130 58-211h52v153" id="am"/><path fill="#a9afb8" d="M230 0l2-204L168 0h-37L68-204 70 0H24v-248h70l56 185 57-185h69V0h-46" id="an"/><path fill="#a9afb8" d="M24 0v-248h52v208h133V0H24" id="ao"/><g id="d"><use transform="matrix(0.0728395061728395,0,0,0.0728395061728395,0,0)" xlink:href="#am"/><use transform="matrix(0.0728395061728395,0,0,0.0728395061728395,18.86543209876543,0)" xlink:href="#an"/><use transform="matrix(0.0728395061728395,0,0,0.0728395061728395,40.644444444444446,0)" xlink:href="#ao"/></g><path fill="#a9afb8" d="M135-194c87-1 58 113 63 194h-50c-7-57 23-157-34-157-59 0-34 97-39 157H25l-1-190h47c2 12-1 28 3 38 12-26 28-41 61-42" id="ap"/><path fill="#a9afb8" d="M110-194c64 0 96 36 96 99 0 64-35 99-97 99-61 0-95-36-95-99 0-62 34-99 96-99zm-1 164c35 0 45-28 45-65 0-40-10-65-43-65-34 0-45 26-45 65 0 36 10 65 43 65" id="aq"/><g id="e"><use transform="matrix(0.0728395061728395,0,0,0.0728395061728395,0,0)" xlink:href="#ap"/><use transform="matrix(0.0728395061728395,0,0,0.0728395061728395,15.95185185185185,0)" xlink:href="#aq"/><use transform="matrix(0.0728395061728395,0,0,0.0728395061728395,31.9037037037037,0)" xlink:href="#ak"/><use transform="matrix(0.0728395061728395,0,0,0.0728395061728395,40.571604938271605,0)" xlink:href="#ac"/><use transform="matrix(0.0728395061728395,0,0,0.0728395061728395,55.1395061728395,0)" xlink:href="#ak"/><use transform="matrix(0.0728395061728395,0,0,0.0728395061728395,63.8074074074074,0)" xlink:href="#af"/><use transform="matrix(0.0728395061728395,0,0,0.0728395061728395,71.09135802469136,0)" xlink:href="#aq"/><use transform="matrix(0.0728395061728395,0,0,0.0728395061728395,87.0432098765432,0)" xlink:href="#ap"/></g><path fill="#a9afb8" d="M30 0v-248h30L58-37l132-211h39V0h-30l1-209L70 0H30" id="ar"/><path fill="#a9afb8" d="M176-55C176 11 93 0 25 0v-190c61 3 142-15 144 47 1 29-21 35-39 44 27 3 46 16 46 44zm-34 0c0-41-47-30-85-32v64c38-1 85 8 85-32zm-6-83c0-36-44-26-79-28v56c34-2 79 8 79-28" id="as"/><path fill="#a9afb8" d="M141-36C126-15 110 5 73 4 37 3 15-17 15-53c-1-64 63-63 125-63 3-35-9-54-41-54-24 1-41 7-42 31l-33-3c5-37 33-52 76-52 45 0 72 20 72 64v82c-1 20 7 32 28 27v20c-31 9-61-2-59-35zM48-53c0 20 12 33 32 33 41-3 63-29 60-74-43 2-92-5-92 41" id="at"/><path fill="#a9afb8" d="M57-190v80h85v-80h32V0h-32v-87H57V0H25v-190h32" id="au"/><g id="f"><use transform="matrix(0.04248971193415638,0,0,0.04248971193415638,0,0)" xlink:href="#ar"/><use transform="matrix(0.04248971193415638,0,0,0.04248971193415638,10.962345679012346,0)" xlink:href="#as"/><use transform="matrix(0.04248971193415638,0,0,0.04248971193415638,18.90792181069959,0)" xlink:href="#at"/><use transform="matrix(0.04248971193415638,0,0,0.04248971193415638,27.405864197530867,0)" xlink:href="#au"/></g><path fill="#a9afb8" d="M197 0v-115H63V0H30v-248h33v105h134v-105h34V0h-34" id="av"/><path fill="#a9afb8" d="M56-190L54-37l88-153h34V0h-30l2-153L59 0H25v-190h31" id="aw"/><path fill="#a9afb8" d="M75-87c-4 1-14 3-19 3V0H24v-190h32v83c26-2 31-21 43-41l26-42h33l-61 86L159 0h-35" id="ax"/><path fill="#a9afb8" d="M100-194c62-1 85 37 85 99 1 63-27 99-86 99S16-35 15-95c0-66 28-99 85-99zM99-20c44 1 53-31 53-75 0-43-8-75-51-75s-53 32-53 75 10 74 51 75" id="ay"/><path fill="#a9afb8" d="M153 0v-167H87C74-108 81-27 38 0 29 5 12 6 2 1v-22c51 4 39-64 49-112 5-25 4-25 8-57h126V0h-32" id="az"/><path fill="#a9afb8" d="M100-194c63 0 86 42 84 106H49c0 40 14 67 53 68 26 1 43-12 49-29l28 8c-11 28-37 45-77 45C44 4 14-33 15-96c1-61 26-98 85-98zm52 81c6-60-76-77-97-28-3 7-6 17-6 28h103" id="aA"/><g id="g"><use transform="matrix(0.04248971193415638,0,0,0.04248971193415638,0,0)" xlink:href="#av"/><use transform="matrix(0.04248971193415638,0,0,0.04248971193415638,11.004835390946502,0)" xlink:href="#aw"/><use transform="matrix(0.04248971193415638,0,0,0.04248971193415638,19.545267489711932,0)" xlink:href="#ax"/><use transform="matrix(0.04248971193415638,0,0,0.04248971193415638,26.38611111111111,0)" xlink:href="#ay"/><use transform="matrix(0.04248971193415638,0,0,0.04248971193415638,34.544135802469135,0)" xlink:href="#az"/><use transform="matrix(0.04248971193415638,0,0,0.04248971193415638,43.46697530864198,0)" xlink:href="#at"/><use transform="matrix(0.04248971193415638,0,0,0.04248971193415638,51.96491769547326,0)" xlink:href="#aA"/><use transform="matrix(0.04248971193415638,0,0,0.04248971193415638,60.46286008230453,0)" xlink:href="#as"/></g><path fill="#a9afb8" d="M240 0l2-218c-23 76-54 145-80 218h-23L58-218 59 0H30v-248h44l77 211c21-75 51-140 76-211h43V0h-30" id="aB"/><path fill="#a9afb8" d="M141 0L90-78 38 0H4l68-98-65-92h35l48 74 47-74h35l-64 92 68 98h-35" id="aC"/><path fill="#a9afb8" d="M165-267c8 67-110 75-125 20-2-7-4-13-4-20h29c1 23 13 35 36 35s34-13 36-35h28zM56-190L54-37l88-153h34V0h-30l2-153L59 0H25v-190h31" id="aD"/><g id="h"><use transform="matrix(0.04248971193415638,0,0,0.04248971193415638,0,0)" xlink:href="#aB"/><use transform="matrix(0.04248971193415638,0,0,0.04248971193415638,12.704423868312757,0)" xlink:href="#aw"/><use transform="matrix(0.04248971193415638,0,0,0.04248971193415638,21.244855967078188,0)" xlink:href="#aC"/><use transform="matrix(0.04248971193415638,0,0,0.04248971193415638,28.72304526748971,0)" xlink:href="#at"/><use transform="matrix(0.04248971193415638,0,0,0.04248971193415638,37.220987654320986,0)" xlink:href="#aD"/><use transform="matrix(0.04248971193415638,0,0,0.04248971193415638,45.761419753086415,0)" xlink:href="#az"/><use transform="matrix(0.04248971193415638,0,0,0.04248971193415638,54.85421810699587,0)" xlink:href="#ay"/><use transform="matrix(0.04248971193415638,0,0,0.04248971193415638,63.35216049382715,0)" xlink:href="#as"/></g><path fill="#a9afb8" d="M32 76v-337h29V76H32" id="aE"/><use transform="matrix(0.04248971193415638,0,0,0.04248971193415638,0,0)" xlink:href="#aE" id="i"/><path fill="#a9afb8" d="M240 0l2-218c-23 76-54 145-80 218h-23L58-218 59 0H30v-248h44l77 211c21-75 51-140 76-211h43V0h-30" id="aF"/><path fill="#a9afb8" d="M141-36C126-15 110 5 73 4 37 3 15-17 15-53c-1-64 63-63 125-63 3-35-9-54-41-54-24 1-41 7-42 31l-33-3c5-37 33-52 76-52 45 0 72 20 72 64v82c-1 20 7 32 28 27v20c-31 9-61-2-59-35zM48-53c0 20 12 33 32 33 41-3 63-29 60-74-43 2-92-5-92 41" id="aG"/><path fill="#a9afb8" d="M114-163C36-179 61-72 57 0H25l-1-190h30c1 12-1 29 2 39 6-27 23-49 58-41v29" id="aH"/><path fill="#a9afb8" d="M96-169c-40 0-48 33-48 73s9 75 48 75c24 0 41-14 43-38l32 2c-6 37-31 61-74 61-59 0-76-41-82-99-10-93 101-131 147-64 4 7 5 14 7 22l-32 3c-4-21-16-35-41-35" id="aI"/><path fill="#a9afb8" d="M106-169C34-169 62-67 57 0H25v-261h32l-1 103c12-21 28-36 61-36 89 0 53 116 60 194h-32v-121c2-32-8-49-39-48" id="aJ"/><g id="j"><use transform="matrix(0.04248971193415638,0,0,0.04248971193415638,0,0)" xlink:href="#aF"/><use transform="matrix(0.04248971193415638,0,0,0.04248971193415638,12.704423868312757,0)" xlink:href="#aG"/><use transform="matrix(0.04248971193415638,0,0,0.04248971193415638,21.20236625514403,0)" xlink:href="#aH"/><use transform="matrix(0.04248971193415638,0,0,0.04248971193415638,26.25864197530864,0)" xlink:href="#aI"/><use transform="matrix(0.04248971193415638,0,0,0.04248971193415638,33.90679012345679,0)" xlink:href="#aJ"/></g><path fill="#a9afb8" d="M101-251c82-7 93 87 43 132L82-64C71-53 59-42 53-27h129V0H18c2-99 128-94 128-182 0-28-16-43-45-43s-46 15-49 41l-32-3c6-41 34-60 81-64" id="aK"/><path fill="#a9afb8" d="M99-251c64 0 84 50 84 122C183-37 130 33 47-8c-14-7-20-23-25-40l30-5c6 39 69 39 84 7 9-19 16-44 16-74-10 22-31 35-62 35-49 0-73-33-73-83 0-54 28-83 82-83zm-1 141c31-1 51-18 51-49 0-36-14-67-51-67-34 0-49 23-49 58 0 34 15 58 49 58" id="aL"/><path fill="#a9afb8" d="M68-38c1 34 0 65-14 84H32c9-13 17-26 17-46H33v-38h35" id="aM"/><g id="k"><use transform="matrix(0.04248971193415638,0,0,0.04248971193415638,0,0)" xlink:href="#aK"/><use transform="matrix(0.04248971193415638,0,0,0.04248971193415638,8.497942386831275,0)" xlink:href="#aL"/><use transform="matrix(0.04248971193415638,0,0,0.04248971193415638,16.99588477366255,0)" xlink:href="#aM"/></g><path fill="#a9afb8" d="M101-251c68 0 85 55 85 127S166 4 100 4C33 4 14-52 14-124c0-73 17-127 87-127zm-1 229c47 0 54-49 54-102s-4-102-53-102c-51 0-55 48-55 102 0 53 5 102 54 102" id="aN"/><path fill="#a9afb8" d="M155-56V0h-30v-56H8v-25l114-167h33v167h35v25h-35zm-30-156c-27 46-58 90-88 131h88v-131" id="aO"/><g id="l"><use transform="matrix(0.04248971193415638,0,0,0.04248971193415638,0,0)" xlink:href="#aK"/><use transform="matrix(0.04248971193415638,0,0,0.04248971193415638,8.497942386831275,0)" xlink:href="#aN"/><use transform="matrix(0.04248971193415638,0,0,0.04248971193415638,16.99588477366255,0)" xlink:href="#aK"/><use transform="matrix(0.04248971193415638,0,0,0.04248971193415638,25.493827160493822,0)" xlink:href="#aO"/></g><path d="M266 0h-40l-56-210L115 0H75L2-248h35L96-30l15-64 43-154h32l59 218 59-218h35" id="aP"/><path d="M100-194c63 0 86 42 84 106H49c0 40 14 67 53 68 26 1 43-12 49-29l28 8c-11 28-37 45-77 45C44 4 14-33 15-96c1-61 26-98 85-98zm52 81c6-60-76-77-97-28-3 7-6 17-6 28h103" id="aQ"/><path d="M115-194c53 0 69 39 70 98 0 66-23 100-70 100C84 3 66-7 56-30L54 0H23l1-261h32v101c10-23 28-34 59-34zm-8 174c40 0 45-34 45-75 0-40-5-75-45-74-42 0-51 32-51 76 0 43 10 73 51 73" id="aR"/><path d="M205 0l-28-72H64L36 0H1l101-248h38L239 0h-34zm-38-99l-47-123c-12 45-31 82-46 123h93" id="aS"/><path d="M115-194c55 1 70 41 70 98S169 2 115 4C84 4 66-9 55-30l1 105H24l-1-265h31l2 30c10-21 28-34 59-34zm-8 174c40 0 45-34 45-75s-6-73-45-74c-42 0-51 32-51 76 0 43 10 73 51 73" id="aT"/><g id="m"><use transform="matrix(0.04999999999999998,0,0,0.04999999999999998,0,0)" xlink:href="#aP"/><use transform="matrix(0.04999999999999998,0,0,0.04999999999999998,16.59999999999999,0)" xlink:href="#aQ"/><use transform="matrix(0.04999999999999998,0,0,0.04999999999999998,26.599999999999984,0)" xlink:href="#aR"/><use transform="matrix(0.04999999999999998,0,0,0.04999999999999998,36.59999999999998,0)" xlink:href="#aS"/><use transform="matrix(0.04999999999999998,0,0,0.04999999999999998,48.59999999999998,0)" xlink:href="#aT"/><use transform="matrix(0.04999999999999998,0,0,0.04999999999999998,58.59999999999998,0)" xlink:href="#aT"/></g><path d="M59-47c-2 24 18 29 38 22v24C64 9 27 4 27-40v-127H5v-23h24l9-43h21v43h35v23H59v120" id="aU"/><path d="M114-163C36-179 61-72 57 0H25l-1-190h30c1 12-1 29 2 39 6-27 23-49 58-41v29" id="aV"/><path d="M24-231v-30h32v30H24zM24 0v-190h32V0H24" id="aW"/><path d="M84 4C-5 8 30-112 23-190h32v120c0 31 7 50 39 49 72-2 45-101 50-169h31l1 190h-30c-1-10 1-25-2-33-11 22-28 36-60 37" id="aX"/><path d="M135-143c-3-34-86-38-87 0 15 53 115 12 119 90S17 21 10-45l28-5c4 36 97 45 98 0-10-56-113-15-118-90-4-57 82-63 122-42 12 7 21 19 24 35" id="aY"/><g id="n"><use transform="matrix(0.04999999999999998,0,0,0.04999999999999998,0,0)" xlink:href="#aS"/><use transform="matrix(0.04999999999999998,0,0,0.04999999999999998,11.999999999999996,0)" xlink:href="#aU"/><use transform="matrix(0.04999999999999998,0,0,0.04999999999999998,16.999999999999993,0)" xlink:href="#aU"/><use transform="matrix(0.04999999999999998,0,0,0.04999999999999998,21.999999999999993,0)" xlink:href="#aV"/><use transform="matrix(0.04999999999999998,0,0,0.04999999999999998,27.94999999999999,0)" xlink:href="#aW"/><use transform="matrix(0.04999999999999998,0,0,0.04999999999999998,31.899999999999988,0)" xlink:href="#aR"/><use transform="matrix(0.04999999999999998,0,0,0.04999999999999998,41.899999999999984,0)" xlink:href="#aX"/><use transform="matrix(0.04999999999999998,0,0,0.04999999999999998,51.899999999999984,0)" xlink:href="#aU"/><use transform="matrix(0.04999999999999998,0,0,0.04999999999999998,56.89999999999998,0)" xlink:href="#aQ"/><use transform="matrix(0.04999999999999998,0,0,0.04999999999999998,66.89999999999998,0)" xlink:href="#aY"/></g><path d="M137 0h-34L2-248h35l83 218 83-218h36" id="aZ"/><path d="M206 0h-36l-40-164L89 0H53L-1-190h32L70-26l43-164h34l41 164 42-164h31" id="ba"/><g id="o"><use transform="matrix(0.04999999999999998,0,0,0.04999999999999998,0,0)" xlink:href="#aZ"/><use transform="matrix(0.04999999999999998,0,0,0.04999999999999998,11.649999999999997,0)" xlink:href="#aW"/><use transform="matrix(0.04999999999999998,0,0,0.04999999999999998,15.599999999999994,0)" xlink:href="#aQ"/><use transform="matrix(0.04999999999999998,0,0,0.04999999999999998,25.59999999999999,0)" xlink:href="#ba"/><use transform="matrix(0.04999999999999998,0,0,0.04999999999999998,38.54999999999998,0)" xlink:href="#aY"/></g><path d="M232-93c-1 65-40 97-104 97C67 4 28-28 28-90v-158h33c8 89-33 224 67 224 102 0 64-133 71-224h33v155" id="bb"/><g id="p"><use transform="matrix(0.04999999999999998,0,0,0.04999999999999998,0,0)" xlink:href="#bb"/><use transform="matrix(0.04999999999999998,0,0,0.04999999999999998,12.949999999999996,0)" xlink:href="#aY"/><use transform="matrix(0.04999999999999998,0,0,0.04999999999999998,21.949999999999992,0)" xlink:href="#aQ"/><use transform="matrix(0.04999999999999998,0,0,0.04999999999999998,31.94999999999999,0)" xlink:href="#aV"/></g><path d="M212-179c-10-28-35-45-73-45-59 0-87 40-87 99 0 60 29 101 89 101 43 0 62-24 78-52l27 14C228-24 195 4 139 4 59 4 22-46 18-125c-6-104 99-153 187-111 19 9 31 26 39 46" id="bc"/><path d="M141-36C126-15 110 5 73 4 37 3 15-17 15-53c-1-64 63-63 125-63 3-35-9-54-41-54-24 1-41 7-42 31l-33-3c5-37 33-52 76-52 45 0 72 20 72 64v82c-1 20 7 32 28 27v20c-31 9-61-2-59-35zM48-53c0 20 12 33 32 33 41-3 63-29 60-74-43 2-92-5-92 41" id="bd"/><g id="q"><use transform="matrix(0.04999999999999998,0,0,0.04999999999999998,0,0)" xlink:href="#bc"/><use transform="matrix(0.04999999999999998,0,0,0.04999999999999998,12.949999999999996,0)" xlink:href="#aV"/><use transform="matrix(0.04999999999999998,0,0,0.04999999999999998,18.89999999999999,0)" xlink:href="#aQ"/><use transform="matrix(0.04999999999999998,0,0,0.04999999999999998,28.899999999999988,0)" xlink:href="#bd"/><use transform="matrix(0.04999999999999998,0,0,0.04999999999999998,38.899999999999984,0)" xlink:href="#aU"/><use transform="matrix(0.04999999999999998,0,0,0.04999999999999998,43.899999999999984,0)" xlink:href="#aQ"/></g><path d="M30-248c118-7 216 8 213 122C240-48 200 0 122 0H30v-248zM63-27c89 8 146-16 146-99s-60-101-146-95v194" id="be"/><path d="M24 0v-261h32V0H24" id="bf"/><g id="r"><use transform="matrix(0.04999999999999998,0,0,0.04999999999999998,0,0)" xlink:href="#be"/><use transform="matrix(0.04999999999999998,0,0,0.04999999999999998,12.949999999999996,0)" xlink:href="#aQ"/><use transform="matrix(0.04999999999999998,0,0,0.04999999999999998,22.949999999999992,0)" xlink:href="#bf"/><use transform="matrix(0.04999999999999998,0,0,0.04999999999999998,26.89999999999999,0)" xlink:href="#aQ"/><use transform="matrix(0.04999999999999998,0,0,0.04999999999999998,36.89999999999999,0)" xlink:href="#aU"/><use transform="matrix(0.04999999999999998,0,0,0.04999999999999998,41.89999999999999,0)" xlink:href="#aQ"/></g><g id="s"><use transform="matrix(0.04999999999999998,0,0,0.04999999999999998,0,0)" xlink:href="#be"/><use transform="matrix(0.04999999999999998,0,0,0.04999999999999998,12.949999999999996,0)" xlink:href="#aQ"/><use transform="matrix(0.04999999999999998,0,0,0.04999999999999998,22.949999999999992,0)" xlink:href="#aU"/><use transform="matrix(0.04999999999999998,0,0,0.04999999999999998,27.94999999999999,0)" xlink:href="#bd"/><use transform="matrix(0.04999999999999998,0,0,0.04999999999999998,37.94999999999999,0)" xlink:href="#aW"/><use transform="matrix(0.04999999999999998,0,0,0.04999999999999998,41.899999999999984,0)" xlink:href="#bf"/><use transform="matrix(0.04999999999999998,0,0,0.04999999999999998,45.84999999999998,0)" xlink:href="#aY"/></g><path d="M30 0v-248h187v28H63v79h144v27H63v87h162V0H30" id="bg"/><path d="M85-194c31 0 48 13 60 33l-1-100h32l1 261h-30c-2-10 0-23-3-31C134-8 116 4 85 4 32 4 16-35 15-94c0-66 23-100 70-100zm9 24c-40 0-46 34-46 75 0 40 6 74 45 74 42 0 51-32 51-76 0-42-9-74-50-73" id="bh"/><g id="t"><use transform="matrix(0.04999999999999998,0,0,0.04999999999999998,0,0)" xlink:href="#bg"/><use transform="matrix(0.04999999999999998,0,0,0.04999999999999998,11.999999999999996,0)" xlink:href="#bh"/><use transform="matrix(0.04999999999999998,0,0,0.04999999999999998,21.999999999999993,0)" xlink:href="#aW"/><use transform="matrix(0.04999999999999998,0,0,0.04999999999999998,25.949999999999992,0)" xlink:href="#aU"/></g><path d="M143 4C61 4 22-44 18-125c-5-107 100-154 193-111 17 8 29 25 37 43l-32 9c-13-25-37-40-76-40-61 0-88 39-88 99 0 61 29 100 91 101 35 0 62-11 79-27v-45h-74v-28h105v86C228-13 192 4 143 4" id="bi"/><path d="M100-194c62-1 85 37 85 99 1 63-27 99-86 99S16-35 15-95c0-66 28-99 85-99zM99-20c44 1 53-31 53-75 0-43-8-75-51-75s-53 32-53 75 10 74 51 75" id="bj"/><g id="u"><use transform="matrix(0.04999999999999998,0,0,0.04999999999999998,0,0)" xlink:href="#bi"/><use transform="matrix(0.04999999999999998,0,0,0.04999999999999998,13.999999999999995,0)" xlink:href="#aQ"/><use transform="matrix(0.04999999999999998,0,0,0.04999999999999998,23.999999999999993,0)" xlink:href="#aU"/><use transform="matrix(0.04999999999999998,0,0,0.04999999999999998,28.999999999999996,0)" xlink:href="#bi"/><use transform="matrix(0.04999999999999998,0,0,0.04999999999999998,42.999999999999986,0)" xlink:href="#aV"/><use transform="matrix(0.04999999999999998,0,0,0.04999999999999998,48.94999999999998,0)" xlink:href="#bj"/><use transform="matrix(0.04999999999999998,0,0,0.04999999999999998,58.94999999999998,0)" xlink:href="#aX"/><use transform="matrix(0.04999999999999998,0,0,0.04999999999999998,68.94999999999997,0)" xlink:href="#aT"/><use transform="matrix(0.04999999999999998,0,0,0.04999999999999998,78.94999999999997,0)" xlink:href="#aY"/></g><path d="M140-251c81 0 123 46 123 126C263-46 219 4 140 4 59 4 17-45 17-125s42-126 123-126zm0 227c63 0 89-41 89-101s-29-99-89-99c-61 0-89 39-89 99S79-25 140-24" id="bk"/><path d="M101-234c-31-9-42 10-38 44h38v23H63V0H32v-167H5v-23h27c-7-52 17-82 69-68v24" id="bl"/><path d="M117-194c89-4 53 116 60 194h-32v-121c0-31-8-49-39-48C34-167 62-67 57 0H25l-1-190h30c1 10-1 24 2 32 11-22 29-35 61-36" id="bm"/><g id="v"><use transform="matrix(0.04999999999999998,0,0,0.04999999999999998,0,0)" xlink:href="#bk"/><use transform="matrix(0.04999999999999998,0,0,0.04999999999999998,13.999999999999995,0)" xlink:href="#bl"/><use transform="matrix(0.04999999999999998,0,0,0.04999999999999998,18.999999999999993,0)" xlink:href="#bc"/><use transform="matrix(0.04999999999999998,0,0,0.04999999999999998,31.94999999999999,0)" xlink:href="#aX"/><use transform="matrix(0.04999999999999998,0,0,0.04999999999999998,41.94999999999999,0)" xlink:href="#aV"/><use transform="matrix(0.04999999999999998,0,0,0.04999999999999998,47.899999999999984,0)" xlink:href="#aV"/><use transform="matrix(0.04999999999999998,0,0,0.04999999999999998,53.84999999999998,0)" xlink:href="#aQ"/><use transform="matrix(0.04999999999999998,0,0,0.04999999999999998,63.84999999999998,0)" xlink:href="#bm"/><use transform="matrix(0.04999999999999998,0,0,0.04999999999999998,73.84999999999998,0)" xlink:href="#aU"/><use transform="matrix(0.04999999999999998,0,0,0.04999999999999998,78.84999999999998,0)" xlink:href="#bb"/><use transform="matrix(0.04999999999999998,0,0,0.04999999999999998,91.79999999999998,0)" xlink:href="#aY"/><use transform="matrix(0.04999999999999998,0,0,0.04999999999999998,100.79999999999998,0)" xlink:href="#aQ"/><use transform="matrix(0.04999999999999998,0,0,0.04999999999999998,110.79999999999998,0)" xlink:href="#aV"/></g><path d="M127-220V0H93v-220H8v-28h204v28h-85" id="bn"/><path d="M143 0L79-87 56-68V0H24v-261h32v163l83-92h37l-77 82L181 0h-38" id="bo"/><g id="w"><use transform="matrix(0.04999999999999998,0,0,0.04999999999999998,0,0)" xlink:href="#bi"/><use transform="matrix(0.04999999999999998,0,0,0.04999999999999998,13.999999999999995,0)" xlink:href="#aQ"/><use transform="matrix(0.04999999999999998,0,0,0.04999999999999998,23.999999999999993,0)" xlink:href="#aU"/><use transform="matrix(0.04999999999999998,0,0,0.04999999999999998,28.999999999999996,0)" xlink:href="#bn"/><use transform="matrix(0.04999999999999998,0,0,0.04999999999999998,37.94999999999999,0)" xlink:href="#bd"/><use transform="matrix(0.04999999999999998,0,0,0.04999999999999998,47.94999999999999,0)" xlink:href="#aY"/><use transform="matrix(0.04999999999999998,0,0,0.04999999999999998,56.94999999999999,0)" xlink:href="#bo"/><use transform="matrix(0.04999999999999998,0,0,0.04999999999999998,65.94999999999999,0)" xlink:href="#aY"/></g><path d="M63-220v92h138v28H63V0H30v-248h175v28H63" id="bp"/><g id="x"><use transform="matrix(0.04999999999999998,0,0,0.04999999999999998,0,0)" xlink:href="#bp"/><use transform="matrix(0.04999999999999998,0,0,0.04999999999999998,10.949999999999996,0)" xlink:href="#bj"/><use transform="matrix(0.04999999999999998,0,0,0.04999999999999998,20.949999999999992,0)" xlink:href="#aV"/><use transform="matrix(0.04999999999999998,0,0,0.04999999999999998,26.89999999999999,0)" xlink:href="#bc"/><use transform="matrix(0.04999999999999998,0,0,0.04999999999999998,39.84999999999999,0)" xlink:href="#aX"/><use transform="matrix(0.04999999999999998,0,0,0.04999999999999998,49.84999999999998,0)" xlink:href="#aV"/><use transform="matrix(0.04999999999999998,0,0,0.04999999999999998,55.79999999999998,0)" xlink:href="#aV"/><use transform="matrix(0.04999999999999998,0,0,0.04999999999999998,61.749999999999964,0)" xlink:href="#aQ"/><use transform="matrix(0.04999999999999998,0,0,0.04999999999999998,71.74999999999997,0)" xlink:href="#bm"/><use transform="matrix(0.04999999999999998,0,0,0.04999999999999998,81.74999999999997,0)" xlink:href="#aU"/><use transform="matrix(0.04999999999999998,0,0,0.04999999999999998,86.74999999999997,0)" xlink:href="#bb"/><use transform="matrix(0.04999999999999998,0,0,0.04999999999999998,99.69999999999996,0)" xlink:href="#aY"/><use transform="matrix(0.04999999999999998,0,0,0.04999999999999998,108.69999999999996,0)" xlink:href="#aQ"/><use transform="matrix(0.04999999999999998,0,0,0.04999999999999998,118.69999999999996,0)" xlink:href="#aV"/></g><path d="M33 0v-248h34V0H33" id="bq"/><path d="M141 0L90-78 38 0H4l68-98-65-92h35l48 74 47-74h35l-64 92 68 98h-35" id="br"/><g id="y"><use transform="matrix(0.04999999999999998,0,0,0.04999999999999998,0,0)" xlink:href="#bq"/><use transform="matrix(0.04999999999999998,0,0,0.04999999999999998,4.999999999999998,0)" xlink:href="#bm"/><use transform="matrix(0.04999999999999998,0,0,0.04999999999999998,14.999999999999995,0)" xlink:href="#bh"/><use transform="matrix(0.04999999999999998,0,0,0.04999999999999998,24.999999999999993,0)" xlink:href="#aQ"/><use transform="matrix(0.04999999999999998,0,0,0.04999999999999998,34.999999999999986,0)" xlink:href="#br"/></g><g id="z"><use transform="matrix(0.04999999999999998,0,0,0.04999999999999998,0,0)" xlink:href="#bn"/><use transform="matrix(0.04999999999999998,0,0,0.04999999999999998,8.949999999999996,0)" xlink:href="#bd"/><use transform="matrix(0.04999999999999998,0,0,0.04999999999999998,18.949999999999992,0)" xlink:href="#aY"/><use transform="matrix(0.04999999999999998,0,0,0.04999999999999998,27.94999999999999,0)" xlink:href="#bo"/></g><path d="M177-190C167-65 218 103 67 71c-23-6-38-20-44-43l32-5c15 47 100 32 89-28v-30C133-14 115 1 83 1 29 1 15-40 15-95c0-56 16-97 71-98 29-1 48 16 59 35 1-10 0-23 2-32h30zM94-22c36 0 50-32 50-73 0-42-14-75-50-75-39 0-46 34-46 75s6 73 46 73" id="bs"/><g id="A"><use transform="matrix(0.04999999999999998,0,0,0.04999999999999998,0,0)" xlink:href="#aS"/><use transform="matrix(0.04999999999999998,0,0,0.04999999999999998,11.999999999999996,0)" xlink:href="#aY"/><use transform="matrix(0.04999999999999998,0,0,0.04999999999999998,20.999999999999993,0)" xlink:href="#aY"/><use transform="matrix(0.04999999999999998,0,0,0.04999999999999998,29.99999999999999,0)" xlink:href="#aW"/><use transform="matrix(0.04999999999999998,0,0,0.04999999999999998,33.94999999999999,0)" xlink:href="#bs"/><use transform="matrix(0.04999999999999998,0,0,0.04999999999999998,43.94999999999999,0)" xlink:href="#bm"/><use transform="matrix(0.04999999999999998,0,0,0.04999999999999998,53.94999999999999,0)" xlink:href="#bn"/><use transform="matrix(0.04999999999999998,0,0,0.04999999999999998,62.89999999999999,0)" xlink:href="#bd"/><use transform="matrix(0.04999999999999998,0,0,0.04999999999999998,72.89999999999998,0)" xlink:href="#aY"/><use transform="matrix(0.04999999999999998,0,0,0.04999999999999998,81.89999999999998,0)" xlink:href="#bo"/></g><g id="B"><use transform="matrix(0.04999999999999998,0,0,0.04999999999999998,0,0)" xlink:href="#bn"/><use transform="matrix(0.04999999999999998,0,0,0.04999999999999998,8.949999999999996,0)" xlink:href="#bj"/><use transform="matrix(0.04999999999999998,0,0,0.04999999999999998,18.949999999999992,0)" xlink:href="#bi"/><use transform="matrix(0.04999999999999998,0,0,0.04999999999999998,32.94999999999999,0)" xlink:href="#aV"/><use transform="matrix(0.04999999999999998,0,0,0.04999999999999998,38.899999999999984,0)" xlink:href="#bj"/><use transform="matrix(0.04999999999999998,0,0,0.04999999999999998,48.89999999999998,0)" xlink:href="#aX"/><use transform="matrix(0.04999999999999998,0,0,0.04999999999999998,58.89999999999998,0)" xlink:href="#aT"/></g><g id="C"><use transform="matrix(0.04999999999999998,0,0,0.04999999999999998,0,0)" xlink:href="#bn"/><use transform="matrix(0.04999999999999998,0,0,0.04999999999999998,8.949999999999996,0)" xlink:href="#bj"/><use transform="matrix(0.04999999999999998,0,0,0.04999999999999998,18.949999999999992,0)" xlink:href="#bb"/><use transform="matrix(0.04999999999999998,0,0,0.04999999999999998,31.899999999999988,0)" xlink:href="#aY"/><use transform="matrix(0.04999999999999998,0,0,0.04999999999999998,40.899999999999984,0)" xlink:href="#aQ"/><use transform="matrix(0.04999999999999998,0,0,0.04999999999999998,50.89999999999998,0)" xlink:href="#aV"/></g><g id="D"><use transform="matrix(0.04999999999999998,0,0,0.04999999999999998,0,0)" xlink:href="#bi"/><use transform="matrix(0.04999999999999998,0,0,0.04999999999999998,13.999999999999995,0)" xlink:href="#aV"/><use transform="matrix(0.04999999999999998,0,0,0.04999999999999998,19.949999999999992,0)" xlink:href="#bj"/><use transform="matrix(0.04999999999999998,0,0,0.04999999999999998,29.94999999999999,0)" xlink:href="#aX"/><use transform="matrix(0.04999999999999998,0,0,0.04999999999999998,39.94999999999999,0)" xlink:href="#aT"/></g><g id="E"><use transform="matrix(0.04999999999999998,0,0,0.04999999999999998,0,0)" xlink:href="#aS"/><use transform="matrix(0.04999999999999998,0,0,0.04999999999999998,11.999999999999996,0)" xlink:href="#aY"/><use transform="matrix(0.04999999999999998,0,0,0.04999999999999998,20.999999999999993,0)" xlink:href="#aY"/><use transform="matrix(0.04999999999999998,0,0,0.04999999999999998,29.99999999999999,0)" xlink:href="#aW"/><use transform="matrix(0.04999999999999998,0,0,0.04999999999999998,33.94999999999999,0)" xlink:href="#bs"/><use transform="matrix(0.04999999999999998,0,0,0.04999999999999998,43.94999999999999,0)" xlink:href="#bm"/><use transform="matrix(0.04999999999999998,0,0,0.04999999999999998,53.94999999999999,0)" xlink:href="#bb"/><use transform="matrix(0.04999999999999998,0,0,0.04999999999999998,66.89999999999998,0)" xlink:href="#aY"/><use transform="matrix(0.04999999999999998,0,0,0.04999999999999998,75.89999999999998,0)" xlink:href="#aQ"/><use transform="matrix(0.04999999999999998,0,0,0.04999999999999998,85.89999999999998,0)" xlink:href="#aV"/></g><path d="M233-177c-1 41-23 64-60 70L243 0h-38l-65-103H63V0H30v-248c88 3 205-21 203 71zM63-129c60-2 137 13 137-47 0-61-80-42-137-45v92" id="bt"/><path d="M210-169c-67 3-38 105-44 169h-31v-121c0-29-5-50-35-48C34-165 62-65 56 0H25l-1-190h30c1 10-1 24 2 32 10-44 99-50 107 0 11-21 27-35 58-36 85-2 47 119 55 194h-31v-121c0-29-5-49-35-48" id="bu"/><path d="M108 0H70L1-190h34L89-25l56-165h34" id="bv"/><g id="F"><use transform="matrix(0.04999999999999998,0,0,0.04999999999999998,0,0)" xlink:href="#bt"/><use transform="matrix(0.04999999999999998,0,0,0.04999999999999998,12.949999999999996,0)" xlink:href="#aQ"/><use transform="matrix(0.04999999999999998,0,0,0.04999999999999998,22.949999999999992,0)" xlink:href="#bu"/><use transform="matrix(0.04999999999999998,0,0,0.04999999999999998,37.899999999999984,0)" xlink:href="#bj"/><use transform="matrix(0.04999999999999998,0,0,0.04999999999999998,47.89999999999998,0)" xlink:href="#bv"/><use transform="matrix(0.04999999999999998,0,0,0.04999999999999998,56.89999999999998,0)" xlink:href="#aQ"/><use transform="matrix(0.04999999999999998,0,0,0.04999999999999998,66.89999999999998,0)" xlink:href="#bb"/><use transform="matrix(0.04999999999999998,0,0,0.04999999999999998,79.84999999999997,0)" xlink:href="#aY"/><use transform="matrix(0.04999999999999998,0,0,0.04999999999999998,88.84999999999997,0)" xlink:href="#aQ"/><use transform="matrix(0.04999999999999998,0,0,0.04999999999999998,98.84999999999997,0)" xlink:href="#aV"/></g><g id="G"><use transform="matrix(0.04999999999999998,0,0,0.04999999999999998,0,0)" xlink:href="#bp"/><use transform="matrix(0.04999999999999998,0,0,0.04999999999999998,10.949999999999996,0)" xlink:href="#aV"/><use transform="matrix(0.04999999999999998,0,0,0.04999999999999998,16.89999999999999,0)" xlink:href="#bj"/><use transform="matrix(0.04999999999999998,0,0,0.04999999999999998,26.89999999999999,0)" xlink:href="#bu"/><use transform="matrix(0.04999999999999998,0,0,0.04999999999999998,41.84999999999998,0)" xlink:href="#bi"/><use transform="matrix(0.04999999999999998,0,0,0.04999999999999998,55.849999999999966,0)" xlink:href="#aV"/><use transform="matrix(0.04999999999999998,0,0,0.04999999999999998,61.79999999999997,0)" xlink:href="#bj"/><use transform="matrix(0.04999999999999998,0,0,0.04999999999999998,71.79999999999997,0)" xlink:href="#aX"/><use transform="matrix(0.04999999999999998,0,0,0.04999999999999998,81.79999999999997,0)" xlink:href="#aT"/></g><path d="M96-169c-40 0-48 33-48 73s9 75 48 75c24 0 41-14 43-38l32 2c-6 37-31 61-74 61-59 0-76-41-82-99-10-93 101-131 147-64 4 7 5 14 7 22l-32 3c-4-21-16-35-41-35" id="bw"/><g id="H"><use transform="matrix(0.04999999999999998,0,0,0.04999999999999998,0,0)" xlink:href="#aS"/><use transform="matrix(0.04999999999999998,0,0,0.04999999999999998,11.999999999999996,0)" xlink:href="#bw"/><use transform="matrix(0.04999999999999998,0,0,0.04999999999999998,20.999999999999993,0)" xlink:href="#bw"/><use transform="matrix(0.04999999999999998,0,0,0.04999999999999998,29.99999999999999,0)" xlink:href="#bj"/><use transform="matrix(0.04999999999999998,0,0,0.04999999999999998,39.999999999999986,0)" xlink:href="#aX"/><use transform="matrix(0.04999999999999998,0,0,0.04999999999999998,49.999999999999986,0)" xlink:href="#bm"/><use transform="matrix(0.04999999999999998,0,0,0.04999999999999998,59.99999999999999,0)" xlink:href="#aU"/></g><path d="M30-248c87 1 191-15 191 75 0 78-77 80-158 76V0H30v-248zm33 125c57 0 124 11 124-50 0-59-68-47-124-48v98" id="bx"/><g id="I"><use transform="matrix(0.04999999999999998,0,0,0.04999999999999998,0,0)" xlink:href="#bt"/><use transform="matrix(0.04999999999999998,0,0,0.04999999999999998,12.949999999999996,0)" xlink:href="#aQ"/><use transform="matrix(0.04999999999999998,0,0,0.04999999999999998,22.949999999999992,0)" xlink:href="#aY"/><use transform="matrix(0.04999999999999998,0,0,0.04999999999999998,31.94999999999999,0)" xlink:href="#aQ"/><use transform="matrix(0.04999999999999998,0,0,0.04999999999999998,41.94999999999999,0)" xlink:href="#aU"/><use transform="matrix(0.04999999999999998,0,0,0.04999999999999998,46.94999999999999,0)" xlink:href="#bx"/><use transform="matrix(0.04999999999999998,0,0,0.04999999999999998,58.94999999999999,0)" xlink:href="#bd"/><use transform="matrix(0.04999999999999998,0,0,0.04999999999999998,68.94999999999999,0)" xlink:href="#aY"/><use transform="matrix(0.04999999999999998,0,0,0.04999999999999998,77.94999999999999,0)" xlink:href="#aY"/><use transform="matrix(0.04999999999999998,0,0,0.04999999999999998,86.94999999999999,0)" xlink:href="#ba"/><use transform="matrix(0.04999999999999998,0,0,0.04999999999999998,99.89999999999998,0)" xlink:href="#bj"/><use transform="matrix(0.04999999999999998,0,0,0.04999999999999998,109.89999999999998,0)" xlink:href="#aV"/><use transform="matrix(0.04999999999999998,0,0,0.04999999999999998,115.84999999999998,0)" xlink:href="#bh"/></g><g id="J"><use transform="matrix(0.04999999999999998,0,0,0.04999999999999998,0,0)" xlink:href="#bt"/><use transform="matrix(0.04999999999999998,0,0,0.04999999999999998,12.949999999999996,0)" xlink:href="#aQ"/><use transform="matrix(0.04999999999999998,0,0,0.04999999999999998,22.949999999999992,0)" xlink:href="#bs"/><use transform="matrix(0.04999999999999998,0,0,0.04999999999999998,32.94999999999999,0)" xlink:href="#aW"/><use transform="matrix(0.04999999999999998,0,0,0.04999999999999998,36.899999999999984,0)" xlink:href="#aY"/><use transform="matrix(0.04999999999999998,0,0,0.04999999999999998,45.89999999999998,0)" xlink:href="#aU"/><use transform="matrix(0.04999999999999998,0,0,0.04999999999999998,50.89999999999998,0)" xlink:href="#aQ"/><use transform="matrix(0.04999999999999998,0,0,0.04999999999999998,60.89999999999998,0)" xlink:href="#aV"/></g><g id="K"><use transform="matrix(0.04999999999999998,0,0,0.04999999999999998,0,0)" xlink:href="#bc"/><use transform="matrix(0.04999999999999998,0,0,0.04999999999999998,12.949999999999996,0)" xlink:href="#bj"/><use transform="matrix(0.04999999999999998,0,0,0.04999999999999998,22.949999999999992,0)" xlink:href="#bm"/><use transform="matrix(0.04999999999999998,0,0,0.04999999999999998,32.94999999999999,0)" xlink:href="#bl"/><use transform="matrix(0.04999999999999998,0,0,0.04999999999999998,37.94999999999999,0)" xlink:href="#aW"/><use transform="matrix(0.04999999999999998,0,0,0.04999999999999998,41.899999999999984,0)" xlink:href="#aV"/><use transform="matrix(0.04999999999999998,0,0,0.04999999999999998,47.84999999999998,0)" xlink:href="#bu"/><use transform="matrix(0.04999999999999998,0,0,0.04999999999999998,62.799999999999976,0)" xlink:href="#bd"/><use transform="matrix(0.04999999999999998,0,0,0.04999999999999998,72.79999999999997,0)" xlink:href="#aU"/><use transform="matrix(0.04999999999999998,0,0,0.04999999999999998,77.79999999999997,0)" xlink:href="#aW"/><use transform="matrix(0.04999999999999998,0,0,0.04999999999999998,81.74999999999997,0)" xlink:href="#bj"/><use transform="matrix(0.04999999999999998,0,0,0.04999999999999998,91.74999999999997,0)" xlink:href="#bm"/></g><g id="L"><use transform="matrix(0.04999999999999998,0,0,0.04999999999999998,0,0)" xlink:href="#bp"/><use transform="matrix(0.04999999999999998,0,0,0.04999999999999998,10.949999999999996,0)" xlink:href="#bj"/><use transform="matrix(0.04999999999999998,0,0,0.04999999999999998,20.949999999999992,0)" xlink:href="#aV"/><use transform="matrix(0.04999999999999998,0,0,0.04999999999999998,26.89999999999999,0)" xlink:href="#bs"/><use transform="matrix(0.04999999999999998,0,0,0.04999999999999998,36.89999999999999,0)" xlink:href="#bj"/><use transform="matrix(0.04999999999999998,0,0,0.04999999999999998,46.89999999999999,0)" xlink:href="#aV"/><use transform="matrix(0.04999999999999998,0,0,0.04999999999999998,52.849999999999994,0)" xlink:href="#bx"/><use transform="matrix(0.04999999999999998,0,0,0.04999999999999998,64.84999999999998,0)" xlink:href="#bd"/><use transform="matrix(0.04999999999999998,0,0,0.04999999999999998,74.84999999999998,0)" xlink:href="#aY"/><use transform="matrix(0.04999999999999998,0,0,0.04999999999999998,83.84999999999998,0)" xlink:href="#aY"/><use transform="matrix(0.04999999999999998,0,0,0.04999999999999998,92.84999999999998,0)" xlink:href="#ba"/><use transform="matrix(0.04999999999999998,0,0,0.04999999999999998,105.79999999999998,0)" xlink:href="#bj"/><use transform="matrix(0.04999999999999998,0,0,0.04999999999999998,115.79999999999998,0)" xlink:href="#aV"/><use transform="matrix(0.04999999999999998,0,0,0.04999999999999998,121.74999999999999,0)" xlink:href="#bh"/></g><path d="M106-169C34-169 62-67 57 0H25v-261h32l-1 103c12-21 28-36 61-36 89 0 53 116 60 194h-32v-121c2-32-8-49-39-48" id="by"/><path d="M9 0v-24l116-142H16v-24h144v24L44-24h123V0H9" id="bz"/><g id="M"><use transform="matrix(0.04999999999999998,0,0,0.04999999999999998,0,0)" xlink:href="#aS"/><use transform="matrix(0.04999999999999998,0,0,0.04999999999999998,11.999999999999996,0)" xlink:href="#aX"/><use transform="matrix(0.04999999999999998,0,0,0.04999999999999998,21.999999999999993,0)" xlink:href="#aU"/><use transform="matrix(0.04999999999999998,0,0,0.04999999999999998,26.99999999999999,0)" xlink:href="#by"/><use transform="matrix(0.04999999999999998,0,0,0.04999999999999998,36.999999999999986,0)" xlink:href="#bj"/><use transform="matrix(0.04999999999999998,0,0,0.04999999999999998,46.999999999999986,0)" xlink:href="#aV"/><use transform="matrix(0.04999999999999998,0,0,0.04999999999999998,52.94999999999998,0)" xlink:href="#aW"/><use transform="matrix(0.04999999999999998,0,0,0.04999999999999998,56.89999999999998,0)" xlink:href="#bz"/><use transform="matrix(0.04999999999999998,0,0,0.04999999999999998,65.89999999999998,0)" xlink:href="#aQ"/></g><g id="N"><use transform="matrix(0.04999999999999998,0,0,0.04999999999999998,0,0)" xlink:href="#bp"/><use transform="matrix(0.04999999999999998,0,0,0.04999999999999998,10.949999999999996,0)" xlink:href="#bj"/><use transform="matrix(0.04999999999999998,0,0,0.04999999999999998,20.949999999999992,0)" xlink:href="#aV"/><use transform="matrix(0.04999999999999998,0,0,0.04999999999999998,26.89999999999999,0)" xlink:href="#bs"/><use transform="matrix(0.04999999999999998,0,0,0.04999999999999998,36.89999999999999,0)" xlink:href="#bj"/><use transform="matrix(0.04999999999999998,0,0,0.04999999999999998,46.89999999999999,0)" xlink:href="#aU"/></g><g id="O"><use transform="matrix(0.04999999999999998,0,0,0.04999999999999998,0,0)" xlink:href="#bx"/><use transform="matrix(0.04999999999999998,0,0,0.04999999999999998,11.999999999999996,0)" xlink:href="#bd"/><use transform="matrix(0.04999999999999998,0,0,0.04999999999999998,21.999999999999993,0)" xlink:href="#aY"/><use transform="matrix(0.04999999999999998,0,0,0.04999999999999998,30.99999999999999,0)" xlink:href="#aY"/><use transform="matrix(0.04999999999999998,0,0,0.04999999999999998,39.999999999999986,0)" xlink:href="#ba"/><use transform="matrix(0.04999999999999998,0,0,0.04999999999999998,52.94999999999998,0)" xlink:href="#bj"/><use transform="matrix(0.04999999999999998,0,0,0.04999999999999998,62.949999999999974,0)" xlink:href="#aV"/><use transform="matrix(0.04999999999999998,0,0,0.04999999999999998,68.89999999999998,0)" xlink:href="#bh"/></g><g id="P"><use transform="matrix(0.04999999999999998,0,0,0.04999999999999998,0,0)" xlink:href="#bg"/><use transform="matrix(0.04999999999999998,0,0,0.04999999999999998,11.999999999999996,0)" xlink:href="#bu"/><use transform="matrix(0.04999999999999998,0,0,0.04999999999999998,26.94999999999999,0)" xlink:href="#bd"/><use transform="matrix(0.04999999999999998,0,0,0.04999999999999998,36.94999999999999,0)" xlink:href="#aW"/><use transform="matrix(0.04999999999999998,0,0,0.04999999999999998,40.899999999999984,0)" xlink:href="#bf"/></g><path d="M30 0v-248h33v221h125V0H30" id="bA"/><g id="Q"><use transform="matrix(0.04999999999999998,0,0,0.04999999999999998,0,0)" xlink:href="#bA"/><use transform="matrix(0.04999999999999998,0,0,0.04999999999999998,9.999999999999996,0)" xlink:href="#bj"/><use transform="matrix(0.04999999999999998,0,0,0.04999999999999998,19.999999999999993,0)" xlink:href="#bs"/><use transform="matrix(0.04999999999999998,0,0,0.04999999999999998,29.99999999999999,0)" xlink:href="#aW"/><use transform="matrix(0.04999999999999998,0,0,0.04999999999999998,33.94999999999999,0)" xlink:href="#bm"/></g><g id="R"><use transform="matrix(0.04999999999999998,0,0,0.04999999999999998,0,0)" xlink:href="#bt"/><use transform="matrix(0.04999999999999998,0,0,0.04999999999999998,12.949999999999996,0)" xlink:href="#aQ"/><use transform="matrix(0.04999999999999998,0,0,0.04999999999999998,22.949999999999992,0)" xlink:href="#aY"/><use transform="matrix(0.04999999999999998,0,0,0.04999999999999998,31.94999999999999,0)" xlink:href="#aQ"/><use transform="matrix(0.04999999999999998,0,0,0.04999999999999998,41.94999999999999,0)" xlink:href="#bh"/><use transform="matrix(0.04999999999999998,0,0,0.04999999999999998,51.949999999999996,0)" xlink:href="#bx"/><use transform="matrix(0.04999999999999998,0,0,0.04999999999999998,63.94999999999999,0)" xlink:href="#bd"/><use transform="matrix(0.04999999999999998,0,0,0.04999999999999998,73.94999999999999,0)" xlink:href="#aY"/><use transform="matrix(0.04999999999999998,0,0,0.04999999999999998,82.94999999999999,0)" xlink:href="#aY"/><use transform="matrix(0.04999999999999998,0,0,0.04999999999999998,91.94999999999999,0)" xlink:href="#ba"/><use transform="matrix(0.04999999999999998,0,0,0.04999999999999998,104.89999999999999,0)" xlink:href="#bj"/><use transform="matrix(0.04999999999999998,0,0,0.04999999999999998,114.89999999999998,0)" xlink:href="#aV"/><use transform="matrix(0.04999999999999998,0,0,0.04999999999999998,120.84999999999998,0)" xlink:href="#bh"/></g><g id="S"><use transform="matrix(0.04999999999999998,0,0,0.04999999999999998,0,0)" xlink:href="#bt"/><use transform="matrix(0.04999999999999998,0,0,0.04999999999999998,12.949999999999996,0)" xlink:href="#aQ"/><use transform="matrix(0.04999999999999998,0,0,0.04999999999999998,22.949999999999992,0)" xlink:href="#bs"/><use transform="matrix(0.04999999999999998,0,0,0.04999999999999998,32.94999999999999,0)" xlink:href="#aW"/><use transform="matrix(0.04999999999999998,0,0,0.04999999999999998,36.899999999999984,0)" xlink:href="#aY"/><use transform="matrix(0.04999999999999998,0,0,0.04999999999999998,45.89999999999998,0)" xlink:href="#aU"/><use transform="matrix(0.04999999999999998,0,0,0.04999999999999998,50.89999999999998,0)" xlink:href="#aQ"/><use transform="matrix(0.04999999999999998,0,0,0.04999999999999998,60.89999999999998,0)" xlink:href="#aV"/></g><path d="M197 0v-115H63V0H30v-248h33v105h134v-105h34V0h-34" id="bB"/><g id="T"><use transform="matrix(0.04999999999999998,0,0,0.04999999999999998,0,0)" xlink:href="#bB"/><use transform="matrix(0.04999999999999998,0,0,0.04999999999999998,12.949999999999996,0)" xlink:href="#bj"/><use transform="matrix(0.04999999999999998,0,0,0.04999999999999998,22.949999999999992,0)" xlink:href="#bu"/><use transform="matrix(0.04999999999999998,0,0,0.04999999999999998,37.899999999999984,0)" xlink:href="#aQ"/></g><path d="M179-190L93 31C79 59 56 82 12 73V49c39 6 53-20 64-50L1-190h34L92-34l54-156h33" id="bC"/><g id="U"><use transform="matrix(0.04999999999999998,0,0,0.04999999999999998,0,0)" xlink:href="#bx"/><use transform="matrix(0.04999999999999998,0,0,0.04999999999999998,11.999999999999996,0)" xlink:href="#aV"/><use transform="matrix(0.04999999999999998,0,0,0.04999999999999998,17.949999999999996,0)" xlink:href="#aW"/><use transform="matrix(0.04999999999999998,0,0,0.04999999999999998,21.899999999999995,0)" xlink:href="#bv"/><use transform="matrix(0.04999999999999998,0,0,0.04999999999999998,30.899999999999988,0)" xlink:href="#bd"/><use transform="matrix(0.04999999999999998,0,0,0.04999999999999998,40.89999999999999,0)" xlink:href="#bw"/><use transform="matrix(0.04999999999999998,0,0,0.04999999999999998,49.89999999999999,0)" xlink:href="#bC"/></g><path d="M185-189c-5-48-123-54-124 2 14 75 158 14 163 119 3 78-121 87-175 55-17-10-28-26-33-46l33-7c5 56 141 63 141-1 0-78-155-14-162-118-5-82 145-84 179-34 5 7 8 16 11 25" id="bD"/><g id="V"><use transform="matrix(0.04999999999999998,0,0,0.04999999999999998,0,0)" xlink:href="#bD"/><use transform="matrix(0.04999999999999998,0,0,0.04999999999999998,11.999999999999996,0)" xlink:href="#by"/><use transform="matrix(0.04999999999999998,0,0,0.04999999999999998,21.999999999999993,0)" xlink:href="#bd"/><use transform="matrix(0.04999999999999998,0,0,0.04999999999999998,31.99999999999999,0)" xlink:href="#aV"/><use transform="matrix(0.04999999999999998,0,0,0.04999999999999998,37.94999999999999,0)" xlink:href="#aQ"/><use transform="matrix(0.04999999999999998,0,0,0.04999999999999998,47.94999999999999,0)" xlink:href="#bh"/></g><path d="M-5 72V49h209v23H-5" id="bE"/><g id="W"><use transform="matrix(0.04999999999999998,0,0,0.04999999999999998,0,0)" xlink:href="#bE"/><use transform="matrix(0.04999999999999998,0,0,0.04999999999999998,9.999999999999996,0)" xlink:href="#bA"/><use transform="matrix(0.04999999999999998,0,0,0.04999999999999998,19.999999999999993,0)" xlink:href="#bd"/><use transform="matrix(0.04999999999999998,0,0,0.04999999999999998,29.99999999999999,0)" xlink:href="#bC"/><use transform="matrix(0.04999999999999998,0,0,0.04999999999999998,38.999999999999986,0)" xlink:href="#bj"/><use transform="matrix(0.04999999999999998,0,0,0.04999999999999998,48.999999999999986,0)" xlink:href="#aX"/><use transform="matrix(0.04999999999999998,0,0,0.04999999999999998,58.99999999999999,0)" xlink:href="#aU"/></g><g id="X"><use transform="matrix(0.04999999999999998,0,0,0.04999999999999998,0,0)" xlink:href="#bg"/><use transform="matrix(0.04999999999999998,0,0,0.04999999999999998,11.999999999999996,0)" xlink:href="#aV"/><use transform="matrix(0.04999999999999998,0,0,0.04999999999999998,17.949999999999996,0)" xlink:href="#aV"/><use transform="matrix(0.04999999999999998,0,0,0.04999999999999998,23.89999999999999,0)" xlink:href="#bj"/><use transform="matrix(0.04999999999999998,0,0,0.04999999999999998,33.89999999999999,0)" xlink:href="#aV"/></g><g id="Y"><use transform="matrix(0.04999999999999998,0,0,0.04999999999999998,0,0)" xlink:href="#bE"/><use transform="matrix(0.04999999999999998,0,0,0.04999999999999998,9.999999999999996,0)" xlink:href="#aZ"/><use transform="matrix(0.04999999999999998,0,0,0.04999999999999998,20.64999999999999,0)" xlink:href="#bd"/><use transform="matrix(0.04999999999999998,0,0,0.04999999999999998,30.649999999999988,0)" xlink:href="#bf"/><use transform="matrix(0.04999999999999998,0,0,0.04999999999999998,34.59999999999999,0)" xlink:href="#aW"/><use transform="matrix(0.04999999999999998,0,0,0.04999999999999998,38.54999999999998,0)" xlink:href="#bh"/><use transform="matrix(0.04999999999999998,0,0,0.04999999999999998,48.54999999999998,0)" xlink:href="#bd"/><use transform="matrix(0.04999999999999998,0,0,0.04999999999999998,58.549999999999976,0)" xlink:href="#aU"/><use transform="matrix(0.04999999999999998,0,0,0.04999999999999998,63.54999999999999,0)" xlink:href="#aW"/><use transform="matrix(0.04999999999999998,0,0,0.04999999999999998,67.49999999999999,0)" xlink:href="#bj"/><use transform="matrix(0.04999999999999998,0,0,0.04999999999999998,77.49999999999999,0)" xlink:href="#bm"/></g><g id="Z"><use transform="matrix(0.04999999999999998,0,0,0.04999999999999998,0,0)" xlink:href="#bD"/><use transform="matrix(0.04999999999999998,0,0,0.04999999999999998,11.999999999999996,0)" xlink:href="#bw"/><use transform="matrix(0.04999999999999998,0,0,0.04999999999999998,20.999999999999993,0)" xlink:href="#aV"/><use transform="matrix(0.04999999999999998,0,0,0.04999999999999998,26.94999999999999,0)" xlink:href="#aW"/><use transform="matrix(0.04999999999999998,0,0,0.04999999999999998,30.899999999999988,0)" xlink:href="#aT"/><use transform="matrix(0.04999999999999998,0,0,0.04999999999999998,40.899999999999984,0)" xlink:href="#aU"/><use transform="matrix(0.04999999999999998,0,0,0.04999999999999998,45.899999999999984,0)" xlink:href="#bx"/><use transform="matrix(0.04999999999999998,0,0,0.04999999999999998,57.89999999999998,0)" xlink:href="#bd"/><use transform="matrix(0.04999999999999998,0,0,0.04999999999999998,67.89999999999998,0)" xlink:href="#aV"/><use transform="matrix(0.04999999999999998,0,0,0.04999999999999998,73.84999999999998,0)" xlink:href="#aU"/><use transform="matrix(0.04999999999999998,0,0,0.04999999999999998,78.84999999999998,0)" xlink:href="#aW"/><use transform="matrix(0.04999999999999998,0,0,0.04999999999999998,82.79999999999998,0)" xlink:href="#bd"/><use transform="matrix(0.04999999999999998,0,0,0.04999999999999998,92.79999999999998,0)" xlink:href="#bf"/></g></defs></g></svg>